<svg width="32" height="32" viewBox="0 0 32 32" fill="none" xmlns="http://www.w3.org/2000/svg">
<path fill-rule="evenodd" clip-rule="evenodd" d="M30.2345 0H1.76552C0.790449 0 0 0.790449 0 1.76552V30.2345C0 31.2096 0.790449 32 1.76552 32H17.1034V19.6248H12.9379V14.7807H17.1034V11.2166C17.1034 7.08414 19.6303 4.8331 23.3159 4.8331C24.5578 4.8304 25.7991 4.89301 27.0345 5.02069V9.34069H24.4966C22.4883 9.34069 22.0966 10.2897 22.0966 11.691V14.7752H26.8966L26.2731 19.6193H22.069V32H30.2345C31.2096 32 32 31.2096 32 30.2345V1.76552C32 0.790449 31.2096 0 30.2345 0Z" fill="#4664B4"/>
</svg>
