<svg width="205" height="172" viewBox="0 0 205 172" fill="none" xmlns="http://www.w3.org/2000/svg">
<path d="M63.9379 136.711C68.1151 136.711 71.5426 133.337 71.5426 129.106V81.4426C71.5426 77.2654 68.1687 73.8379 63.9379 73.8379H13.0076C8.83032 73.8379 5.40283 77.2118 5.40283 81.4426V129.106C5.40283 133.283 8.77676 136.711 13.0076 136.711" fill="#FFC01E"/>
<path d="M38.057 95.8418C38.057 95.8418 38.057 96.5476 37.9982 96.8417C37.8217 98.1356 37.1159 101.312 32.293 103.017C31.999 103.135 30.9991 103.429 30.705 103.547C27.9407 104.429 33.9399 107.781 39.1745 108.193C47.7028 108.84 58.466 105.488 52.1728 101.9C49.8789 100.606 43.4092 102.9 43.6445 95.9006H38.057V95.8418Z" fill="#955524"/>
<path d="M37.9264 83.0918V87.6948C37.3581 87.297 36.5057 87.0129 36.392 88.5472C36.2784 90.1384 37.3013 91.1613 37.9264 91.6159V97.6964H42.6999C45.8254 97.6964 48.3826 95.1392 48.3826 92.0137V83.0918H37.9264Z" fill="#955524"/>
<path d="M37.9259 93.7198C37.9259 93.7198 32.0727 89.685 33.4365 85.082C34.8004 80.479 40.0853 81.786 42.1311 79.7971C44.1769 77.8081 49.9165 75.8192 50.5416 82.0133C51.1667 88.2075 48.3821 87.7529 48.3821 87.7529C48.3821 87.7529 45.9385 83.9455 42.1879 84.3433C42.1879 84.3433 40.8809 89.1168 37.9259 87.7529C36.562 87.1278 36.0506 88.2644 36.6757 89.9124C36.9598 90.7648 37.9827 91.3899 37.9259 91.7308C37.8691 92.9242 37.9259 93.7198 37.9259 93.7198Z" fill="#F3F7FA"/>
<path d="M34.5818 83.937C36.9984 83.937 38.9575 81.9779 38.9575 79.5613C38.9575 77.1446 36.9984 75.1855 34.5818 75.1855C32.1651 75.1855 30.2061 77.1446 30.2061 79.5613C30.2061 81.9779 32.1651 83.937 34.5818 83.937Z" fill="#F3F7FA"/>
<path d="M30.4696 103.548L28.6463 104.783C25.1174 107.312 23 111.37 23 115.722L23 123.074H33.5868V136.602H52.8784L54.1135 121.369L55.8192 123.133L62.9359 115.37L58.9952 108.488C57.3484 105.724 54.9369 103.43 52.1138 101.901C52.1138 101.842 42.4092 109.958 30.4696 103.548Z" fill="#F3F7FA"/>
<path d="M53.1728 116.957H39.704C38.8806 116.957 38.1748 117.604 38.1748 118.486V137.19H54.7608L54.6432 118.486C54.6432 117.604 53.9962 116.957 53.1728 116.957Z" fill="#17274E"/>
<path d="M51.526 118.134H41.4097C41.4097 116.84 42.4684 115.781 43.7623 115.781H49.1733C50.4673 115.781 51.526 116.84 51.526 118.134Z" fill="#FFC01E"/>
<path d="M62.936 115.312C62.936 115.312 69.4646 126.193 71.2879 105.255L73.5817 105.078C73.5817 105.078 76.052 142.955 55.8193 123.135L62.936 115.312Z" fill="#955524"/>
<path d="M68.8764 101.312C68.9352 101.018 69.2293 100.9 69.4646 101.077C69.6998 101.253 69.9351 101.547 70.1115 102.194C70.3468 103.547 72.6994 102.371 71.0526 101.195C70.8173 101.018 70.5232 100.959 70.2292 100.959C70.1115 100.959 69.8763 101.018 69.7586 101.018C69.5234 101.077 69.2293 100.9 69.2293 100.665C69.1705 100.077 70.6997 98.7831 72.4642 100.548C72.4642 100.548 72.523 99.3712 73.2288 98.3126C73.6405 97.7244 76.4636 97.3127 75.9343 99.3712C75.4638 101.136 73.5817 104.665 73.6405 105.018C73.6993 105.37 71.3467 105.194 71.3467 105.194C71.3467 105.194 68.2882 103.782 68.8764 101.312Z" fill="#955524"/>
<path d="M23 121.604V129.014C23 129.25 23 129.485 23 129.72C23.4705 138.366 32.1753 143.071 40.5271 140.895C43.9384 140.013 52.4079 136.543 52.4079 136.543L51.8197 133.837L45.4676 133.661C38.8803 133.425 33.6456 132.014 33.5868 125.427V121.604H23Z" fill="#955524"/>
<path d="M55.5253 131.31C55.9958 131.898 54.1137 133.074 54.1137 133.074C54.1137 133.074 55.7605 133.074 56.1722 133.545C56.5839 134.015 56.7604 138.191 56.3487 138.25C52.4668 138.838 49.9966 136.662 49.9966 136.662L50.6436 133.956C50.7024 133.956 55.0547 130.722 55.5253 131.31Z" fill="#955524"/>
<circle cx="9.18987" cy="76.1899" r="6.98479" fill="white"/>
<path d="M8.8229 67C3.95133 67 0 70.9513 0 75.8229C0 80.6945 3.95133 84.6458 8.8229 84.6458C13.6945 84.6458 17.6458 80.6945 17.6458 75.8229C17.6458 70.9513 13.6945 67 8.8229 67ZM13.8882 72.4608C13.7025 72.7716 13.4644 73.0582 13.2465 73.3488C11.515 75.6493 9.77945 77.9499 8.04797 80.2545C7.68472 80.7348 6.99051 80.8075 6.56269 80.3796C5.66264 79.4756 4.7747 78.5674 3.89483 77.6432C3.48718 77.2194 3.52754 76.6382 3.95133 76.2507C4.35494 75.8794 4.94018 75.9077 5.33975 76.3153C5.89673 76.8844 6.45775 77.4575 7.01473 78.0306C7.05913 78.0791 7.09141 78.1396 7.13581 78.2082C7.77351 77.3566 8.37893 76.5494 8.98434 75.7422C10.066 74.2973 11.1477 72.8483 12.2294 71.4034C12.5563 70.9675 13.1213 70.8545 13.5693 71.137C14.0133 71.4114 14.1707 71.9926 13.8882 72.4608Z" fill="#ED5F42"/>
<rect x="65" y="63.1035" width="46.8624" height="56.9699" rx="8.33902" transform="rotate(-90 65 63.1035)" fill="#ED5F42"/>
<path d="M88.6433 24.668L82.709 27.3411C77.844 29.533 76.0262 34.3981 76.0262 39.7443V63.0002H97.4111C97.4111 63.0002 110.67 43.3262 106.767 32.9546C106.767 32.9546 100.512 25.8441 96.5557 25.1491C96.7695 26.5391 95.7003 27.7153 94.3103 27.7153H91.0491C89.9264 27.7153 88.9641 26.9134 88.8037 25.7907L88.6433 24.668Z" fill="#F3F7FA"/>
<path d="M105.965 48.6716C101.475 44.5551 100.726 39.5831 100.726 39.5831C100.726 39.5831 95.1126 25.576 97.9461 26.0037C101.956 26.6453 106.019 32.0984 109.761 36.1081" fill="#F3F7FA"/>
<path d="M109.708 36.11C114.626 41.3493 119.01 44.0759 121.95 29.748L125.051 30.1757C125.051 30.1757 124.73 56.0514 113.824 52.9506C110.403 51.9882 107.837 50.3844 105.912 48.6736L109.708 36.11Z" fill="#955524"/>
<path d="M125.051 30.2817C125.051 30.2817 125.265 29.0521 126.762 27.9294C127.136 27.6621 127.297 27.2344 127.19 26.8067L126.708 24.9355C126.602 24.3474 126.067 23.9197 125.479 23.9197H123.822C123.822 23.9197 122.783 19.293 122.2 24.0531C121.558 29.2924 121.95 29.7471 121.95 29.7471L125.051 30.2817Z" fill="#955524"/>
<path d="M89.98 10.1285C90.2473 10.0216 90.5681 10.182 90.8354 10.4493V8.15043C90.8354 5.3704 93.0808 3.125 95.8608 3.125C98.6408 3.125 100.886 5.3704 100.886 8.15043V15.2256C100.886 15.8136 100.726 16.4017 100.405 16.8829C99.7101 17.8987 98.8928 18.8604 97.2508 18.9473L95.7539 18.9498L96.6627 25.8464C96.8231 26.9156 95.9677 27.8779 94.845 27.8779H92.4927C91.4769 27.8779 90.675 27.0225 90.675 26.0602L90.8354 16.7044V14.9936C90.4077 14.6193 89.98 13.9243 89.7127 13.0689C89.2315 11.6255 89.3384 10.2889 89.98 10.1285Z" fill="#955524"/>
<path d="M101.846 12.4643L99.9128 6.74924L99.5981 13.8979L101.287 13.4832C101.736 13.373 101.994 12.9022 101.846 12.4643Z" fill="#955524"/>
<path d="M99.1082 26.3202C100.487 32.5229 88.5412 40.1035 84.8657 26.3197C89.0006 24.4827 93.3653 23.334 99.1082 26.3202Z" fill="#955524"/>
<path d="M92.4393 11.5697C92.065 11.7835 91.6373 11.6766 91.37 11.3559L90.8354 10.447C90.8354 10.447 89.6058 9.37776 89.4454 11.1955C89.3919 11.6766 89.4989 12.1578 89.6058 12.5855C89.8196 13.3339 90.3008 14.5636 90.8354 14.8843L93.2412 31.4041C93.6154 33.8634 91.6908 36.0553 89.1781 36.0553C86.5585 36.0553 84.6338 33.6495 85.1684 31.0833L88.8039 14.5636C88.8039 14.5636 87.7881 8.30852 88.8039 5.58195C89.5523 3.76425 91.1027 2 94.952 2C99.4428 2 100.682 4.73254 100.682 6.71063L92.4393 11.5697Z" fill="#17274E"/>
<path d="M106.981 57.9742L108.852 47.9233C109.12 46.3729 108.051 44.9294 106.554 44.7156L85.7034 41.9355V58.188L104.362 58.9365C104.308 58.9365 107.088 59.4176 106.981 57.9742Z" fill="#FFC01E"/>
<path d="M76.0263 47.2292V53.9655C76.0263 54.1793 76.0263 54.3932 76.0263 54.607C76.454 62.4659 84.3664 66.7429 91.958 64.7648C95.0588 63.9629 102.757 60.8086 102.757 60.8086L102.223 58.3493L96.4488 58.1355C90.4611 57.9216 85.7029 56.6386 85.6495 50.6508V47.1758H76.0263V47.2292Z" fill="#955524"/>
<path d="M105.698 57.5473C105.698 57.5473 106.981 58.0819 107.248 56.6384C107.248 56.6384 108.371 56.7988 107.783 59.8461C107.195 62.84 102.704 60.8084 102.704 60.8084L102.223 58.4026C102.223 58.3492 108.478 54.3395 105.698 57.5473Z" fill="#955524"/>
<circle cx="115.377" cy="11.3803" r="8.64784" fill="white"/>
<path d="M114.924 0C108.892 0 104 4.89213 104 10.9236C104 16.955 108.892 21.8472 114.924 21.8472C120.955 21.8472 125.847 16.955 125.847 10.9236C125.847 4.89213 120.955 0 114.924 0ZM121.195 6.76103C120.965 7.14581 120.67 7.5006 120.4 7.86039C118.257 10.7087 116.108 13.557 113.964 16.4104C113.514 17.005 112.655 17.095 112.125 16.5653C111.011 15.4459 109.912 14.3216 108.822 13.1773C108.317 12.6526 108.367 11.933 108.892 11.4533C109.392 10.9935 110.116 11.0285 110.611 11.5332C111.301 12.2378 111.995 12.9474 112.685 13.657C112.74 13.7169 112.78 13.7919 112.835 13.8769C113.624 12.8225 114.374 11.8231 115.123 10.8236C116.463 9.0347 117.802 7.24075 119.141 5.4518C119.546 4.91212 120.245 4.7722 120.8 5.12199C121.35 5.46179 121.545 6.18137 121.195 6.76103Z" fill="#FFC01E"/>
<path d="M195.615 89.4138C195.615 83.113 190.502 78 184.201 78H108.798C102.497 78 97.3838 83.113 97.3838 89.4138V159.911C97.3838 166.212 102.497 171.325 108.798 171.325H184.201C190.502 171.325 195.615 166.212 195.615 159.911" fill="white"/>
<path d="M192.155 72C185.444 72 180 77.4436 180 84.155C180 90.8664 185.444 96.31 192.155 96.31C198.866 96.31 204.31 90.8664 204.31 84.155C204.31 77.4436 198.866 72 192.155 72ZM199.133 79.5232C198.878 79.9514 198.549 80.3461 198.249 80.7465C195.864 83.9159 193.473 87.0853 191.087 90.2603C190.587 90.922 189.631 91.0221 189.041 90.4327C187.801 89.1872 186.578 87.9361 185.366 86.6628C184.804 86.0789 184.86 85.2782 185.444 84.7444C186 84.2329 186.806 84.2718 187.356 84.8334C188.124 85.6174 188.897 86.407 189.664 87.1966C189.725 87.2633 189.77 87.3467 189.831 87.4412C190.709 86.268 191.543 85.1559 192.377 84.0438C193.868 82.0532 195.358 80.057 196.848 78.0664C197.298 77.4659 198.077 77.3102 198.694 77.6994C199.306 78.0775 199.523 78.8782 199.133 79.5232Z" fill="#FFC01E"/>
<path d="M160.038 117.217L169.427 121.446C177.124 124.914 180 132.611 180 141.07L180 171.233L131.363 171.233C131.363 171.233 131.363 147.992 131.363 130.328C131.363 130.328 141.26 119.078 147.519 117.978C147.181 120.177 148.873 122.038 151.072 122.038L156.232 122.038C158.008 122.038 159.53 120.769 159.784 118.993L160.038 117.217Z" fill="#F3F7FA"/>
<path d="M126.711 135.318C118.929 143.607 111.993 147.921 107.341 125.252L102.435 125.929C102.435 125.929 102.943 166.868 120.198 161.962C125.612 160.44 129.672 157.902 132.717 155.195L126.711 135.318Z" fill="#EAC7AC"/>
<path d="M161.886 136.412C154.104 144.702 147.168 147.921 142.516 125.252L137.61 125.929C137.61 125.929 138.117 166.868 155.373 161.962C160.786 160.44 164.847 157.902 167.892 155.195L161.886 136.412Z" fill="#EAC7AC"/>
<path d="M102.435 126.097C102.435 126.097 102.097 124.152 99.7281 122.376C99.136 121.953 98.8823 121.276 99.0515 120.599L99.8127 117.639C99.9819 116.708 100.828 116.032 101.758 116.032L104.38 116.032C104.38 116.032 106.024 108.711 106.946 116.243C107.961 124.532 107.341 125.252 107.341 125.252L102.435 126.097Z" fill="#EAC7AC"/>
<path d="M161.426 102.81C160.956 102.663 160.393 102.883 159.923 103.25L159.923 100.095C159.923 96.2793 155.979 93.1975 151.095 93.1975C146.211 93.1975 145.423 89.3823 145.423 93.1979L142.524 109.806C142.524 110.613 142.806 111.42 143.37 112.081C144.591 113.475 145.769 114.794 148.653 114.914L149.337 114.917L147.741 118.929C147.459 120.397 150.907 121.718 152.879 121.718L157.012 121.718C158.796 121.718 160.205 120.544 160.205 119.223L159.923 111.835L159.923 109.487C160.674 108.973 161.426 108.02 161.895 106.846C162.74 104.864 162.553 103.03 161.426 102.81Z" fill="#EAC7AC"/>
<path d="M140.802 103.916L145.266 96.2884L143.56 106.906L141.407 105.881C140.668 105.53 140.389 104.622 140.802 103.916Z" fill="#EAC7AC"/>
<path d="M147.087 118.074C145.603 122.075 158.463 126.965 162.42 118.073C157.969 116.888 153.27 116.147 147.087 118.074Z" fill="#EAC7AC"/>
<path d="M155.298 100.255C155.131 99.1352 154.101 98.3733 152.981 98.5408C152.197 98.658 151.285 98.68 150.322 98.366C146.135 97.1605 140.969 93.2394 141.24 88.1618C141.24 88.1618 141.393 84.5901 146.374 87.2796C146.744 87.4533 146.839 87.3245 146.901 86.9719C146.733 85.8521 147.977 84.9793 148.878 85.646C152.448 88.0884 155.642 94.1361 160.044 91.4172C165.481 87.9711 163.534 110.929 159.884 111.017C157.163 111.195 155.755 104.079 155.298 100.255Z" fill="#FAAE6B"/>
</svg>
