<svg width="211" height="148" viewBox="0 0 211 148" fill="none" xmlns="http://www.w3.org/2000/svg">
<path d="M121.565 146.937H199.18C205.191 146.937 210.064 142.064 210.064 136.053C210.064 134.853 210.064 133.593 210.064 132.294V41.8536C210.064 33.7703 204.852 27.2109 198.429 27.2109H121.565C115.142 27.2109 109.93 33.7703 109.93 41.8536V132.294C109.93 140.377 115.142 146.937 121.565 146.937Z" fill="#ED5F42"/>
<path d="M154.123 71.8828V79.5873C154.123 80.059 154.542 80.4259 154.962 80.3735L156.482 80.2163L154.123 71.8828Z" fill="#EAC7AC"/>
<path d="M170.266 76.0723C170.266 76.0723 171.157 82.0996 173.777 88.5987L163.504 88.4939C163.504 88.4939 163.504 87.5504 163.504 83.672L170.266 76.0723Z" fill="#EAC7AC"/>
<path d="M169.06 82.6264L164.186 83.9891C160.726 84.9325 157.162 82.9409 156.219 79.4817L152.76 67.0077L166.492 63.1816L170.947 79.272C171.366 80.7396 170.527 82.2595 169.06 82.6264Z" fill="#EAC7AC"/>
<path d="M170.215 76.3895C170.215 76.3895 162.877 76.2847 160.728 67.2699C160.728 67.2699 146.42 77.3329 145.634 68.8946C144.9 60.4039 154.02 63.9155 154.02 63.9155C154.02 63.9155 151.976 58.7792 157.741 62.0287C163.506 65.2782 172.311 58.0454 171.473 63.7583C170.634 69.4712 175.509 73.6117 170.215 76.3895Z" fill="#FAAE6B"/>
<path d="M192.07 99.0336C187.3 91.067 178.338 86.5072 169.113 87.241C169.113 87.241 161.147 85.6162 149.406 97.9854C146.366 101.183 141.911 113.866 141.911 113.866L149.144 117.43L141.649 147.724H193.956C203.81 127.022 198.516 109.726 192.07 99.0336Z" fill="white"/>
<path d="M177.813 115.542C174 121.5 163.883 120.731 161 116.591C160.214 115.437 151.24 104.903 147.572 97.9844L143.483 100.29C143.483 100.29 148.725 114.232 154.333 127.073C171.262 160.564 192.279 116.591 192.279 116.591L177.813 115.542Z" fill="#EAC7AC"/>
<path d="M147.572 98.1907L147.468 96.5659C147.31 94.3122 146.472 92.1633 145.057 90.3813C143.013 87.8656 140.392 84.7209 138.767 83.8823C138.4 83.6726 138.033 84.0919 138.191 84.4588L141.178 90.2765C141.231 90.3813 141.231 90.5386 141.178 90.6434L138.924 95.2032C138.138 96.7756 138.82 98.6624 140.392 99.3961L143.589 100.916C143.746 100.968 143.904 100.968 144.008 100.864L147.363 98.5051C147.52 98.4527 147.572 98.2955 147.572 98.1907Z" fill="#EAC7AC"/>
<path d="M141.91 113.865L133.367 147.723H145.369C145.369 147.723 147.361 128.121 149.143 117.429L141.91 113.865Z" fill="#EAC7AC"/>
<path d="M163.505 88.0246C163.505 88.0246 159.941 98.5594 173.254 87.2385C173.306 87.2385 167.698 86.033 163.505 88.0246Z" fill="#EAC7AC"/>
<path d="M137.457 145.524L130.329 121.624C129.909 120.262 128.651 119.318 127.236 119.318H90.3384C88.2944 119.318 86.722 121.205 87.1413 123.197L91.7012 145.105C92.0156 146.625 93.3783 147.726 94.8983 147.726H138.138H152.918V145.524H137.457Z" fill="#7B91A5"/>
<path d="M158.422 81.8442C159.051 81.7394 160.152 81.2677 160.256 79.9574C160.256 79.8001 160.152 79.6953 160.047 79.6953C159.89 79.6953 159.785 79.8001 159.785 79.905C159.68 81.1104 158.474 81.3201 158.422 81.3201C158.265 81.3201 158.16 81.4773 158.212 81.6345C158.16 81.7394 158.265 81.8442 158.422 81.8442Z" fill="#34193C"/>
<path d="M119.813 71.7517H8.17624C3.66882 71.7517 0 68.0829 0 63.5755V8.17624C0 3.66882 3.66882 0 8.17624 0H119.761C124.268 0 127.937 3.66882 127.937 8.17624V63.5231C127.99 68.0829 124.321 71.7517 119.813 71.7517Z" fill="white"/>
<path d="M104.039 14.3088H44.2892C43.3457 14.3088 42.5596 13.5226 42.5596 12.5792C42.5596 11.6358 43.3457 10.8496 44.2892 10.8496H103.986C104.93 10.8496 105.716 11.6358 105.716 12.5792C105.768 13.5226 104.982 14.3088 104.039 14.3088Z" fill="#EDEFF0"/>
<path d="M89.7302 22.0686H44.2892C43.3457 22.0686 42.5596 21.2824 42.5596 20.339C42.5596 19.3956 43.3457 18.6094 44.2892 18.6094H89.7302C90.6736 18.6094 91.4597 19.3956 91.4597 20.339C91.4597 21.2824 90.6736 22.0686 89.7302 22.0686Z" fill="#EDEFF0"/>
<path d="M74.2163 50.2658H44.2892C43.3457 50.2658 42.5596 49.4796 42.5596 48.5362C42.5596 47.5928 43.3457 46.8066 44.2892 46.8066H74.2163C75.1597 46.8066 75.9459 47.5928 75.9459 48.5362C75.9459 49.4796 75.1597 50.2658 74.2163 50.2658Z" fill="#EDEFF0"/>
<path d="M108.336 58.0197H44.2892C43.3457 58.0197 42.5596 57.2335 42.5596 56.2901C42.5596 55.3467 43.3457 54.5605 44.2892 54.5605H108.336C109.28 54.5605 110.066 55.3467 110.066 56.2901C110.066 57.2335 109.332 58.0197 108.336 58.0197Z" fill="#EDEFF0"/>
<path d="M22.4329 30.3464C28.9748 30.3464 34.278 25.0432 34.278 18.5013C34.278 11.9595 28.9748 6.65625 22.4329 6.65625C15.8911 6.65625 10.5879 11.9595 10.5879 18.5013C10.5879 25.0432 15.8911 30.3464 22.4329 30.3464Z" fill="#FFC01E"/>
<path d="M23.831 19.5279C25.1527 19.3663 26.0447 17.7679 25.8233 15.9578C25.6019 14.1476 24.351 12.8113 23.0293 12.9729C21.7077 13.1346 20.8157 14.733 21.0371 16.5431C21.2585 18.3532 22.5094 19.6896 23.831 19.5279Z" fill="#955524"/>
<path d="M22.7474 19.1313C22.0136 18.8693 20.284 15.6722 23.2715 15.5149C24.739 15.4625 24.1101 14.1522 24.6342 14.1522C25.8397 14.0998 25.7348 15.9866 25.8397 15.0956C25.9969 13.3136 22.0136 10.1689 17.9255 15.3577C14.3615 19.8651 13.8374 18.45 10.3782 19.603C6.91901 20.7561 7.3383 23.6912 9.06789 25.3159C11.1119 27.2552 18.3972 29.0372 22.4853 20.9133C22.4329 20.8609 23.586 19.4458 22.7474 19.1313Z" fill="#34193C"/>
<path d="M28.1984 28.9323C28.3033 26.0497 27.6219 22.8001 26.6785 21.5947C24.7917 19.2885 21.647 19.8127 20.2843 21.8043C19.3408 23.1146 18.974 27.4648 18.8691 29.8233C18.8691 29.8233 21.3325 30.5047 23.429 30.295C26.5737 29.9805 28.146 28.8799 28.1984 28.9323Z" fill="#EAECED"/>
<path d="M25.7371 43.7656C25.6837 44.0326 25.7371 43.7656 25.7371 43.7656V43.7656Z" fill="#2B8097"/>
<path d="M24.845 19.1309C24.845 19.1309 24.583 20.1791 25.3167 20.4412C25.3167 20.4412 23.5871 24.11 22.4341 20.3363C22.4341 20.3363 23.1678 19.4977 22.6961 19.1309H24.845Z" fill="#955524"/>
<path d="M22.4329 63.6823C28.9748 63.6823 34.278 58.3791 34.278 51.8372C34.278 45.2954 28.9748 39.9922 22.4329 39.9922C15.8911 39.9922 10.5879 45.2954 10.5879 51.8372C10.5879 58.3791 15.8911 63.6823 22.4329 63.6823Z" fill="#ED5F42"/>
<path d="M22.8322 52.7006C24.4412 52.5039 25.5661 50.8769 25.3447 49.0668C25.1233 47.2567 23.6395 45.9488 22.0305 46.1456C20.4215 46.3424 19.2967 47.9693 19.518 49.7795C19.7394 51.5896 21.2232 52.8974 22.8322 52.7006Z" fill="#EAC7AC"/>
<path d="M20.3885 51.1054C20.3885 51.1054 22.485 50.2144 22.0657 47.3317C22.0657 47.3317 27.4117 48.5896 26.6255 46.0214C25.8394 43.5057 23.5857 45.6021 23.5857 45.6021C23.5857 45.6021 23.5857 43.8725 22.2754 45.4973C20.9651 47.1221 17.5583 46.0738 18.5017 47.5938C19.4451 49.1661 18.5017 50.9481 20.3885 51.1054Z" fill="#FAAE6B"/>
<path d="M29.876 61.0592C30.2953 52.6209 20.4419 52.3064 16.7206 55.2939C15.0435 56.6042 14.9911 58.6483 14.8862 61.0068C14.8862 61.0068 17.9261 63.6798 22.4335 63.6798C27.203 63.7322 29.7188 61.0068 29.876 61.0592Z" fill="white"/>
<path d="M26.3651 77.0469C26.3115 77.2614 26.3651 77.0469 26.3651 77.0469V77.0469Z" fill="#2B8097"/>
<path d="M23.7957 52.3633C23.7957 52.3633 23.4813 53.4115 24.3723 53.6736C24.3723 53.6736 22.2758 57.3424 20.9131 53.5687C20.9131 53.5687 21.7517 52.7302 21.2276 52.3633H23.7957Z" fill="#EAC7AC"/>
</svg>
