<svg width="96" height="96" viewBox="0 0 96 96" fill="none" xmlns="http://www.w3.org/2000/svg">
<circle cx="48" cy="48" r="48" fill="#FFBE16" fill-opacity="0.2"/>
<path d="M64.2904 45.6729H61.9631C59.3915 45.6729 57.3086 43.59 57.3086 41.0183V31.7092C57.3086 29.1376 59.3915 27.0547 61.9631 27.0547H64.2904C66.862 27.0547 68.945 29.1376 68.945 31.7092V41.0183C68.945 43.59 66.862 45.6729 64.2904 45.6729Z" fill="url(#paint0_linear)"/>
<path d="M29.3821 45.6729H31.7094C34.281 45.6729 36.3639 43.59 36.3639 41.0183V31.7092C36.3639 29.1376 34.281 27.0547 31.7094 27.0547H29.3821C26.8104 27.0547 24.7275 29.1376 24.7275 31.7092V41.0183C24.7275 43.59 26.8104 45.6729 29.3821 45.6729Z" fill="url(#paint1_linear)"/>
<path d="M64.2904 50.3262H61.9631C59.3915 50.3262 57.3086 52.4091 57.3086 54.9807V64.2898C57.3086 66.8614 59.3915 68.9444 61.9631 68.9444H64.2904C66.862 68.9444 68.945 66.8614 68.945 64.2898V54.9807C68.945 52.4091 66.862 50.3262 64.2904 50.3262Z" fill="#17274E"/>
<path d="M29.3821 50.3262H31.7094C34.281 50.3262 36.3639 52.4091 36.3639 54.9807V64.2898C36.3639 66.8614 34.281 68.9444 31.7094 68.9444H29.3821C26.8104 68.9444 24.7275 66.8614 24.7275 64.2898V54.9807C24.7275 52.4091 26.8104 50.3262 29.3821 50.3262Z" fill="#17274E"/>
<path d="M48.0004 45.6729H45.6731C43.1015 45.6729 41.0186 43.59 41.0186 41.0183V31.7092C41.0186 29.1376 43.1015 27.0547 45.6731 27.0547H48.0004C50.572 27.0547 52.6549 29.1376 52.6549 31.7092V41.0183C52.6549 43.59 50.572 45.6729 48.0004 45.6729Z" fill="#17274E"/>
<path d="M48.0004 68.9444H45.6731C43.1015 68.9444 41.0186 66.8614 41.0186 64.2898V54.9807C41.0186 52.4091 43.1015 50.3262 45.6731 50.3262H48.0004C50.572 50.3262 52.6549 52.4091 52.6549 54.9807V64.2898C52.6549 66.8614 50.572 68.9444 48.0004 68.9444Z" fill="url(#paint2_linear)"/>
<defs>
<linearGradient id="paint0_linear" x1="63.1268" y1="27.0547" x2="63.1268" y2="45.6729" gradientUnits="userSpaceOnUse">
<stop stop-color="#FFBE16"/>
<stop offset="1" stop-color="#FF7A00"/>
</linearGradient>
<linearGradient id="paint1_linear" x1="30.5457" y1="27.0547" x2="30.5457" y2="45.6729" gradientUnits="userSpaceOnUse">
<stop stop-color="#FFBE16"/>
<stop offset="1" stop-color="#FF7A00"/>
</linearGradient>
<linearGradient id="paint2_linear" x1="46.8367" y1="50.3262" x2="46.8367" y2="68.9444" gradientUnits="userSpaceOnUse">
<stop stop-color="#FFBE16"/>
<stop offset="1" stop-color="#FF7A00"/>
</linearGradient>
</defs>
</svg>
