<svg width="31" height="36" viewBox="0 0 31 36" fill="none" xmlns="http://www.w3.org/2000/svg">
<path d="M19.4468 21.634C19.4468 22.618 19.1228 23.428 18.4748 24.064C17.8268 24.7 16.9868 25.078 15.9548 25.198V26.8H14.8208V25.216C13.8368 25.144 12.9968 24.874 12.3008 24.406C11.6168 23.938 11.1188 23.308 10.8068 22.516L12.2468 21.688C12.6548 22.804 13.5128 23.434 14.8208 23.578V19.222C14.2808 19.03 13.8428 18.856 13.5068 18.7C13.1828 18.532 12.8408 18.31 12.4808 18.034C12.1208 17.758 11.8508 17.422 11.6708 17.026C11.5028 16.618 11.4188 16.15 11.4188 15.622C11.4188 14.65 11.7428 13.858 12.3908 13.246C13.0388 12.634 13.8488 12.28 14.8208 12.184V10.6H15.9548V12.202C16.6748 12.298 17.3168 12.55 17.8808 12.958C18.4448 13.366 18.8828 13.918 19.1948 14.614L17.7908 15.406C17.4428 14.53 16.8308 14.008 15.9548 13.84V17.98C16.5068 18.184 16.9448 18.364 17.2688 18.52C17.5928 18.676 17.9468 18.898 18.3308 19.186C18.7148 19.462 18.9968 19.804 19.1768 20.212C19.3568 20.62 19.4468 21.094 19.4468 21.634ZM13.0748 15.622C13.0748 16.078 13.2128 16.45 13.4888 16.738C13.7648 17.026 14.2088 17.296 14.8208 17.548V13.822C14.2928 13.894 13.8668 14.092 13.5428 14.416C13.2308 14.728 13.0748 15.13 13.0748 15.622ZM15.9548 23.542C16.5308 23.458 16.9748 23.248 17.2868 22.912C17.6108 22.564 17.7728 22.144 17.7728 21.652C17.7728 21.16 17.6228 20.77 17.3228 20.482C17.0348 20.182 16.5788 19.9 15.9548 19.636V23.542Z" fill="white"/>
<path d="M1.00103 34.0096C1.00047 34.5619 1.4479 35 2.00019 35C11.583 35 19.4699 35 28.9998 35C29.5521 35 30 34.5619 29.9999 34.0096C29.9996 30.2766 29.9972 16.7519 29.9801 6.40322C29.9801 6.40322 27.092 2.23589 26.9924 2.1376C26.0563 3.08115 25.1202 3.98538 24.1044 5.00756C23.1484 4.02469 22.2321 3.08115 21.1964 2C20.2404 3.00252 19.3441 3.94606 18.3681 4.96824C17.3922 4.00504 16.476 3.1008 15.4403 2.07863C14.544 3.02218 13.6278 3.96572 12.6518 4.96824C11.6758 4.00504 10.7596 3.08114 9.74382 2.05897C8.82761 3.04183 7.9114 4.00503 6.97528 5.00755C5.9794 4.02469 5.04327 3.1008 4.06731 2.1376C2.8125 3.376 1 6.61945 1 6.61945C1.01709 16.8571 1.00485 30.2896 1.00103 34.0096Z" stroke="white" stroke-width="1.5" stroke-miterlimit="10"/>
</svg>
