<svg width="39" height="36" viewBox="0 0 39 36" fill="none" xmlns="http://www.w3.org/2000/svg">
<path d="M12.9948 20.3556C11.1168 18.7367 10.1239 16.4054 10.1239 13.6208C10.1239 13.4049 10.2965 13.2322 10.5124 13.2322H18.3697V1.0793C18.3697 0.483221 17.8865 0 17.2904 0H1.0793C0.483219 0 0 0.48322 0 1.0793V27.8028C0 28.3989 0.48322 28.8821 1.0793 28.8821H11.419L16.5272 33.9904C17.2072 34.6703 18.3697 34.1887 18.3697 33.2272V28.8821V22.579C16.3406 22.4063 14.4411 21.6292 12.9948 20.3556ZM13.5129 8.15952C14.29 8.15952 14.916 8.78552 14.916 9.56262C14.916 10.3397 14.29 10.9657 13.5129 10.9657C12.7358 10.9657 12.1098 10.3397 12.1098 9.56262C12.1098 8.78552 12.7358 8.15952 13.5129 8.15952Z" fill="white"/>
<path d="M21.7303 0C21.1342 0 20.651 0.48322 20.651 1.0793V13.2322H28.3356C28.5515 13.2322 28.7242 13.4049 28.7242 13.6208C28.7242 16.3838 27.7312 18.7151 25.8532 20.3556C24.4501 21.586 22.6153 22.3416 20.6294 22.5574V28.8821V33.2272C20.6294 34.1887 21.792 34.6703 22.4719 33.9904L27.5801 28.8821H37.9198C38.5159 28.8821 38.9991 28.3989 38.9991 27.8028V1.0793C38.9991 0.48322 38.5159 0 37.9198 0H21.7303ZM25.5294 10.9657C24.7523 10.9657 24.1263 10.3397 24.1263 9.56262C24.1263 8.78552 24.7523 8.15953 25.5294 8.15953C26.3065 8.15953 26.9325 8.78552 26.9325 9.56262C26.9325 10.3397 26.3065 10.9657 25.5294 10.9657Z" fill="white"/>
</svg>
