<svg width="33" height="44" viewBox="0 0 33 44" fill="none" xmlns="http://www.w3.org/2000/svg">
<path d="M12.5332 18.8044C12.5332 20.9385 14.3279 22.6752 16.5332 22.6752C18.7385 22.6752 20.5332 20.9385 20.5332 18.8044C20.5332 16.6703 18.7385 14.9336 16.5332 14.9336C14.3279 14.9336 12.5332 16.6703 12.5332 18.8044ZM23.6443 31.2771H24.5332V30.4169C24.5332 27.0975 21.7412 24.3956 18.311 24.3956H14.7554C11.3243 24.3956 8.5332 27.0975 8.5332 30.4169V31.2771H23.6443Z" fill="#17274E"/>
<path d="M2.3468 0C1.89417 0 1.46007 0.179809 1.14001 0.499871C0.819946 0.819933 0.640137 1.25403 0.640137 1.70667C0.640137 2.1593 0.819946 2.5934 1.14001 2.91346C1.46007 3.23352 1.89417 3.41333 2.3468 3.41333C2.79944 3.41333 3.23354 3.23352 3.5536 2.91346C3.87366 2.5934 4.05347 2.1593 4.05347 1.70667C4.05347 1.25403 3.87366 0.819933 3.5536 0.499871C3.23354 0.179809 2.79944 0 2.3468 0ZM9.17347 0C8.72083 0 8.28674 0.179809 7.96668 0.499871C7.64661 0.819933 7.4668 1.25403 7.4668 1.70667C7.4668 2.1593 7.64661 2.5934 7.96668 2.91346C8.28674 3.23352 8.72083 3.41333 9.17347 3.41333C9.62611 3.41333 10.0602 3.23352 10.3803 2.91346C10.7003 2.5934 10.8801 2.1593 10.8801 1.70667C10.8801 1.25403 10.7003 0.819933 10.3803 0.499871C10.0602 0.179809 9.62611 0 9.17347 0ZM16.0001 0C15.5475 0 15.1134 0.179809 14.7933 0.499871C14.4733 0.819933 14.2935 1.25403 14.2935 1.70667C14.2935 2.1593 14.4733 2.5934 14.7933 2.91346C15.1134 3.23352 15.5475 3.41333 16.0001 3.41333C16.4528 3.41333 16.8869 3.23352 17.2069 2.91346C17.527 2.5934 17.7068 2.1593 17.7068 1.70667C17.7068 1.25403 17.527 0.819933 17.2069 0.499871C16.8869 0.179809 16.4528 0 16.0001 0ZM22.8268 0C22.3742 0 21.9401 0.179809 21.62 0.499871C21.2999 0.819933 21.1201 1.25403 21.1201 1.70667C21.1201 2.1593 21.2999 2.5934 21.62 2.91346C21.9401 3.23352 22.3742 3.41333 22.8268 3.41333C23.2794 3.41333 23.7135 3.23352 24.0336 2.91346C24.3537 2.5934 24.5335 2.1593 24.5335 1.70667C24.5335 1.25403 24.3537 0.819933 24.0336 0.499871C23.7135 0.179809 23.2794 0 22.8268 0ZM29.6535 0C29.2008 0 28.7667 0.179809 28.4467 0.499871C28.1266 0.819933 27.9468 1.25403 27.9468 1.70667C27.9468 2.1593 28.1266 2.5934 28.4467 2.91346C28.7667 3.23352 29.2008 3.41333 29.6535 3.41333C30.1061 3.41333 30.5402 3.23352 30.8603 2.91346C31.1803 2.5934 31.3601 2.1593 31.3601 1.70667C31.3601 1.25403 31.1803 0.819933 30.8603 0.499871C30.5402 0.179809 30.1061 0 29.6535 0Z" fill="#17274E"/>
<circle cx="16" cy="23.4668" r="15.15" stroke="#17274E" stroke-width="1.7"/>
<line x1="26.2952" y1="36.2676" x2="30.9335" y2="40.9058" stroke="#17274E" stroke-width="4" stroke-linecap="round"/>
</svg>
