<svg width="20" height="23" viewBox="0 0 20 23" xmlns="http://www.w3.org/2000/svg">
<path d="M5.81715 0.799999C7.36715 0.378571 9.01429 0 10 0C10.9857 0 12.6329 0.378571 14.1829 0.799999C15.7686 1.22857 17.3671 1.73571 18.3071 2.04286C18.7001 2.17264 19.0486 2.41066 19.3124 2.72957C19.5762 3.04848 19.7447 3.43534 19.7986 3.84571C20.65 10.2414 18.6743 14.9814 16.2771 18.1171C15.2606 19.4585 14.0486 20.6398 12.6814 21.6214C12.2087 21.9611 11.7078 22.2598 11.1843 22.5143C10.7843 22.7028 10.3543 22.8571 10 22.8571C9.64571 22.8571 9.21714 22.7028 8.81572 22.5143C8.29216 22.2598 7.7913 21.9611 7.31857 21.6214C5.95147 20.6397 4.73941 19.4585 3.72286 18.1171C1.32572 14.9814 -0.649992 10.2414 0.201436 3.84571C0.255275 3.43534 0.423783 3.04848 0.687603 2.72957C0.951422 2.41066 1.29985 2.17264 1.69286 2.04286C3.05742 1.59544 4.43258 1.18103 5.81715 0.799999Z" fill="#BAC9D7"/>
<path d="M7.32293 12.6745L4.34597 10.9027L7.32282 9.14082L7.32299 9.14072C7.50741 9.03059 7.60062 8.86278 7.60062 8.64407C7.60062 8.53925 7.57786 8.44601 7.53022 8.36634C7.48265 8.2868 7.41206 8.2238 7.32102 8.17655C7.1367 8.07408 6.94354 8.07507 6.74763 8.17617L6.74758 8.17608L6.74487 8.1777L3.00663 10.4161L3.00657 10.4159L3.00364 10.418C2.81201 10.5522 2.70879 10.7172 2.70879 10.9127C2.70879 11.1269 2.81063 11.2966 3.00577 11.4188L3.00576 11.4189L3.00672 11.4194L6.74456 13.6475C6.86245 13.7207 6.98937 13.7469 7.12318 13.7247L7.1232 13.7247L7.1258 13.7241C7.25677 13.6952 7.36722 13.6332 7.45548 13.538C7.55234 13.4342 7.60062 13.3076 7.60062 13.1611C7.60062 12.9545 7.50637 12.7913 7.32422 12.6753L7.32423 12.6753L7.32293 12.6745ZM8.20118 14.9626L8.20149 14.9631C8.31229 15.1322 8.47344 15.2176 8.67893 15.2176C8.78193 15.2176 8.88096 15.1919 8.97542 15.1414C9.0818 15.0883 9.15719 15.0009 9.20167 14.8832C9.20173 14.8831 9.2018 14.8829 9.20187 14.8827L12.2508 7.29146L12.2508 7.29147L12.2511 7.29063C12.3302 7.08327 12.3141 6.89665 12.1943 6.73936C12.0839 6.57892 11.9305 6.49687 11.7384 6.49687C11.6277 6.49687 11.5242 6.52639 11.4286 6.5849C11.3321 6.64404 11.261 6.72594 11.2163 6.82957L11.2159 6.83072L8.16665 14.4227C8.16662 14.4227 8.1666 14.4228 8.16658 14.4228C8.08704 14.6173 8.09677 14.7993 8.20118 14.9626ZM13.2194 13.7241L13.2193 13.7242L13.222 13.7247C13.3558 13.7469 13.4827 13.7207 13.6006 13.6475C13.6007 13.6474 13.6009 13.6473 13.601 13.6472L17.3384 11.4194L17.3385 11.4194L17.3394 11.4188C17.5345 11.2966 17.6364 11.1269 17.6364 10.9127C17.6364 10.7172 17.5332 10.5522 17.3415 10.418L17.3416 10.4179L17.3385 10.4161L13.6003 8.1777L13.6003 8.17762L13.5975 8.17617C13.4016 8.07507 13.2085 8.07408 13.0241 8.17655C12.9331 8.2238 12.8625 8.2868 12.8149 8.36634C12.7673 8.44601 12.7445 8.53925 12.7445 8.64407C12.7445 8.86278 12.8378 9.03059 13.0222 9.14072L13.0223 9.14082L15.9992 10.9027L13.0222 12.6745L13.0222 12.6745L13.0209 12.6753C12.8388 12.7913 12.7445 12.9545 12.7445 13.1611C12.7445 13.3065 12.7887 13.4326 12.8782 13.5366L12.8781 13.5366L12.8808 13.5394C12.9754 13.6335 13.0886 13.6952 13.2194 13.7241Z" fill="#5B718D" stroke="#5B718D" stroke-width="0.1"/>
</svg>
