<svg width="14" height="25" viewBox="0 0 14 25" fill="none" xmlns="http://www.w3.org/2000/svg">
<path d="M11.4012 23.5188C11.4033 24.1124 10.9224 24.5945 10.3288 24.5939L3.66393 24.5872C3.06973 24.5866 2.58952 24.1025 2.59371 23.5083L2.59639 23.1277C2.60053 22.539 3.07895 22.0639 3.66769 22.0639L10.3285 22.0639C10.9188 22.0639 11.3978 22.5413 11.3999 23.1315L11.4012 23.5188ZM8.07117 0.663975C7.91582 0.361828 7.45899 0.475942 7.46397 0.815647L7.6128 10.9626C7.97692 11.1491 8.26111 11.5576 8.26111 12.0194C8.26111 12.7121 7.69272 13.2805 7 13.2805C6.2984 13.2717 5.73889 12.7121 5.73889 12.0194C5.73889 11.5576 6.02309 11.1491 6.38721 10.9626L6.53603 0.815647C6.54102 0.475939 6.08418 0.361827 5.92884 0.663973L0.478219 11.2654C0.229161 11.7498 0.173943 12.3109 0.323791 12.8346L2.38189 20.027C2.51333 20.4863 2.93303 20.8031 3.4108 20.8036L10.5792 20.8109C11.0575 20.8113 11.4782 20.4947 11.6101 20.0349L13.6754 12.8352C13.8258 12.3112 13.7707 11.7495 13.5214 11.2647L8.07117 0.663975Z" fill="#BAC9D7"/>
<circle cx="6.97973" cy="11.99535" r="0.74614" fill="#5B718D"/>
</svg>