<svg width="107" height="45" viewBox="0 0 107 45" fill="none" xmlns="http://www.w3.org/2000/svg">
<path d="M4.79988 21.6478L6.40859 20.0391C6.5135 19.9342 6.56596 19.803 6.56596 19.6631V17.39C6.56596 17.2413 6.5135 17.1102 6.40859 17.014L4.79988 15.3878C4.69497 15.2829 4.56382 15.2305 4.42394 15.2305H2.15077C2.00214 15.2305 1.87099 15.2829 1.77482 15.3878L0.157373 17.0053C0.0524577 17.1102 0 17.2413 0 17.3812V19.6544C0 19.803 0.0524577 19.9342 0.157373 20.0304L1.76608 21.6565C1.87099 21.7615 2.00214 21.8139 2.14202 21.8139H4.41519C4.56382 21.8052 4.70371 21.7527 4.79988 21.6478Z" fill="#17274E"/>
<path d="M21.0882 0.262069C20.4674 0.262069 20.0478 0.262069 19.9866 0.262069C17.5036 0.244583 15.5539 0.882819 14.1813 2.15055C12.6512 3.57565 11.8819 5.66522 11.8819 8.36679L11.8469 38.4513C11.8469 39.1595 11.6895 39.6666 11.401 39.9551C11.1475 40.1912 10.7802 40.3485 10.2906 40.4097H3.646V44.9561H8.87428C9.224 44.9735 9.58246 44.991 9.9147 44.991C11.8906 44.991 13.4031 44.6413 14.4435 43.9331C15.9298 42.9364 16.673 41.0829 16.673 38.4513V20.2922H28.0913V15.6846H16.6293V8.37553C16.6293 7.169 16.9178 6.26848 17.5036 5.69144C18.0719 5.1319 18.9549 4.85212 20.1177 4.86086C20.1702 4.86086 20.5636 4.86086 21.1669 4.86086C23.0554 4.86086 28.0913 4.87835 28.3448 4.89584L28.6858 4.93081V0.29704L28.3973 0.279554C28.1787 0.270811 24.7515 0.270811 21.0882 0.262069Z" fill="#17274E"/>
<path d="M35.0679 16.4891C35.3564 14.9503 36.0559 13.7438 37.1225 12.852C38.2066 11.9602 39.5443 11.5231 41.1618 11.5231C42.5869 11.5231 43.8284 11.9427 44.9037 12.782C45.9616 13.6126 46.6523 14.8629 46.9409 16.5065H35.0679V16.4891ZM41.2055 7.5625C38.0755 7.5625 35.5225 8.58543 33.5292 10.6138C31.5358 12.6509 30.5391 15.1776 30.5391 18.1939C30.5391 21.2627 31.5445 23.8069 33.5729 25.8178C35.5838 27.8287 38.2504 28.8341 41.529 28.8341C45.4371 28.8341 48.3834 27.3653 50.3681 24.4277L46.7747 22.3294C45.6207 24.008 43.8808 24.8386 41.5727 24.8386C39.9028 24.8386 38.4864 24.4364 37.3323 23.5971C36.1783 22.7752 35.4351 21.6037 35.1116 20.0649H51.1812C51.2861 19.3043 51.3473 18.701 51.3473 18.2464C51.3473 15.2825 50.4031 12.7646 48.4971 10.6837C46.5999 8.60291 44.1693 7.5625 41.2055 7.5625Z" fill="#17274E"/>
<path d="M60.1254 2.42188L55.7626 3.70709V8.07857H52.0469V12.2839H55.7626V21.9886C55.7626 24.629 56.4883 26.4388 57.9484 27.4267C59.3997 28.4147 61.804 28.6945 65.1351 28.301V24.3842C64.0335 24.4366 63.1067 24.4454 62.3723 24.4017C61.6379 24.358 61.0696 24.1656 60.7024 23.7984C60.3352 23.4312 60.1429 22.8279 60.1429 21.9974V12.2927H65.1351V8.07857H60.1254V2.42188Z" fill="#17274E"/>
<path d="M80.1029 23.6934C79.1499 24.253 78.0745 24.5502 76.8942 24.5502C75.1194 24.5502 73.6331 23.947 72.4266 22.7317C71.2288 21.5164 70.6255 20.0039 70.6255 18.2116C70.6255 16.4018 71.2288 14.898 72.4266 13.6915C73.6244 12.4762 75.1194 11.873 76.8942 11.873C78.1095 11.873 79.1761 12.1527 80.1029 12.7035C81.0296 13.2543 81.7203 14.015 82.1837 14.9942L85.9432 12.8085C85.1301 11.2172 83.9323 9.94951 82.3061 9.01401C80.6974 8.06978 78.8964 7.59766 76.9379 7.59766C73.8954 7.59766 71.3599 8.62058 69.3228 10.6489C67.2857 12.6861 66.2803 15.2128 66.2803 18.2291C66.2803 21.2279 67.2945 23.7372 69.3228 25.7917C71.3599 27.8376 73.8954 28.8605 76.9379 28.8605C78.9051 28.8605 80.6974 28.3884 82.3061 27.4442C83.9148 26.4999 85.1651 25.2147 86.0219 23.606L82.2624 21.4465C81.7728 22.3733 81.0559 23.1251 80.1029 23.6934Z" fill="#17274E"/>
<path d="M104.504 9.78337C103.079 8.30581 101.208 7.55392 98.8912 7.55392C96.0323 7.55392 93.9427 8.59433 92.6313 10.6664V0H88.2686V28.301H92.6313V17.4597C92.6313 15.4925 93.0947 14.0237 94.0476 13.0707C95.0006 12.1177 96.2334 11.6369 97.7634 11.6369C99.1623 11.6369 100.264 12.0391 101.077 12.8521C101.89 13.6652 102.292 14.8193 102.292 16.3231V28.2922H106.655V15.8947C106.646 13.298 105.938 11.2609 104.504 9.78337Z" fill="#17274E"/>
</svg>
