<svg width="76" height="33" viewBox="0 0 76 33" fill="none" xmlns="http://www.w3.org/2000/svg">
<path d="M3.42028 15.4244L4.5666 14.2781C4.64136 14.2033 4.67874 14.1099 4.67874 14.0102V12.3904C4.67874 12.2845 4.64136 12.191 4.5666 12.1225L3.42028 10.9637C3.34552 10.8889 3.25207 10.8516 3.15239 10.8516H1.53258C1.42667 10.8516 1.33322 10.8889 1.26469 10.9637L0.11214 12.1163C0.0373801 12.191 0 12.2845 0 12.3841V14.004C0 14.1099 0.0373801 14.2033 0.11214 14.2718L1.25846 15.4306C1.33322 15.5054 1.42667 15.5428 1.52635 15.5428H3.14616C3.25207 15.5365 3.35175 15.4992 3.42028 15.4244Z" fill="white"/>
<path d="M15.0265 0.187749C14.5842 0.187749 14.2852 0.187749 14.2416 0.187749C12.4722 0.175289 11.0829 0.630081 10.1048 1.53343C9.01458 2.54893 8.46633 4.0379 8.46633 5.96298L8.44141 27.4005C8.44141 27.9051 8.32927 28.2664 8.12368 28.472C7.94301 28.6402 7.68135 28.7524 7.33247 28.796H2.59766V32.0356H6.32321C6.57241 32.0481 6.82784 32.0605 7.06458 32.0605C8.47256 32.0605 9.55036 31.8113 10.2917 31.3067C11.3508 30.5965 11.8804 29.2757 11.8804 27.4005V14.4607H20.0168V11.1775H11.8492V5.96921C11.8492 5.10946 12.0548 4.46777 12.4722 4.05659C12.8772 3.65787 13.5064 3.45851 14.335 3.46474C14.3724 3.46474 14.6527 3.46474 15.0826 3.46474C16.4283 3.46474 20.0168 3.4772 20.1975 3.48966L20.4404 3.51458V0.212669L20.2348 0.200209C20.0791 0.193979 17.6369 0.193979 15.0265 0.187749Z" fill="white"/>
<path d="M24.9889 11.7515C25.1945 10.655 25.6929 9.79525 26.4529 9.15979C27.2254 8.52432 28.1786 8.21282 29.3312 8.21282C30.3467 8.21282 31.2313 8.51186 31.9976 9.10995C32.7515 9.7018 33.2436 10.5927 33.4492 11.7639H24.9889V11.7515ZM29.3623 5.39062C27.132 5.39062 25.3128 6.11954 23.8924 7.5649C22.4719 9.0165 21.7617 10.817 21.7617 12.9663C21.7617 15.1531 22.4782 16.966 23.9235 18.3989C25.3564 19.8318 27.2566 20.5483 29.5929 20.5483C32.3777 20.5483 34.4772 19.5016 35.8914 17.4083L33.3309 15.9131C32.5085 17.1093 31.2687 17.7011 29.624 17.7011C28.4341 17.7011 27.4248 17.4146 26.6024 16.8165C25.7801 16.2309 25.2505 15.396 25.02 14.2996H36.4708C36.5456 13.7575 36.5892 13.3277 36.5892 13.0037C36.5892 10.8917 35.9163 9.09749 34.5582 7.61474C33.2063 6.132 31.4743 5.39062 29.3623 5.39062Z" fill="white"/>
<path d="M42.8439 1.72656L39.7352 2.64238V5.75738H37.0874V8.75402H39.7352V15.6693C39.7352 17.5508 40.2523 18.8404 41.2927 19.5444C42.3268 20.2484 44.0401 20.4478 46.4137 20.1674V17.3764C45.6288 17.4138 44.9684 17.42 44.4451 17.3888C43.9217 17.3577 43.5168 17.2206 43.2551 16.959C42.9935 16.6973 42.8564 16.2674 42.8564 15.6756V8.76025H46.4137V5.75738H42.8439V1.72656Z" fill="white"/>
<path d="M57.0792 16.8835C56.4001 17.2822 55.6338 17.4941 54.7927 17.4941C53.528 17.4941 52.4689 17.0642 51.6092 16.1982C50.7557 15.3323 50.3258 14.2545 50.3258 12.9773C50.3258 11.6877 50.7557 10.6161 51.6092 9.75639C52.4627 8.89041 53.528 8.46054 54.7927 8.46054C55.6587 8.46054 56.4188 8.6599 57.0792 9.05239C57.7395 9.44488 58.2317 9.9869 58.5619 10.6847L61.2408 9.12715C60.6614 7.99329 59.8079 7.08994 58.6491 6.42333C57.5028 5.75048 56.2194 5.41406 54.8239 5.41406C52.6558 5.41406 50.8491 6.14297 49.3975 7.58834C47.9459 9.03993 47.2295 10.8404 47.2295 12.9898C47.2295 15.1267 47.9522 16.9147 49.3975 18.3787C50.8491 19.8366 52.6558 20.5655 54.8239 20.5655C56.2256 20.5655 57.5028 20.229 58.6491 19.5562C59.7954 18.8834 60.6863 17.9676 61.2969 16.8212L58.618 15.2824C58.2691 15.9428 57.7582 16.4786 57.0792 16.8835Z" fill="white"/>
<path d="M74.4671 6.97139C73.4516 5.91852 72.1184 5.38274 70.4674 5.38274C68.4302 5.38274 66.9412 6.12411 66.0067 7.60062V0H62.8979V20.1666H66.0067V12.4413C66.0067 11.0396 66.3369 9.99295 67.016 9.31388C67.6951 8.63481 68.5735 8.29216 69.6637 8.29216C70.6606 8.29216 71.4455 8.57874 72.0249 9.15813C72.6043 9.73752 72.8909 10.5599 72.8909 11.6314V20.1603H75.9997V11.3262C75.9935 9.47586 75.4888 8.02426 74.4671 6.97139Z" fill="white"/>
</svg>
