<svg width="77" height="32" viewBox="0 0 77 32" fill="none" xmlns="http://www.w3.org/2000/svg">
<path d="M3.42885 15.3955L4.57805 14.2515C4.653 14.1769 4.69047 14.0836 4.69047 13.9842V12.3677C4.69047 12.262 4.653 12.1687 4.57805 12.1003L3.42885 10.9439C3.3539 10.8693 3.26022 10.832 3.16029 10.832H1.53643C1.43025 10.832 1.33657 10.8693 1.26786 10.9439L0.112421 12.0941C0.0374738 12.1687 0 12.262 0 12.3615V13.9779C0 14.0836 0.0374738 14.1769 0.112421 14.2453L1.26162 15.4017C1.33657 15.4763 1.43025 15.5136 1.53018 15.5136H3.15404C3.26022 15.5074 3.36015 15.4701 3.42885 15.3955Z" fill="#FFBE16"/>
<path d="M15.0645 0.187749C14.6211 0.187749 14.3213 0.187749 14.2776 0.187749C12.5038 0.175314 11.111 0.629171 10.1305 1.53067C9.03749 2.54407 8.48788 4.02999 8.48788 5.95111L8.46289 27.3445C8.46289 27.8481 8.35047 28.2087 8.14437 28.4139C7.96324 28.5818 7.70093 28.6937 7.35117 28.7372H2.60449V31.9701H6.33938C6.58921 31.9826 6.84528 31.995 7.08261 31.995C8.49412 31.995 9.57462 31.7463 10.3178 31.2427C11.3796 30.534 11.9105 29.2159 11.9105 27.3445V14.4314H20.0673V11.1549H11.8793V5.95732C11.8793 5.09935 12.0854 4.45897 12.5038 4.04864C12.9098 3.65074 13.5406 3.45179 14.3713 3.458C14.4087 3.458 14.6898 3.458 15.1207 3.458C16.4698 3.458 20.0673 3.47044 20.2484 3.48287L20.492 3.50774V0.212618L20.2859 0.200183C20.1297 0.193966 17.6814 0.193966 15.0645 0.187749Z" fill="#FFBE16"/>
<path d="M25.0512 11.7267C25.2573 10.6325 25.7569 9.77448 26.5189 9.14032C27.2933 8.50616 28.2489 8.1953 29.4044 8.1953C30.4224 8.1953 31.3093 8.49373 32.0775 9.09058C32.8332 9.68122 33.3266 10.5703 33.5327 11.7391H25.0512V11.7267ZM29.4356 5.37891C27.1997 5.37891 25.3759 6.10632 23.9519 7.54871C22.5279 8.99732 21.8159 10.7941 21.8159 12.939C21.8159 15.1213 22.5342 16.9305 23.9832 18.3604C25.4196 19.7904 27.3246 20.5054 29.6667 20.5054C32.4585 20.5054 34.5632 19.4609 35.981 17.3719L33.4141 15.8798C32.5896 17.0735 31.3468 17.6641 29.6979 17.6641C28.505 17.6641 27.4932 17.3781 26.6688 16.7813C25.8444 16.1969 25.3135 15.3638 25.0824 14.2695H36.5619C36.6368 13.7286 36.6805 13.2996 36.6805 12.9763C36.6805 10.8687 36.006 9.07815 34.6444 7.59845C33.2891 6.11875 31.5529 5.37891 29.4356 5.37891Z" fill="#FFBE16"/>
<path d="M42.9511 1.72266L39.8346 2.63659V5.74519H37.1802V8.73567H39.8346V15.6368C39.8346 17.5144 40.353 18.8013 41.396 19.5039C42.4328 20.2064 44.1503 20.4054 46.5299 20.1256V17.3403C45.7429 17.3776 45.0809 17.3838 44.5563 17.3527C44.0316 17.3216 43.6257 17.1849 43.3634 16.9237C43.101 16.6626 42.9636 16.2336 42.9636 15.643V8.74189H46.5299V5.74519H42.9511V1.72266Z" fill="#FFBE16"/>
<path d="M57.2225 16.8482C56.5417 17.2461 55.7735 17.4575 54.9303 17.4575C53.6625 17.4575 52.6007 17.0285 51.7388 16.1643C50.8832 15.3001 50.4522 14.2246 50.4522 12.95C50.4522 11.6631 50.8832 10.5937 51.7388 9.73574C52.5945 8.87155 53.6625 8.44256 54.9303 8.44256C55.7985 8.44256 56.5605 8.64151 57.2225 9.0332C57.8845 9.42488 58.3779 9.96578 58.709 10.6621L61.3946 9.1078C60.8137 7.97627 59.9581 7.07477 58.7964 6.40953C57.6472 5.73807 56.3606 5.40234 54.9616 5.40234C52.7881 5.40234 50.9769 6.12976 49.5216 7.57215C48.0664 9.02076 47.3481 10.8175 47.3481 12.9625C47.3481 15.095 48.0726 16.8793 49.5216 18.3404C50.9769 19.7952 52.7881 20.5226 54.9616 20.5226C56.3668 20.5226 57.6472 20.1869 58.7964 19.5154C59.9456 18.844 60.8387 17.93 61.4508 16.7861L58.7652 15.2504C58.4154 15.9094 57.9033 16.4441 57.2225 16.8482Z" fill="#FFBE16"/>
<path d="M74.6538 6.95706C73.6358 5.90635 72.2992 5.37167 70.6441 5.37167C68.6018 5.37167 67.1091 6.11152 66.1722 7.585V0H63.0557V20.1251H66.1722V12.4158C66.1722 11.0169 66.5033 9.97241 67.184 9.29474C67.8648 8.61706 68.7454 8.27511 69.8384 8.27511C70.8377 8.27511 71.6247 8.5611 72.2055 9.13931C72.7864 9.71751 73.0737 10.5382 73.0737 11.6075V20.1189H76.1902V11.3029C76.184 9.45638 75.6781 8.00777 74.6538 6.95706Z" fill="#FFBE16"/>
</svg>
