<svg width="1440" height="1021" viewBox="0 0 1440 1021" fill="none" xmlns="http://www.w3.org/2000/svg">
<path d="M1175 212.209C1175 211.785 1175 210.937 1175 210.512C1174.15 210.088 1173.3 209.664 1172.88 208.815C1162.7 201.178 1153.36 191.42 1148.27 179.965C1147 180.389 1146.15 180.389 1144.45 180.389C1137.67 180.389 1129.6 181.238 1126.64 184.632C1124.94 186.329 1119.42 190.147 1115.18 193.966C1117.3 197.784 1116.88 204.572 1121.12 205.421C1127.06 206.27 1126.64 216.028 1119.85 214.331C1113.06 212.634 1113.06 224.089 1119 233.847C1124.94 243.605 1107.97 254.636 1112.63 259.728C1117.3 264.819 1113.48 270.759 1115.6 273.728C1117.73 276.698 1142.33 272.456 1153.36 260.576C1163.97 248.697 1166.94 250.394 1172.46 251.666C1177.97 253.363 1183.49 247.424 1180.52 242.757C1177.55 238.09 1174.15 226.635 1175 212.209Z" fill="#17274E" stroke="#091738" stroke-width="3" stroke-miterlimit="10"/>
<path d="M455.016 565.202C451.622 544.413 449.501 524.048 446.955 524.048C443.561 524.048 438.894 541.867 432.954 540.594C427.015 539.322 427.014 517.684 434.227 517.684C441.44 517.684 449.501 501.137 449.501 496.046C449.501 490.955 442.288 490.955 435.5 490.955C428.287 490.955 413.013 492.228 413.013 492.228C413.013 492.228 403.68 488.409 403.68 482.045C403.68 475.681 400.286 470.59 390.528 470.59C381.194 470.59 381.193 460.408 373.981 470.59C366.768 480.772 389.254 480.773 387.133 488.409C384.588 496.046 377.799 490.955 376.526 497.319C375.254 503.683 377.799 520.23 381.193 529.139C383.739 535.928 387.982 553.323 387.982 568.172C393.497 566.899 396.043 564.354 401.134 564.354C407.498 564.354 416.408 563.505 416.832 556.292C417.256 549.08 424.893 543.564 428.712 546.11C432.954 548.231 438.894 566.051 439.318 574.96C439.318 577.93 440.591 581.749 442.288 585.567C445.682 582.173 449.501 579.203 449.501 579.203C449.501 579.203 451.622 569.445 455.016 565.202Z" fill="#17274E" stroke="#091738" stroke-width="3" stroke-miterlimit="10"/>
<path d="M531.809 429.86C534.779 428.163 536.476 419.678 536.476 419.678C536.476 419.678 526.294 417.98 525.021 412.889C523.324 407.798 517.384 402.707 517.384 398.464C517.384 394.221 511.869 395.918 507.202 400.161C502.535 404.404 494.049 395.07 483.867 401.01C473.684 406.949 471.563 413.738 466.896 412.889C462.229 412.041 463.077 417.132 459.259 421.375C455.441 425.617 452.047 430.709 449.925 430.709C447.804 430.709 439.743 434.951 439.743 434.951C439.743 434.951 445.258 447.679 441.864 453.195C438.894 459.135 430.833 453.195 422.348 455.74C413.862 458.286 410.044 452.346 403.68 454.043C397.316 455.74 393.497 449.801 390.527 450.649C387.558 451.498 382.891 443.012 384.163 436.224C385.861 429.436 381.194 420.102 377.799 425.193C374.83 430.284 370.162 427.739 370.162 435.376C370.162 443.012 373.981 452.346 369.314 457.013C364.647 462.105 339.615 464.65 334.948 460.407C330.281 456.165 309.916 453.619 309.492 449.376C308.644 445.134 302.279 437.497 298.461 437.497C294.642 437.497 282.763 443.437 279.793 440.891C276.823 438.345 268.762 431.557 263.671 430.709C258.155 429.86 249.67 425.617 248.821 422.223C247.973 418.829 235.669 417.132 233.124 413.738C230.578 410.344 222.941 409.495 222.941 405.252C222.941 401.01 225.911 394.221 225.911 389.13C225.911 384.039 235.245 378.948 235.245 375.554C235.245 372.159 226.76 366.22 226.76 366.22C226.76 366.22 221.244 355.189 214.88 355.189C208.516 355.189 203.849 343.309 198.757 342.461C193.242 341.612 194.939 329.732 191.545 325.49C188.575 321.247 190.696 311.065 196.212 316.156C201.727 321.247 211.91 316.156 207.667 308.519C203.849 300.882 196.636 294.094 196.636 290.275C196.636 286.033 201.303 273.305 195.788 269.91C190.272 266.516 185.605 261.425 184.333 255.485C182.636 249.546 176.696 245.303 176.696 245.303L169.059 246.151C169.059 246.151 164.392 259.728 161.422 261.425C158.452 263.122 147.421 265.668 141.906 269.91C136.39 274.153 121.116 263.971 112.207 263.971C103.721 263.971 98.2058 273.305 102.024 275.85C105.843 278.396 104.994 295.791 104.994 295.791C104.994 295.791 109.661 317.429 116.45 315.731C123.238 314.034 132.147 323.368 125.783 325.065C119.419 326.763 116.449 334.399 115.601 341.188C114.752 347.976 116.449 356.461 111.782 357.31C107.115 358.159 102.448 359.856 102.448 369.189C102.448 378.523 92.2662 375.978 90.9933 379.372C89.2963 382.766 85.4776 399.313 83.3563 401.858C81.2349 404.404 67.6581 405.252 67.2338 412.889C66.3853 420.526 60.4456 429.86 56.2029 429.012C52.3845 428.163 45.172 424.769 43.0507 429.86C40.5051 434.951 30.7469 425.617 28.2013 428.163C26.0799 430.709 13.3518 441.74 13.3518 448.104C13.3518 454.892 26.5043 454.892 25.6557 463.377C24.8072 471.863 30.3227 481.197 34.1411 485.015C37.9596 489.258 44.3235 499.44 40.9293 504.531C37.9595 509.623 33.2925 510.471 26.0799 508.774C18.8673 507.077 19.7158 512.168 7.41195 509.623C-4.89186 507.077 -5.7402 517.259 -10.4072 523.199C-10.8314 523.624 -11.2559 524.048 -11.6802 524.896C-5.7404 529.988 -3.19458 538.897 6.56362 542.716C18.0189 547.383 28.2013 534.655 28.2013 543.989C28.2013 552.898 1.47218 551.201 1.04791 554.171C0.623639 557.141 28.6255 593.628 43.0507 591.082C57.4759 588.112 67.6584 571.566 63.84 569.02C59.5973 566.475 65.9614 556.292 69.7799 557.989C73.5983 559.686 70.2039 576.233 74.8709 580.051C79.1136 583.87 77.8408 590.658 74.8709 599.568C71.901 608.477 77.8409 625.448 78.6894 635.206C79.538 644.54 85.4776 658.117 87.599 672.118C94.3873 674.663 99.9029 681.028 99.9029 690.362C99.9029 699.271 99.9028 708.605 100.327 717.515C102.024 722.182 104.146 726.424 105.843 730.243C113.904 746.365 119.844 777.761 124.935 785.398C127.481 789.216 132.147 796.429 135.966 804.914C148.694 824.855 156.755 847.765 170.756 866.858C174.998 864.312 179.241 859.645 180.938 854.129C183.484 845.22 198.334 841.826 199.182 834.189C200.031 826.552 201.303 820.612 206.819 819.764C211.91 818.915 211.91 812.975 211.91 804.49C211.91 796.429 212.334 784.549 217.85 777.337C222.941 770.124 223.79 750.608 220.82 742.971C217.426 734.91 219.547 724.303 222.092 716.242C225.062 708.605 223.79 699.271 229.305 698.847C234.821 698.423 242.882 692.907 248.821 684.422C251.791 680.179 257.307 675.512 262.822 671.269C262.398 667.027 263.247 663.208 265.368 658.965C271.732 645.389 278.52 631.812 287.854 619.933C292.097 613.993 298.461 610.175 305.249 609.75C306.522 599.992 315.856 589.81 326.463 591.082C332.827 591.931 339.191 591.931 345.555 591.082C345.979 587.688 345.555 584.718 346.403 580.051C347.676 571.142 372.284 567.323 381.618 567.323C383.315 567.323 385.012 566.899 386.709 566.899C386.709 552.474 382.466 535.079 379.921 527.866C376.527 518.957 373.981 502.41 375.254 496.046C376.527 489.682 383.315 494.773 385.861 487.136C388.406 479.499 365.92 479.5 372.708 469.317C379.92 459.135 379.921 469.317 389.254 469.317C398.588 469.317 402.407 474.408 402.407 480.772C402.407 487.136 411.741 490.955 411.741 490.955C411.741 490.955 427.014 489.682 434.227 489.682C441.44 489.682 448.228 489.682 448.228 494.773C448.228 499.865 440.167 516.411 432.954 516.411C425.742 516.411 425.742 538.049 431.681 539.322C437.621 540.594 442.288 522.775 445.683 522.775C448.228 522.775 450.35 543.14 453.744 563.929C454.592 562.656 455.441 561.808 456.713 561.808C461.38 561.808 459.259 543.989 462.229 539.322C465.199 534.23 463.926 518.532 466.047 518.532C468.593 518.532 482.17 523.624 481.745 519.381C480.897 515.138 490.231 500.713 488.534 493.5C486.837 485.864 494.049 476.53 494.049 467.62C494.049 458.286 501.686 455.741 507.202 450.649C512.717 445.558 522.051 438.77 523.324 443.012C525.021 447.255 536.476 450.649 531.809 443.012C528.415 436.648 528.415 431.557 531.809 429.86Z" fill="#17274E" stroke="#091738" stroke-width="3" stroke-miterlimit="10"/>
<path d="M960.746 -67.8076C954.382 -75.8687 944.199 -72.0503 941.654 -65.2619C939.108 -58.4736 934.017 -67.8076 922.561 -67.8076C911.106 -67.8076 909.833 -61.0192 902.196 -69.0803C894.559 -77.1415 904.742 -80.1114 904.742 -80.1114L906.015 -91.1424L921.713 -125.084C917.046 -127.205 910.681 -128.054 907.287 -126.781C902.62 -125.084 891.589 -125.932 890.317 -130.599C889.044 -134.842 870.376 -135.691 865.709 -131.872C861.042 -128.054 850.435 -125.084 850.011 -120.417C849.587 -116.174 838.556 -117.447 834.313 -114.053C830.07 -111.083 809.281 -109.81 808.857 -107.265C808.433 -104.719 785.947 -104.295 782.552 -107.265C779.158 -110.234 759.642 -107.265 757.52 -112.356C755.399 -117.447 746.914 -119.993 746.914 -124.235C746.914 -128.478 732.488 -128.478 730.791 -132.297C729.094 -136.115 717.215 -137.812 715.518 -136.539C713.821 -135.266 701.092 -140.358 697.274 -140.782C693.88 -141.206 682.849 -138.236 679.031 -138.236C675.636 -138.236 669.272 -131.448 665.03 -130.599C660.787 -129.751 649.756 -138.236 647.635 -136.115C645.513 -134.418 638.301 -142.479 635.331 -146.297C632.361 -150.116 635.331 -160.723 633.209 -164.541C631.088 -168.359 617.936 -168.359 614.117 -170.905C609.874 -173.451 603.51 -177.269 599.692 -177.269C595.449 -177.269 589.086 -178.542 587.389 -180.239C585.691 -181.936 576.782 -185.33 572.963 -186.603C568.721 -187.876 568.296 -182.36 566.175 -179.815C564.054 -177.269 556.841 -176.845 555.568 -172.178C554.295 -167.935 546.234 -166.662 547.507 -161.571C548.78 -156.48 551.75 -146.297 554.295 -144.176C557.265 -141.63 555.568 -133.994 553.871 -131.448C552.174 -128.902 539.87 -127.205 537.749 -122.538C535.627 -118.296 529.688 -123.387 523.748 -126.781C517.808 -130.599 511.02 -128.054 508.05 -125.508C505.08 -122.963 494.473 -131.872 491.928 -132.297C488.958 -132.721 488.534 -145.025 485.564 -144.176C482.594 -143.752 462.229 -147.995 458.41 -149.267C454.168 -150.54 445.682 -149.692 444.409 -146.722C443.137 -143.752 432.954 -144.176 430.833 -140.358C429.136 -136.539 421.075 -134.842 418.105 -131.024C415.135 -127.205 405.377 -127.205 402.831 -121.69C400.71 -116.174 388.406 -113.629 384.587 -112.78C381.193 -111.932 371.86 -110.234 371.011 -107.265C370.587 -105.992 369.314 -105.568 367.617 -105.992C368.041 -105.143 368.041 -104.295 368.465 -103.446C371.011 -89.021 376.526 -89.4453 382.466 -83.9298C388.406 -78.4143 393.921 -73.7473 400.285 -73.323C406.649 -72.8988 416.407 -64.8377 417.256 -58.4736C418.105 -52.5338 424.044 -45.3213 427.863 -42.3514C431.681 -39.3815 426.59 -28.7748 426.59 -21.138C426.59 -13.5011 417.681 -11.3797 422.348 -3.74287C426.59 3.89398 457.986 8.13663 466.472 8.13663C475.381 8.13663 478.351 17.4706 481.321 17.8949C486.837 18.7434 487.685 25.956 494.049 27.653C500.413 28.9259 506.777 33.1686 509.323 45.4724C511.868 57.7762 519.505 62.0188 520.778 67.5343C522.051 73.0499 536.052 68.8072 546.234 70.08C556.417 71.3528 585.691 70.0799 593.328 71.3528C600.965 72.6255 618.784 71.3528 628.967 79.414C639.149 87.4751 644.24 80.6867 650.604 84.9294C656.968 89.1721 662.06 91.7177 670.969 90.4449C679.879 89.1721 679.879 97.2333 686.243 98.5061C692.607 99.7789 704.062 87.4751 720.609 79.414C737.155 71.3528 756.247 76.8683 765.157 78.1411C774.067 79.4139 790.613 73.8984 800.796 61.5946C810.978 49.2908 823.707 51.8365 824.979 41.2297C826.252 30.1987 814.797 26.3802 819.888 16.622C824.979 6.86382 833.889 8.56094 838.98 11.1066C844.071 13.6522 858.072 17.8949 870.8 8.56091C883.528 -1.19728 888.62 0.499847 900.075 -1.19724C911.53 -2.47003 910.257 -10.9555 917.894 -19.0166C925.531 -27.0777 934.441 -30.0476 942.078 -30.0476C949.715 -30.0476 959.897 -38.1087 967.534 -35.5631C975.171 -33.0175 986.626 -31.3204 987.898 -38.1087C987.474 -45.7456 967.11 -59.7465 960.746 -67.8076Z" fill="#17274E" stroke="#091738" stroke-width="3" stroke-miterlimit="10"/>
<path d="M209.789 71.777C202.152 62.4431 200.031 68.8072 191.121 66.2615C182.211 63.7159 147.421 59.8975 140.633 63.2916C133.844 66.2615 118.995 57.7761 114.328 55.2305C109.661 52.6849 94.3873 55.2305 93.9631 64.1402C93.5388 73.0499 87.1748 73.0498 76.5681 67.11C65.9614 61.5945 50.2632 61.5946 49.8389 67.9586C49.4147 74.3226 41.7777 80.6867 37.535 82.3837C35.8379 83.2323 33.717 88.3236 31.5957 94.2634C34.9898 95.5362 36.6867 98.506 38.808 101.476C42.6264 106.567 52.8087 105.719 54.5058 100.627C56.2029 95.5362 72.3252 105.719 81.6591 114.204C90.9931 122.689 76.9922 116.75 73.1737 125.235C69.3553 133.72 57.4757 125.235 54.5058 128.629C51.5359 132.023 31.1713 133.72 25.6558 132.872C20.1403 132.023 10.8061 141.357 11.6547 145.6C12.5032 149.843 32.4438 143.054 39.6564 148.145C46.4447 153.237 53.6576 143.054 57.476 148.994C61.2944 154.934 69.7795 150.691 73.5979 152.388C77.4163 154.085 99.0541 150.691 99.0541 150.691C101.6 147.721 102.448 143.479 102.448 140.084C102.448 134.569 106.691 135.842 111.358 134.569C115.601 133.296 118.57 126.932 122.389 126.932C125.783 126.932 130.874 121.417 134.269 122.689C137.663 123.962 142.33 130.75 146.573 126.932C150.815 123.114 152.088 126.508 158.452 118.447C164.392 110.386 168.635 111.658 176.271 112.931C185.605 114.204 189.424 109.113 191.969 103.597C194.515 98.0817 202.576 98.0818 207.243 94.2634C211.91 90.4449 221.668 86.2022 224.638 84.9294C225.911 84.0808 226.335 82.3837 226.335 80.2624C219.122 72.6255 216.153 79.8381 209.789 71.777Z" fill="#17274E" stroke="#091738" stroke-width="3" stroke-miterlimit="10"/>
<path d="M203.849 238.091C197.06 237.667 183.484 245.304 181.362 252.092C182.635 253.789 183.908 255.91 184.757 258.032C186.454 263.971 191.121 269.063 196.212 272.457C199.606 274.578 199.182 280.094 198.333 285.185C201.303 285.185 204.697 284.761 206.818 284.336C212.334 283.064 224.638 263.972 226.335 258.88C228.456 252.941 211.486 238.515 203.849 238.091Z" fill="#17274E" stroke="#091738" stroke-width="3" stroke-miterlimit="10"/>
<path d="M1143.61 164.268C1140.64 161.722 1138.51 159.601 1137.24 158.752C1130.45 154.51 1134.7 142.206 1142.76 140.085C1144.45 139.66 1146.58 138.387 1149.12 137.115C1153.79 127.781 1161 119.295 1168.21 111.658C1172.03 107.84 1176.7 105.719 1180.94 105.294C1181.37 101.052 1181.79 95.9605 1183.91 91.2935C1186.46 86.2023 1196.22 76.4441 1205.97 68.383C1203.85 67.5345 1202.16 67.1102 1200.46 67.5344C1192.82 70.08 1190.28 60.7461 1183.91 60.7461C1177.55 60.7461 1178.82 77.2927 1172.46 77.2927C1166.09 77.2927 1167.36 87.0508 1158.46 88.3236C1149.55 89.5964 1147 89.5965 1150.82 96.3848C1154.64 103.173 1145.73 100.628 1138.09 100.628C1130.45 100.628 1130.45 95.1119 1125.36 95.1119C1120.27 95.1119 1116.45 104.87 1112.63 109.961C1108.82 115.477 1083.36 127.781 1075.72 132.023C1073.6 133.296 1071.9 136.69 1070.21 141.357C1079.12 142.206 1088.88 147.721 1092.69 153.237C1098.21 160.874 1086.33 169.359 1081.24 176.147C1076.15 182.936 1084.63 183.36 1084.63 188.876C1085.06 194.391 1091.85 199.058 1094.39 194.391C1096.94 189.3 1101.18 191.421 1109.66 191.421C1112.21 191.421 1113.48 192.694 1114.33 194.391C1119 190.573 1124.09 186.754 1125.79 185.057C1128.76 181.663 1136.82 180.814 1143.61 180.814C1144.88 180.814 1146.15 180.814 1147.42 180.39C1145.73 175.299 1144.03 169.783 1143.61 164.268Z" fill="#17274E" stroke="#091738" stroke-width="3" stroke-miterlimit="10"/>
<path d="M371.435 430.708C370.162 430.708 368.465 430.708 366.768 430.708C355.313 431.132 348.524 425.193 340.888 425.617C333.675 426.041 312.037 417.131 302.703 409.07C293.369 401.009 268.762 384.038 262.398 377.674C256.458 370.886 247.548 370.886 246.7 374.28C245.851 377.25 241.608 377.674 234.82 378.099C233.123 381.493 225.911 385.735 225.911 390.402C225.911 395.494 222.941 402.282 222.941 406.525C222.941 410.767 230.578 411.616 233.123 415.01C235.245 418.404 247.973 420.101 248.821 423.495C249.67 426.89 258.155 431.132 263.671 431.981C269.186 432.829 276.823 439.618 279.793 442.163C282.763 444.709 294.642 438.769 298.461 438.769C302.279 438.769 308.643 446.406 309.492 450.649C310.341 454.891 330.281 457.437 334.948 461.68C339.615 465.922 364.647 463.377 369.314 458.286C373.981 453.194 370.162 443.86 370.162 436.648C370.162 433.254 370.587 431.981 371.435 430.708Z" fill="#17274E" stroke="#091738" stroke-width="3" stroke-miterlimit="10"/>
<path d="M599.267 574.536C590.357 578.355 586.115 573.264 586.964 567.324C587.812 561.808 581.023 561.808 575.932 561.808C571.265 561.808 574.235 553.323 575.932 547.807C577.629 542.292 574.235 538.898 568.72 538.473C563.204 538.049 560.234 524.897 562.78 521.078C564.901 517.26 550.901 513.866 544.961 517.26C539.021 520.654 543.264 511.744 541.567 507.077C539.869 502.411 549.628 486.288 557.689 477.379C566.174 468.469 562.356 456.589 562.356 446.407C562.356 436.225 558.537 436.224 554.295 436.224C550.476 436.224 550.052 430.285 550.052 424.345C550.052 418.829 541.567 414.587 536.9 418.405C536.051 418.829 535.202 419.678 533.505 420.527H533.93C533.93 420.527 532.232 429.012 529.263 430.709C526.293 432.406 526.293 437.497 530.96 445.134C535.627 452.771 524.171 449.377 522.474 445.134C520.777 440.891 511.444 447.68 506.352 452.771C500.837 457.862 493.2 460.408 493.2 469.742C493.2 479.076 486.412 488.41 487.685 495.622C489.382 503.259 480.048 517.26 480.896 521.503C481.745 525.745 467.744 520.654 465.198 520.654C462.652 520.654 464.349 536.776 461.379 541.443C458.41 546.535 460.531 563.93 455.864 563.93C451.197 563.93 447.379 580.052 447.379 580.052C447.379 580.052 443.56 583.022 440.166 586.416C443.984 594.901 450.773 603.811 458.834 607.629C470.289 612.721 477.926 637.328 481.32 650.48C483.442 658.542 483.442 666.603 482.169 673.391C482.169 674.24 482.593 675.512 482.593 676.361V687.392C482.593 689.513 482.169 691.635 481.32 693.756C483.018 694.605 484.714 695.453 486.411 696.302C493.2 700.12 500.837 701.393 505.504 693.756C510.595 686.119 520.777 681.028 522.05 672.543C523.323 664.057 527.99 676.785 532.233 681.028C536.476 685.271 539.021 693.756 540.294 704.787C541.143 715.394 541.991 742.123 550.476 750.608C558.961 759.094 560.234 777.761 558.113 784.125C555.992 790.914 562.356 801.945 560.659 809.157C560.234 810.43 559.81 812.551 559.386 815.097C567.023 816.794 576.357 779.883 576.357 779.883C576.357 771.397 569.993 770.549 569.993 763.76C569.993 756.972 569.993 745.093 562.356 737.88C554.719 730.243 550.476 719.212 555.143 715.394C559.81 711.151 555.992 699.272 558.113 700.12C560.234 700.969 563.628 692.483 558.961 689.938C554.295 687.392 558.962 677.21 555.143 675.513C551.325 673.815 540.294 660.239 540.294 656.42C540.294 652.178 543.264 628.843 544.112 622.903C544.961 616.963 552.598 616.115 555.143 616.115C557.689 616.115 567.023 616.963 569.993 611.023C572.963 605.084 586.115 604.235 587.812 599.992C589.509 595.75 597.995 595.75 597.995 590.659C597.995 585.567 608.177 572.839 608.177 572.839H608.601C606.904 570.294 604.358 572.415 599.267 574.536Z" fill="#17274E" stroke="#091738" stroke-width="3" stroke-miterlimit="10"/>
<path d="M442.288 433.254C430.409 421.799 427.439 431.133 419.377 426.466C410.892 421.799 407.074 420.526 403.256 423.496C399.437 426.89 393.073 426.466 389.254 436.648C387.982 440.043 386.285 443.437 385.012 445.558C386.285 448.528 388.406 451.074 390.103 450.649C393.073 449.801 396.891 455.741 403.256 454.044C409.62 452.346 413.438 458.286 421.923 455.741C430.409 453.195 438.046 459.135 441.44 453.195C444.41 447.255 439.318 434.951 439.318 434.951C439.318 434.951 440.591 434.103 442.288 433.254Z" fill="#17274E" stroke="#091738" stroke-width="3" stroke-miterlimit="10"/>
<path d="M743.944 755.275C738.852 746.79 737.155 736.608 737.155 728.971C732.488 733.213 726.549 733.213 723.155 731.941C718.912 730.244 709.578 729.395 709.578 736.608C709.578 743.82 702.789 745.517 703.638 742.123C704.487 738.305 696.85 739.577 692.607 734.062C688.364 728.546 673.091 735.759 665.878 733.213C658.242 730.668 646.362 737.88 639.149 747.639C631.512 757.821 639.998 757.821 639.998 766.731C639.998 775.64 645.089 775.64 642.544 782.853C642.544 782.853 642.544 783.277 642.544 783.702C649.332 787.096 647.635 796.005 647.635 801.521C648.907 803.218 650.18 804.491 651.877 806.188C654.423 806.188 657.817 805.339 659.939 804.915C663.757 804.491 657.817 811.279 660.363 815.522C660.787 815.946 661.211 816.37 661.636 816.795C665.878 819.34 674.788 812.552 676.485 817.643C676.909 818.916 677.758 819.764 678.182 821.037C683.697 818.067 690.486 813.825 690.486 810.855C690.486 805.339 710.427 816.37 712.972 810.855C715.518 805.339 698.123 787.944 712.972 792.187C727.822 796.43 725.276 786.671 730.367 779.883C735.034 772.67 751.58 767.579 743.944 755.275Z" fill="#17274E" stroke="#091738" stroke-width="3" stroke-miterlimit="10"/>
<path d="M691.335 641.147C691.335 635.631 667.576 627.57 670.122 620.782C672.667 613.993 684.971 618.236 684.971 611.448C684.971 604.659 679.88 604.659 678.607 595.325C677.334 585.992 668.424 588.537 665.03 591.083C661.212 593.628 648.908 588.537 648.908 581.749C648.908 574.961 638.726 571.142 638.726 565.627C638.726 562.657 634.907 558.414 631.513 554.596C628.543 556.293 625.149 556.717 623.876 555.02C621.331 552.474 618.36 563.505 620.906 566.051C623.027 568.597 626.422 584.719 620.058 583.022C613.694 581.325 613.694 571.991 609.875 572.839C609.875 572.839 599.693 585.567 599.693 590.659C599.693 594.053 595.874 595.326 592.904 597.023C594.601 598.72 596.299 600.417 596.723 601.265C598.42 603.811 595.874 611.448 598.42 617.388C600.966 623.752 609.451 613.569 611.996 622.903C614.542 631.813 610.299 636.48 610.299 645.389C610.299 654.299 603.511 653.45 605.208 661.936C606.905 669.997 616.239 660.239 623.027 654.723C629.816 649.208 634.907 650.056 637.453 653.875C639.998 657.693 648.484 654.723 650.181 650.056C651.878 645.389 664.606 643.692 668.849 649.208C673.091 654.723 677.334 661.087 683.274 664.481C689.214 668.3 679.031 688.241 684.971 689.938C690.911 691.635 699.396 701.817 698.548 712.424C697.699 721.758 702.79 728.546 696.002 736.607C700.245 739.577 704.912 739.577 704.487 742.547C703.639 746.365 710.427 744.244 710.427 737.032C710.427 729.819 719.761 730.668 724.004 732.365C727.398 733.637 733.338 733.637 738.005 729.395C738.005 726.001 738.429 723.031 738.429 720.909C739.702 712.848 738.429 703.514 734.61 699.271C730.792 695.453 721.034 691.21 718.488 683.149C715.942 675.088 704.912 667.027 702.366 660.239C698.972 653.026 691.335 646.238 691.335 641.147Z" fill="#17274E" stroke="#091738" stroke-width="3" stroke-miterlimit="10"/>
<path d="M698.123 711.999C698.971 700.968 690.486 691.21 684.546 689.513C678.606 687.816 688.789 667.875 682.849 664.056C676.91 660.238 672.667 653.874 668.424 648.783C664.181 643.267 651.453 644.964 649.756 649.631C648.059 654.298 639.574 656.844 637.028 653.45C634.482 649.631 629.391 648.783 622.603 654.298C615.814 659.814 606.481 669.572 604.784 661.511C603.087 653.45 609.875 654.298 609.875 644.964C609.875 636.055 614.117 631.388 611.572 622.478C609.026 613.568 600.541 623.327 597.995 616.963C595.45 610.598 597.995 603.386 596.298 600.84C595.874 599.992 594.177 598.295 592.48 596.598C591.207 597.446 589.934 598.295 589.085 599.567C587.388 603.81 574.236 604.659 571.266 610.598C568.296 616.538 558.962 615.69 556.417 615.69C553.871 615.69 546.234 616.538 545.386 622.478C544.537 628.418 541.567 651.753 541.567 655.995C541.567 660.238 552.598 673.815 556.417 675.088C560.235 676.785 555.568 686.967 560.235 689.513C564.902 692.058 561.932 700.544 559.386 699.695C556.841 698.847 561.084 710.726 556.417 714.969C551.75 719.212 555.568 730.242 563.629 737.455C571.266 745.092 571.266 756.547 571.266 763.336C571.266 770.124 577.63 770.972 577.63 779.458C577.63 779.458 568.296 815.945 560.66 814.672C558.962 824.006 556.841 838.007 555.144 846.068C553.022 855.826 550.901 864.312 556.417 864.736C561.508 865.16 572.115 878.313 582.297 891.889C584.843 895.283 586.54 898.678 588.237 902.496C591.631 902.072 595.874 902.496 599.692 903.345C607.329 905.042 609.451 911.83 609.451 916.073C609.451 920.315 622.603 918.618 625.148 918.194C626.845 917.77 624.724 911.83 631.088 909.709C627.27 903.769 616.663 896.132 608.602 895.283C598.844 894.435 594.177 878.313 595.025 871.1C595.874 863.887 587.813 857.523 587.813 851.159C587.813 844.795 581.873 844.371 575.509 840.977C568.721 837.583 576.782 816.369 577.63 807.035C578.055 802.368 581.873 793.459 584.843 784.549C583.57 778.609 585.267 773.094 588.661 768.851C588.661 766.73 588.661 765.033 587.813 763.76C583.57 755.699 602.238 749.335 604.359 758.244C604.359 758.669 604.784 759.093 604.784 759.517C611.996 758.669 619.209 761.638 623.876 769.7C624.3 770.548 624.724 770.972 625.148 771.821C631.512 773.942 632.786 780.731 640.422 782.852C640.847 782.852 641.271 783.276 641.695 783.701C641.695 783.701 641.695 783.276 641.695 782.852C644.24 775.639 639.149 775.639 639.149 766.73C639.149 757.82 630.664 757.82 638.301 747.638C645.938 737.455 657.817 730.242 665.03 733.212C672.667 735.758 687.516 728.545 691.759 734.061C692.607 734.909 693.456 735.758 694.304 736.182C701.941 728.121 697.274 721.333 698.123 711.999Z" fill="#17274E" stroke="#091738" stroke-width="3" stroke-miterlimit="10"/>
<path d="M657.817 944.498C658.241 930.497 645.513 931.77 642.543 922.012C639.573 912.254 634.482 917.769 632.785 911.83C632.36 910.981 631.936 909.708 631.087 908.86C624.299 910.981 626.845 916.921 625.148 917.345C622.602 917.769 609.45 919.466 609.45 915.224C609.45 910.981 607.328 904.193 599.691 902.496C595.873 901.647 591.63 901.647 588.236 901.647C592.903 912.678 593.328 924.558 593.752 934.316C594.176 947.044 611.147 966.985 613.692 975.046C616.238 983.107 621.329 985.653 632.785 994.562C644.24 1003.47 666.302 1017.47 670.545 1015.35C674.787 1013.23 663.756 992.441 657.392 985.228C651.453 978.016 657.392 958.499 657.817 944.498ZM955.654 920.315C950.562 921.588 938.259 920.739 938.259 915.224C938.259 909.708 927.227 899.102 920.015 899.102C913.227 899.102 904.741 914.375 904.317 920.315C903.893 926.679 892.862 925.83 893.71 934.74C894.135 938.134 892.013 939.831 889.468 940.68C891.165 948.317 892.438 953.832 889.468 952.984C884.801 951.711 883.528 958.075 876.74 958.075C874.194 958.075 870.376 951.711 866.133 943.225H865.709C861.042 943.225 850.435 960.62 848.314 972.924C846.192 984.804 835.585 980.985 819.887 982.258C804.189 983.531 810.553 1000.93 807.159 1009.41C803.765 1017.05 786.794 1003.47 777.885 1001.35C779.157 1008.14 781.279 1014.93 783.824 1014.93C788.491 1014.93 795.28 1027.66 799.947 1023.84C804.614 1020.02 818.615 1023.84 825.403 1021.29C832.191 1018.75 833.464 1012.38 845.344 1012.38C856.799 1012.38 852.132 1022.56 864.011 1016.2C875.467 1009.84 882.679 1014.93 881.406 1003.47C880.134 992.016 888.195 992.016 887.346 983.531C886.073 974.621 900.074 980.986 898.801 964.863C897.529 948.741 919.591 950.862 928.925 950.862C931.046 950.862 934.44 952.135 938.259 954.257C945.047 950.438 955.229 945.771 950.563 941.529C945.471 936.437 966.26 940.68 968.806 933.467C971.351 925.406 960.745 919.042 955.654 920.315Z" fill="#17274E" stroke="#091738" stroke-width="3" stroke-miterlimit="10"/>
<path d="M877.164 958.075C883.953 958.075 885.225 951.711 889.892 952.983C892.438 953.832 891.59 948.317 889.892 940.68C885.65 941.952 880.135 941.952 880.135 945.347C880.135 950.862 871.225 943.225 866.558 942.801C870.376 951.711 874.619 958.075 877.164 958.075Z" fill="#17274E" stroke="#091738" stroke-width="3" stroke-miterlimit="10"/>
<path d="M81.6589 113.356C72.325 104.871 56.2026 95.1125 54.5056 99.7795C52.8085 104.871 43.0505 105.719 38.8078 100.628C34.9893 95.5369 32.0194 89.597 20.1398 94.6882C8.68454 99.7794 0.623749 106.568 -0.224792 111.659C-1.07333 116.75 -8.71049 121.842 -9.55904 115.053C-10.4076 108.265 -19.7412 105.719 -25.681 104.022C-32.045 102.325 -41.8032 105.719 -42.6517 98.9309C-43.5003 92.1426 -52.8346 84.5058 -53.6832 77.2933C-54.5317 69.6564 -51.986 59.0496 -58.35 57.3525C-64.7141 55.6555 -68.5323 44.6245 -74.0478 44.6245C-79.5633 44.6245 -109.687 44.6245 -113.505 42.9274C-117.323 41.2303 -137.688 49.7157 -138.961 44.6245C-140.234 40.3818 -154.235 24.2596 -161.872 17.4712C-162.72 20.8654 -164.417 24.2595 -167.811 26.8051C-182.236 38.2604 -196.238 36.139 -191.571 22.5624C-186.904 8.56151 -186.48 -7.56063 -193.692 -7.56063C-201.329 -7.56063 -195.813 21.2896 -201.753 23.411C-206.844 25.1081 -208.966 2.62173 -204.723 -9.25781L-254.362 5.16745L-256.908 99.3552C-256.908 99.3552 -256.908 99.3552 -257.333 99.3552C-252.666 101.901 -247.15 102.749 -243.331 102.749C-235.695 103.174 -236.543 97.2338 -236.543 92.5669C-236.543 88.3242 -228.482 80.6874 -222.542 81.1117C-216.602 81.5359 -217.451 73.0506 -215.754 73.0506C-214.057 73.0506 -209.39 71.7778 -207.693 68.8079C-205.996 65.838 -196.662 69.2321 -193.692 72.6263C-190.722 75.5962 -183.933 76.8689 -178.418 78.1417C-173.327 79.4145 -171.63 96.8097 -171.63 100.628C-171.63 104.447 -146.598 103.598 -142.355 104.446C-138.112 104.871 -138.113 112.508 -134.294 118.447C-130.052 123.963 -127.506 131.6 -125.384 135.842C-123.687 140.085 -109.262 146.025 -105.444 151.54C-102.05 157.056 -91.0185 162.996 -82.9574 165.966C-74.8962 168.935 -67.2597 181.239 -62.5927 180.391C-57.9258 179.966 -45.1978 186.755 -45.1978 186.755L-43.5006 200.756C-43.0763 200.756 -42.2277 200.756 -41.8034 200.331C-35.0151 197.786 -30.7722 206.271 -25.681 206.271C-23.5596 206.271 -20.5901 208.392 -17.6203 210.09C-18.0445 197.786 -13.8017 191.846 -9.55904 188.027C-4.4678 183.785 -12.9532 176.148 -11.6804 169.36C-10.4076 162.571 -25.2571 158.753 -23.9843 153.237C-22.7115 147.722 -10.4076 148.146 -5.31635 145.601C-0.225098 143.055 -4.04353 133.721 1.0477 133.721C6.13895 133.721 8.68488 128.206 10.3819 122.266C12.079 116.75 20.9886 122.266 25.6555 118.447C30.3225 114.629 37.1106 112.083 39.232 115.478C40.5048 118.023 34.9893 128.63 32.4438 132.872C40.5049 132.448 52.8089 131.175 54.9302 128.63C57.9001 125.236 69.7793 133.721 73.5977 125.236C76.9918 115.902 90.9928 121.842 81.6589 113.356Z" fill="#17274E" stroke="#091738" stroke-width="3" stroke-miterlimit="10"/>
<path d="M1259.43 281.365C1257.31 288.154 1250.1 285.184 1240.76 286.881C1231.43 288.578 1231.01 312.761 1237.79 315.307C1242.88 317.004 1247.13 317.004 1248.82 309.791C1250.52 302.154 1259.86 299.609 1265.8 303.003C1271.73 305.973 1279.37 293.669 1279.37 284.335C1279.37 274.153 1261.98 274.153 1259.43 281.365Z" fill="#17274E" stroke="#091738" stroke-width="3" stroke-miterlimit="10"/>
<path d="M1219.13 305.549C1219.13 299.184 1206.4 300.457 1205.55 294.942C1205.12 289.426 1196.21 292.396 1187.3 299.184C1178.4 305.973 1175.85 307.246 1179.24 314.458C1182.64 321.247 1188.15 315.307 1190.28 308.094C1192.82 301.306 1198.34 318.277 1193.24 329.308C1188.15 340.763 1194.09 356.461 1200.88 355.188C1206.82 353.915 1214.46 331.429 1222.94 319.549C1232.28 307.67 1219.13 311.913 1219.13 305.549Z" fill="#17274E" stroke="#091738" stroke-width="3" stroke-miterlimit="10"/>
<path d="M1494.48 31.8965C1490.23 26.381 1483.45 34.8665 1474.54 36.9878C1465.63 38.6849 1438.47 14.5015 1431.26 3.04626C1424.47 -8.40902 1412.59 1.34918 1418.53 9.4103C1424.47 17.4714 1417.26 20.017 1417.26 31.4722C1417.26 42.9275 1410.47 42.9275 1411.32 50.1401C1412.59 57.7769 1401.99 56.5042 1395.2 57.777C1388.41 59.0498 1395.62 66.6867 1387.56 70.5051C1379.5 74.3235 1379.92 80.6875 1384.17 83.2332C1388.41 85.7788 1385.44 93.8399 1384.17 99.3554C1382.89 104.871 1389.26 100.628 1393.92 95.1127C1398.59 89.5972 1403.26 97.6582 1404.53 92.567C1405.8 86.203 1392.23 83.2332 1393.08 76.8691C1393.5 70.5051 1402.41 78.5662 1409.2 75.1721C1415.99 71.3536 1429.99 74.7477 1438.9 82.8089C1447.81 90.87 1449.93 87.9001 1451.63 77.7176C1453.32 67.5351 1466.9 63.2924 1480.05 63.2924C1493.63 63.2924 1494.48 56.5042 1490.66 53.11C1486.42 50.1401 1512.72 31.8965 1512.3 26.8052C1512.3 21.2897 1498.72 37.412 1494.48 31.8965Z" fill="#17274E" stroke="#091738" stroke-width="3" stroke-miterlimit="10"/>
<path d="M1346.83 270.336C1347.68 269.487 1348.53 268.639 1348.95 267.366C1352.35 261.426 1354.47 263.123 1356.59 265.244C1363.8 255.91 1371.86 248.274 1381.62 242.758C1385.44 236.818 1390.53 232.151 1397.32 228.333C1397.74 226.212 1398.17 224.09 1399.02 222.393C1403.68 214.756 1408.35 199.058 1403.68 189.725C1399.02 180.391 1414.29 174.027 1421.93 166.39C1429.56 158.753 1413.02 120.993 1412.59 109.962C1412.17 98.5065 1393.5 114.205 1387.56 117.599C1381.62 120.569 1377.8 140.085 1384.17 146.025C1390.53 151.54 1373.56 162.571 1374.41 174.451C1374.83 186.33 1363.8 186.33 1362.1 195.24C1360.41 204.15 1354.04 202.028 1343.86 210.514C1334.1 218.575 1328.59 209.241 1331.13 203.725C1333.68 198.21 1315.86 206.695 1316.71 220.696C1317.13 234.697 1300.59 235.97 1304.4 241.91C1308.65 248.274 1291.68 252.092 1292.1 246.152C1292.52 240.637 1281.49 243.607 1268.34 249.122C1254.76 254.638 1246.7 242.758 1239.07 250.819C1231.43 258.88 1218.7 273.306 1208.94 275.427C1199.19 277.124 1204.7 290.276 1208.94 288.155C1215.73 284.337 1227.19 288.155 1230.58 282.639C1233.98 277.124 1262.4 269.911 1280.22 269.487C1297.62 268.639 1287.01 278.397 1288.28 288.155C1289.55 298.337 1303.98 296.216 1311.62 286.882C1319.25 277.548 1325.19 277.973 1318.4 272.457C1312.04 266.942 1319.68 261.85 1324.34 269.487C1326.47 273.306 1331.56 275.427 1336.22 275.003C1339.19 272.457 1343.01 270.76 1346.83 270.336Z" fill="#17274E" stroke="#091738" stroke-width="3" stroke-miterlimit="10"/>
<path d="M770.249 645.389C771.097 644.964 771.946 644.116 772.794 643.692C780.855 638.6 789.765 634.782 798.25 630.964C801.644 623.751 808.433 615.69 807.16 611.023C805.887 606.78 790.189 609.326 782.552 609.326C774.916 609.326 755.824 621.205 763.46 638.176C765.157 641.57 767.279 644.116 770.249 645.389Z" fill="#17274E" stroke="#091738" stroke-width="3" stroke-miterlimit="10"/>
<path d="M1275.55 -71.2018C1275.98 -82.6571 1264.1 -78.8387 1259.86 -75.4445C1255.61 -72.4746 1244.16 -75.4446 1240.76 -67.8077C1237.37 -60.1709 1231.43 -64.8378 1223.37 -63.565C1215.31 -62.2922 1203.43 -66.1106 1204.28 -71.6261C1204.7 -77.1416 1199.61 -83.0815 1200.03 -89.8698C1200.46 -96.6581 1191.97 -93.6882 1186.03 -100.052C1180.09 -106.416 1168.64 -110.659 1166.09 -109.386C1163.97 -108.113 1156.76 -116.174 1147 -117.023C1137.24 -117.872 1138.09 -124.66 1139.36 -128.903C1140.64 -133.145 1131.3 -147.146 1129.6 -154.783C1127.91 -162.42 1120.7 -163.693 1118.15 -179.815C1115.18 -195.937 1107.12 -191.694 1108.82 -199.331C1110.51 -206.968 1099.06 -210.787 1096.09 -215.029C1093.12 -219.272 1080.81 -217.575 1072.33 -222.666C1063.42 -227.757 1058.33 -223.939 1050.27 -226.484C1042.21 -229.03 1023.54 -223.939 1020.99 -223.939C1018.87 -223.939 1004.02 -226.909 995.96 -215.029C987.899 -203.15 994.263 -203.574 997.657 -203.574C1001.05 -203.574 1002.75 -192.119 1003.6 -188.3C1004.02 -184.482 997.657 -178.966 994.687 -177.694C991.717 -176.421 983.656 -162.42 982.383 -157.753C981.111 -152.662 971.776 -140.358 973.049 -135.691C974.322 -131.448 968.382 -126.781 964.14 -126.357C959.897 -125.508 948.866 -117.023 945.472 -115.75C942.077 -114.477 928.077 -117.023 926.38 -121.266C925.955 -122.539 924.258 -123.811 922.137 -124.66L906.439 -90.7183L905.166 -79.6872C905.166 -79.6872 894.984 -77.1417 902.62 -68.6563C910.257 -60.5952 911.53 -67.3834 922.986 -67.3834C934.441 -67.3834 939.532 -57.6252 942.078 -64.8378C944.623 -71.6261 954.806 -75.8688 961.17 -67.3834C967.534 -59.3223 987.899 -45.3215 986.626 -38.5332C985.353 -31.7449 973.898 -33.0176 966.261 -35.9875C958.624 -38.5331 948.442 -30.4721 940.805 -30.4721C933.168 -30.4721 924.258 -27.9264 916.622 -19.441C908.985 -11.3799 910.257 -2.89447 898.802 -1.62167C887.347 -0.348862 882.256 -1.62172 869.528 8.13647C856.8 17.8947 842.799 13.652 837.708 10.6821C832.616 8.13651 823.707 6.43938 818.615 16.1976C813.524 25.9558 824.979 29.7743 823.706 40.8053C822.434 51.8363 809.706 48.8663 799.523 61.1702C789.341 73.474 772.794 78.9894 763.885 77.7166C754.975 76.4438 735.883 70.9284 719.336 78.9895C702.79 87.0507 691.335 99.3545 684.971 98.0817C678.607 96.8088 678.606 88.3235 669.696 90.0206C660.787 91.2934 655.696 88.7477 649.332 84.505C642.968 80.2623 637.877 87.0507 627.694 78.9895C617.512 70.9284 599.692 72.2012 592.055 70.9284C584.419 69.6556 555.144 70.9284 544.962 69.6555C534.779 68.3828 520.778 72.2011 519.506 67.1099C518.233 61.5944 510.596 57.3518 508.05 45.048C505.504 32.7442 499.14 28.5014 492.776 27.2286C486.412 25.9558 485.564 18.7433 480.048 17.4705C477.503 17.0462 474.108 7.71219 465.199 7.71219C456.289 7.71219 425.317 3.89381 421.075 -4.16731C416.832 -11.8042 425.317 -13.9255 425.317 -21.5624C425.317 -29.1992 429.985 -39.806 426.59 -42.7759C422.772 -45.7457 416.832 -52.9583 415.984 -58.8981C415.135 -64.8378 405.377 -73.3232 399.013 -73.7475C392.649 -74.1718 387.133 -78.4144 381.193 -84.3542C375.253 -89.8697 369.314 -89.4455 367.193 -103.871C367.193 -104.719 366.768 -105.568 366.344 -106.416C363.798 -106.841 360.829 -107.689 358.707 -107.689C357.01 -107.689 355.313 -108.962 353.616 -111.083C351.919 -105.144 346.828 -102.174 346.828 -97.5066C346.828 -92.4154 344.706 -85.6271 338.342 -85.6271C331.978 -85.6271 326.038 -80.5358 325.614 -69.5048C325.19 -58.4738 331.13 -57.201 328.584 -52.534C325.614 -47.867 314.159 -42.7759 309.916 -45.3215C306.098 -47.4429 298.037 -46.17 291.673 -47.0186C285.308 -47.8671 280.217 -56.7767 278.52 -47.0186C276.399 -37.2604 263.246 -9.25854 266.641 -6.28867C270.035 -3.31877 272.156 3.89378 266.641 3.89378C261.125 3.89378 255.186 3.04527 252.64 0.0753784C249.67 -2.8945 240.76 4.31805 233.972 3.89378C231.002 3.89378 218.274 9.83356 222.517 12.3792C226.76 14.9248 226.76 25.9559 226.76 30.6228C226.76 35.2898 236.517 49.2906 234.82 54.3818C233.123 59.0488 224.214 64.1401 224.214 70.5042C224.214 76.4439 225.911 82.3837 222.941 83.6565C219.971 84.9293 210.213 89.1719 205.546 92.9904C200.879 96.8088 192.818 96.8088 190.272 102.324C187.726 107.84 183.908 112.931 174.574 111.658C166.513 110.81 162.695 109.113 156.755 117.174C150.815 125.235 149.542 121.841 144.875 125.659C140.633 129.478 135.966 122.689 132.571 121.416C129.177 120.144 124.086 125.659 120.692 125.659C117.298 125.659 114.328 131.599 109.661 133.296C105.418 134.569 100.751 133.296 100.751 138.812C100.751 142.206 99.903 146.448 97.3574 149.418L100.327 167.662C100.327 167.662 118.995 174.45 119.843 181.238C120.692 188.027 123.662 209.664 123.662 209.664H123.238C130.875 216.029 141.057 222.817 141.057 225.363C141.057 228.332 141.906 236.818 151.239 241.485C157.179 244.455 163.119 247.849 166.513 250.394C166.937 249.122 167.362 248.273 167.362 248.273L174.998 247.424C174.998 247.424 177.12 249.122 179.665 251.667C181.787 244.879 194.939 237.242 202.152 237.666C209.364 238.091 226.76 252.94 224.638 258.031C222.941 263.122 210.637 282.215 205.121 283.487C203 283.912 200.03 284.336 196.636 284.336C196.212 287.306 195.364 290.276 195.364 291.973C195.364 296.215 202.152 303.004 206.394 310.216C210.213 317.853 200.031 322.944 194.939 317.853C189.424 312.762 187.302 322.944 190.272 327.187C193.242 331.43 191.969 343.309 197.485 344.158C203 345.007 207.667 356.886 213.607 356.886C219.971 356.886 225.487 367.917 225.487 367.917C225.487 367.917 233.972 373.857 233.972 377.251C233.972 377.675 233.972 378.1 233.548 378.524C240.336 377.675 245.003 377.675 245.427 374.705C246.276 371.311 255.186 371.311 261.125 378.1C267.065 384.888 292.097 401.859 301.431 409.495C310.765 417.557 331.978 426.466 339.615 426.042C347.252 425.618 354.04 431.557 365.496 431.133C367.193 431.133 368.465 431.133 370.162 431.133C371.859 429.436 374.405 429.436 376.526 426.042C379.496 420.951 384.163 430.285 382.89 437.073C382.042 440.043 382.891 443.861 384.163 446.407C385.861 443.861 387.133 440.891 388.406 437.497C392.225 427.315 398.588 427.739 402.407 424.345C406.225 420.951 410.468 422.648 418.529 427.315C426.166 431.557 429.56 422.223 441.44 434.103C443.985 432.83 446.955 431.557 448.228 431.557C450.349 431.557 453.743 426.466 457.562 422.224C461.38 417.981 460.532 412.89 465.199 413.738C469.866 414.587 472.411 407.798 482.17 401.859C492.352 395.919 500.837 405.253 505.504 401.01C510.171 396.767 515.687 395.07 515.687 399.313C515.687 403.556 522.051 408.647 523.324 413.738C524.596 418.405 533.082 420.102 534.779 420.526C536.052 419.678 537.324 418.829 538.173 418.405C542.84 414.587 551.326 418.829 551.326 424.345C551.326 429.86 551.75 436.224 555.568 436.224C559.387 436.224 563.629 436.224 563.629 446.407C563.629 456.589 567.023 468.469 558.962 477.379C550.477 486.288 541.143 502.41 542.84 507.077C544.537 511.744 540.294 520.654 546.234 517.26C552.174 513.866 566.175 517.26 564.054 521.078C561.932 524.897 564.478 538.049 569.993 538.473C575.509 538.898 579.327 542.292 577.206 547.807C575.509 553.323 572.539 561.808 577.206 561.808C581.873 561.808 589.085 561.808 588.237 567.324C587.388 572.839 591.631 578.355 600.541 574.536C605.632 572.415 608.178 570.294 609.45 572.415C612.845 572.415 613.269 580.9 619.209 582.597C625.573 584.294 622.179 568.172 620.057 565.627C617.512 563.081 620.906 552.05 623.027 554.596C625.148 557.141 632.361 554.596 636.18 549.504C639.998 544.413 648.059 553.747 651.029 547.807C653.999 541.868 661.211 552.05 668 547.807C675.212 543.565 678.182 551.201 681.152 545.262C684.122 539.322 694.304 531.685 696.85 534.231C698.971 536.776 700.668 541.868 712.972 543.565C725.276 545.262 718.487 552.05 718.487 556.293C718.487 560.535 732.489 571.566 738.004 572.415C738.853 572.415 740.55 573.688 742.247 575.809C746.065 573.688 752.853 577.082 754.126 572.415C755.823 566.899 762.187 568.172 764.733 572.839C767.279 577.506 770.249 578.355 776.189 572.839C782.128 567.324 785.098 578.355 781.28 581.749C777.885 584.719 780.007 594.477 785.522 600.417C791.038 605.932 791.886 597.023 790.613 591.507C789.34 585.992 799.947 580.052 818.191 573.688C836.434 566.899 856.375 552.474 856.8 549.504C857.224 546.534 869.952 555.02 875.892 549.929C877.165 548.656 879.286 547.807 881.831 547.383C883.104 546.11 883.953 544.837 885.65 543.989C889.044 541.443 892.862 539.322 896.256 537.201C897.954 534.231 900.923 531.261 905.166 529.564C917.046 524.472 932.744 521.078 944.199 513.441C944.623 512.169 945.047 510.896 945.047 510.047C945.047 507.926 949.29 506.653 953.109 504.956C959.897 495.622 958.624 484.591 960.321 473.56C963.291 449.801 978.14 438.77 998.081 438.346C998.081 438.346 998.081 438.346 998.505 437.922C998.93 436.649 999.354 435.376 999.354 434.103C1000.2 428.163 1008.26 422.648 1012.08 421.375C1015.9 419.678 1017.17 411.193 1016.32 403.98C1015.05 396.767 1023.11 398.464 1019.72 395.919C1016.32 392.949 1020.99 385.312 1028.2 383.191C1034.99 381.069 1023.96 377.675 1020.14 380.645C1016.33 383.615 1012.08 371.736 1008.69 376.402C1005.29 381.069 995.111 373.433 1001.9 372.16C1008.26 370.463 1018.02 362.826 1022.69 361.129C1026.93 359.432 1016.32 349.249 1010.81 349.673C1005.29 350.098 999.354 335.673 993.414 335.673C987.474 335.673 997.657 331.43 1004.45 335.248C1011.23 339.067 1018.87 342.037 1021.84 339.067C1024.81 336.097 1010.39 323.369 1005.29 319.126C1000.2 314.883 1004.87 308.944 1001.9 306.398C998.505 303.852 991.717 287.73 989.172 280.518C987.05 273.305 974.747 272.032 971.777 267.365C968.807 262.698 972.201 251.667 981.11 247.424C990.02 243.182 986.202 235.121 990.445 235.969C994.687 236.818 998.081 235.121 1001.05 227.908C1004.45 220.696 1009.96 224.938 1012.93 221.12C1016.32 217.301 1030.33 217.726 1035.42 213.907C1040.51 210.089 1030.75 198.634 1023.96 200.331C1017.17 202.028 1009.54 199.482 1004.87 191.845C1000.2 184.208 987.899 205.846 978.565 210.513C969.231 215.18 963.291 202.028 966.261 193.542C969.655 185.057 959.049 185.481 945.896 185.905C932.744 186.754 937.835 160.874 945.472 159.601C953.533 158.328 964.988 167.238 970.079 151.54C975.171 135.842 981.959 148.145 992.99 134.145C1004.02 120.144 1016.75 111.658 1026.51 120.144C1036.27 128.205 1016.32 141.357 1012.93 148.994C1009.54 157.055 1015.9 159.176 1009.96 165.116C1004.02 171.056 1012.08 172.753 1023.54 164.692C1034.99 157.055 1048.99 147.297 1060.02 142.63C1062.99 141.357 1066.39 140.933 1069.36 141.357C1071.06 136.69 1072.75 133.296 1074.87 132.023C1082.51 127.781 1107.97 115.477 1111.79 109.961C1115.6 104.446 1119.42 95.1117 1124.51 95.1117C1129.6 95.1117 1129.6 100.627 1137.24 100.627C1144.88 100.627 1153.79 103.173 1149.97 96.3846C1146.15 89.5963 1148.7 89.5962 1157.61 88.3234C1166.52 87.0506 1165.24 77.2925 1171.61 77.2925C1177.97 77.2925 1176.7 60.7459 1183.06 60.7459C1189.43 60.7459 1191.97 70.5041 1199.61 67.5342C1200.88 67.1099 1203 67.5343 1205.12 68.3828C1206.82 67.11 1208.52 65.8372 1209.79 64.5644C1208.94 56.079 1209.79 48.4421 1208.52 44.1994C1205.55 36.5625 1208.52 31.047 1207.25 26.8043C1205.97 22.5616 1205.55 11.5307 1210.22 11.5307C1214.88 11.5307 1220.82 -1.19748 1226.34 3.46948C1232.28 7.71219 1243.73 8.98499 1243.73 3.46948C1243.73 -2.04602 1251.79 -2.8945 1253.07 -10.5314C1254.34 -18.1682 1262.83 -19.8652 1264.52 -26.6535C1266.22 -33.4418 1269.19 -49.9885 1275.13 -53.8069C1282.34 -57.6253 1275.13 -60.1708 1275.55 -71.2018Z" fill="#17274E" stroke="#091738" stroke-width="3" stroke-miterlimit="10"/>
<path d="M1025.23 494.349C1021.84 489.258 1009.96 493.077 1000.63 503.683C999.778 507.926 998.505 512.169 996.808 516.411C998.081 517.684 999.354 518.957 1000.2 520.23C1006.57 530.412 1001.9 541.868 992.566 548.656C994.687 546.959 992.141 549.929 992.141 549.929C992.141 549.929 992.141 550.353 991.717 550.353C995.111 557.566 999.778 561.384 1001.05 560.535C1006.99 555.868 1030.75 501.986 1025.23 494.349Z" fill="#17274E" stroke="#091738" stroke-width="3" stroke-miterlimit="10"/>
<path d="M993.839 755.699C995.536 764.609 999.778 782.853 1012.51 778.186C1025.23 773.943 992.566 749.335 993.839 755.699Z" fill="#17274E" stroke="#091738" stroke-width="3" stroke-miterlimit="10"/>
<path d="M1054.51 773.943C1054.51 781.156 1057.05 791.762 1061.3 787.52C1066.39 782.429 1074.87 788.793 1069.36 796.854C1064.27 804.915 1077.42 813.4 1079.12 823.159C1080.81 833.341 1086.75 824.856 1085.48 817.643C1084.21 810.006 1086.75 810.855 1094.39 804.915C1099.91 800.672 1096.94 794.732 1093.12 787.52C1087.18 787.52 1081.24 787.52 1076.57 786.247C1067.66 784.55 1060.45 779.883 1054.51 773.943Z" fill="#17274E" stroke="#091738" stroke-width="3" stroke-miterlimit="10"/>
<path d="M1061.3 840.978C1063.42 847.342 1080.39 837.159 1075.72 830.795C1071.48 824.855 1059.6 836.311 1061.3 840.978Z" fill="#17274E" stroke="#091738" stroke-width="3" stroke-miterlimit="10"/>
<path d="M957.775 828.674C949.714 840.129 930.198 858.797 932.743 863.888C936.137 870.676 957.775 836.311 968.382 828.25C978.989 820.188 977.292 812.976 973.474 805.763C970.079 797.702 965.836 817.218 957.775 828.674Z" fill="#17274E" stroke="#091738" stroke-width="3" stroke-miterlimit="10"/>
<path d="M1031.17 750.184C1034.14 749.759 1037.54 750.608 1040.93 751.881C1038.81 746.789 1037.54 741.698 1036.27 736.183C1032.87 736.183 1029.05 737.031 1026.08 738.728C1016.32 745.092 1023.11 727.273 1016.33 719.212C1009.54 711.151 1021.42 699.271 1029.9 689.089C1037.96 678.906 1027.36 661.935 1028.63 654.723C1029.9 647.086 1029.05 644.54 1025.23 647.086C1020.99 649.632 1004.45 639.449 996.809 644.54C989.172 649.632 996.384 691.21 992.566 694.18C989.172 697.15 984.505 687.392 983.232 691.634C981.535 697.15 983.656 720.485 988.323 720.485C992.99 720.485 996.384 726.849 993.414 737.031C990.445 747.214 1002.32 748.486 1013.35 743.82C1024.39 739.153 1020.14 751.881 1031.17 750.184Z" fill="#17274E" stroke="#091738" stroke-width="3" stroke-miterlimit="10"/>
<path d="M1095.24 841.825C1100.33 851.159 1085.48 843.522 1084.21 853.28C1082.94 862.614 1071.9 854.977 1072.75 862.614C1073.18 870.251 1061.3 862.614 1055.36 858.371C1049.42 854.129 1041.36 870.251 1032.45 872.797C1023.54 875.342 1019.3 895.283 1024.81 894.859C1031.6 894.434 1035.42 884.252 1042.21 884.676C1048.99 885.1 1046.87 877.039 1056.63 879.161C1066.39 880.858 1059.6 913.102 1072.75 915.648C1086.33 918.193 1086.75 927.103 1093.12 927.103C1099.48 927.103 1091.85 907.162 1092.69 899.95C1093.12 893.161 1106.69 899.526 1113.48 890.616C1120.27 881.706 1108.82 858.371 1108.82 843.522C1109.24 827.824 1090.15 832.491 1095.24 841.825Z" fill="#17274E" stroke="#091738" stroke-width="3" stroke-miterlimit="10"/>
<path d="M1026.51 816.794C1029.48 816.369 1036.27 816.794 1037.11 810.43C1037.54 804.066 1043.9 821.885 1038.81 827.4C1033.72 832.916 1033.72 848.614 1041.78 850.735C1049.84 852.432 1065.12 822.309 1062.57 816.794C1060.45 811.278 1053.24 820.612 1054.93 812.975C1056.63 805.338 1034.14 785.822 1025.23 787.943C1016.75 789.64 1019.72 818.066 1026.51 816.794Z" fill="#17274E" stroke="#091738" stroke-width="3" stroke-miterlimit="10"/>
<path d="M214.031 895.708C215.728 896.132 217.001 896.981 218.274 897.829C225.487 902.496 231.002 908.436 236.093 914.376C245.003 909.285 253.064 896.556 253.488 884.677C253.912 867.282 225.91 834.613 221.668 835.037C216.577 835.462 217.425 846.917 214.88 854.978C211.91 863.039 212.758 871.1 213.607 883.404C213.607 888.071 213.607 891.889 214.031 895.708Z" fill="#17274E" stroke="#091738" stroke-width="3" stroke-miterlimit="10"/>
<path d="M351.07 -119.144C350.646 -123.387 346.828 -121.69 344.282 -119.993C341.312 -118.296 331.979 -117.023 328.584 -117.023C325.19 -117.023 318.826 -122.114 318.826 -125.933C318.826 -129.751 317.977 -133.994 314.583 -133.994C311.189 -133.994 305.674 -135.691 302.279 -145.025C298.885 -153.935 293.37 -153.934 289.551 -156.48C285.733 -159.026 274.702 -152.237 270.035 -150.54C265.368 -148.843 256.883 -152.237 250.943 -153.934C245.003 -155.207 241.185 -167.087 235.669 -165.814C230.154 -164.541 228.881 -152.237 224.214 -152.237C219.971 -152.237 211.91 -176.845 203.849 -190.422C195.364 -203.998 180.514 -231.576 167.786 -236.667C154.634 -241.758 158.452 -248.971 162.27 -252.789C165.665 -256.608 154.209 -257.456 149.118 -254.062C144.027 -250.668 137.239 -244.728 131.299 -243.031C125.359 -241.758 116.45 -231.152 110.086 -233.697C103.722 -236.243 100.327 -224.788 95.2362 -229.879C90.145 -234.97 102.024 -238.788 102.024 -243.455C102.024 -248.122 93.539 -242.183 91.4177 -244.728C89.2963 -247.698 82.0834 -250.244 82.0834 -246.001C82.0834 -241.758 76.5682 -244.304 76.5682 -247.274C76.5682 -250.668 72.7495 -256.608 69.3553 -252.365C65.9612 -248.122 54.0818 -245.577 51.5362 -248.971C48.9906 -252.365 53.2333 -253.638 53.6576 -257.88C54.0818 -262.123 49.4147 -267.639 50.2632 -273.154C51.1118 -278.245 41.7778 -283.337 37.5351 -281.64C33.2924 -279.942 26.9285 -281.64 22.2615 -284.185C17.5946 -286.731 -1.49725 -282.912 -2.34579 -278.245C-3.19434 -273.578 -26.9536 -269.76 -31.1963 -268.063C-35.439 -266.366 -52.834 -263.396 -59.198 -262.547C-65.1378 -261.699 -71.5021 -255.759 -79.139 -255.759C-87.2001 -255.759 -102.05 -254.911 -108.838 -248.971C-115.626 -243.455 -127.081 -248.122 -132.597 -246.001C-137.688 -244.304 -146.598 -246.849 -149.143 -245.152C-151.689 -243.455 -150.84 -232 -148.295 -227.333C-145.749 -222.666 -131.748 -220.545 -130.9 -217.999C-130.051 -215.029 -144.901 -215.029 -151.689 -214.181C-158.477 -213.332 -156.78 -203.998 -155.083 -198.907C-153.386 -194.24 -161.871 -189.573 -167.387 -187.452C-172.478 -185.755 -167.387 -175.996 -162.296 -175.996C-157.204 -175.996 -152.537 -171.329 -148.295 -171.329C-144.052 -171.329 -143.204 -161.996 -143.204 -156.056C-143.204 -150.54 -148.295 -148.419 -155.507 -148.419C-162.296 -148.419 -166.114 -153.934 -170.357 -155.207C-174.6 -156.056 -173.751 -146.722 -177.145 -145.025C-180.539 -143.328 -181.388 -151.813 -186.903 -151.813C-191.994 -151.813 -198.359 -152.662 -200.056 -158.601C-201.753 -164.117 -214.057 -165.39 -219.148 -159.45C-224.239 -153.934 -225.936 -156.48 -230.603 -160.298C-234.846 -164.117 -247.998 -158.601 -249.695 -153.51C-251.392 -148.843 -261.151 -146.722 -267.939 -151.813C-274.727 -156.48 -279.394 -158.601 -279.394 -151.813C-279.394 -145.025 -284.485 -150.965 -284.485 -154.783C-284.485 -158.601 -295.94 -166.238 -301.032 -170.057C-306.123 -173.875 -322.669 -173.875 -323.942 -177.694C-324.791 -181.512 -335.398 -184.482 -337.943 -177.694C-340.489 -170.905 -344.731 -175.996 -348.55 -177.694C-351.944 -179.391 -360.005 -174.724 -363.399 -173.027C-366.793 -171.329 -378.249 -162.844 -384.189 -162.844C-390.128 -162.844 -386.734 -154.359 -394.795 -152.662C-402.856 -150.965 -400.735 -145.025 -399.887 -141.206C-399.038 -137.388 -394.795 -131.024 -401.584 -128.054C-408.372 -125.084 -411.342 -137.388 -417.282 -142.055C-423.221 -146.722 -428.737 -141.206 -428.737 -134.418C-428.737 -127.63 -435.525 -127.63 -439.344 -121.266C-442.738 -114.477 -433.404 -113.629 -433.404 -111.083C-433.404 -108.113 -438.495 -105.568 -440.192 -104.295C-441.889 -103.446 -446.132 -94.1125 -444.435 -91.1426C-442.738 -88.1727 -432.131 -89.4455 -432.98 -82.6572C-433.828 -75.8689 -434.677 -69.5048 -429.585 -71.2018C-424.494 -72.8989 -418.979 -72.0504 -415.584 -72.0504C-412.19 -72.0504 -409.645 -64.4136 -403.281 -56.7767C-397.341 -49.1399 -394.371 -45.3214 -400.735 -43.6243C-406.675 -41.9272 -404.129 -38.1089 -396.492 -34.2905C-394.371 -33.4419 -392.25 -31.7449 -390.128 -30.0478C-388.855 -30.8963 -387.583 -31.7448 -386.734 -33.0176C-376.976 -42.3515 -358.732 -51.2613 -345.58 -47.4429C-332.003 -43.6244 -320.972 -49.9885 -315.457 -41.0788C-309.517 -32.1692 -315.457 -16.0468 -313.336 -9.68277C-310.79 -3.31873 -323.942 -2.8945 -332.428 -4.1673C-341.337 -5.44012 -359.157 -0.348846 -357.035 5.16666C-354.49 10.6822 -348.126 23.8345 -360.005 17.0462C-371.46 10.2578 -376.127 23.8345 -369.763 23.8345C-363.399 23.8345 -354.49 31.8956 -354.49 37.8354C-354.49 43.3509 -354.065 56.079 -348.126 53.9577C-342.186 52.2606 -342.186 63.2915 -334.125 62.8672C-326.064 62.443 -318.427 65.4128 -324.791 73.474C-331.155 81.5351 -320.548 104.446 -318.427 99.3544C-317.154 96.3846 -318.427 89.172 -315.881 84.9293C-320.548 73.474 -301.032 73.474 -295.516 73.474C-289.152 73.474 -278.545 83.6565 -271.333 93.4147C-264.544 103.597 -257.332 96.8088 -257.332 96.8088L-254.786 2.62103L-205.147 -11.8041C-204.723 -13.0769 -204.298 -14.3498 -203.45 -15.1983C-197.086 -25.3808 -188.601 -16.8954 -185.206 -14.774C-182.661 -12.6527 -183.933 -25.3808 -177.145 -24.9565C-170.357 -24.5322 -177.569 -12.2284 -172.478 -12.2284C-168.236 -12.2284 -158.902 3.4696 -161.872 15.7734C-154.235 22.5617 -140.234 38.6839 -138.961 42.9266C-137.264 48.0179 -117.323 39.5325 -113.505 41.2296C-109.686 42.9267 -79.1387 42.9266 -74.0474 42.9266C-68.5319 42.9266 -64.7137 53.9576 -58.3497 55.6547C-51.9856 57.3518 -54.5313 68.3827 -53.6828 75.5953C-52.8343 83.2321 -43.4999 90.869 -42.6514 97.2331C-41.8029 104.021 -31.6204 100.627 -25.6806 102.324C-19.3166 104.021 -9.98294 106.567 -9.55869 113.355C-8.71014 120.144 -1.07297 115.052 -0.224457 109.961C0.624084 104.87 8.26065 98.0816 20.1402 92.9904C25.2314 90.869 29.0501 90.8691 31.5958 91.7176C33.7171 85.7779 35.838 80.6866 37.5351 79.838C41.7778 78.1409 48.9905 71.7769 49.8391 65.4129C50.2633 59.0488 65.9615 59.0489 76.5682 64.5644C87.175 70.0799 93.5389 70.0799 93.9632 61.5945C94.3875 52.6848 109.661 50.1392 114.328 52.6848C118.995 55.2304 133.42 64.14 140.633 60.7459C147.421 57.776 182.636 61.5945 191.121 63.7158C200.031 66.2614 202.152 59.8973 209.789 69.2313C216.153 77.2924 219.122 70.0798 226.335 76.0196C226.335 73.474 225.911 70.5041 225.911 67.5342C225.911 61.5945 234.821 56.079 236.518 51.412C238.215 46.7451 228.456 32.7441 228.456 27.6529C228.456 22.9859 228.456 11.5307 224.214 9.40936C219.971 6.86374 232.699 0.923981 235.669 0.923981C242.033 1.34824 251.367 -5.86444 254.337 -2.89456C257.307 0.0753479 262.822 0.923981 268.338 0.923981C273.853 0.923981 271.732 -5.86444 268.338 -9.25861C264.944 -12.2285 278.521 -40.6544 280.218 -49.9884C282.339 -59.7466 287.006 -50.8369 293.37 -49.9884C299.734 -49.1398 307.371 -50.4127 311.614 -48.2913C315.432 -46.17 327.311 -50.837 330.281 -55.504C333.251 -60.1709 326.887 -61.4437 327.311 -72.4747C327.736 -83.5057 333.675 -88.5969 340.039 -88.5969C346.404 -88.5969 348.525 -94.961 348.525 -100.477C348.525 -105.144 353.616 -108.113 355.313 -114.053C353.192 -113.629 351.495 -116.599 351.07 -119.144ZM-147.022 -27.0779C-149.143 -23.6837 -172.478 -30.0477 -174.175 -35.1389C-176.296 -40.2302 -141.931 -34.2904 -147.022 -27.0779ZM183.484 -29.1992C167.362 -29.1992 130.875 -38.1089 116.45 -21.1381C102.024 -4.1673 112.207 4.74231 105.843 6.01514C99.0546 7.28793 95.2358 -19.8653 103.297 -28.3507C111.358 -37.2604 137.663 -41.0788 153.785 -36.4118C169.907 -32.1691 199.182 -40.2303 203.425 -38.9575C208.092 -38.1089 200.03 -29.1992 183.484 -29.1992Z" fill="#17274E" stroke="#091738" stroke-width="3" stroke-miterlimit="10"/>
<path d="M98.2051 200.754C102.448 203.724 101.599 207.542 105.842 206.694C109.236 206.27 116.024 207.967 119.419 211.361C122.813 210.512 125.783 210.088 125.783 210.088C125.783 210.088 122.813 188.45 121.964 181.662C121.116 174.874 102.448 168.085 102.448 168.085L99.4781 149.842C99.4781 149.842 77.8404 153.236 74.022 151.539C70.2035 149.842 61.7179 154.084 57.8995 148.145C54.0811 142.205 46.8687 152.387 40.0804 147.296C33.2921 142.205 12.9268 148.993 12.0782 144.75C11.2297 140.508 20.5638 131.174 26.0793 132.022C27.3521 132.022 29.4736 132.447 32.0192 132.022C34.5648 127.78 40.5045 117.173 38.8074 114.627C37.1103 111.657 29.8979 114.203 25.231 117.597C20.564 121.416 11.6539 115.9 9.95687 121.416C8.25979 126.931 5.71438 132.871 0.623146 132.871C-4.46809 132.871 -0.649662 142.205 -5.7409 144.75C-10.8321 147.296 -23.136 146.447 -24.4089 152.387C-25.6817 157.903 -10.8321 161.721 -12.1049 168.51C-13.3777 175.298 -4.46809 182.935 -9.98359 187.177C-14.6506 190.996 -18.4691 196.936 -18.0448 209.239C-14.2264 211.785 -10.8319 214.331 -8.71057 210.088C-5.74069 203.3 11.654 210.088 11.654 204.148C11.654 198.208 30.322 199.906 30.322 193.966C30.322 188.026 41.3528 174.874 48.1411 175.298C54.9294 176.146 47.2928 188.874 55.7782 193.117C64.2636 197.36 51.9595 212.209 56.6265 218.149C58.3236 220.27 61.718 219.846 65.9607 218.573C68.9306 217.725 72.7491 216.028 76.5675 214.755C84.2043 208.815 94.3867 198.633 98.2051 200.754Z" fill="#17274E" stroke="#091738" stroke-width="3" stroke-miterlimit="10"/>
<path d="M105.418 206.694C101.175 207.543 102.024 203.724 97.7811 200.755C94.3869 198.633 83.7803 208.816 76.1434 216.028C72.7493 217.301 68.9308 218.574 65.9609 219.847C61.7182 221.119 58.3238 221.544 56.2025 219.422C51.5355 213.483 63.8395 198.633 55.3541 194.39C46.8687 190.148 54.5054 177.42 47.7171 176.571C40.9288 175.723 29.898 189.299 29.898 195.239C29.898 201.179 11.23 199.482 11.23 205.421C11.23 211.361 -5.74098 204.573 -9.13515 211.361C-12.105 218.15 -20.5904 206.27 -26.1059 206.27C-31.6214 206.27 -35.4395 197.785 -42.2279 200.33C-49.0162 202.876 -53.2591 197.785 -58.3503 196.936C-63.8658 196.088 -67.684 209.664 -74.0481 207.119C-80.4121 204.573 -83.3822 219.847 -85.9278 227.908C-88.0492 236.393 -114.778 236.393 -113.93 245.727C-113.081 255.061 -129.627 258.455 -130.9 252.515C-132.597 246.576 -142.78 249.97 -144.901 248.273C-147.023 246.576 -154.235 249.97 -153.387 258.455C-152.538 266.941 -160.175 272.032 -161.023 275.426C-161.872 278.82 -166.539 289.003 -163.569 294.094C-160.599 299.185 -167.387 307.67 -163.569 316.58C-159.75 325.914 -161.872 337.369 -160.599 340.763C-158.902 344.158 -144.477 342.461 -141.083 351.794C-138.113 361.128 -160.599 376.826 -161.447 381.918C-161.872 384.039 -159.751 386.585 -157.629 389.13C-148.72 389.555 -137.688 390.827 -127.506 392.524C-114.778 395.07 -49.4405 384.463 -48.1677 381.918C-46.8949 379.372 -50.2892 363.674 -49.8649 360.704C-49.4407 357.734 -40.9549 350.097 -34.1666 350.522C-27.3783 351.37 -20.5902 352.219 -20.5902 346.703C-20.5902 341.188 -1.49799 333.975 0.199097 339.066C1.89618 344.158 9.10855 342.036 9.53282 329.733C9.95709 317.004 9.10855 307.67 15.8969 307.246C22.6852 306.822 29.8981 302.155 29.4738 298.336C29.0495 294.518 20.5641 286.881 23.1098 284.336C25.2311 281.79 43.0502 290.7 45.1716 284.76C47.7172 279.244 43.8988 272.88 46.8687 267.789C49.8386 262.698 56.6267 257.607 56.2025 252.515C55.7782 247.424 56.627 244.454 52.8086 239.787C48.5659 235.545 50.2628 229.605 55.7783 229.181C56.6268 229.181 57.8994 228.756 58.748 227.908C62.9907 227.059 66.3849 226.211 68.9305 224.089C76.1431 218.15 90.1442 213.483 95.6597 215.604C99.9024 217.301 109.66 216.028 115.6 209.24C112.206 207.119 107.963 206.27 105.418 206.694Z" fill="#17274E" stroke="#091738" stroke-width="3" stroke-miterlimit="10"/>
<path d="M153.36 241.909C144.027 237.242 143.178 228.757 143.178 225.787C143.178 223.242 132.996 216.453 125.359 210.089C124.51 210.089 121.965 210.513 119.419 211.362C118.57 210.513 117.297 209.665 116.025 208.816C110.085 215.605 100.327 216.878 96.0841 215.18C90.5686 213.059 76.9917 217.726 69.3549 223.666C66.8093 225.787 63.4155 226.636 59.1729 227.484C58.3243 228.333 57.0512 228.757 56.2027 228.757C51.1114 229.181 49.4146 235.121 53.233 239.364C57.4757 243.606 56.2025 247.001 56.6268 252.092C57.0511 257.183 50.263 262.274 47.2931 267.366C44.3232 272.457 47.7173 278.821 45.5959 284.336C43.4746 289.852 25.6555 281.366 23.5341 283.912C20.9885 286.458 29.4739 294.095 29.8981 297.913C30.3224 301.731 23.5338 305.974 16.3212 306.823C9.5329 307.247 10.3814 317.005 9.95717 329.309C9.5329 342.037 2.32053 343.734 0.623459 338.643C-1.07362 333.552 -20.1659 340.34 -20.1659 346.28C-20.1659 351.795 -26.5297 350.522 -33.7423 350.098C-40.5306 349.674 -49.0163 356.886 -49.4406 360.281C-49.8648 363.25 -46.4706 378.948 -47.7434 381.494C-49.0162 384.04 -113.929 394.646 -127.082 392.101C-137.264 389.979 -148.295 389.131 -157.205 388.707C-153.81 392.101 -149.144 396.343 -147.871 400.162C-145.325 407.799 -136.84 414.587 -127.506 418.406C-118.172 422.648 -122.839 440.043 -118.172 441.74C-113.505 443.437 -107.141 457.014 -113.505 457.863C-119.869 458.711 -125.384 460.408 -131.324 463.802C-137.264 466.772 -143.628 474.833 -143.628 484.167C-141.507 484.167 -139.385 484.167 -137.688 484.592C-133.446 485.44 -129.203 486.713 -125.384 488.834C-102.05 482.47 -77.4423 478.652 -53.6833 480.349C-39.2581 481.197 -32.0453 493.501 -33.3181 504.532C-31.621 508.351 -33.3182 512.593 -30.7726 516.412C-27.8027 521.503 -21.8629 520.654 -13.8018 524.473C-12.529 524.897 -11.6802 525.746 -10.8316 526.594C-10.4073 525.746 -9.98338 525.321 -9.55911 524.897C-4.89215 518.957 -4.0433 508.775 8.26051 511.32C20.5643 513.866 19.7154 508.775 26.9279 510.472C34.1405 512.169 38.3832 511.32 41.7774 506.229C44.7473 501.138 38.8076 490.956 34.9892 486.713C31.1707 482.47 25.6552 473.136 26.5038 465.075C27.3523 456.59 14.1999 456.59 14.1999 449.801C14.1999 443.013 26.5037 431.982 29.0493 429.861C31.5949 427.315 41.3531 436.649 43.8987 431.558C46.4444 426.467 53.2331 429.861 57.0515 430.709C60.8699 431.558 67.2339 422.224 68.0824 414.587C68.9309 406.95 82.083 406.102 84.2043 403.556C86.75 401.01 90.5686 384.464 91.8414 381.07C93.5385 377.676 103.296 380.221 103.296 370.887C103.296 361.553 107.964 359.856 112.631 359.008C117.298 358.159 115.601 349.674 116.449 342.885C117.298 336.097 120.267 328.46 126.631 326.763C132.995 325.066 124.51 315.732 117.298 317.429C110.509 319.126 105.842 297.489 105.842 297.489C105.842 297.489 106.691 279.669 102.872 277.548C99.0539 275.002 104.569 265.668 113.055 265.668C121.54 265.668 137.238 275.851 142.754 271.608C148.269 267.366 158.876 264.82 162.27 263.123C164.816 261.85 167.786 253.789 169.483 249.97C165.24 247.849 159.3 244.879 153.36 241.909Z" fill="#17274E" stroke="#091738" stroke-width="3" stroke-miterlimit="10"/>
<path d="M525.87 965.713C535.628 972.077 541.143 994.563 552.598 995.836C564.054 997.109 565.326 1036.57 574.236 1038.69C581.449 1040.38 595.45 1061.17 601.389 1077.72C610.299 1087.9 617.936 1099.36 622.603 1112.51C626.846 1116.33 630.664 1120.15 632.785 1124.39C639.15 1136.27 664.606 1152.82 668.424 1157.48C671.818 1162.57 675.212 1174.03 678.182 1168.09C681.152 1162.57 693.456 1168.09 698.971 1168.94C704.911 1169.79 706.608 1146.45 705.76 1137.54C705.335 1128.63 708.73 1120.15 708.73 1115.48C708.73 1111.24 711.7 1109.12 716.791 1110.39C721.882 1111.66 721.458 1098.51 717.215 1097.24C712.973 1095.96 710.851 1080.27 701.093 1080.27C691.335 1080.27 693.032 1089.18 698.971 1089.6C704.911 1090.02 708.306 1095.11 706.608 1099.78C704.911 1104.02 702.366 1095.54 694.305 1095.96C686.243 1096.39 691.335 1085.36 682.001 1084.51C672.667 1084.08 674.364 1065.84 664.606 1065.84C654.848 1065.84 653.999 1056.93 660.363 1050.57C666.727 1044.2 650.605 1038.69 650.605 1031.05C650.605 1023.41 639.998 1028.08 639.998 1021.72C639.998 1015.35 635.331 1018.75 630.24 1011.11C625.149 1003.47 622.603 1010.26 617.936 1004.75C613.269 999.23 606.905 995.836 602.662 997.957C598.42 999.654 589.086 989.896 585.692 979.714C582.722 971.653 555.993 958.5 552.598 947.469C549.204 936.862 539.871 932.196 524.173 933.044C508.475 933.468 502.111 916.497 498.716 924.983C494.474 935.59 516.112 959.349 525.87 965.713Z" fill="#17274E" stroke="#091738" stroke-width="3" stroke-miterlimit="10"/>
<path d="M919.591 1074.75C930.198 1067.96 932.32 1054.81 931.047 1042.08C929.774 1029.35 956.503 1028.93 960.746 1023.84C964.989 1018.75 954.806 1010.68 947.169 1006.87C939.532 1003.05 945.896 994.986 940.805 989.895C935.714 984.804 926.804 971.651 934.441 971.227C942.078 970.379 929.35 959.348 935.714 955.529C936.562 955.105 937.411 954.68 938.684 953.832C934.865 951.711 931.471 950.438 929.35 950.438C920.016 950.438 897.954 947.892 899.227 964.439C900.5 980.985 886.498 974.621 887.771 983.107C889.044 992.016 880.983 992.016 881.831 1003.05C883.104 1014.5 875.892 1009.41 864.436 1015.78C852.981 1022.14 857.648 1011.96 845.769 1011.96C834.313 1011.96 833.041 1018.32 825.828 1020.87C819.04 1023.41 805.039 1019.59 800.372 1023.41C795.705 1027.23 788.916 1014.5 784.249 1014.5C781.704 1014.5 780.007 1007.71 778.31 1000.93C777.462 1000.93 776.613 1000.5 776.189 1000.5C768.552 1001.35 756.248 1022.56 763.461 1030.2C772.37 1039.11 769.825 1052.69 774.067 1059.9C778.31 1066.69 791.038 1067.96 791.038 1081.11C791.038 1094.27 802.069 1115.05 809.706 1109.54C817.342 1104.02 823.283 1112.08 825.404 1117.6C827.949 1123.12 845.769 1113.36 851.708 1114.63C857.648 1115.9 875.468 1119.72 876.74 1127.36C878.013 1135 894.135 1126.93 905.166 1122.27C915.349 1117.6 908.985 1081.96 919.591 1074.75Z" fill="#17274E" stroke="#091738" stroke-width="3" stroke-miterlimit="10"/>
<path d="M972.625 1121C981.535 1121.42 980.262 1135.42 978.565 1143.48C976.868 1151.54 973.474 1171.06 981.111 1168.09C990.445 1164.27 996.385 1151.97 990.869 1147.3C985.778 1143.06 986.202 1115.06 988.324 1108.27C990.869 1101.48 1006.57 1106.57 1001.05 1117.18C995.96 1127.78 1010.81 1126.51 1010.81 1138.39C1010.81 1150.27 1019.72 1143.91 1029.05 1140.94C1038.39 1137.97 1036.69 1132.03 1030.33 1124.39C1023.96 1116.75 1034.99 1106.15 1026.08 1099.78C1017.17 1093.42 1011.66 1084.08 1019.72 1082.39C1027.78 1080.69 1052.39 1065.42 1049.42 1059.05C1046.45 1052.69 1012.08 1060.33 1009.11 1071.78C1006.14 1083.24 981.959 1070.51 984.505 1050.99C987.475 1031.48 1035.84 1028.51 1049.84 1035.29C1063.84 1042.08 1079.12 1023.84 1084.21 1013.23C1089.3 1002.62 1073.18 1014.93 1063.42 1022.14C1053.66 1028.93 1027.36 1021.29 1013.78 1016.63C1000.2 1011.53 1001.05 1025.54 990.02 1027.23C978.989 1028.93 981.111 1055.66 976.02 1058.63C970.928 1061.6 970.928 1081.11 960.321 1099.36C949.715 1117.6 963.716 1120.15 972.625 1121Z" fill="#17274E" stroke="#091738" stroke-width="3" stroke-miterlimit="10"/>
<path d="M541.143 1018.32C542.84 1020.44 544.961 1022.56 546.658 1024.69C545.386 1017.47 535.203 1009.41 533.082 1012.38C536.052 1013.66 538.598 1015.78 541.143 1018.32Z" fill="#17274E" stroke="#091738" stroke-width="3" stroke-miterlimit="10"/>
<path d="M1151.24 1036.57C1163.97 1037.84 1158.03 1029.78 1158.03 1020.87C1158.03 1011.96 1146.58 1019.6 1146.58 1015.35C1146.58 1011.11 1142.33 993.291 1133 1007.29C1123.67 1021.29 1135.97 1055.23 1143.61 1053.96C1149.97 1052.26 1138.51 1035.29 1151.24 1036.57Z" fill="#17274E" stroke="#091738" stroke-width="3" stroke-miterlimit="10"/>
</svg>
