<svg width="271" height="362" viewBox="0 0 271 362" fill="none" xmlns="http://www.w3.org/2000/svg">
<path d="M0.173828 7.95551C0.173828 3.5618 3.73564 0 8.12935 0H102.791C107.185 0 110.747 3.56181 110.747 7.95552V144.938C110.747 149.332 107.185 152.894 102.79 152.894H8.12997C3.73592 152.894 0.173828 149.332 0.173828 144.938V7.95551Z" fill="#F8FCFF"/>
<circle cx="24.9094" cy="106.237" r="5.19948" fill="#FFDDD6"/>
<circle cx="24.9094" cy="121.446" r="5.19948" fill="#FFDDD6"/>
<circle cx="24.9104" cy="91.3518" r="5.19948" fill="#FF6847"/>
<path d="M23.0244 91.2221L24.4055 92.9101L27.6281 89.6875" stroke="white" stroke-width="0.603872"/>
<path d="M26.6621 108.348L25.0259 106.71L23.3897 108.348L23.0244 107.983L24.6632 106.348L23.0244 104.713L23.3897 104.348L25.0259 105.985L26.6621 104.35L27.0248 104.713L25.3887 106.348L27.0248 107.983L26.6621 108.348Z" fill="#FF6847"/>
<path d="M26.6621 123.87L25.0259 122.232L23.3897 123.87L23.0244 123.504L24.6632 121.869L23.0244 120.234L23.3897 119.869L25.0259 121.507L26.6621 119.872L27.0248 120.234L25.3887 121.869L27.0248 123.504L26.6621 123.87Z" fill="#FF6847"/>
<rect x="35.7803" y="89.9355" width="50.1041" height="3.78144" rx="1.86004" fill="#D1E3EE"/>
<rect x="35.7803" y="104.115" width="50.1041" height="3.78144" rx="1.86004" fill="#FF6847"/>
<rect x="35.7803" y="120.188" width="50.1041" height="3.78144" rx="1.86004" fill="#FF6847"/>
<rect x="26.2061" y="57.0312" width="59.8394" height="4.92795" rx="2.15824" fill="#7B91A5"/>
<rect x="34.6533" y="66.1816" width="42.2396" height="2.81597" rx="1.40799" fill="#D1E3EE"/>
<path d="M55.2779 50.5968C66.8805 50.5968 76.2862 41.191 76.2862 29.5884C76.2862 17.9858 66.8805 8.58008 55.2779 8.58008C43.6753 8.58008 34.2695 17.9858 34.2695 29.5884C34.2695 41.191 43.6753 50.5968 55.2779 50.5968Z" fill="#D1E3EE"/>
<path d="M51.4564 33.2266C51.4564 33.2266 51.4564 33.8506 51.4044 34.1106C51.2484 35.2286 50.6244 38.0106 46.3603 39.4927C46.1003 39.5967 45.2163 39.8567 44.9563 39.9607C42.5122 40.7407 47.8163 43.6527 52.4444 44.0167C59.9845 44.5888 69.4747 41.6507 63.9366 38.5307C61.9086 37.4126 56.1885 39.4147 56.3965 33.3046H51.4564V33.2266Z" fill="#F8FCFF"/>
<path d="M51.3006 21.918V25.974C50.8066 25.636 50.0526 25.376 49.9486 26.7281C49.8446 28.1321 50.7546 29.0421 51.3006 29.4321V34.7882H55.4867C58.2428 34.7882 60.4788 32.5261 60.4788 29.7701V21.918H51.3006Z" fill="#F8FCFF"/>
<path d="M51.2736 31.2265C51.2736 31.2265 46.0995 27.6904 47.3216 23.6343C48.5176 19.5783 53.1977 20.7483 54.9917 18.9803C56.7857 17.2382 61.8558 15.4962 62.4018 20.9303C62.9478 26.3644 60.5038 25.9744 60.5038 25.9744C60.5038 25.9744 58.3457 22.6203 55.0437 22.9843C55.0437 22.9843 53.8997 27.1704 51.2736 25.9744C50.0776 25.4284 49.6096 26.4164 50.1816 27.8724C50.4416 28.6264 51.3256 29.1724 51.2736 29.4584C51.2216 30.5245 51.2736 31.2265 51.2736 31.2265Z" fill="#7B91A5"/>
<path d="M48.3887 22.7013C50.5207 22.7013 52.2628 20.9592 52.2628 18.8272C52.2628 16.6952 50.5207 14.9531 48.3887 14.9531C46.2567 14.9531 44.5146 16.6952 44.5146 18.8272C44.5146 20.9592 46.2307 22.7013 48.3887 22.7013Z" fill="#7B91A5"/>
<path d="M69.8905 44.3042C68.4345 41.8602 66.3024 39.8582 63.8324 38.5061C63.8324 38.4541 55.2783 45.6043 44.7481 39.9622L43.136 41.0542C41.992 41.8602 41.03 42.8742 40.25 43.9922C44.0461 47.9703 49.4022 50.4403 55.3563 50.4403C61.0504 50.4403 66.1984 48.1783 69.9685 44.4862L69.8905 44.3042Z" fill="#7B91A5"/>
<g filter="url(#filter0_d)">
<path d="M103 122.302C103 116.06 108.06 111 114.302 111H248.698C254.94 111 260 116.06 260 122.302V333.697C260 339.94 254.94 345 248.697 345H114.303C108.06 345 103 339.94 103 333.697V122.302Z" fill="#F8FCFF"/>
</g>
<circle cx="138.142" cy="241.428" r="7.38666" fill="#FF6847"/>
<path d="M135.117 241.241L137.079 243.639L141.657 239.061" stroke="white" stroke-width="0.857893"/>
<circle cx="138.141" cy="262.914" r="7.38666" fill="#FF6847"/>
<path d="M135.117 262.678L137.079 265.076L141.657 260.498" stroke="white" stroke-width="0.857893"/>
<circle cx="138.141" cy="284.404" r="7.38666" fill="#FF6847"/>
<path d="M135.117 284.733L137.079 287.131L141.657 282.553" stroke="white" stroke-width="0.857893"/>
<rect x="153.585" y="239.412" width="71.1805" height="5.37212" rx="2.64248" fill="#D1E3EE"/>
<rect x="153.585" y="259.561" width="71.1805" height="5.37212" rx="2.64248" fill="#D1E3EE"/>
<rect x="153.585" y="282.391" width="71.1805" height="5.37212" rx="2.64248" fill="#D1E3EE"/>
<rect x="139.982" y="192.668" width="85.011" height="7.00091" rx="3.06612" fill="#7B91A5"/>
<rect x="151.984" y="205.668" width="60.0078" height="4.00052" rx="2.00026" fill="#D1E3EE"/>
<path d="M181.284 183.527C197.767 183.527 211.13 170.165 211.13 153.682C211.13 137.198 197.767 123.836 181.284 123.836C164.801 123.836 151.438 137.198 151.438 153.682C151.438 170.165 164.801 183.527 181.284 183.527Z" fill="#FFC01E"/>
<path d="M175.855 158.854C175.855 158.854 175.855 159.74 175.781 160.109C175.56 161.698 174.673 165.65 168.615 167.755C168.246 167.903 166.99 168.273 166.621 168.42C163.149 169.528 170.684 173.665 177.259 174.183C187.971 174.995 201.453 170.821 193.585 166.389C190.704 164.8 182.578 167.645 182.873 158.964H175.855V158.854Z" fill="#FFDB80"/>
<path d="M175.633 142.787V148.549C174.931 148.069 173.86 147.7 173.712 149.621C173.564 151.615 174.857 152.908 175.633 153.462V161.071H181.58C185.495 161.071 188.672 157.858 188.672 153.942V142.787H175.633Z" fill="#FFDB80"/>
<path d="M175.595 156.006C175.595 156.006 168.244 150.983 169.98 145.22C171.679 139.458 178.328 141.12 180.877 138.609C183.425 136.134 190.628 133.659 191.404 141.379C192.18 149.099 188.708 148.545 188.708 148.545C188.708 148.545 185.642 143.78 180.951 144.297C180.951 144.297 179.325 150.244 175.595 148.545C173.896 147.769 173.231 149.173 174.043 151.241C174.413 152.312 175.669 153.088 175.595 153.494C175.521 155.009 175.595 156.006 175.595 156.006Z" fill="#E8A700"/>
<path d="M171.496 143.894C174.525 143.894 177 141.419 177 138.39C177 135.362 174.525 132.887 171.496 132.887C168.467 132.887 165.992 135.362 165.992 138.39C165.992 141.419 168.43 143.894 171.496 143.894Z" fill="#E8A700"/>
<path d="M202.042 174.593C199.974 171.121 196.945 168.277 193.436 166.356C193.436 166.282 181.284 176.44 166.324 168.424L164.034 169.976C162.408 171.121 161.042 172.561 159.934 174.15C165.326 179.801 172.936 183.31 181.394 183.31C189.484 183.31 196.797 180.097 202.153 174.852L202.042 174.593Z" fill="#E8A700"/>
<circle cx="208.281" cy="134.161" r="6.45667" transform="rotate(-11.0745 208.281 134.161)" fill="#F8FCFF"/>
<path d="M218.152 135.719C218.773 135.107 219.062 134.225 218.923 133.36C218.785 132.495 218.236 131.749 217.455 131.368L216.334 130.82C215.99 130.653 215.785 130.282 215.824 129.897L215.951 128.645C216.038 127.772 215.7 126.909 215.043 126.336C214.387 125.763 213.492 125.551 212.652 125.764L211.446 126.075C211.076 126.168 210.683 126.019 210.468 125.699L209.769 124.658C209.282 123.932 208.474 123.491 207.607 123.479C206.74 123.467 205.919 123.885 205.413 124.596L204.685 125.618C204.462 125.932 204.065 126.07 203.697 125.967L202.5 125.623C201.665 125.386 200.766 125.573 200.094 126.128C199.423 126.683 199.06 127.536 199.124 128.411L199.215 129.667C199.243 130.052 199.028 130.417 198.68 130.576L197.544 131.092C196.753 131.452 196.183 132.181 196.021 133.043C195.859 133.905 196.123 134.794 196.728 135.423L197.595 136.325C197.862 136.602 197.929 137.022 197.763 137.369L197.22 138.504C196.843 139.294 196.87 140.222 197.293 140.988C197.717 141.754 198.484 142.264 199.347 142.351L200.585 142.478C200.965 142.517 201.283 142.795 201.377 143.169L201.681 144.39C201.894 145.24 202.504 145.934 203.315 146.245C204.125 146.556 205.036 146.448 205.755 145.954L206.784 145.245C207.099 145.029 207.52 145.032 207.83 145.259L208.839 145.996C209.287 146.324 209.82 146.497 210.358 146.504C210.665 146.508 210.973 146.459 211.27 146.355C212.088 146.065 212.718 145.389 212.954 144.545L213.292 143.334C213.396 142.962 213.722 142.693 214.102 142.665L215.343 142.572C216.208 142.508 216.989 142.02 217.433 141.266C217.877 140.513 217.93 139.585 217.574 138.784L217.063 137.636C216.907 137.284 216.985 136.866 217.259 136.597L218.152 135.719ZM212.301 133.306L206.395 139.118C206.222 139.289 205.997 139.372 205.774 139.369C205.55 139.366 205.328 139.276 205.159 139.101L202.288 136.115C201.951 135.764 201.959 135.205 202.305 134.865C202.651 134.524 203.204 134.532 203.54 134.882L205.803 137.235L211.082 132.039C211.429 131.698 211.981 131.706 212.318 132.056C212.654 132.406 212.647 132.965 212.301 133.306Z" fill="#FF6847"/>
<path d="M124.784 45.1906H204.413V90.1094" stroke="#D1E3EE" stroke-width="3.94307"/>
<path d="M192.811 78.9737L204.215 90.7246L216.103 78.9737" stroke="#D1E3EE" stroke-width="3.94307"/>
<path d="M88.3789 219.49L33.2513 219.49L33.2513 173.551" stroke="#D1E3EE" stroke-width="3.94307"/>
<path d="M44.292 185.454L32.887 173.703L20.9999 185.454" stroke="#D1E3EE" stroke-width="3.94307"/>
<defs>
<filter id="filter0_d" x="92.0272" y="105.514" width="178.946" height="255.946" filterUnits="userSpaceOnUse" color-interpolation-filters="sRGB">
<feFlood flood-opacity="0" result="BackgroundImageFix"/>
<feColorMatrix in="SourceAlpha" type="matrix" values="0 0 0 0 0 0 0 0 0 0 0 0 0 0 0 0 0 0 127 0" result="hardAlpha"/>
<feOffset dy="5.48642"/>
<feGaussianBlur stdDeviation="5.48642"/>
<feColorMatrix type="matrix" values="0 0 0 0 0.0764236 0 0 0 0 0.165046 0 0 0 0 0.591667 0 0 0 0.1 0"/>
<feBlend mode="normal" in2="BackgroundImageFix" result="effect1_dropShadow"/>
<feBlend mode="normal" in="SourceGraphic" in2="effect1_dropShadow" result="shape"/>
</filter>
</defs>
</svg>
