<svg width="398" height="333" viewBox="0 0 398 333" fill="none" xmlns="http://www.w3.org/2000/svg">
<rect x="0.792969" y="73.2559" width="87.7252" height="151.032" rx="10.8526" fill="#FFC01E"/>
<path d="M258.957 332.813H68.2069C58.9961 332.813 51.4385 324.009 51.4385 313.073V19.7408C51.4385 8.89726 58.9961 0 68.2069 0H258.957C268.247 0 275.726 8.89726 275.726 19.7408V312.98C275.726 324.009 268.247 332.813 258.957 332.813Z" fill="#F3F7FA"/>
<path d="M114.802 187.319C124.323 187.319 132.042 179.601 132.042 170.08C132.042 160.558 124.323 152.84 114.802 152.84C105.281 152.84 97.5625 160.558 97.5625 170.08C97.5625 179.601 105.281 187.319 114.802 187.319Z" fill="#D1E3EE"/>
<path d="M212.127 170.024H146.69C145.021 170.024 143.686 169.019 143.686 167.763C143.686 166.507 145.021 165.502 146.69 165.502H212.127C213.796 165.502 215.132 166.507 215.132 167.763C215.132 169.019 213.713 170.024 212.127 170.024Z" fill="#D1E3EE"/>
<path d="M190.475 177.534H145.868C144.73 177.534 143.819 176.624 143.819 175.486C143.819 174.348 144.73 173.438 145.868 173.438H190.475C191.613 173.438 192.523 174.348 192.523 175.486C192.523 176.624 191.556 177.534 190.475 177.534Z" fill="#D1E3EE"/>
<path d="M114.802 239.774C124.323 239.774 132.042 232.056 132.042 222.535C132.042 213.013 124.323 205.295 114.802 205.295C105.281 205.295 97.5625 213.013 97.5625 222.535C97.5625 232.056 105.281 239.774 114.802 239.774Z" fill="#D1E3EE"/>
<path d="M212.127 222.479H146.69C145.021 222.479 143.686 221.474 143.686 220.218C143.686 218.962 145.021 217.957 146.69 217.957H212.127C213.796 217.957 215.132 218.962 215.132 220.218C215.132 221.474 213.713 222.479 212.127 222.479Z" fill="#D1E3EE"/>
<path d="M190.475 229.989H145.868C144.73 229.989 143.819 229.079 143.819 227.941C143.819 226.803 144.73 225.893 145.868 225.893H190.475C191.613 225.893 192.523 226.803 192.523 227.941C192.523 229.079 191.556 229.989 190.475 229.989Z" fill="#D1E3EE"/>
<path d="M114.802 292.229C124.323 292.229 132.042 284.511 132.042 274.99C132.042 265.468 124.323 257.75 114.802 257.75C105.281 257.75 97.5625 265.468 97.5625 274.99C97.5625 284.511 105.281 292.229 114.802 292.229Z" fill="#D1E3EE"/>
<path d="M212.127 274.932H146.69C145.021 274.932 143.686 273.927 143.686 272.671C143.686 271.415 145.021 270.41 146.69 270.41H212.127C213.796 270.41 215.132 271.415 215.132 272.671C215.132 273.927 213.713 274.932 212.127 274.932Z" fill="#D1E3EE"/>
<path d="M190.475 282.444H145.868C144.73 282.444 143.819 281.534 143.819 280.396C143.819 279.258 144.73 278.348 145.868 278.348H190.475C191.613 278.348 192.523 279.258 192.523 280.396C192.523 281.534 191.556 282.444 190.475 282.444Z" fill="#D1E3EE"/>
<rect x="20" y="194" width="56.0718" height="85.9165" rx="10.8526" fill="#FF6847"/>
<g filter="url(#filter0_d)">
<rect x="73.1436" y="66.9238" width="217.052" height="62.4025" rx="9.04384" fill="white"/>
</g>
<rect x="138.258" y="94.0547" width="85.9165" height="9.04384" rx="4.52192" fill="#D1E3EE"/>
<rect x="264.678" y="94.6361" width="13.9534" height="8.13946" rx="4.06973" stroke="#D1E3EE" stroke-width="1.16278"/>
<circle cx="108.866" cy="98.124" r="20.3486" fill="#F3F7FA"/>
<mask id="mask0" style="mask-type:alpha" maskUnits="userSpaceOnUse" x="88" y="77" width="42" height="42">
<circle cx="109.007" cy="98.0801" r="20.4278" fill="#C4C4C4"/>
</mask>
<g mask="url(#mask0)">
<path d="M105.304 101.537C105.304 101.537 105.304 102.141 105.253 102.392C105.102 103.498 104.499 106.214 100.376 107.672C100.124 107.772 99.2694 108.024 99.018 108.124C96.6546 108.879 101.784 111.745 106.259 112.097C113.55 112.65 122.753 109.784 117.372 106.716C115.411 105.61 109.88 107.571 110.081 101.587H105.304V101.537Z" fill="#D1E3EE"/>
<path d="M105.191 90.6367V94.5721C104.705 94.232 103.977 93.9891 103.88 95.3009C103.782 96.6613 104.657 97.5358 105.191 97.9245V103.123H109.273C111.945 103.123 114.131 100.937 114.131 98.2646V90.6367H105.191Z" fill="#D1E3EE"/>
<path d="M105.191 99.7227C105.191 99.7227 100.187 96.2731 101.353 92.3377C102.519 88.4023 107.037 89.5198 108.786 87.8193C110.536 86.1188 115.443 84.4183 115.977 89.7141C116.512 95.0099 114.131 94.6212 114.131 94.6212C114.131 94.6212 112.042 91.366 108.835 91.7061C108.835 91.7061 107.718 95.7873 105.191 94.6212C104.025 94.0868 103.588 95.0585 104.122 96.4675C104.365 97.1963 105.24 97.7307 105.191 98.0222C105.143 99.0425 105.191 99.7227 105.191 99.7227Z" fill="#A3B7C9"/>
<path d="M102.332 91.3591C104.398 91.3591 106.073 89.6842 106.073 87.618C106.073 85.5519 104.398 83.877 102.332 83.877C100.266 83.877 98.5908 85.5519 98.5908 87.618C98.5908 89.6842 100.266 91.3591 102.332 91.3591Z" fill="#A3B7C9"/>
<path d="M98.8169 108.125L97.2581 109.181C94.2409 111.343 92.4307 114.813 92.4307 118.534V124.82H101.482V136.385H117.976L119.032 123.362L120.49 124.87L126.574 118.232L123.205 112.349C121.797 109.986 119.736 108.024 117.322 106.717C117.322 106.667 109.025 113.606 98.8169 108.125Z" fill="#A3B7C9"/>
<path d="M129.757 119.361C129.757 119.361 135.928 129.645 137.651 109.854L139.819 109.688C139.819 109.688 142.154 145.489 123.03 126.755L129.757 119.361Z" fill="#955524"/>
</g>
<circle cx="244.994" cy="97.0689" r="5.99268" fill="white"/>
<path d="M254.064 97.3271C254.59 96.8012 254.826 96.0506 254.697 95.319C254.569 94.5874 254.089 93.9622 253.415 93.6486L252.448 93.1976C252.151 93.0598 251.971 92.7477 252 92.4211L252.093 91.3589C252.158 90.6183 251.857 89.8911 251.288 89.4132C250.719 88.9358 249.949 88.7665 249.232 88.9573L248.201 89.2344C247.885 89.3178 247.546 89.196 247.358 88.9273L246.747 88.0534C246.321 87.4441 245.622 87.0801 244.879 87.0801C244.136 87.0801 243.438 87.4441 243.012 88.0524L242.4 88.9263C242.212 89.195 241.874 89.3168 241.557 89.2334L240.527 88.9563C239.809 88.765 239.04 88.9343 238.471 89.4122C237.901 89.8901 237.601 90.6173 237.666 91.3579L237.759 92.4206C237.788 92.7467 237.608 93.0588 237.311 93.1976L236.343 93.6481C235.669 93.9617 235.19 94.5864 235.061 95.3185C234.932 96.0506 235.169 96.8012 235.695 97.3266L236.449 98.0806C236.681 98.3119 236.743 98.6669 236.605 98.9636L236.154 99.9309C235.839 100.605 235.873 101.391 236.245 102.035C236.617 102.679 237.281 103.102 238.022 103.166L239.085 103.259C239.411 103.287 239.687 103.519 239.772 103.835L240.047 104.865C240.24 105.583 240.771 106.164 241.47 106.418C242.168 106.672 242.948 106.57 243.558 106.143L244.431 105.53C244.7 105.343 245.06 105.341 245.328 105.53L246.202 106.143C246.59 106.415 247.049 106.555 247.511 106.555C247.773 106.555 248.037 106.51 248.29 106.418C248.988 106.163 249.52 105.583 249.712 104.865L249.988 103.835C250.073 103.519 250.349 103.287 250.675 103.259L251.737 103.166C252.478 103.102 253.142 102.679 253.513 102.035C253.885 101.391 253.919 100.605 253.605 99.9304L253.153 98.9636C253.015 98.6669 253.077 98.3119 253.309 98.0806L254.064 97.3271ZM249.02 95.3505L244.026 100.344C243.88 100.491 243.688 100.564 243.496 100.564C243.304 100.564 243.113 100.491 242.966 100.344L240.469 97.8474C240.177 97.5548 240.177 97.0809 240.469 96.7882C240.762 96.4956 241.236 96.4956 241.528 96.7882L243.496 98.7553L247.96 94.2913C248.253 93.9986 248.727 93.9986 249.019 94.2913C249.312 94.5839 249.312 95.0578 249.02 95.3505Z" fill="#FF6847"/>
<path d="M327.074 288.514L328.726 300.473H335.886L336.201 288.514H327.074Z" fill="#955524"/>
<path d="M373.802 288.452L375.411 302.477L378.998 303.872L381.501 301.283L382.234 287.719L373.802 288.452Z" fill="#955524"/>
<path d="M328.648 299.609C328.648 299.609 331.953 300.947 336.044 299.609L337.696 305.353H318.105C317.319 305.353 316.925 304.487 317.397 303.858C318.735 302.284 321.803 300.003 328.648 299.609Z" fill="#17274E"/>
<path d="M379.731 300.254C383.638 300.254 384.976 303.269 385.157 304.776H374.305C374.486 303.269 375.824 300.254 379.731 300.254Z" fill="#17274E"/>
<path d="M332.11 154.529C332.11 154.529 315.587 202.679 325.894 290.168C325.973 290.876 326.602 291.427 327.31 291.427H352.723C353.588 291.427 354.218 290.719 354.139 289.853L346.586 201.499C346.507 200.476 346.586 199.454 347.687 199.454C348.553 199.454 348.632 200.004 348.789 200.87L367.435 289.932C367.593 290.797 368.379 291.427 369.245 291.427H396.152C397.332 291.427 398.198 290.325 397.962 289.145L364.76 155.945C364.76 155.945 339.741 159.407 332.11 154.529Z" fill="#D1E3EE"/>
<path d="M353.588 281.592H325.028V282.221H353.588V281.592Z" fill="white"/>
<path d="M396.152 281.592H365.783V282.221H396.152V281.592Z" fill="white"/>
<path d="M331.323 281.986C318.184 205.433 333.84 156.339 333.998 155.867L334.548 156.025C334.391 156.497 318.813 205.433 331.873 281.829L331.323 281.986Z" fill="white"/>
<path d="M359.429 161.799L358.816 161.945L387.412 281.955L388.025 281.809L359.429 161.799Z" fill="white"/>
<path d="M351.543 106.771L360.276 110.705C367.435 113.931 370.11 121.091 370.11 128.958L370.032 137.613L368.851 155.944C368.851 155.944 348.553 158.777 341.787 157.99C336.201 157.361 332.109 154.843 332.109 154.843C332.109 154.843 319.049 134.151 324.793 118.888C324.793 118.888 333.998 108.424 339.82 107.401C339.505 109.446 341.079 111.177 343.124 111.177H347.924C349.576 111.177 350.992 109.997 351.228 108.345L351.543 106.771Z" fill="#F3F7FA"/>
<path d="M326.839 143.593C331.402 135.882 332.582 131.949 332.582 131.949C332.582 131.949 339.82 107.244 336.123 109.054C330.773 111.65 322.433 118.967 318.499 130.926" fill="#F3F7FA"/>
<path d="M349.794 87.8982C350.274 87.4798 350.759 87.3059 351.17 87.4598C352.074 87.7658 352.119 89.8032 351.35 91.8588C350.808 93.1755 350.097 94.1699 349.374 94.6752L349.188 97.2886L348.445 111.493C348.398 113.043 347.038 114.215 345.486 114.087L341.893 113.841C340.259 113.714 339.002 112.193 339.373 110.554L341.506 100.151C339.829 99.3412 337.176 98.3549 334.513 95.8188C333.203 94.4239 333.691 92.7438 333.753 91.8455L334.687 83.2616C335.002 79.0961 338.68 75.834 342.927 76.1469C347.092 76.4616 350.354 80.1396 350.041 84.3865L349.794 87.8982Z" fill="#955524"/>
<path d="M334.654 92.044C334.583 92.0252 334.533 91.9312 334.553 91.8561C334.574 91.7809 334.664 91.7246 334.734 91.7435C334.945 91.8 336.863 92.2333 337.979 90.5993C337.999 90.5242 338.159 90.4867 338.21 90.5807C338.28 90.5995 338.31 90.7686 338.22 90.8249C336.973 92.6655 334.654 92.044 334.654 92.044Z" fill="#FAAE6B"/>
<path d="M332.553 89.1208L334.936 83.8127L334.579 90.7044L332.996 90.1505C332.575 90.0033 332.37 89.5275 332.553 89.1208Z" fill="#955524"/>
<path d="M334.784 109.762C333.604 116.843 339.19 125.812 361.534 111.335C356.682 108.582 343.045 103.861 334.784 109.762Z" fill="#955524"/>
<path d="M347.218 89.4217C347.716 89.8183 348.448 89.7204 348.842 89.1408L349.814 87.9125C349.814 87.9125 351.796 86.3026 351.858 89.0735C351.874 89.807 351.728 90.5441 351.416 91.2033C350.953 92.3552 350.178 94.1664 349.372 94.592L343.976 119.5C343.161 123.187 345.851 126.797 349.607 127.039C353.608 127.276 356.793 123.862 356.215 119.879L352.384 94.3617C352.384 94.3617 354.619 84.935 353.3 80.6429C352.42 77.7272 350.319 74.9202 344.357 74.4826C337.578 73.9816 335.363 78.2537 335.105 81.2764L347.218 89.4217Z" fill="#17274E"/>
<path d="M355.189 99.5177C355.194 96.093 353.256 93.2824 350.719 92.8498C350.721 92.9313 350.561 93.098 350.563 93.1795C350.485 93.3443 350.407 93.5091 350.328 93.5924C352.617 93.8675 354.468 96.4354 354.456 99.5341C354.447 102.796 352.468 105.449 350.023 105.504C347.576 105.477 345.56 102.831 345.569 99.5694C345.592 96.9596 346.845 94.6486 348.703 93.8733C348.946 93.7863 349.022 93.54 348.937 93.3789C348.85 93.1362 348.604 93.0601 348.442 93.1453C346.26 94.0094 344.77 96.6518 344.754 99.5876C344.756 103.338 347.107 106.384 349.961 106.402C352.816 106.42 355.19 103.187 355.189 99.5177Z" fill="#FF6847"/>
<path d="M372.313 155.945H360.512C360.354 155.945 360.118 155.945 359.961 156.024V155.945H343.36C339.426 155.945 336.437 159.407 336.987 163.262L340.134 186.629C340.449 188.911 342.573 190.484 344.855 190.012L359.646 187.259C360.04 187.337 360.354 187.18 360.59 186.944C360.905 186.944 361.22 186.944 361.456 186.944L372.943 184.898C374.516 184.584 375.618 183.246 375.618 181.673V159.328C375.618 157.44 374.123 155.945 372.313 155.945Z" fill="#FF6847"/>
<path d="M356.735 137.613C357.994 140.367 360.551 181.369 360.551 181.369L364.356 185.85C364.356 185.85 365.792 183.271 368.032 165.138C370.23 138.635 369.874 138.715 370.032 137.613H356.735Z" fill="#955524"/>
<path d="M359.017 185.447C359.017 185.447 359.804 187.335 357.68 187.728C357.68 187.728 357.916 189.381 362.4 188.515C366.806 187.65 363.816 181.041 363.816 181.041L360.509 180.354C360.43 180.354 354.297 189.538 359.017 185.447Z" fill="#955524"/>
<path d="M318.42 130.926C313.699 140.446 310.001 142.806 297.256 121.957L295.21 117.472C294.345 115.584 292.614 114.089 290.568 113.538L289.939 113.381V117.629C289.939 117.629 288.287 116.685 286.005 116.056C283.802 115.426 287.106 122.35 289.939 124.553L290.49 125.104C292.535 126.992 294.109 129.431 295.053 132.027C298.121 140.682 306.461 160.036 317.554 152.955C321.96 150.123 324.163 145.245 326.13 142.019L318.42 130.926Z" fill="#955524"/>
<path d="M184.851 42.5066H76.5728C68.6722 42.5066 62.291 36.2433 62.291 28.4887C62.291 20.734 68.6722 14.4707 76.5728 14.4707H184.851C192.752 14.4707 199.133 20.734 199.133 28.4887C199.133 36.2433 192.752 42.5066 184.851 42.5066Z" fill="white"/>
<path d="M87.2176 28.5118C87.2176 33.3114 83.3179 37.2111 78.6183 37.2111C73.8186 37.2111 69.9189 33.3114 69.9189 28.5118C69.9189 23.7122 73.8186 19.8125 78.6183 19.8125C83.3179 19.8125 87.2176 23.7122 87.2176 28.5118ZM78.0183 26.9119C76.9184 26.9119 75.9185 26.8119 74.8186 26.8119C74.7186 28.2118 74.7186 29.5117 74.9186 30.8116C75.9185 30.8116 76.9184 30.7116 78.0183 30.7116C78.0183 29.3118 78.0183 28.1118 78.0183 26.9119ZM82.218 30.7116C82.418 29.4117 82.418 28.1118 82.318 26.712C81.2181 26.712 80.2181 26.8119 79.2182 26.8119C79.2182 28.1118 79.2182 29.3118 79.2182 30.5117C80.1181 30.6116 81.1181 30.7116 82.218 30.7116ZM85.8177 26.212C85.0178 26.412 84.2178 26.512 83.4179 26.712C83.4179 28.1118 83.4179 29.5117 83.4179 30.9116C84.1178 31.0116 84.9178 31.2116 85.7177 31.3116C86.3177 29.5117 86.3176 27.9119 85.8177 26.212ZM71.3188 26.212C70.7189 27.4119 70.8189 30.1117 71.5188 31.1116C72.3188 31.0116 73.0187 30.9116 73.8186 30.7116C73.7186 30.0117 73.7186 29.3117 73.6187 28.6118C73.6187 27.9119 73.6187 27.2119 73.7186 26.512C72.9187 26.512 72.1188 26.412 71.3188 26.212ZM78.0183 21.0124C76.6184 21.3124 75.4185 23.7122 75.1185 25.612C76.1185 25.612 77.0184 25.712 78.0183 25.712C78.0183 24.1122 78.0183 22.6123 78.0183 21.0124ZM82.018 25.712C81.818 24.5121 81.418 23.5122 80.8181 22.6123C80.5181 22.1123 80.1181 21.8123 79.7182 21.4124C79.5182 21.2124 79.3182 21.2124 79.1182 21.1124C79.1182 22.7123 79.1182 24.3121 79.1182 25.912C80.1181 25.712 81.0181 25.712 82.018 25.712ZM75.2185 31.8116C75.5185 32.8115 75.8185 33.7114 76.4184 34.5113C76.7184 35.0113 77.2184 35.3113 77.6183 35.7112C77.7183 35.8112 77.9183 35.8112 78.0183 35.9112C78.0183 34.5113 78.0183 33.0115 78.0183 31.7116C77.2184 31.7116 76.5184 31.7116 75.8185 31.7116C75.6185 31.7116 75.4185 31.8116 75.2185 31.8116ZM79.1182 35.9112C80.2181 35.7112 81.818 33.3114 81.918 31.7116C81.0181 31.7116 80.1181 31.6116 79.1182 31.6116C79.1182 33.1114 79.1182 34.5113 79.1182 35.9112ZM73.9186 25.5121C74.2186 24.7121 74.4186 24.0122 74.7186 23.3122C75.0185 22.6123 75.4185 22.0123 75.8185 21.3124C74.0186 22.0123 72.6187 23.3122 71.7188 25.1121C72.5187 25.3121 73.2187 25.4121 73.9186 25.5121ZM85.4177 25.2121C84.5178 23.6122 83.3179 22.4123 81.718 21.7124C82.518 22.9123 82.9179 24.2122 83.2179 25.612C83.9178 25.4121 84.6178 25.3121 85.4177 25.2121ZM75.8185 35.5113C75.4185 34.9113 75.1185 34.3114 74.8186 33.7114C74.5186 33.1115 74.3186 32.5115 74.0186 31.8116C73.3187 31.9115 72.6187 32.0115 71.9188 32.1115C72.9187 33.8114 74.2186 34.9113 75.8185 35.5113ZM85.2177 32.2115C84.4178 32.1115 83.8179 32.0115 83.2179 31.9115C82.7179 33.1114 82.318 34.2114 81.818 35.3113C83.2179 34.7113 84.3178 33.7114 85.2177 32.2115Z" fill="#A3B7C9"/>
<path d="M115.515 33.2863H100.917C98.1168 33.2863 95.917 31.0865 95.917 28.2867C95.917 25.4869 98.1168 23.2871 100.917 23.2871H115.515C118.315 23.2871 120.515 25.4869 120.515 28.2867C120.515 30.9865 118.315 33.2863 115.515 33.2863Z" fill="#A3B7C9"/>
<path d="M183.01 33.2863H132.814C130.014 33.2863 127.814 31.0865 127.814 28.2867C127.814 25.4869 130.014 23.2871 132.814 23.2871H183.11C185.91 23.2871 188.11 25.4869 188.11 28.2867C188.01 30.9865 185.81 33.2863 183.01 33.2863Z" fill="#EEF2F4"/>
<defs>
<filter id="filter0_d" x="62.2909" y="61.4975" width="238.757" height="84.1077" filterUnits="userSpaceOnUse" color-interpolation-filters="sRGB">
<feFlood flood-opacity="0" result="BackgroundImageFix"/>
<feColorMatrix in="SourceAlpha" type="matrix" values="0 0 0 0 0 0 0 0 0 0 0 0 0 0 0 0 0 0 127 0" result="hardAlpha"/>
<feOffset dy="5.4263"/>
<feGaussianBlur stdDeviation="5.4263"/>
<feColorMatrix type="matrix" values="0 0 0 0 0.0764236 0 0 0 0 0.165046 0 0 0 0 0.591667 0 0 0 0.1 0"/>
<feBlend mode="normal" in2="BackgroundImageFix" result="effect1_dropShadow"/>
<feBlend mode="normal" in="SourceGraphic" in2="effect1_dropShadow" result="shape"/>
</filter>
</defs>
</svg>
