<svg width="369" height="321" viewBox="0 0 369 321" fill="none" xmlns="http://www.w3.org/2000/svg">
<path d="M109 0H275C291.569 0 305 13.4315 305 30V98H109V0Z" fill="#FDBE1D"/>
<path d="M109 97H305V275C305 291.569 291.569 305 275 305H109V97Z" fill="#D1E3EE"/>
<path d="M0 30C0 13.4315 13.4315 0 30 0H109V161H0V30Z" fill="#97B1C9"/>
<path d="M0 161H109V305H30C13.4315 305 0 291.569 0 275V161Z" fill="#ED5F42"/>
<rect x="108" y="190.631" width="131" height="2" transform="rotate(-45 108 190.631)" fill="white"/>
<rect width="100.41" height="2" transform="matrix(0.707107 -0.707107 -0.707107 -0.707107 204.979 266.479)" fill="white"/>
<path d="M108.586 246.615L257.5 97.7007L258.915 99.1149L110 248.029L108.586 246.615Z" fill="white"/>
<path d="M106.75 134.75L145 96.5L146.414 97.9142L108.164 136.164L106.75 134.75Z" fill="white"/>
<path d="M261.795 266.795L276.045 252.545L274.631 251.131L260.381 265.381L261.795 266.795Z" fill="white"/>
<rect x="147.057" y="264.711" width="180.531" height="2" transform="rotate(-45 147.057 264.711)" fill="white"/>
<rect x="108.01" y="218.906" width="170.975" height="2" transform="rotate(-45 108.01 218.906)" fill="white"/>
<rect x="119.242" y="264.242" width="219.205" height="2" transform="rotate(-45 119.242 264.242)" fill="white"/>
<rect x="107.392" y="162.391" width="92.9847" height="2" transform="rotate(-45 107.392 162.391)" fill="white"/>
<rect width="60.4575" height="2" transform="matrix(0.707107 -0.707107 -0.707107 -0.707107 234.154 266.154)" fill="white"/>
<rect x="175.596" y="264.457" width="139.81" height="2" transform="rotate(-45 175.596 264.457)" fill="white"/>
<path d="M275.636 98.127H108.35V265.414H275.636V98.127Z" stroke="#273A5F" stroke-width="3" stroke-miterlimit="10"/>
<path d="M282.245 91H269.287V103.958H282.245V91Z" fill="white" stroke="#273A5F" stroke-width="3" stroke-miterlimit="10"/>
<path d="M114.958 91H102V103.958H114.958V91Z" fill="white" stroke="#273A5F" stroke-width="3" stroke-miterlimit="10"/>
<path d="M282.245 258.805H269.287V271.763H282.245V258.805Z" fill="white" stroke="#273A5F" stroke-width="3" stroke-miterlimit="10"/>
<path d="M114.958 258.805H102V271.763H114.958V258.805Z" fill="white" stroke="#273A5F" stroke-width="3" stroke-miterlimit="10"/>
<path d="M280.044 300.275C280.943 300.275 281.692 299.826 282.142 299.077C284.239 295.482 286.336 291.886 288.433 288.142C288.882 287.243 289.631 286.943 290.53 286.943C293.826 286.943 297.121 286.943 300.567 286.943C301.615 286.943 302.514 286.943 303.562 286.943C304.461 286.943 305.21 286.194 305.51 285.295C305.809 284.397 305.51 283.498 304.611 282.899C303.263 282 301.915 281.101 300.567 280.202C293.526 275.559 286.636 270.915 279.595 266.421C278.846 265.972 277.947 265.822 277.198 266.271C276.449 266.721 276 267.47 276 268.368C276 269.866 276.15 271.215 276.3 272.713C276.3 273.911 276.449 274.96 276.449 276.158C276.599 277.656 276.599 279.154 276.749 280.652C276.899 282 276.899 283.498 277.049 284.846C277.198 286.344 277.198 287.842 277.348 289.34C277.498 290.688 277.498 292.186 277.648 293.534C277.798 295.182 277.798 296.83 277.947 298.477C277.947 299.526 278.996 300.425 280.044 300.275Z" fill="#ED5F42"/>
<rect x="291" y="292" width="78" height="29" rx="5" fill="#ED5F42"/>
<path d="M314.6 301.2H308.7V305.12H314.4V307.32H308.7V313H306.4V299H314.6V301.2ZM318.062 308.92C318.222 309.68 318.588 310.267 319.162 310.68C319.735 311.08 320.435 311.28 321.262 311.28C322.408 311.28 323.268 310.867 323.842 310.04L325.622 311.08C324.635 312.533 323.175 313.26 321.242 313.26C319.615 313.26 318.302 312.767 317.302 311.78C316.302 310.78 315.802 309.52 315.802 308C315.802 306.507 316.295 305.26 317.282 304.26C318.268 303.247 319.535 302.74 321.082 302.74C322.548 302.74 323.748 303.253 324.682 304.28C325.628 305.307 326.102 306.553 326.102 308.02C326.102 308.247 326.075 308.547 326.022 308.92H318.062ZM318.042 307.16H323.922C323.775 306.347 323.435 305.733 322.902 305.32C322.382 304.907 321.768 304.7 321.062 304.7C320.262 304.7 319.595 304.92 319.062 305.36C318.528 305.8 318.188 306.4 318.042 307.16ZM333.02 305.08H330.54V309.88C330.54 310.293 330.633 310.593 330.82 310.78C331.006 310.953 331.28 311.053 331.64 311.08C332.013 311.093 332.473 311.087 333.02 311.06V313C331.366 313.2 330.18 313.06 329.46 312.58C328.74 312.087 328.38 311.187 328.38 309.88V305.08H326.54V303H328.38V300.84L330.54 300.2V303H333.02V305.08ZM339.039 313.26C337.532 313.26 336.272 312.753 335.259 311.74C334.259 310.727 333.759 309.48 333.759 308C333.759 306.507 334.259 305.26 335.259 304.26C336.272 303.247 337.532 302.74 339.039 302.74C340.012 302.74 340.899 302.973 341.699 303.44C342.499 303.907 343.099 304.533 343.499 305.32L341.639 306.4C341.412 305.92 341.065 305.547 340.599 305.28C340.145 305 339.619 304.86 339.019 304.86C338.139 304.86 337.399 305.16 336.799 305.76C336.212 306.36 335.919 307.107 335.919 308C335.919 308.893 336.212 309.64 336.799 310.24C337.399 310.84 338.139 311.14 339.019 311.14C339.605 311.14 340.132 311 340.599 310.72C341.079 310.44 341.439 310.067 341.679 309.6L343.539 310.66C343.112 311.46 342.499 312.093 341.699 312.56C340.899 313.027 340.012 313.26 339.039 313.26ZM350.11 302.74C351.257 302.74 352.183 303.107 352.89 303.84C353.597 304.573 353.95 305.58 353.95 306.86V313H351.79V307.08C351.79 306.333 351.59 305.76 351.19 305.36C350.79 304.96 350.243 304.76 349.55 304.76C348.79 304.76 348.177 305 347.71 305.48C347.243 305.947 347.01 306.667 347.01 307.64V313H344.85V299H347.01V304.28C347.663 303.253 348.697 302.74 350.11 302.74Z" fill="white"/>
<rect x="12" y="124" width="78" height="29" rx="5" fill="#FDBE1D"/>
<path d="M35.6 133.2H29.7V137.12H35.4V139.32H29.7V145H27.4V131H35.6V133.2ZM39.0616 140.92C39.2216 141.68 39.5882 142.267 40.1616 142.68C40.7349 143.08 41.4349 143.28 42.2616 143.28C43.4082 143.28 44.2682 142.867 44.8416 142.04L46.6216 143.08C45.6349 144.533 44.1749 145.26 42.2416 145.26C40.6149 145.26 39.3016 144.767 38.3016 143.78C37.3016 142.78 36.8016 141.52 36.8016 140C36.8016 138.507 37.2949 137.26 38.2816 136.26C39.2682 135.247 40.5349 134.74 42.0816 134.74C43.5482 134.74 44.7482 135.253 45.6816 136.28C46.6282 137.307 47.1016 138.553 47.1016 140.02C47.1016 140.247 47.0749 140.547 47.0216 140.92H39.0616ZM39.0416 139.16H44.9216C44.7749 138.347 44.4349 137.733 43.9016 137.32C43.3816 136.907 42.7682 136.7 42.0616 136.7C41.2616 136.7 40.5949 136.92 40.0616 137.36C39.5282 137.8 39.1882 138.4 39.0416 139.16ZM54.0197 137.08H51.5397V141.88C51.5397 142.293 51.633 142.593 51.8197 142.78C52.0064 142.953 52.2797 143.053 52.6397 143.08C53.013 143.093 53.473 143.087 54.0197 143.06V145C52.3664 145.2 51.1797 145.06 50.4597 144.58C49.7397 144.087 49.3797 143.187 49.3797 141.88V137.08H47.5397V135H49.3797V132.84L51.5397 132.2V135H54.0197V137.08ZM60.0386 145.26C58.5319 145.26 57.2719 144.753 56.2586 143.74C55.2586 142.727 54.7586 141.48 54.7586 140C54.7586 138.507 55.2586 137.26 56.2586 136.26C57.2719 135.247 58.5319 134.74 60.0386 134.74C61.0119 134.74 61.8986 134.973 62.6986 135.44C63.4986 135.907 64.0986 136.533 64.4986 137.32L62.6386 138.4C62.4119 137.92 62.0653 137.547 61.5986 137.28C61.1453 137 60.6186 136.86 60.0186 136.86C59.1386 136.86 58.3986 137.16 57.7986 137.76C57.2119 138.36 56.9186 139.107 56.9186 140C56.9186 140.893 57.2119 141.64 57.7986 142.24C58.3986 142.84 59.1386 143.14 60.0186 143.14C60.6053 143.14 61.1319 143 61.5986 142.72C62.0786 142.44 62.4386 142.067 62.6786 141.6L64.5386 142.66C64.1119 143.46 63.4986 144.093 62.6986 144.56C61.8986 145.027 61.0119 145.26 60.0386 145.26ZM71.1098 134.74C72.2565 134.74 73.1832 135.107 73.8898 135.84C74.5965 136.573 74.9498 137.58 74.9498 138.86V145H72.7898V139.08C72.7898 138.333 72.5898 137.76 72.1898 137.36C71.7898 136.96 71.2432 136.76 70.5498 136.76C69.7898 136.76 69.1765 137 68.7098 137.48C68.2432 137.947 68.0098 138.667 68.0098 139.64V145H65.8498V131H68.0098V136.28C68.6632 135.253 69.6965 134.74 71.1098 134.74Z" fill="white"/>
<path d="M100.578 132.275C99.6789 132.275 98.9299 131.826 98.4805 131.077C96.3834 127.482 94.2862 123.886 92.1891 120.142C91.7397 119.243 90.9907 118.943 90.092 118.943C86.7964 118.943 83.5009 118.943 80.0556 118.943C79.007 118.943 78.1083 118.943 77.0597 118.943C76.1609 118.943 75.4119 118.194 75.1123 117.295C74.8128 116.397 75.1123 115.498 76.0111 114.899C77.3593 114 78.7075 113.101 80.0556 112.202C87.096 107.559 93.9867 102.915 101.027 98.4211C101.776 97.9718 102.675 97.8219 103.424 98.2713C104.173 98.7207 104.622 99.4697 104.622 100.368C104.622 101.866 104.472 103.215 104.323 104.713C104.323 105.911 104.173 106.96 104.173 108.158C104.023 109.656 104.023 111.154 103.873 112.652C103.723 114 103.723 115.498 103.574 116.846C103.424 118.344 103.424 119.842 103.274 121.34C103.124 122.688 103.124 124.186 102.974 125.534C102.825 127.182 102.825 128.83 102.675 130.477C102.675 131.526 101.476 132.275 100.578 132.275Z" fill="#FDBE1D"/>
</svg>
