<svg width="320" height="376" viewBox="0 0 320 376" fill="none" xmlns="http://www.w3.org/2000/svg">
<rect y="342.561" width="89.1149" height="33.1324" rx="5.71249" fill="#FDBE1D"/>
<path d="M26.9631 352.935H20.2224V357.413H26.7346V359.927H20.2224V366.416H17.5946V350.421H26.9631V352.935ZM30.9179 361.755C31.1007 362.623 31.5196 363.293 32.1747 363.765C32.8297 364.222 33.6295 364.451 34.5739 364.451C35.884 364.451 36.8665 363.979 37.5216 363.034L39.5552 364.222C38.4279 365.883 36.7599 366.713 34.5511 366.713C32.6926 366.713 31.1921 366.149 30.0496 365.022C28.9071 363.88 28.3359 362.44 28.3359 360.704C28.3359 358.997 28.8995 357.573 30.0268 356.431C31.154 355.273 32.6012 354.694 34.3683 354.694C36.0439 354.694 37.4149 355.28 38.4813 356.453C39.5628 357.626 40.1036 359.051 40.1036 360.726C40.1036 360.985 40.0731 361.328 40.0122 361.755H30.9179ZM30.8951 359.744H37.613C37.4454 358.815 37.057 358.114 36.4476 357.642C35.8535 357.169 35.1528 356.933 34.3454 356.933C33.4314 356.933 32.6698 357.185 32.0604 357.687C31.4511 358.19 31.0626 358.876 30.8951 359.744ZM48.0076 357.367H45.1742V362.851C45.1742 363.324 45.2808 363.666 45.4941 363.88C45.7073 364.078 46.0196 364.192 46.4309 364.222C46.8574 364.238 47.383 364.23 48.0076 364.2V366.416C46.1186 366.645 44.7629 366.485 43.9403 365.936C43.1177 365.373 42.7064 364.344 42.7064 362.851V357.367H40.6042V354.991H42.7064V352.523L45.1742 351.792V354.991H48.0076V357.367ZM54.8841 366.713C53.1628 366.713 51.7232 366.134 50.5655 364.976C49.423 363.819 48.8518 362.394 48.8518 360.704C48.8518 358.997 49.423 357.573 50.5655 356.431C51.7232 355.273 53.1628 354.694 54.8841 354.694C55.9962 354.694 57.0092 354.961 57.9232 355.494C58.8372 356.027 59.5227 356.743 59.9797 357.642L57.8546 358.876C57.5957 358.327 57.1996 357.901 56.6664 357.596C56.1485 357.276 55.5468 357.116 54.8613 357.116C53.8559 357.116 53.0105 357.459 52.325 358.144C51.6547 358.83 51.3196 359.683 51.3196 360.704C51.3196 361.724 51.6547 362.577 52.325 363.263C53.0105 363.948 53.8559 364.291 54.8613 364.291C55.5316 364.291 56.1333 364.131 56.6664 363.811C57.2148 363.491 57.6261 363.065 57.9003 362.532L60.0254 363.743C59.5379 364.657 58.8372 365.38 57.9232 365.913C57.0092 366.446 55.9962 366.713 54.8841 366.713ZM67.533 354.694C68.8431 354.694 69.9018 355.113 70.7092 355.951C71.5165 356.789 71.9202 357.939 71.9202 359.401V366.416H69.4524V359.652C69.4524 358.799 69.2239 358.144 68.7669 357.687C68.3099 357.23 67.6854 357.002 66.8932 357.002C66.0249 357.002 65.3242 357.276 64.791 357.824C64.2579 358.358 63.9913 359.18 63.9913 360.292V366.416H61.5235V350.421H63.9913V356.453C64.7377 355.28 65.9183 354.694 67.533 354.694Z" fill="white"/>
<path d="M254 192.801V128.108C254 125.647 256.47 123.953 258.766 124.839L281.815 133.732L301.35 166.583V209.474C301.35 212.04 298.683 213.736 296.36 212.647L254 192.801Z" fill="#97B1C9"/>
<path d="M289.086 180.191C288.867 180.191 288.692 180.155 288.473 180.083L258.38 169.153C257.592 168.864 257.241 168.143 257.592 167.494C257.942 166.844 258.818 166.556 259.607 166.844L289.699 177.774C290.488 178.063 290.838 178.784 290.488 179.434C290.225 179.903 289.655 180.191 289.086 180.191Z" fill="#7E91A3"/>
<path d="M289.086 185.674C288.867 185.674 288.692 185.638 288.473 185.565L258.38 174.635C257.592 174.347 257.241 173.625 257.592 172.976C257.942 172.327 258.818 172.038 259.607 172.327L289.699 183.257C290.488 183.545 290.838 184.267 290.488 184.916C290.225 185.385 289.655 185.674 289.086 185.674Z" fill="#7E91A3"/>
<path d="M289.086 191.121C288.867 191.121 288.692 191.085 288.473 191.013L258.38 180.083C257.592 179.794 257.241 179.073 257.592 178.423C257.942 177.774 258.818 177.485 259.607 177.774L289.699 188.704C290.488 188.993 290.838 189.714 290.488 190.363C290.225 190.832 289.655 191.121 289.086 191.121Z" fill="#7E91A3"/>
<path d="M215 209.801V145.108C215 142.647 217.47 140.953 219.766 141.839L242.815 150.732L262.35 183.583V226.474C262.35 229.04 259.683 230.736 257.36 229.647L215 209.801Z" fill="#D1E3EE"/>
<path d="M250.086 197.191C249.867 197.191 249.692 197.155 249.473 197.083L219.38 186.153C218.592 185.864 218.241 185.143 218.592 184.494C218.942 183.844 219.818 183.556 220.607 183.844L250.699 194.774C251.488 195.063 251.838 195.784 251.488 196.434C251.225 196.903 250.655 197.191 250.086 197.191Z" fill="#C2D8E6"/>
<path d="M250.086 202.674C249.867 202.674 249.692 202.638 249.473 202.565L219.38 191.635C218.592 191.347 218.241 190.625 218.592 189.976C218.942 189.327 219.818 189.038 220.607 189.327L250.699 200.257C251.488 200.545 251.838 201.267 251.488 201.916C251.225 202.385 250.655 202.674 250.086 202.674Z" fill="#C2D8E6"/>
<path d="M250.086 208.121C249.867 208.121 249.692 208.085 249.473 208.013L219.38 197.083C218.592 196.794 218.241 196.073 218.592 195.423C218.942 194.774 219.818 194.485 220.607 194.774L250.699 205.704C251.488 205.993 251.838 206.714 251.488 207.363C251.225 207.832 250.655 208.121 250.086 208.121Z" fill="#C2D8E6"/>
<path d="M180 229.801V165.108C180 162.647 182.47 160.953 184.766 161.839L207.815 170.732L227.35 203.583V246.474C227.35 249.04 224.683 250.736 222.36 249.647L180 229.801Z" fill="#ECF2F7"/>
<path d="M215.086 217.191C214.867 217.191 214.692 217.155 214.473 217.083L184.38 206.153C183.592 205.864 183.241 205.143 183.592 204.494C183.942 203.844 184.818 203.556 185.607 203.844L215.699 214.774C216.488 215.063 216.838 215.784 216.488 216.434C216.225 216.903 215.655 217.191 215.086 217.191Z" fill="#D7E4F0"/>
<path d="M215.086 222.674C214.867 222.674 214.692 222.638 214.473 222.565L184.38 211.635C183.592 211.347 183.241 210.625 183.592 209.976C183.942 209.327 184.818 209.038 185.607 209.327L215.699 220.257C216.488 220.545 216.838 221.267 216.488 221.916C216.225 222.385 215.655 222.674 215.086 222.674Z" fill="#D7E4F0"/>
<path d="M215.086 228.121C214.867 228.121 214.692 228.085 214.473 228.013L184.38 217.083C183.592 216.794 183.241 216.073 183.592 215.423C183.942 214.774 184.818 214.485 185.607 214.774L215.699 225.704C216.488 225.993 216.838 226.714 216.488 227.363C216.225 227.832 215.655 228.121 215.086 228.121Z" fill="#D7E4F0"/>
<path d="M137.985 192.257L134.261 185.117L129.199 182.75C127.456 181.935 125.457 183.207 125.457 185.13V185.993V190.199V247.755L203.425 291.119V227.277C203.425 224.01 201.514 221.045 198.538 219.697L137.985 192.257Z" fill="#7B91A5"/>
<path d="M104.479 206.359C102.912 205.546 101.262 207.299 102.168 208.814L125.457 247.756L203.425 291.121L174.489 248.652C170.366 242.601 164.806 237.668 158.307 234.295L104.479 206.359Z" fill="#E2EDF4"/>
<path d="M150.945 156.691L208.444 128.588C210.735 127.468 212.187 125.141 212.187 122.591L212.187 79.5933C212.187 77.9879 210.52 76.9257 209.065 77.6042L151.374 104.505C149.154 105.54 147.734 107.769 147.734 110.219L147.734 154.687C147.734 156.336 149.463 157.416 150.945 156.691Z" stroke="#E2EDF4" stroke-width="1.46314"/>
<path d="M52.4262 175.595L109.925 147.492C112.216 146.372 113.669 144.045 113.669 141.495L113.669 98.4976C113.669 96.8922 112.002 95.83 110.547 96.5085L52.8557 123.409C50.6351 124.445 49.2156 126.673 49.2156 129.123L49.2156 173.591C49.2156 175.241 50.9441 176.32 52.4262 175.595Z" stroke="#E2EDF4" stroke-width="1.46314"/>
<path d="M257.943 270.691L315.442 242.588C317.733 241.468 319.185 239.141 319.185 236.591L319.185 193.593C319.185 191.988 317.518 190.926 316.063 191.604L258.372 218.505C256.152 219.54 254.732 221.769 254.732 224.219L254.732 268.687C254.732 270.336 256.461 271.416 257.943 270.691Z" stroke="#E2EDF4" stroke-width="1.46314"/>
<path d="M229.36 72.9571L267.365 53.3097C269.825 52.0379 271.37 49.4999 271.37 46.7306L271.37 4.58353C271.37 2.44543 269.152 1.02918 267.212 1.92901L229.112 19.6056C226.627 20.7585 225.037 23.2488 225.037 25.9882L225.037 70.3254C225.037 72.5452 227.388 73.9764 229.36 72.9571Z" fill="#F3F7FA"/>
<path d="M196.332 334.742L221.017 321.874C223.465 320.598 225 318.067 225 315.307L225 287.6C225 285.457 222.774 284.041 220.834 284.949L196.055 296.541C193.581 297.698 192 300.183 192 302.914L192 332.115C192 334.339 194.36 335.77 196.332 334.742Z" fill="#F3F7FA"/>
<path d="M94.8728 345.159C93.846 345.159 92.9903 344.646 92.4769 343.79C90.0809 339.683 87.6849 335.575 85.2889 331.297C84.7755 330.27 83.9198 329.928 82.8929 329.928C79.1278 329.928 75.3627 329.928 71.4264 329.928C70.2284 329.928 69.2016 329.928 68.0036 329.928C66.9767 329.928 66.121 329.072 65.7787 328.045C65.4365 327.018 65.7787 325.991 66.8056 325.307C68.3459 324.28 69.8861 323.253 71.4264 322.226C79.4701 316.921 87.3426 311.615 95.3863 306.481C96.242 305.968 97.2688 305.797 98.1245 306.31C98.9802 306.823 99.4937 307.679 99.4937 308.706C99.4937 310.417 99.3225 311.958 99.1514 313.669C99.1514 315.038 98.9802 316.236 98.9802 317.605C98.8091 319.317 98.8091 321.028 98.638 322.74C98.4668 324.28 98.4668 325.991 98.2957 327.532C98.1245 329.243 98.1245 330.954 97.9534 332.666C97.7822 334.206 97.7823 335.918 97.6111 337.458C97.44 339.34 97.44 341.223 97.2688 343.105C97.2688 344.303 95.8997 345.159 94.8728 345.159Z" fill="#FDBE1D"/>
<path d="M149.404 334.854L29.5 263.551V73.5334L149.404 139.294V334.854Z" stroke="#FDBE1D" stroke-width="3"/>
<path d="M208 197.186V171L228 205L208 197.186Z" fill="#F4FAFF"/>
<path d="M243 177.186V151L263 185L243 177.186Z" fill="#D9EBF5"/>
<path d="M282 160.186V134L302 168L282 160.186Z" fill="#A7C2DC"/>
<path d="M227.5 221L208 197L227.5 204.5V221Z" fill="#A9C0D6"/>
<path d="M262.5 201L243 177L262.5 184.5V201Z" fill="#8AA1B6"/>
<path d="M301.5 184L282 160L301.5 167.5V184Z" fill="#566471"/>
</svg>
