<svg width="363" height="297" viewBox="0 0 363 297" fill="none" xmlns="http://www.w3.org/2000/svg">
<rect x="177.051" y="152.049" width="32.6804" height="35.1469" rx="7.30029" fill="#FF6847"/>
<rect x="268.927" y="205.08" width="32.6804" height="53.0286" rx="7.30029" fill="#FFC01E"/>
<rect x="152.387" y="116.902" width="32.6804" height="47.4791" rx="7.30029" fill="white"/>
<path d="M60.3112 281.679C85.0042 281.679 105.022 261.661 105.022 236.968C105.022 212.275 85.0042 192.258 60.3112 192.258C35.6182 192.258 15.6006 212.275 15.6006 236.968C15.6006 261.661 35.6182 281.679 60.3112 281.679Z" fill="#D1E3EE"/>
<path d="M104.719 230.264C92.6715 232.835 82.2373 238.783 73.1642 247.251C69.6861 243.723 66.208 240.245 62.8308 236.868C72.8617 226.837 83.0439 216.655 93.226 206.472C92.5203 205.666 91.7138 204.91 90.9577 204.204C80.7252 214.437 70.543 224.619 60.5121 234.65C57.0845 231.222 53.6568 227.794 50.0779 224.216C58.5967 215.243 64.4942 204.759 67.1154 192.56C66.208 192.409 65.3007 192.308 64.3934 192.258C62.3771 201.885 54.4633 216.655 47.8601 222.25C41.8113 216.201 35.8129 210.203 29.7137 204.103C28.9576 204.809 28.2519 205.515 27.5462 206.22C33.595 212.269 39.6438 218.318 45.743 224.417C37.93 232.18 26.8405 238.531 15.499 240.9C15.5998 241.858 15.7006 242.816 15.8519 243.773C28.0503 241.203 38.5852 235.255 47.7592 226.686C51.2373 230.164 54.7153 233.642 58.0926 237.019C47.9105 247.201 37.6779 257.434 27.4454 267.666C28.2015 268.473 29.008 269.279 29.8145 270.035C40.047 259.803 50.2796 249.57 60.4617 239.388C63.7885 242.715 67.2666 246.142 70.795 249.721C62.1755 258.795 56.278 269.279 53.6568 281.477C54.6145 281.629 55.5723 281.73 56.5804 281.78C59.1007 270.287 64.6959 260.408 72.8113 251.838C78.8601 257.887 84.8081 263.835 90.8569 269.884C91.6634 269.128 92.4699 268.372 93.226 267.515C87.1772 261.466 81.2292 255.518 75.13 249.419C83.6991 241.354 93.5284 235.708 105.021 233.188C104.971 232.23 104.87 231.222 104.719 230.264Z" fill="white"/>
<path d="M235.071 273.565H85.9688L105.325 183.892C106.232 179.254 110.315 175.877 115.104 175.877H246.665C250.849 175.877 253.974 179.708 253.117 183.791L235.071 273.565Z" fill="#A3B7C9"/>
<path d="M226.705 282.438H52.2983C47.4089 282.438 43.4268 278.456 43.4268 273.566H235.577C235.577 278.456 231.595 282.438 226.705 282.438Z" fill="#3E5477"/>
<path d="M235.578 273.566H226.706H191.321C191.321 273.566 191.875 280.069 184.012 282.438H226.656C231.596 282.438 235.578 278.456 235.578 273.566Z" fill="#25455F"/>
<path d="M136.881 276.188H98.6221C97.2107 276.188 96.001 275.028 96.001 273.566H139.451C139.502 275.028 138.342 276.188 136.881 276.188Z" fill="#EEF4FB"/>
<path d="M116.062 186.764L105.023 238.682H155.833L166.721 186.764H116.062Z" fill="#D1E3EE"/>
<path d="M217.226 261.369H123.923C120.244 261.369 117.471 258.043 118.076 254.464L130.577 202.696C131.333 198.361 135.063 195.186 139.499 195.186H229.979C233.659 195.186 236.481 198.563 235.776 202.192L226.148 254.01C225.342 258.244 221.611 261.369 217.226 261.369Z" fill="white"/>
<path d="M139.5 195.134C135.115 195.134 131.334 198.31 130.578 202.645L118.077 254.413C117.472 258.042 120.245 261.318 123.924 261.318H156.285L170.551 195.084H139.5V195.134Z" fill="#3E5477"/>
<path d="M184.514 216.004H175.592C174.533 216.004 173.777 215.046 174.029 214.038L175.793 206.174C175.945 205.418 176.6 204.914 177.356 204.914H185.925C186.933 204.914 187.689 205.821 187.488 206.83L186.076 214.693C185.925 215.449 185.27 216.004 184.514 216.004Z" fill="#A3B7C9"/>
<path d="M181.034 232.08H172.112C171.054 232.08 170.298 231.122 170.55 230.114L172.314 222.25C172.465 221.494 173.12 220.99 173.877 220.99H182.446C183.454 220.99 184.21 221.898 184.008 222.906L182.597 230.769C182.496 231.525 181.79 232.08 181.034 232.08Z" fill="#A3B7C9"/>
<path d="M177.657 248.111H168.735C167.677 248.111 166.921 247.153 167.173 246.145L168.937 238.282C169.088 237.526 169.743 237.021 170.5 237.021H179.069C180.077 237.021 180.833 237.929 180.631 238.937L179.22 246.8C179.119 247.556 178.413 248.111 177.657 248.111Z" fill="#A3B7C9"/>
<path d="M165.66 254.465L166.114 252.903C166.265 252.449 166.668 252.146 167.122 252.146H207.498C208.203 252.146 208.707 252.852 208.455 253.507L207.951 255.07C207.8 255.473 207.397 255.776 206.993 255.776H166.668C165.962 255.776 165.458 255.12 165.66 254.465Z" stroke="#A3B7C9" stroke-width="0.559483" stroke-miterlimit="10"/>
<path d="M177.303 201.133L177.756 199.571C177.907 199.117 178.311 198.814 178.764 198.814H194.743C195.449 198.814 195.953 199.52 195.701 200.175L195.197 201.738C195.046 202.141 194.642 202.444 194.239 202.444H178.311C177.605 202.444 177.151 201.788 177.303 201.133Z" stroke="#A3B7C9" stroke-width="0.559483" stroke-miterlimit="10"/>
<path d="M205.38 254.819C205.881 254.819 206.287 254.412 206.287 253.911C206.287 253.41 205.881 253.004 205.38 253.004C204.879 253.004 204.473 253.41 204.473 253.911C204.473 254.412 204.879 254.819 205.38 254.819Z" stroke="#A3B7C9" stroke-width="0.559483" stroke-miterlimit="10"/>
<path d="M219.09 207.888H191.518L192.022 204.914H219.594L219.09 207.888Z" fill="#D1E3EE"/>
<path d="M216.118 223.964H188.546L189.05 220.99H216.622L216.118 223.964Z" fill="#D1E3EE"/>
<path d="M212.337 239.945H184.765L185.269 237.021H212.841L212.337 239.945Z" fill="#D1E3EE"/>
<path d="M290.341 235.761C288.677 233.795 286.208 232.635 283.586 232.635H275.975V226.939H226.627V282.74H275.975V274.322H281.318C284.544 274.322 287.266 272.003 287.821 268.827L292.256 242.969C292.71 240.348 292.004 237.726 290.341 235.761ZM290.341 242.616L285.905 268.474C285.502 270.692 283.586 272.305 281.318 272.305H275.975V234.601H283.586C285.603 234.601 287.518 235.509 288.829 237.021C290.139 238.583 290.694 240.6 290.341 242.616Z" fill="#3E5477"/>
<path d="M207.266 174.646L247.44 214.77L277.936 150.955L207.266 174.646Z" fill="#25455F"/>
<path d="M250.06 209.225L232.317 166.228L241.189 163.254L254.748 199.446L250.06 209.225Z" fill="#3E5477"/>
<path d="M261.401 185.533L253.235 159.221L259.385 157.154L265.736 176.46L261.401 185.533Z" fill="#3E5477"/>
<path d="M229.041 196.372L220.321 170.262L212.508 172.883L215.532 182.863L229.041 196.372Z" fill="#3E5477"/>
<path d="M271.633 164.112L268.205 154.232L272.994 152.619L274.96 157.156L271.633 164.112Z" fill="#3E5477"/>
<path d="M283.077 156.146L279.296 153.575L276.473 157.154L276.121 152.618H271.584L274.911 149.543L272.038 145.964L276.524 146.619L277.532 142.184L279.851 146.115L283.934 144.149L282.321 148.384L286.404 150.349L282.069 151.71L283.077 156.146Z" fill="#3E5477"/>
<path d="M322.367 199.246C328.158 192.385 329.649 182.885 326.178 174.6C325.842 173.757 317.614 173.778 316.585 173.679C314.325 173.439 312.045 173.3 309.802 173.19C309.471 173.166 307.078 173.172 306.961 173.023C310.432 181.307 308.969 190.771 303.15 197.669C303.235 197.56 306.274 197.997 305.979 198.001C308.239 198.241 310.491 198.416 312.779 198.619C315.039 198.859 317.319 198.998 319.562 199.108C319.986 199.088 322.133 199.473 322.367 199.246Z" fill="#3E5477"/>
<path d="M222.94 81.7031C227.199 79.6784 231.532 77.7246 235.79 75.6999C236.207 75.5006 235.518 69.9291 235.445 69.3196C235.431 68.7379 234.625 63.111 234.955 62.9429C230.697 64.9676 226.364 66.9214 222.106 68.9461C221.689 69.1455 222.377 74.717 222.45 75.3264C222.551 75.8769 223.299 81.4761 222.94 81.7031Z" fill="#3E5477"/>
<path d="M80.3711 203.068C80.8721 197.947 81.3419 192.741 81.8429 187.62C81.8912 187.212 69.164 185.688 69.2158 185.425C68.7148 190.545 68.245 195.752 67.744 200.872C67.6524 201.296 80.3519 202.879 80.3711 203.068Z" fill="#FF6847"/>
<path d="M55.0125 168.529C50.8272 169.514 46.6305 170.54 42.3931 171.554C42.5121 171.521 44.2593 174.865 44.4504 175.204C44.6267 175.516 46.3071 178.863 46.5858 178.809C50.7711 177.824 54.9677 176.798 59.2051 175.784C59.0861 175.816 57.3389 172.473 57.1479 172.134C56.9682 171.754 55.2878 168.408 55.0125 168.529Z" fill="#FF6847"/>
<path d="M120.284 237.248C126.703 235.52 133.064 233.764 139.526 232.02C139.338 232.04 136.493 227.001 136.22 226.513C135.946 226.025 133.188 220.955 132.783 221.052C126.364 222.78 120.003 224.536 113.541 226.279C113.729 226.26 116.574 231.299 116.847 231.787C117.109 232.377 119.851 237.404 120.284 237.248Z" fill="#FFC01E"/>
<path d="M51.7405 105.637L47.4017 93.6052C47.2924 93.3022 38.1848 96.391 38.138 96.2612L42.4768 108.293C42.5705 108.552 51.6936 105.507 51.7405 105.637Z" fill="#3E5477"/>
<path d="M88.511 146.637L84.1722 134.605C84.0629 134.302 74.9553 137.391 74.9085 137.261L79.2473 149.293C79.341 149.552 88.4797 146.55 88.511 146.637Z" fill="#D1E3EE"/>
<path d="M222.131 172.763C226.777 168.153 227.916 161.14 224.964 155.26C224.796 154.929 220.601 155.366 220.121 155.392C219.642 155.418 215.419 155.914 215.325 155.655C218.261 161.491 217.123 168.505 212.476 173.115C212.973 172.593 216.592 173 217.319 172.982C218.207 173.004 221.492 173.433 222.131 172.763Z" fill="#D1E3EE"/>
<path d="M317.447 72.1215C319.155 68.1797 318.114 63.6646 314.859 60.877C314.576 60.6365 310.9 62.647 310.467 62.8031C310.05 63.0024 306.33 65.0286 306.122 64.859C309.393 67.6899 310.375 72.1773 308.71 76.1035C308.738 76.0446 310.123 75.5452 309.993 75.592C311.059 75.1586 312.094 74.6385 313.058 74.193C314.125 73.7596 315.16 73.2395 316.124 72.794C316.411 72.6415 317.395 72.3847 317.447 72.1215Z" fill="#3E5477"/>
<path d="M286.708 144.343C292.399 143.171 298.133 141.983 303.78 140.827C304.228 140.714 300.741 121.822 300.93 121.803C295.239 122.975 289.505 124.162 283.858 125.319C283.335 125.361 286.881 144.28 286.708 144.343Z" fill="#FFC01E"/>
<path d="M15.304 134.021C15.14 138.042 14.9916 142.106 14.8276 146.126C14.8326 145.733 23.7513 145.647 23.7528 145.108L24.2291 133.003C24.2242 133.396 15.3054 133.483 15.304 134.021Z" fill="#FFC01E"/>
<path d="M142.969 141.997C148.935 143.758 155.165 142.049 159.493 137.505C159.777 137.207 158.026 133.437 157.854 132.961C157.683 132.485 155.932 128.715 156.172 128.432C151.844 132.976 145.583 134.599 139.648 132.924C140.088 133.059 141.099 136.949 141.287 137.468C141.477 138.133 142.324 141.838 142.969 141.997Z" fill="#FF6847"/>
<path d="M123.114 62.8301C124.428 68.3719 125.758 73.9569 127.158 79.4674C127.252 79.727 136.588 77.6805 136.635 77.8103C135.321 72.2686 134.007 66.7269 132.592 61.1731C132.557 60.9411 123.161 62.96 123.114 62.8301Z" fill="#FFC01E"/>
<path d="M124.095 177.41C127.938 179.252 131.77 181.196 135.628 183.082C135.393 182.971 139.268 174.188 138.856 173.995C135.013 172.153 131.182 170.209 127.323 168.324C127.574 168.478 123.683 177.217 124.095 177.41Z" fill="#FF6847"/>
<path d="M211.06 125.11C214.542 131.239 220.92 134.955 227.948 134.915C228.836 134.937 229.686 125.631 230.413 125.614C223.354 125.567 217.051 121.923 213.526 115.809C213.874 116.368 212.442 119.721 212.228 120.483C211.971 121.261 210.591 124.35 211.06 125.11Z" fill="#FF6847"/>
</svg>
