<svg width="336" height="314" viewBox="0 0 336 314" fill="none" xmlns="http://www.w3.org/2000/svg">
<path d="M335.5 175V46H201L107 147.412L112.5 156.5H201L335.5 175Z" fill="url(#paint0_linear)" fill-opacity="0.3"/>
<rect x="68" y="253" width="52" height="61" rx="5.61644" fill="#FF6847"/>
<rect width="137" height="131" rx="13.0372" transform="matrix(-1 -8.74228e-08 -8.74228e-08 1 336 46)" fill="#FFC01E"/>
<path d="M200.124 111.946C217.192 144.067 249.824 128.043 249.824 128.043L255.833 108.24C216.275 133.581 204.147 107.734 204.147 107.734L200.124 111.946Z" fill="#955524"/>
<path d="M192.76 108.372C192.522 107.838 192.857 107.32 193.43 107.335C194.003 107.351 194.708 107.554 195.717 108.383C197.614 110.269 200.029 105.75 196.087 105.735C195.514 105.719 194.981 105.956 194.513 106.288C194.326 106.42 194.018 106.778 193.831 106.911C193.524 107.269 192.857 107.32 192.593 106.946C191.837 106.077 192.811 102.299 197.602 103.117C197.602 103.117 196.157 100.292 196.087 97.8146C196.079 96.4161 199.035 98.2895 200.625 99.4938C201.863 102.828 204.752 109.074 205.243 109.569C205.733 110.064 200.205 112.088 200.205 112.088C200.205 112.088 194.606 112.961 192.76 108.372Z" fill="#955524"/>
<path d="M263.967 177.411L273.359 160.086C273.359 160.086 299.119 162.809 315.076 148.311L327.595 177.411L263.967 177.411Z" fill="#D1E3EE"/>
<path d="M259.688 100.916C309.472 98.5306 314.983 148.395 314.983 148.395C305.134 157.714 295.543 158.617 295.48 158.612C286.192 160.469 279.691 160.469 279.691 160.469C279.691 157.219 277.844 150.119 273.195 144.519C266.956 138.465 251.175 137.63 245.923 122.75C240.671 107.87 259.688 100.916 259.688 100.916Z" fill="#F3F7FA"/>
<path d="M249.209 101.974L253.584 110.857L259.084 102.794L255.868 96.8683L249.209 101.974Z" fill="#955524"/>
<path d="M259.177 116.841C252.268 128.501 250.822 115.008 251.542 106.911L258.625 102.496L266.901 104.151L259.177 116.841Z" fill="#955524"/>
<path d="M194.504 153.087C193.943 150.118 195.253 147.377 197.43 146.966C199.607 146.555 201.827 148.628 202.388 151.597C202.949 154.566 201.639 157.306 199.462 157.718C197.285 158.129 195.065 156.056 194.504 153.087Z" fill="white"/>
<path d="M250.944 104.441C255.646 102.497 257.984 97.4512 256.191 93.1166L254.764 81.4215L249.15 76.0877C248.67 74.9266 247.278 74.4144 246.019 74.9351L233.941 79.5737C232.681 80.0945 233.233 82.8033 233.713 83.9644L239.231 100.129C241.023 104.464 246.242 106.385 250.944 104.441Z" fill="#955524"/>
<path d="M240.737 99.4343C243.813 99.2624 243.641 96.1864 243.641 96.1864" stroke="#D0B9A7" stroke-width="1.04588" stroke-linecap="round"/>
<path d="M235.021 86.0244C234.91 85.6699 234.791 85.3105 234.662 84.9466C233.648 82.0977 234.103 83.4087 235.021 86.0244C236.422 90.5366 236.307 94.252 236.09 96.1669C236.016 96.825 236.611 97.4201 237.26 97.2902L238.869 96.9684C238.869 96.9684 236.413 89.994 235.021 86.0244Z" fill="#955524"/>
<path d="M290.885 120.807C290.885 120.807 307.746 166.28 263.592 174.494L250.689 177.686C250.689 177.686 244.671 178.871 248.41 174.494L245.765 174.494L246.488 173.005C248.494 169.357 252.051 169.285 255.789 169.285L260.987 169.285C260.987 169.285 293.951 160.149 275.179 123.9L290.885 120.807Z" fill="#955524"/>
<path d="M173.409 177.686L266.599 177.686C266.599 175.953 265.14 174.494 263.407 174.494L173.5 174.494L173.5 177.686L173.409 177.686Z" fill="#7B91A5"/>
<path d="M159.919 132.984L173.894 174.908H239.739L224.883 133.641C224.187 131.707 222.352 130.418 220.297 130.418H161.768C160.438 130.418 159.498 131.722 159.919 132.984Z" fill="#D1E3EE"/>
<circle cx="195.341" cy="154.53" r="5.62033" fill="white"/>
<path d="M249.672 84.4322C250.408 84.583 251.105 84.2214 251.438 83.6096L251.993 81.9797C251.993 81.9797 253.688 79.7827 254.707 82.4701C254.997 83.1764 255.008 83.9573 254.997 84.657C254.932 85.8938 254.6 87.9862 253.804 88.7225L258.114 116.951C258.469 120.862 262.699 123.297 267.053 122.128C271.593 120.909 273.946 116.357 271.973 112.707L257.194 87.2895C257.194 87.2895 256.401 77.3119 253.528 73.6416C251.489 71.2278 248.083 69.2686 241.412 71.0601C233.63 73.1502 232.439 78.4167 233.247 81.4225L249.672 84.4322Z" fill="#17274E"/>
<path d="M261.463 90.9693C260.33 87.7268 257.514 85.6964 254.844 86.1602C254.865 86.2389 254.826 86.4184 254.766 86.519C254.726 86.6984 254.687 86.8778 254.648 87.0572C256.95 86.5234 259.621 88.3394 260.588 91.2887C261.679 94.3737 260.524 97.5549 258.123 98.3687C255.721 99.1826 252.866 97.3316 251.857 94.2248C251.017 91.748 251.523 89.0788 253.103 87.8098C253.245 87.6873 253.345 87.4073 253.118 87.2147C252.995 87.0791 252.708 86.9872 252.506 87.2103C250.663 88.8031 250.058 91.7524 250.982 94.5442C252.199 98.1017 255.465 100.18 258.355 99.2351C261.246 98.29 262.659 94.4481 261.463 90.9693Z" fill="#FF6847"/>
<rect x="107.007" y="66.3281" width="68.8755" height="42.4384" rx="4.17427" fill="#D1E3EE"/>
<line x1="143.111" y1="83.7317" x2="165.781" y2="83.7317" stroke="#F3F7FA" stroke-width="2.09903"/>
<line x1="143.111" y1="92.1302" x2="154.866" y2="92.1302" stroke="#F3F7FA" stroke-width="2.09903"/>
<path d="M119.603 85.8691C119.603 89.8334 119.603 93.7825 119.603 97.7467C124.43 97.7467 129.258 97.7467 134.102 97.7467C134.102 93.7901 134.102 89.841 134.102 85.8691C133.483 85.8768 123.117 85.8691 119.603 85.8691Z" fill="white"/>
<path d="M130.476 97.748L135.875 97.748L135.875 85.8705L130.476 85.8705L130.476 97.748Z" fill="white"/>
<circle cx="127.848" cy="92.085" r="1.73536" fill="#7B91A5"/>
<path d="M132.977 80.5484C133.053 80.9125 133.084 81.2918 133.091 81.6711C133.106 82.7709 133.099 84.7052 133.099 85.7975V85.8734H131.15V85.843V81.58C131.143 79.7671 129.656 78.3107 127.844 78.3411C126.047 78.3714 124.63 79.8051 124.622 81.6104V85.2171V86.0819H124.22H123.09H122.688V81.6104C122.696 79.1072 124.455 76.9681 126.912 76.4827C129.672 75.9365 132.424 77.7798 132.977 80.5484Z" fill="white"/>
<path d="M166.199 123.828V102.418L165.359 103.258L147.308 104.937L166.199 123.828Z" fill="#D1E3EE"/>
<path d="M261.496 156.17H279.128V178H261.496V156.17Z" fill="#3E5477"/>
<path d="M183.411 4.17427C183.411 1.86888 185.28 0 187.585 0H212.926C214.008 0 215.048 0.42032 215.826 1.17231L224.3 9.35915L233.15 16.8496C234.087 17.6427 234.627 18.8082 234.627 20.0359V62.1551C234.627 64.4604 232.759 66.3293 230.453 66.3293H187.585C185.28 66.3293 183.411 64.4604 183.411 62.1551V4.17427Z" fill="#7B91A5"/>
<circle cx="191.508" cy="1.88152" r="1.2155" fill="#7B91A5"/>
<circle cx="195.155" cy="1.88542" r="1.2155" fill="#7B91A5"/>
<path d="M198.485 35.7398C198.345 35.7411 198.206 35.705 198.084 35.6354C197.994 35.5849 197.915 35.517 197.852 35.4357C197.788 35.3544 197.742 35.2613 197.715 35.1619C197.688 35.0624 197.682 34.9586 197.695 34.8565C197.709 34.7545 197.743 34.6561 197.795 34.5674C198.802 32.8876 201.864 28.9668 208.546 28.9668C211.441 28.9668 213.981 29.7274 216.09 31.2265C217.826 32.4569 218.799 33.8496 219.263 34.5204C219.322 34.6049 219.363 34.7004 219.384 34.8011C219.406 34.9019 219.406 35.0059 219.387 35.107C219.368 35.2081 219.328 35.3043 219.271 35.39C219.214 35.4756 219.14 35.5489 219.054 35.6056C218.878 35.7218 218.664 35.7649 218.457 35.7259C218.25 35.687 218.067 35.5689 217.945 35.3968C217.106 34.1905 214.549 30.5198 208.546 30.5198C202.686 30.5198 200.037 33.8976 199.174 35.3462C199.105 35.4672 199.004 35.5674 198.883 35.6366C198.762 35.7058 198.625 35.7414 198.485 35.7398Z" fill="white"/>
<path d="M211.913 51.0868C211.847 51.0875 211.78 51.08 211.715 51.0643C206.869 49.8637 205.059 45.0185 204.985 44.817L204.974 44.7726C204.934 44.6327 203.962 41.3102 205.455 39.3641C206.139 38.4767 207.18 38.0216 208.554 38.0216C209.832 38.0216 210.754 38.4188 211.388 39.241C211.91 39.9123 212.118 40.7401 212.32 41.5378C212.745 43.1988 213.051 44.071 214.815 44.1608C215.59 44.2 216.099 43.7469 216.387 43.3611C217.168 42.3093 217.303 40.5945 216.715 39.0807C215.959 37.1268 213.277 33.4431 208.547 33.4431C206.528 33.4431 204.673 34.0919 203.185 35.3113C201.953 36.3214 200.978 37.7475 200.508 39.2133C199.637 41.9423 200.779 46.2321 200.79 46.2713C200.817 46.3711 200.824 46.4753 200.809 46.5777C200.795 46.68 200.761 46.7785 200.708 46.8673C200.655 46.9561 200.585 47.0334 200.501 47.0946C200.418 47.1559 200.324 47.1998 200.223 47.2239C200.02 47.2779 199.804 47.2502 199.621 47.1468C199.438 47.0434 199.303 46.8724 199.245 46.6706C199.193 46.4749 197.972 41.8995 198.979 38.7456C200.075 35.328 203.458 31.8828 208.548 31.8828C210.901 31.8828 213.124 32.6825 214.979 34.1927C216.416 35.3672 217.589 36.9447 218.203 38.5216C218.983 40.535 218.774 42.7947 217.671 44.271C216.936 45.2555 215.889 45.7702 214.73 45.7143C211.71 45.5629 211.167 43.4546 210.771 41.9167C210.364 40.3392 210.103 39.5787 208.548 39.5787C207.694 39.5787 207.095 39.8136 206.721 40.3001C206.212 40.9657 206.173 42.006 206.229 42.7608C206.266 43.2867 206.355 43.8076 206.495 44.3159C206.62 44.6291 208.237 48.5963 212.112 49.5562C212.212 49.58 212.306 49.6234 212.389 49.6839C212.473 49.7444 212.543 49.8209 212.596 49.9088C212.65 49.9968 212.685 50.0945 212.701 50.1962C212.716 50.298 212.711 50.4018 212.686 50.5016C212.639 50.6701 212.537 50.8185 212.398 50.9241C212.258 51.0298 212.088 51.0869 211.913 51.0868Z" fill="white"/>
<path d="M205.69 50.7249C205.581 50.7252 205.473 50.7035 205.373 50.6613C205.273 50.619 205.183 50.5571 205.107 50.4791C203.167 48.4433 202.07 46.1668 201.657 43.3203V43.3052C201.425 41.4208 201.765 38.7528 203.427 36.9185C204.654 35.565 206.38 34.877 208.546 34.877C211.108 34.877 213.121 36.0682 214.377 38.3164C215.288 39.9498 215.468 41.5774 215.473 41.6442C215.482 41.7472 215.472 41.8511 215.441 41.9499C215.41 42.0487 215.36 42.1405 215.294 42.2201C215.228 42.2996 215.147 42.3653 215.055 42.4133C214.964 42.4614 214.863 42.491 214.76 42.5003C214.552 42.5228 214.344 42.4627 214.18 42.3329C214.016 42.2031 213.91 42.0141 213.884 41.8065C213.746 40.8299 213.43 39.887 212.952 39.0248C211.979 37.3079 210.498 36.4351 208.54 36.4351C206.849 36.4351 205.526 36.9441 204.615 37.9489C203.303 39.3975 203.049 41.6291 203.229 43.1053C203.591 45.6224 204.558 47.6248 206.266 49.4142C206.338 49.4884 206.393 49.5761 206.43 49.6722C206.467 49.7683 206.484 49.8708 206.48 49.9736C206.476 50.0764 206.452 50.1774 206.408 50.2706C206.365 50.3638 206.303 50.4473 206.227 50.5161C206.079 50.6496 205.888 50.7239 205.69 50.7249Z" fill="white"/>
<path d="M214.627 48.4854C212.93 48.4854 211.488 48.0156 210.334 47.0817C208.015 45.2135 207.755 42.1707 207.744 42.0423C207.727 41.8315 207.795 41.6229 207.933 41.4623C208.07 41.3017 208.266 41.2023 208.477 41.186C208.688 41.1696 208.896 41.2377 209.057 41.3752C209.217 41.5127 209.317 41.7084 209.333 41.9191C209.339 41.964 209.571 44.4529 211.358 45.8863C212.416 46.7309 213.829 47.0661 215.571 46.8703C215.779 46.8451 215.989 46.9033 216.154 47.0322C216.32 47.1611 216.427 47.3503 216.454 47.5583C216.465 47.6611 216.456 47.7651 216.427 47.8643C216.397 47.9635 216.349 48.0559 216.284 48.136C216.218 48.2162 216.138 48.2826 216.046 48.3313C215.955 48.38 215.855 48.41 215.752 48.4196C215.379 48.4632 215.003 48.4852 214.627 48.4854Z" fill="white"/>
<path d="M215.968 27.7409C215.306 27.3103 212.96 26.0293 208.547 26.0293C203.914 26.0293 201.562 27.4444 201.041 27.8041C201.007 27.8252 200.975 27.8497 200.945 27.8772C200.942 27.8802 200.938 27.882 200.934 27.8824C200.851 27.955 200.784 28.0444 200.738 28.1448C200.692 28.2451 200.668 28.3541 200.668 28.4644C200.669 28.5679 200.691 28.67 200.732 28.7649C200.773 28.8599 200.832 28.9459 200.907 29.0179C200.981 29.0899 201.069 29.1465 201.165 29.1846C201.261 29.2226 201.364 29.2413 201.467 29.2396C201.633 29.2395 201.795 29.1887 201.931 29.094C201.953 29.0773 203.978 27.5896 208.548 27.5896C213.118 27.5896 215.154 29.072 215.176 29.083C215.315 29.1861 215.484 29.241 215.657 29.2396C215.76 29.2412 215.863 29.2223 215.959 29.1841C216.055 29.1458 216.143 29.089 216.217 29.0168C216.291 28.9446 216.351 28.8584 216.391 28.7633C216.432 28.6681 216.454 28.5659 216.455 28.4624C216.455 28.3073 216.409 28.1558 216.322 28.0272C216.235 27.8987 216.112 27.799 215.968 27.7409Z" fill="white"/>
<path d="M234.629 28.9675L213.639 17.2129H233.789L234.629 28.9675Z" fill="#647687"/>
<path d="M213.639 17.212L214.058 0L233.789 17.212H213.639Z" fill="#97B1C9"/>
<path d="M0 140.259C0 133.524 5.45949 128.064 12.1941 128.064H87.7329C94.4676 128.064 99.927 133.524 99.927 140.259V278.163C99.927 284.898 94.4676 290.357 87.7329 290.357H12.1941C5.4595 290.357 0 284.898 0 278.163V140.259Z" fill="#FFC01E"/>
<path d="M62.1672 177.168C62.1672 177.168 77.2227 202.01 81.3629 153.617L85.8258 153.778C85.8258 153.778 92.4932 240.831 45.7676 195.073L62.1672 177.168Z" fill="#C7C7C7"/>
<path d="M89.8044 146.95C89.6968 146.466 89.1591 146.251 88.729 146.52C88.2988 146.789 87.8687 147.38 87.5998 148.563C87.1159 150.929 82.9219 148.832 85.933 146.842C86.3631 146.574 86.9008 146.412 87.4385 146.412C87.6536 146.412 88.03 146.466 88.2988 146.574C88.7828 146.735 89.2667 146.412 89.3205 145.928C89.3205 145.928 89.3205 145.928 89.3205 145.875C89.3742 144.853 86.6858 142.487 83.5134 145.713C83.5134 145.713 83.4058 143.616 82.1154 141.681C81.4164 140.605 76.3083 139.906 77.3299 143.562C78.1902 146.681 81.5777 153.026 81.4164 153.671C81.255 154.316 85.5566 153.994 85.5566 153.994C85.5566 153.994 90.8798 151.413 89.8044 146.95Z" fill="#955524"/>
<path d="M68.1632 170.359L71.6511 175.668L83.1082 170.568L79.2038 163.811L68.1632 170.359Z" fill="#7B91A5"/>
<path d="M103.811 149.268L80.3474 163.155L84.3363 169.998L109.381 158.874L103.811 149.268Z" fill="#7B91A5"/>
<path d="M104.953 148.611L110.557 158.32L113.08 157.213L107.274 147.231L104.953 148.611Z" fill="#7B91A5"/>
<path d="M81.4172 153.402L81.2021 155.446C81.2021 155.446 83.3529 156.736 85.8801 156.252L85.8263 153.564C85.8801 153.564 83.4605 154.048 81.4172 153.402Z" fill="white"/>
<path d="M99.645 164.557C99.645 164.557 98.4084 164.772 97.6018 163.213L99.5913 162.998C99.5913 162.998 105.345 160.632 98.3546 154.449C97.8169 153.965 97.2254 153.481 96.4727 153.481C96.4727 153.481 99.9677 151.169 102.871 152.19C110.13 154.825 107.065 163.213 107.065 163.213L106.689 167.138L100.452 166.332L99.645 164.557Z" fill="#955524"/>
<path d="M42.8076 189.913L46.1951 189.053C46.1951 189.053 52.8087 194.268 62.5947 195.398L63.2938 197.172C63.24 197.118 49.4213 202.495 42.8076 189.913Z" fill="white"/>
<path d="M97.6699 171.889L99.7132 164.846C99.7132 164.846 101.488 167.104 107.08 166.351L106.918 174.685C106.918 174.685 102.832 175.169 97.6699 171.889Z" fill="white"/>
<path d="M48.8324 184.589L45.7138 172.813C44.746 169.103 46.0902 165.232 49.1551 162.92L63.4039 152.273C65.3396 150.822 68.0819 151.736 68.7809 154.048L68.8884 154.317C70.2327 158.726 69.695 163.511 67.4904 167.544L62.7049 177.437C62.6512 177.491 56.4139 188.46 48.8324 184.589Z" fill="white"/>
<path d="M70.9322 179.267L71.685 178.622C72.5453 177.869 72.8141 176.632 72.2764 175.611L67.6523 167.223L63.1357 175.664L62.3291 176.74L60.9849 173.03C60.2321 171.417 58.0276 172.385 58.0276 172.385C56.7909 172.815 56.2532 173.729 56.6296 174.912L58.1351 179.321C58.3502 179.912 58.7803 180.396 59.2643 180.665L58.7803 181.256C53.4572 187.332 48.833 184.59 48.833 184.59L46.1445 188.999C50.5536 194.591 62.5442 195.344 62.5442 195.344L63.1894 193.355L70.3945 189.967C72.3302 189.053 73.2981 186.848 72.6528 184.805L70.9322 179.267Z" fill="#955524"/>
<path d="M72.9188 185.666L72.3811 183.946C72.3811 183.946 71.4133 184.429 71.0906 184.376C69.8539 184.322 69.37 183.623 70.2841 182.064C70.4454 181.741 71.6283 181.526 71.6283 181.526L71.0906 179.805C70.8756 180.289 70.6067 180.612 70.2841 180.827C69.2625 181.418 67.9182 180.881 67.4881 179.805L64.5845 172.977L62.2725 176.848L64.2082 180.827C65.1222 183.139 65.0685 182.978 64.6383 185.397L63.2403 193.463L70.9293 190.129C72.5962 189.322 73.4565 187.441 72.9188 185.666Z" fill="white"/>
<path d="M72.4354 183.944L71.6289 181.471L72.3817 183.944H72.4354Z" fill="#FF6847"/>
<path d="M83.7171 291L77.9744 242.339C77.9744 242.339 104.183 246.644 106.549 173.41C106.549 173.41 102.427 174.043 98.161 170.184C98.161 170.184 86.6845 202.288 80.2289 204.486C71.6669 201.632 82.6524 206.367 63.2416 197.119C63.2416 197.119 51.1973 201.259 42.7555 189.86C30.7112 190.29 20.7638 199.377 19.1508 211.314L15.8555 291H83.7171Z" fill="#D6D6D6"/>
<defs>
<linearGradient id="paint0_linear" x1="136.174" y1="145.826" x2="250.334" y2="97.3084" gradientUnits="userSpaceOnUse">
<stop offset="0.598958" stop-color="#BED3E6"/>
<stop offset="1" stop-color="white" stop-opacity="0"/>
</linearGradient>
</defs>
</svg>
