<svg width="325" height="385" viewBox="0 0 325 385" fill="none" xmlns="http://www.w3.org/2000/svg">
<rect x="202.057" y="324.02" width="48.2388" height="60.9811" rx="9.10166" fill="#FF6847"/>
<rect x="34.5859" y="202.057" width="48.2388" height="60.9811" rx="9.10166" fill="#F8F8F8"/>
<rect x="13.6523" y="248.475" width="32.766" height="34.5863" rx="7.28132" fill="#FFC01E"/>
<path d="M140.165 159.279L215.138 159.279C219.479 159.279 222.99 153.911 222.99 147.275L222.99 0L140.165 -7.2408e-06L140.165 159.279Z" fill="#D1E3EE"/>
<path d="M126.096 95.8945L186.873 95.8945L187.459 95.8945L200.415 95.8945L190.904 107.323L190.904 239.611C190.904 239.611 187.375 239.611 183.01 239.611L116.138 239.611C114.241 239.611 112.693 239.611 112.693 239.611L112.693 111.999C112.707 103.1 118.704 95.8945 126.096 95.8945Z" fill="#F3F7FA"/>
<rect x="119.231" y="121.963" width="33.6761" height="4.55083" rx="2.27541" fill="#D1E3EE"/>
<rect x="119.231" y="144.717" width="33.6761" height="4.55083" rx="2.27541" fill="#D1E3EE"/>
<rect x="119.575" y="132.73" width="60.0768" height="5.32939" rx="2.6647" fill="#D1E3EE"/>
<rect x="119.575" y="155.408" width="60.0768" height="5.32939" rx="2.6647" fill="#D1E3EE"/>
<rect x="119.575" y="212.125" width="59.7876" height="5.1541" rx="2.57705" fill="#D1E3EE"/>
<path d="M190.792 106.855C190.917 100.755 195.073 95.8613 200.178 95.8613C205.282 95.8613 209.438 100.755 209.564 106.855L209.675 106.855L209.675 150.358C209.829 153.542 210.847 159.676 216.411 159.676L205.575 159.676L194.892 159.676L190.778 159.676L190.778 154.732L190.778 148.464L190.778 106.855L190.792 106.855Z" fill="#7B91A5"/>
<path d="M3.0918 34.1684C3.0918 25.5193 10.1033 18.5078 18.7523 18.5078H81.3946C90.0437 18.5078 97.0551 25.5193 97.0551 34.1684V150.056C97.0551 158.706 90.0437 165.717 81.3946 165.717H18.7523C10.1033 165.717 3.0918 158.706 3.0918 150.056V34.1684Z" fill="#FF6847"/>
<path d="M112.875 130.352C112.425 133.615 112.875 136.536 112.875 137.567C115.452 137.911 119.229 138.15 115.518 139.8C110.879 141.861 106.421 136.806 109.267 133.959L112.875 130.352Z" fill="#F1CFB2"/>
<path d="M69.1723 103.759C69.1723 103.759 71.6331 116.321 83.0981 121.808C92.6828 126.408 108.736 133.5 111.809 134.233L111.394 138.253L78.4153 134.39C59.3353 131.928 57.233 109.892 56.2267 101.589L69.1723 103.759Z" fill="#F1CFB2"/>
<path d="M30.3933 100.107C41.8175 97.0084 48.9055 86.4849 46.2247 76.6026C43.544 66.7203 32.1096 61.2213 20.6854 64.3204C9.26117 67.4194 2.17318 77.9428 4.85393 87.8252C7.53467 97.7075 18.969 103.206 30.3933 100.107Z" fill="#FFC01E"/>
<path d="M55.3436 95.2649L29.2504 96.3706C19.189 96.8128 16.5891 100.351 14.0461 108.643C13.2721 111.186 12.9404 113.84 12.9404 116.604V166.137H29.6926H80.8156L74.1387 120.048L72.4811 111.628C72.4811 102.23 64.7416 94.8227 55.3436 95.2649Z" fill="white"/>
<path d="M59.7665 95.5967C59.7665 95.5967 56.339 119.036 30.9092 96.2601L36.8797 95.9284C36.8797 95.9284 38.0959 95.4862 43.8452 91.5059L59.7665 95.5967Z" fill="#F1CFB2"/>
<path d="M40.2549 94.8482L49.0649 73.5462L63.3977 73.0202C64.3182 70.5219 65.1072 68.418 65.1072 68.418C65.1072 68.418 66.6851 70.5219 66.0276 74.2037C65.7646 75.3871 64.9757 77.3595 64.5812 78.1485C63.5292 80.6469 62.7403 83.6712 63.5292 85.5121C64.5812 87.879 61.5568 87.2215 60.1104 86.6956L59.7159 87.616C58.138 90.6404 54.5877 91.8238 51.5633 90.5089C51.5633 90.5089 51.4318 90.5089 51.4318 90.6404V98.793L40.2549 94.8482Z" fill="#F1CFB2"/>
<path d="M31.539 127.68L33.6499 132.909C34.8502 135.882 38.8149 136.547 40.9011 134.036C40.9011 134.036 63.6164 105.197 67.0446 103.356C70.4728 101.516 68.2962 109.616 68.2962 109.616C68.2962 109.616 40.8449 193.557 18.1303 146.448L31.539 127.68Z" fill="#F1CFB2"/>
<path d="M66.2902 73.4147C67.6051 72.8887 68.5255 71.8368 69.183 70.5219L70.235 68.2865C71.0239 66.7085 70.235 64.7361 68.657 64.0787L60.2415 60.5283C53.0093 57.504 44.5937 59.8709 40.123 66.0511L39.334 67.2345L44.4622 84.7232L49.3275 73.6777C49.196 73.6777 58.6635 76.7021 66.2902 73.4147Z" fill="#FFC01E"/>
<path d="M39.1307 74.9962L41.0938 76.3184L46.6761 68.0297L44.713 66.7076L39.1307 74.9962Z" fill="white"/>
<path d="M65.0244 76.4541L64.4945 85.1098C64.4945 86.1697 63.5229 86.9646 62.4631 86.9646L60.0783 86.8763L65.0244 76.4541Z" fill="#F1CFB2"/>
<path fill-rule="evenodd" clip-rule="evenodd" d="M88.646 88.7048C88.646 93.5447 84.7225 97.4683 79.8825 97.4683C75.0426 97.4683 71.1191 93.5447 71.1191 88.7048C71.1191 83.8649 75.0426 79.9413 79.8825 79.9413C84.7225 79.9413 88.646 83.8649 88.646 88.7048ZM91.1498 88.7048C91.1498 94.9276 86.1053 99.9721 79.8825 99.9721C79.3609 99.9721 78.8475 99.9367 78.3446 99.868L74.046 114.197C73.7148 115.301 72.5516 115.927 71.4479 115.596C70.3441 115.265 69.7177 114.102 70.0489 112.998L74.3855 98.5425C70.9425 96.6145 68.6152 92.9314 68.6152 88.7048C68.6152 82.482 73.6598 77.4375 79.8825 77.4375C86.1053 77.4375 91.1498 82.482 91.1498 88.7048Z" fill="#D1E3EE"/>
<path d="M66.9881 103.475C69.0179 101.925 72.7937 101.362 72.7937 101.362C73.2525 101.018 73.6142 101.472 73.4635 101.92C72.7568 103.51 72.2577 105.503 74.4647 106.079C75.6971 106.494 76.4071 105.403 77.1072 102.814C77.2076 102.515 78.0817 102.975 78.0817 102.975C78.0817 102.975 84.5735 112.883 73.0897 111.844C71.0904 111.67 68.1634 110.685 66.5693 109.816L65.5411 109.304C65.5411 109.304 64.9583 105.026 66.9881 103.475Z" fill="#F1CFB2"/>
<path d="M151.646 301.345C148.729 304.261 143.993 304.235 141.108 301.287L84.4567 243.386L209.604 243.386L151.646 301.345Z" fill="#D1E3EE"/>
<rect x="112.86" y="237.553" width="78.2742" height="45.5083" fill="#F3F7FA"/>
<path fill-rule="evenodd" clip-rule="evenodd" d="M142.396 293.314C145.184 295.739 149.333 295.739 152.122 293.314L209.704 243.242C212.163 243.991 213.951 246.277 213.951 248.981V312.224C213.951 315.536 211.266 318.221 207.954 318.221H85.1822C81.8698 318.221 79.1846 315.536 79.1846 312.224V248.981C79.1846 245.881 81.5358 243.331 84.552 243.016L142.396 293.314Z" fill="#7B91A5"/>
<path d="M241.865 331.128H310.315C318.434 331.128 324.929 324.633 324.929 316.514V158.88C324.929 150.761 318.434 144.266 310.315 144.266H241.865C233.746 144.266 227.251 150.761 227.251 158.88V316.514C227.251 324.633 233.746 331.128 241.865 331.128Z" fill="#F8F8F8"/>
<path d="M269.595 203.096L263.849 218.959C262.725 222.207 264.599 225.829 267.846 226.703L272.718 227.952L273.467 230.576L286.957 230.076C286.957 230.076 279.838 219.209 279.962 207.967C279.962 208.092 274.591 209.341 269.595 203.096Z" fill="#EAC7AC"/>
<path d="M264.799 221.28C264.673 221.264 264.562 221.122 264.577 220.996C264.593 220.869 264.735 220.758 264.861 220.773C265.241 220.82 268.674 221.111 270.184 218.212C270.2 218.086 270.468 217.99 270.579 218.132C270.706 218.148 270.801 218.416 270.659 218.527C268.976 221.79 264.799 221.28 264.799 221.28Z" fill="#926F56"/>
<path d="M264.799 221.28C264.673 221.264 264.562 221.122 264.577 220.996C264.593 220.869 264.735 220.758 264.861 220.773C265.241 220.82 268.674 221.111 270.184 218.212C270.2 218.086 270.468 217.99 270.579 218.132C270.706 218.148 270.801 218.416 270.659 218.527C268.976 221.79 264.799 221.28 264.799 221.28Z" stroke="black"/>
<path d="M248.076 230.462C248.076 230.462 239.71 239.298 226.056 232.74C214.633 227.266 194.513 216.362 191.445 214.08L188.56 217.31L219.763 245.935C237.144 261.581 256.488 247.864 263.949 242.891L248.076 230.462Z" fill="#EAC7AC"/>
<path d="M192.287 219.155C192.287 219.155 190.245 220.22 187.299 219.845C185.537 219.541 184.063 218.384 183.249 216.792L181.676 213.334L175.227 210.018C175.227 210.018 174.533 208.394 176.908 209.051C179.829 209.82 183.878 210.934 183.878 210.934L185.687 210.449C186.773 210.158 187.868 210.382 188.697 211.065C189.833 211.925 191.218 213.235 191.662 214.409L192.287 219.155Z" fill="#EAC7AC"/>
<path d="M241.357 261.68C250.725 260.556 257.511 255.554 257.511 255.554C260.216 255.977 264.378 256.951 264.375 258.068C264.369 260.567 262.814 265.012 262.591 271.048C261.337 273.335 251.35 276.8 243.855 276.8C238.007 276.8 219.46 271.179 214.481 264.297C213.44 264.295 210.859 264.039 208.863 263.034C206.867 262.03 211.157 261.295 213.864 261.094L213.877 255.473L216.988 260.556C216.988 260.556 231.989 262.805 241.357 261.68Z" fill="#EAC7AC"/>
<path d="M237.869 232.075C237.619 230.451 239.367 228.702 241.491 228.452C250.234 227.703 269.845 227.203 271.469 238.195C273.218 249.687 253.232 256.182 245.613 258.181C243.989 258.555 242.615 258.056 242.365 256.807L237.869 232.075Z" fill="white"/>
<path d="M237.867 331.128C242.988 317.638 257.728 274.92 260.725 229.328H279.711C291.828 229.328 303.069 236.448 307.941 247.565C313.312 259.556 314.186 303.524 312.812 331.128H237.867Z" fill="white"/>
<path d="M279.963 210.716C279.963 209.467 278.964 208.468 277.715 208.468C276.84 208.468 275.841 208.343 274.842 207.843C270.47 205.845 265.474 200.723 266.598 195.227C266.598 195.227 267.347 191.355 272.344 195.102C272.719 195.352 272.843 195.227 272.968 194.853C272.968 193.604 274.467 192.854 275.342 193.728C278.839 196.976 281.337 204.096 286.583 201.847C293.079 198.975 287.208 223.706 283.211 223.207C280.213 222.957 279.838 214.963 279.963 210.716Z" fill="#FAAE6B"/>
<path d="M268.471 206.094L262.725 212.589C261.976 213.338 262.101 214.588 262.85 215.337L264.599 216.961L268.471 206.094Z" fill="#EAC7AC"/>
<path d="M156.685 202.32C157.027 201.908 157.3 201.57 157.575 201.226C157.581 201.181 157.587 201.135 157.593 201.09C157.606 200.997 157.618 200.905 157.63 200.814L157.879 200.846L158.076 201.003L158.04 201.047C157.964 201.142 157.89 201.236 157.816 201.328L157.658 202.824C157.636 203.176 157.627 203.505 157.707 203.934C157.709 203.943 157.711 203.952 157.713 203.962C157.752 204.171 157.798 204.421 158.015 204.74C158.242 205.075 158.793 205.454 159.308 205.486C160.553 205.565 161.484 204.88 162.211 204.219C162.725 203.752 163.192 203.241 163.656 202.734C163.849 202.524 164.04 202.315 164.235 202.109C165.562 200.708 166.788 199.664 168.546 199.775C169.096 199.819 169.624 199.554 169.932 199.082C170.243 198.613 170.281 198.007 170.032 197.502C169.786 196.995 169.296 196.665 168.744 196.64C165.697 196.447 163.538 198.336 162.054 199.905C161.722 200.254 161.463 200.533 161.207 200.809C161.204 200.829 161.202 200.85 161.199 200.87C161.194 200.912 161.189 200.954 161.184 200.995C161.182 201.012 161.181 201.025 161.181 201.047L161.181 201.048C161.18 201.071 161.179 201.102 161.174 201.141L160.925 201.113L160.743 200.944L160.741 200.942L160.74 200.941C160.817 200.859 160.892 200.778 160.967 200.698C161.055 199.982 161.138 199.249 161.111 198.542C161.097 198.145 161.068 197.765 160.857 197.272C160.646 196.779 159.972 196.084 159.212 196.036C158.387 195.984 157.906 196.362 157.522 196.667C157.137 196.972 156.807 197.323 156.475 197.707C156.098 198.141 155.715 198.626 155.319 199.127C155.012 199.515 154.697 199.913 154.372 200.304C153.628 201.201 152.827 202.039 152.098 202.595C151.801 202.822 151.56 202.919 151.335 202.982C151.26 203.071 151.186 203.16 151.11 203.249L150.919 203.086L150.854 202.843C150.924 202.824 150.992 202.808 151.056 202.793C151.103 202.782 151.148 202.771 151.193 202.76C151.84 201.98 152.449 201.185 152.981 200.364C154.413 198.155 155.435 195.939 155.778 193.974C155.951 192.992 155.988 192.029 155.578 191.084C155.168 190.139 154.105 189.417 153.056 189.35C151.04 189.223 149.234 190.44 147.925 192.174C146.616 193.908 145.728 196.268 145.557 198.959C145.456 200.554 145.718 202.047 146.284 203.358C146.202 203.427 146.124 203.508 146.046 203.589C145.949 203.688 145.853 203.787 145.749 203.866M156.685 202.32L156.492 202.159M156.685 202.32L156.492 202.159C156.492 202.159 156.492 202.159 156.492 202.159M156.685 202.32C155.876 203.292 154.98 204.315 153.924 205.121C152.868 205.927 151.592 206.572 150.13 206.479C149.418 206.434 148.804 206.112 148.238 205.745C148.132 205.834 148.032 205.935 147.933 206.037C147.81 206.161 147.687 206.286 147.551 206.39L134.008 204.12M156.492 202.159C156.942 201.617 157.272 201.203 157.648 200.733L157.682 200.689L158.245 199.984L158.128 200.878C158.116 200.972 158.104 201.065 158.092 201.158C158.015 201.741 157.94 202.312 157.909 202.839L157.909 202.84C157.887 203.184 157.88 203.488 157.955 203.888C157.956 203.896 157.958 203.905 157.96 203.914C157.997 204.116 158.036 204.323 158.223 204.599C158.312 204.73 158.477 204.885 158.684 205.012C158.891 205.138 159.118 205.222 159.324 205.235C160.46 205.307 161.324 204.686 162.042 204.033C162.547 203.574 163.002 203.077 163.462 202.574C163.657 202.362 163.852 202.148 164.052 201.936L164.052 201.936C165.378 200.536 166.678 199.405 168.561 199.524L168.566 199.524L168.566 199.524C169.021 199.561 169.462 199.342 169.722 198.945L169.723 198.943C169.984 198.549 170.016 198.038 169.807 197.613L169.806 197.612C169.599 197.185 169.189 196.912 168.732 196.891L168.728 196.891C165.802 196.705 163.714 198.516 162.236 200.078L162.236 200.078C161.888 200.445 161.62 200.733 161.351 201.024C161.271 201.11 161.191 201.196 161.109 201.284L160.587 201.844L160.675 201.084C160.677 201.066 160.677 201.053 160.678 201.032C160.678 201.009 160.679 200.977 160.684 200.937L160.684 200.935C160.689 200.897 160.694 200.859 160.698 200.821C160.793 200.053 160.888 199.286 160.86 198.552L160.86 198.551C160.847 198.166 160.819 197.822 160.625 197.371C160.538 197.166 160.344 196.9 160.079 196.68C159.815 196.461 159.506 196.307 159.196 196.287C158.472 196.241 158.056 196.564 157.678 196.864C157.312 197.154 156.994 197.491 156.665 197.872L156.665 197.872C156.288 198.306 155.914 198.78 155.523 199.274C155.217 199.662 154.901 200.062 154.566 200.465C153.816 201.368 153.002 202.222 152.251 202.795L152.251 202.795C151.806 203.134 151.457 203.216 151.157 203.286C151.098 203.3 151.04 203.314 150.984 203.329L150.206 203.537L150.727 202.923C151.473 202.044 152.171 201.151 152.77 200.227L152.77 200.227C154.192 198.033 155.196 195.849 155.53 193.931L155.53 193.931C155.7 192.968 155.728 192.063 155.347 191.184C154.977 190.33 153.999 189.662 153.04 189.601C151.142 189.481 149.408 190.627 148.126 192.325C146.849 194.016 145.976 196.328 145.808 198.975C145.71 200.533 145.965 201.985 146.515 203.259L146.589 203.43L146.446 203.551C146.374 203.611 146.305 203.682 146.226 203.764C146.217 203.773 146.208 203.783 146.199 203.792C146.113 203.881 146.013 203.982 145.901 204.066M156.492 202.159C155.684 203.13 154.803 204.133 153.771 204.921C152.738 205.71 151.521 206.315 150.145 206.228C149.5 206.187 148.931 205.895 148.375 205.534L148.219 205.432L148.076 205.553C147.96 205.65 147.852 205.76 147.754 205.86C147.742 205.872 147.73 205.884 147.719 205.895C147.607 206.008 147.506 206.108 147.399 206.19L147.398 206.19C145.28 207.812 142.88 208.916 140.344 208.756C139.048 208.674 137.92 208.182 136.921 207.47L136.737 207.339L136.587 207.509C135.738 208.471 134.981 209.3 134.436 209.89C134.164 210.184 133.945 210.419 133.793 210.579C133.718 210.66 133.659 210.721 133.62 210.763L133.575 210.811L133.564 210.822L133.563 210.823C133.052 211.322 132.249 211.301 131.764 210.778C131.275 210.252 131.297 209.413 131.813 208.907L131.813 208.907L131.821 208.899L131.637 208.727L131.821 208.899L131.821 208.898L131.821 208.898L131.822 208.897L131.825 208.894L131.836 208.882L131.88 208.834C131.919 208.792 131.977 208.73 132.051 208.65C132.199 208.489 132.414 208.255 132.681 207.963C133.215 207.377 133.955 206.556 134.785 205.613L134.916 205.464L134.801 205.302C134.739 205.214 134.677 205.128 134.616 205.042C134.394 204.733 134.179 204.435 134.008 204.12M145.901 204.066C145.901 204.066 145.902 204.066 145.902 204.065L145.749 203.866M145.901 204.066C145.901 204.066 145.901 204.066 145.901 204.066L145.749 203.866M145.901 204.066C144.102 205.441 142.207 206.23 140.51 206.122C139.825 206.079 139.203 205.823 138.64 205.484L138.392 205.334L138.575 205.109C138.811 204.82 139.024 204.572 139.231 204.331C139.576 203.93 139.906 203.546 140.305 203.014M145.749 203.866C143.974 205.223 142.138 205.973 140.526 205.871C139.98 205.837 139.47 205.655 138.991 205.395M138.991 205.395L140.305 203.014C140.305 203.014 140.305 203.014 140.305 203.014M138.991 205.395C138.983 205.406 138.974 205.416 138.965 205.427L138.77 205.268L138.991 205.395ZM140.305 203.014C143.73 198.429 147.314 192.559 147.678 186.797C147.722 186.115 147.728 184.9 147.121 183.638C146.526 182.4 145.101 181.229 143.075 181.101C141.054 180.973 138.793 182.201 136.612 184.7C134.448 187.179 132.604 191.01 132.269 196.298C132.108 198.833 132.698 201.695 134.008 204.12M140.305 203.014L134.008 204.12M150.67 198.767C151.943 196.801 152.794 194.775 153.021 193.483C153.124 192.903 153.058 192.587 153.032 192.462L153.031 192.455L152.99 192.258L152.789 192.254C152.029 192.242 151.027 192.745 150.14 193.921L150.14 193.922C149.223 195.141 148.492 197.001 148.357 199.136C148.315 199.793 148.365 200.415 148.463 200.973L148.556 201.507L148.903 201.091C149.529 200.342 150.151 199.569 150.67 198.767ZM150.67 198.767L150.459 198.63M150.67 198.767C150.67 198.767 150.67 198.767 150.67 198.767L150.459 198.63M150.459 198.63C150.007 199.328 149.474 200.007 148.924 200.673L152.785 192.506C152.785 192.509 152.786 192.512 152.787 192.515C152.809 192.623 152.868 192.906 152.773 193.44C152.554 194.686 151.722 196.681 150.459 198.63ZM136.449 203.097L136.633 203.414L136.862 203.128C137.051 202.894 137.231 202.685 137.411 202.475C137.693 202.147 137.975 201.819 138.294 201.392C139.932 199.196 141.566 196.673 142.827 194.12C144.086 191.571 144.982 188.974 145.13 186.635C145.144 186.422 145.141 186.111 145.104 185.787C145.067 185.466 144.993 185.112 144.854 184.822C144.729 184.56 144.58 184.29 144.272 184.087C143.97 183.889 143.546 183.774 142.909 183.734C142.827 183.729 142.727 183.742 142.624 183.764C142.516 183.786 142.388 183.821 142.243 183.868C141.955 183.964 141.593 184.113 141.191 184.326C140.386 184.752 139.409 185.435 138.517 186.457C136.741 188.49 135.118 191.713 134.817 196.459C134.695 198.392 135.209 200.918 136.247 202.832L136.247 202.833C136.292 202.915 136.345 202.974 136.381 203.013L136.381 203.013C136.419 203.055 136.435 203.073 136.449 203.097Z" fill="#7B91A5" stroke="#F3F7FA" stroke-width="0.502986"/>
</svg>
