<svg width="352" height="290" viewBox="0 0 352 290" fill="none" xmlns="http://www.w3.org/2000/svg">
<g opacity="0.5">
<rect x="111.877" y="20.1152" width="100.917" height="141.412" rx="8.95013" fill="#F8F8F8"/>
<circle cx="161.999" cy="52.3368" r="16.1102" fill="#7B91A5"/>
<rect x="124.408" y="78.291" width="76.0761" height="6.26509" rx="2.68504" fill="#7B91A5"/>
<rect x="135.149" y="89.9277" width="53.7008" height="3.58005" rx="1.79003" fill="#D1E3EE"/>
<circle cx="134.7" cy="110.063" r="4.92257" fill="#D1E3EE"/>
<circle cx="134.7" cy="124.384" r="4.92257" fill="#D1E3EE"/>
<circle cx="134.7" cy="138.706" r="4.92257" fill="#D1E3EE"/>
<path d="M132.464 110.212L133.806 111.853L136.939 108.721" stroke="#7B91A5" stroke-width="0.895013"/>
<path d="M132.464 124.531L133.806 126.172L136.939 123.039" stroke="#7B91A5" stroke-width="0.895013"/>
<path d="M132.464 138.855L133.806 140.496L136.939 137.363" stroke="#7B91A5" stroke-width="0.895013"/>
<rect x="144.993" y="108.721" width="47.4357" height="3.58005" rx="1.79003" fill="#D1E3EE"/>
<rect x="144.993" y="122.146" width="47.4357" height="3.58005" rx="1.79003" fill="#D1E3EE"/>
<rect x="144.993" y="137.363" width="47.4357" height="3.58005" rx="1.79003" fill="#D1E3EE"/>
</g>
<g opacity="0.1">
<rect y="20.1152" width="100.917" height="141.412" rx="8.95013" fill="#F8F8F8"/>
<circle cx="50.12" cy="52.3368" r="16.1102" fill="#7B91A5"/>
<rect x="12.5303" y="78.291" width="76.0761" height="6.26509" rx="2.68504" fill="#7B91A5"/>
<rect x="23.2705" y="89.9277" width="53.7008" height="3.58005" rx="1.79003" fill="#D1E3EE"/>
<circle cx="22.822" cy="110.063" r="4.92257" fill="#D1E3EE"/>
<circle cx="22.822" cy="124.384" r="4.92257" fill="#D1E3EE"/>
<circle cx="22.822" cy="138.706" r="4.92257" fill="#D1E3EE"/>
<path d="M20.5859 110.212L21.9285 111.853L25.061 108.721" stroke="#7B91A5" stroke-width="0.895013"/>
<path d="M20.5859 124.531L21.9285 126.172L25.061 123.039" stroke="#7B91A5" stroke-width="0.895013"/>
<path d="M20.5859 138.855L21.9285 140.496L25.061 137.363" stroke="#7B91A5" stroke-width="0.895013"/>
<rect x="33.1152" y="108.721" width="47.4357" height="3.58005" rx="1.79003" fill="#D1E3EE"/>
<rect x="33.1152" y="122.146" width="47.4357" height="3.58005" rx="1.79003" fill="#D1E3EE"/>
<rect x="33.1152" y="137.363" width="47.4357" height="3.58005" rx="1.79003" fill="#D1E3EE"/>
</g>
<rect x="38.001" y="120.146" width="118.977" height="88.9645" rx="16.0779" fill="#FF6847"/>
<rect x="214.803" y="185.689" width="43.8556" height="45.6457" rx="9.64675" fill="#E8F1F6"/>
<path d="M105.637 199.033L98.0194 184.981C98.0194 184.981 77.0417 184.867 64.0991 173.107L54.0293 199.033H105.637Z" fill="white"/>
<path d="M64.0994 173.545C64.0994 173.545 74.9527 126.104 120.289 126.966C120.917 126.978 110.534 132.885 120.827 133.333C131.12 133.78 132.365 160 132.365 160C126.645 163.316 120.289 166.4 120.289 166.4L117.428 157.019C117.428 157.019 107.881 164.61 103.498 169.89C99.1154 175.17 97.3734 181.864 97.3734 184.929C97.3734 184.929 91.244 184.929 82.4875 183.177C82.4279 183.182 73.3851 182.331 64.0994 173.545Z" fill="#BDC8D2"/>
<path d="M119.843 129.696L116.295 136.901L111.834 130.361L114.898 127.402L119.843 129.696Z" fill="#955524"/>
<path d="M110.534 140.492C117.247 151.679 118.534 140.27 117.95 133.703H114.01L110.534 140.492Z" fill="#955524"/>
<path d="M161.979 179.303C162.434 176.895 161.371 174.673 159.605 174.339C157.839 174.005 156.039 175.687 155.584 178.095C155.129 180.503 156.191 182.726 157.957 183.059C159.723 183.393 161.524 181.712 161.979 179.303Z" fill="white"/>
<path d="M118.436 131.694C114.623 130.117 112.727 126.025 114.18 122.509L119.892 108.697C120.281 107.756 121.41 107.34 122.431 107.763L132.228 111.525C133.249 111.947 132.801 114.144 132.412 115.086L127.936 128.197C126.483 131.713 122.25 133.271 118.436 131.694Z" fill="#955524"/>
<path d="M126.778 126.898C124.62 127.155 124.363 124.998 124.363 124.998" stroke="#F7E2D2" stroke-width="0.737599" stroke-linecap="round"/>
<path d="M130.661 124.706L131.567 116.775L127.987 125.299L129.532 125.557C130.083 125.649 130.598 125.26 130.661 124.706Z" fill="#955524"/>
<path d="M78.6971 157.049C78.6971 157.049 67.9052 199.403 100.285 198.814L109.545 199.028C109.545 199.028 110.867 199.725 108.417 197.153C108.417 197.153 110.322 195.225 111.039 197.153H112.771L111.636 195.332C110.322 193.189 107.992 191.85 105.542 191.85H102.137C102.137 191.85 83.0003 194.22 89.4507 159.513L78.6971 157.049Z" fill="#955524"/>
<path d="M123 105.358C123 105.358 133.536 107.577 133.81 107.71C134.58 107.899 133.966 110.587 133.562 111.907C132.291 116.9 125.541 119.178 120.917 117.412C120.151 117.096 119.217 117.515 119.162 118.417L119.072 119.805C118.562 125.673 116.276 131.977 113.466 137.246C108.514 146.529 101.048 159.459 85.4377 155.099C78.059 153.052 75.2344 146.771 77.6371 139.296C80.6606 129.782 95.2214 126.437 102.712 123.018C108.758 120.252 111.456 115.803 113.988 110.752C115.702 107.273 119.242 105.129 123 105.358Z" fill="#17274E"/>
<path d="M117.896 133.573L118.871 131.623C121.602 133.183 126.185 131.623 127.647 128.698L126.185 136.498C122.284 133.573 120.334 133.573 117.896 133.573Z" fill="#17274E"/>
<path d="M131.547 117.483C134.96 116.021 135.447 107.245 133.497 107.732C132.847 109.033 133.4 111.048 133.01 112.608C132.62 114.168 131.384 117.158 131.547 117.483Z" fill="#17274E"/>
<path d="M183.478 198.221H97.5566C97.5566 196.277 98.9018 194.641 100.499 194.641H183.394V198.221H183.478Z" fill="#7B91A5"/>
<rect x="20" y="198" width="223" height="92" rx="16.0779" fill="#FFC01E"/>
<path d="M127.092 193.301C127.45 186.499 123.959 171.97 122.169 165.555L131.119 160.633C134.341 167.435 136.937 185.246 137.832 193.301H127.092Z" fill="#955524"/>
<g filter="url(#filter0_d)">
<rect x="221.964" y="5.79492" width="119.037" height="170.052" rx="8.95013" fill="white"/>
</g>
<circle cx="284.859" cy="43.5925" r="23.4773" fill="#FFC01E"/>
<mask id="mask0" style="mask-type:alpha" maskUnits="userSpaceOnUse" x="261" y="20" width="48" height="48">
<circle cx="284.743" cy="43.7082" r="23.5929" fill="#C4C4C4"/>
</mask>
<g mask="url(#mask0)">
<path d="M280.464 47.6992C280.464 47.6992 280.464 48.3961 280.406 48.6865C280.231 49.9642 279.534 53.1004 274.772 54.7846C274.482 54.9007 273.494 55.1911 273.204 55.3073C270.474 56.1784 276.398 59.4888 281.567 59.8953C289.988 60.5342 300.616 57.2238 294.402 53.6811C292.137 52.4034 285.749 54.6684 285.981 47.7573H280.464V47.6992Z" fill="#FFDB80"/>
<path d="M280.336 35.1113V39.6565C279.775 39.2637 278.933 38.9832 278.821 40.4982C278.709 42.0694 279.719 43.0794 280.336 43.5283V49.5325H285.05C288.136 49.5325 290.661 47.0074 290.661 43.9211V35.1113H280.336Z" fill="#FFDB80"/>
<path d="M280.335 45.6062C280.335 45.6062 274.555 41.6221 275.902 37.0769C277.248 32.5317 282.467 33.8223 284.487 31.8584C286.507 29.8944 292.175 27.9304 292.792 34.0468C293.409 40.1632 290.66 39.7143 290.66 39.7143C290.66 39.7143 288.247 35.9547 284.543 36.3475C284.543 36.3475 283.253 41.061 280.335 39.7143C278.988 39.097 278.483 40.2193 279.1 41.8466C279.381 42.6883 280.391 43.3055 280.335 43.6422C280.279 44.8206 280.335 45.6062 280.335 45.6062Z" fill="#E8A700"/>
<path d="M277.034 35.9462C279.42 35.9462 281.354 34.0117 281.354 31.6254C281.354 29.2391 279.42 27.3047 277.034 27.3047C274.647 27.3047 272.713 29.2391 272.713 31.6254C272.713 34.0117 274.647 35.9462 277.034 35.9462Z" fill="#E8A700"/>
<path d="M272.974 55.312L271.174 56.5316C267.689 59.0289 265.599 63.0362 265.599 67.3339V74.5935H276.052V87.9512H295.102L296.321 72.9093L298.005 74.6516L305.033 66.9854L301.142 60.1905C299.515 57.4609 297.134 55.1959 294.347 53.6859C294.347 53.6278 284.764 61.6424 272.974 55.312Z" fill="#E8A700"/>
<path d="M308.708 68.2853C308.708 68.2853 315.834 80.1636 317.825 57.3059L320.329 57.1133C320.329 57.1133 323.026 98.4625 300.938 76.8248L308.708 68.2853Z" fill="#955524"/>
</g>
<rect x="243.444" y="78.2891" width="76.0761" height="6.26509" rx="2.68504" fill="#7B91A5"/>
<rect x="254.184" y="89.9277" width="53.7008" height="3.58005" rx="1.79003" fill="#D1E3EE"/>
<circle cx="253.736" cy="110.063" r="4.92257" fill="#FF6847"/>
<circle cx="253.736" cy="124.384" r="4.92257" fill="#FF6847"/>
<circle cx="253.736" cy="138.706" r="4.92257" fill="#FF6847"/>
<path d="M251.5 110.212L252.843 111.853L255.975 108.721" stroke="white" stroke-width="0.895013"/>
<path d="M251.5 124.531L252.843 126.172L255.975 123.039" stroke="white" stroke-width="0.895013"/>
<path d="M251.5 138.855L252.843 140.496L255.975 137.363" stroke="white" stroke-width="0.895013"/>
<rect x="264.029" y="108.721" width="47.4357" height="3.58005" rx="1.79003" fill="#D1E3EE"/>
<rect x="264.029" y="122.146" width="47.4357" height="3.58005" rx="1.79003" fill="#D1E3EE"/>
<rect x="264.029" y="137.363" width="47.4357" height="3.58005" rx="1.79003" fill="#D1E3EE"/>
<circle cx="304.88" cy="28.771" r="6.26509" fill="white"/>
<path d="M314.362 29.039C314.911 28.4892 315.159 27.7045 315.024 26.9396C314.889 26.1748 314.388 25.5211 313.683 25.1932L312.672 24.7218C312.362 24.5777 312.174 24.2514 312.204 23.9099L312.301 22.7994C312.369 22.0252 312.055 21.265 311.46 20.7654C310.865 20.2663 310.06 20.0893 309.31 20.2887L308.232 20.5785C307.902 20.6657 307.548 20.5383 307.352 20.2574L306.712 19.3437C306.267 18.7068 305.537 18.3262 304.76 18.3262C303.983 18.3262 303.253 18.7068 302.807 19.3427L302.168 20.2563C301.971 20.5372 301.618 20.6646 301.286 20.5774L300.209 20.2877C299.459 20.0877 298.655 20.2647 298.06 20.7643C297.465 21.264 297.15 22.0241 297.218 22.7984L297.316 23.9094C297.346 24.2503 297.158 24.5766 296.847 24.7218L295.836 25.1927C295.131 25.5206 294.63 26.1737 294.495 26.9391C294.36 27.7045 294.608 28.4892 295.158 29.0384L295.946 29.8268C296.189 30.0685 296.254 30.4397 296.109 30.7498L295.637 31.7611C295.309 32.4654 295.344 33.2877 295.733 33.9607C296.122 34.6337 296.816 35.0759 297.591 35.1432L298.702 35.2404C299.043 35.2701 299.331 35.5124 299.42 35.8428L299.708 36.9199C299.909 37.6707 300.465 38.2774 301.195 38.5431C301.925 38.8088 302.74 38.7018 303.378 38.2554L304.292 37.6148C304.572 37.4196 304.949 37.4175 305.229 37.6148L306.143 38.2554C306.549 38.54 307.028 38.6867 307.511 38.6867C307.785 38.6867 308.061 38.6392 308.326 38.5431C309.056 38.2768 309.612 37.6702 309.813 36.9199L310.101 35.8428C310.189 35.5118 310.478 35.2696 310.819 35.2404L311.929 35.1432C312.703 35.0759 313.398 34.6337 313.786 33.9607C314.175 33.2877 314.211 32.4654 313.882 31.7606L313.41 30.7498C313.265 30.4397 313.331 30.0685 313.573 29.8268L314.362 29.039ZM309.089 26.9725L303.868 32.1934C303.715 32.3464 303.514 32.4226 303.314 32.4226C303.113 32.4226 302.913 32.3464 302.76 32.1934L300.149 29.583C299.843 29.277 299.843 28.7816 300.149 28.4756C300.455 28.1697 300.951 28.1697 301.257 28.4756L303.314 30.5321L307.981 25.8652C308.287 25.5592 308.782 25.5592 309.088 25.8652C309.394 26.1711 309.394 26.6666 309.089 26.9725Z" fill="#FF6847"/>
<path d="M92.1864 167.791L74.2861 164.211V153.918L93.9764 159.736L92.1864 167.791Z" fill="#BDC8D2"/>
<path d="M122.617 194.64L136.366 159.934C136.621 159.277 137.299 158.84 137.978 158.84H195.18C196.368 158.84 197.798 158.84 196.792 161.027L183.553 194.567H122.617V194.64Z" fill="#D1E3EE"/>
<circle cx="160.655" cy="178.083" r="4.92257" fill="white"/>
<defs>
<filter id="filter0_d" x="211.224" y="0.424844" width="140.517" height="191.533" filterUnits="userSpaceOnUse" color-interpolation-filters="sRGB">
<feFlood flood-opacity="0" result="BackgroundImageFix"/>
<feColorMatrix in="SourceAlpha" type="matrix" values="0 0 0 0 0 0 0 0 0 0 0 0 0 0 0 0 0 0 127 0" result="hardAlpha"/>
<feOffset dy="5.37008"/>
<feGaussianBlur stdDeviation="5.37008"/>
<feColorMatrix type="matrix" values="0 0 0 0 0.0764236 0 0 0 0 0.165046 0 0 0 0 0.591667 0 0 0 0.1 0"/>
<feBlend mode="normal" in2="BackgroundImageFix" result="effect1_dropShadow"/>
<feBlend mode="normal" in="SourceGraphic" in2="effect1_dropShadow" result="shape"/>
</filter>
</defs>
</svg>
