<svg width="351" height="312" viewBox="0 0 351 312" fill="none" xmlns="http://www.w3.org/2000/svg">
<rect x="43.0889" y="0.222656" width="54.8682" height="80.4103" rx="8.6102" fill="#FF6847"/>
<rect x="290.449" y="230.826" width="54.8682" height="80.4103" rx="8.6102" fill="#F8F8F8"/>
<rect x="20.2598" y="42.166" width="37.8402" height="51.0842" rx="8.6102" fill="#FDBE1D"/>
<g filter="url(#filter0_d)">
<rect x="39.2446" y="61.9888" width="278.548" height="214.038" rx="9.4721" fill="#F3F7FA" stroke="#D1E3EE" stroke-width="0.997063"/>
<g filter="url(#filter1_d)">
<path d="M28.5869 137.685C28.5869 133.944 31.6192 130.912 35.3597 130.912H321.508C325.249 130.912 328.281 133.944 328.281 137.685V196.1C328.281 199.84 325.249 202.873 321.508 202.873H35.3596C31.6192 202.873 28.5869 199.84 28.5869 196.1V137.685Z" fill="white"/>
</g>
<circle cx="77.3049" cy="238.276" r="23.8986" fill="#E2EDF4"/>
<mask id="mask0" style="mask-type:alpha" maskUnits="userSpaceOnUse" x="53" y="214" width="49" height="49">
<circle cx="77.3049" cy="238.276" r="23.8986" fill="#C4C4C4"/>
</mask>
<g mask="url(#mask0)">
<path d="M72.9729 242.328C72.9729 242.328 72.9729 243.034 72.9141 243.328C72.7376 244.622 72.0316 247.799 67.2076 249.505C66.9135 249.623 65.9134 249.917 65.6192 250.035C62.8543 250.917 68.8549 254.27 74.0907 254.682C82.6209 255.329 93.3867 251.976 87.0919 248.388C84.7976 247.093 78.3264 249.388 78.5617 242.387H72.9729V242.328Z" fill="#F3F7FA"/>
<path d="M72.8413 229.57V234.174C72.2729 233.777 71.4203 233.492 71.3066 235.027C71.1929 236.619 72.216 237.642 72.8413 238.096V244.178H77.6159C80.7421 244.178 83.2999 241.62 83.2999 238.494V229.57H72.8413Z" fill="#F3F7FA"/>
<path d="M81.3062 239.783C81.3596 239.76 81.3922 239.689 81.3715 239.641C81.3507 239.593 81.2765 239.568 81.2231 239.591C81.0628 239.661 79.5999 240.239 78.6206 239.299C78.5999 239.251 78.4723 239.25 78.4396 239.321C78.3862 239.344 78.3743 239.463 78.4485 239.488C79.5435 240.548 81.3062 239.783 81.3062 239.783Z" fill="#D1E3EE"/>
<path d="M72.842 240.204C72.842 240.204 66.9874 236.168 68.3516 231.564C69.7158 226.96 75.0019 228.267 77.0482 226.278C79.0945 224.289 84.8354 222.299 85.4606 228.495C86.0858 234.69 83.3007 234.236 83.3007 234.236C83.3007 234.236 80.8565 230.427 77.105 230.825C77.105 230.825 75.7977 235.6 72.842 234.236C71.4778 233.61 70.9663 234.747 71.5915 236.396C71.8757 237.248 72.8988 237.873 72.842 238.215C72.7852 239.408 72.842 240.204 72.842 240.204Z" fill="#7B91A5"/>
<path d="M69.4968 230.418C71.914 230.418 73.8736 228.458 73.8736 226.041C73.8736 223.624 71.914 221.664 69.4968 221.664C67.0796 221.664 65.1201 223.624 65.1201 226.041C65.1201 228.458 67.0796 230.418 69.4968 230.418Z" fill="#7B91A5"/>
<path d="M65.3834 250.032L63.5597 251.268C60.03 253.797 57.9121 257.857 57.9121 262.21V269.564H68.5014V283.094H87.7974L89.0328 267.858L90.7389 269.622L97.8572 261.857L93.9156 254.974C92.2684 252.209 89.8564 249.915 87.0326 248.385C87.0326 248.326 77.3258 256.445 65.3834 250.032Z" fill="#7B91A5"/>
<path d="M97.8576 261.795C97.8576 261.795 104.388 272.678 106.211 251.735L108.506 251.559C108.506 251.559 110.977 289.445 90.7393 269.619L97.8576 261.795Z" fill="#D1E3EE"/>
<path d="M82.5037 232.982C81.1964 232.982 80.0596 233.721 79.8322 234.688C79.6048 233.721 78.468 232.982 77.1607 232.982C76.0239 232.982 75.0576 233.551 74.6597 234.29H73.125C72.9545 234.29 72.8408 234.403 72.8408 234.574C72.8408 234.744 72.9545 234.858 73.125 234.858H74.4892C74.4892 234.915 74.4892 234.972 74.4892 235.029C74.4892 236.165 75.6828 237.132 77.2175 237.132C78.5249 237.132 79.6617 236.393 79.889 235.427C80.1164 236.393 81.2532 237.132 82.5605 237.132C84.0384 237.132 85.2889 236.222 85.2889 235.029C85.2889 233.835 84.0384 232.982 82.5037 232.982ZM77.2175 236.563C76.0239 236.563 75.1144 235.881 75.1144 235.086C75.1144 234.29 76.0807 233.608 77.2175 233.608C78.4112 233.608 79.3206 234.29 79.3206 235.086C79.3206 235.881 78.3543 236.563 77.2175 236.563ZM82.5037 236.563C81.3101 236.563 80.4006 235.881 80.4006 235.086C80.4006 234.29 81.3669 233.608 82.5037 233.608C83.6974 233.608 84.6068 234.29 84.6068 235.086C84.6636 235.881 83.6974 236.563 82.5037 236.563Z" fill="#7B91A5"/>
</g>
<circle cx="77.3049" cy="96.1408" r="23.8986" fill="#E2EDF4"/>
<mask id="mask1" style="mask-type:alpha" maskUnits="userSpaceOnUse" x="53" y="72" width="49" height="49">
<circle cx="77.3049" cy="96.1408" r="23.8986" fill="#7B91A5"/>
</mask>
<g mask="url(#mask1)">
<path d="M71.8258 103.58L65.946 106.229C61.1257 108.4 59.3247 113.221 59.3247 118.518V141.56H80.5129C80.5129 141.56 93.6496 122.067 89.7828 111.791C89.7828 111.791 81.1568 105.976 79.6654 104.057C79.8773 105.434 78.8179 106.599 77.4406 106.599H74.2094C73.0971 106.599 72.1436 105.805 71.9847 104.692L71.8258 103.58Z" fill="#7B91A5"/>
<path d="M88.9881 127.366C84.5386 123.287 83.797 118.361 83.797 118.361C83.797 118.361 78.2351 104.482 81.0425 104.906C85.0153 105.542 89.0411 110.945 92.749 114.917" fill="#7B91A5"/>
<path d="M92.6959 114.917C97.5692 120.108 101.913 122.809 104.826 108.613L107.898 109.037C107.898 109.037 107.581 134.675 96.7746 131.603C93.3845 130.649 90.8419 129.06 88.935 127.365L92.6959 114.917Z" fill="#7B91A5"/>
<path d="M73.1501 89.1696C73.4149 89.0637 73.7327 89.2226 73.9976 89.4874V87.2097C73.9976 84.4552 76.2223 82.2305 78.9768 82.2305C81.7313 82.2305 83.9561 84.4552 83.9561 87.2097V95.5261C83.9561 96.1088 83.7971 96.6914 83.4793 97.1682C82.7907 98.1746 81.5194 98.5984 80.3541 98.2806L78.8709 97.9098L79.7714 104.743C79.9303 105.802 79.0828 106.756 77.9704 106.756H75.6397C74.6332 106.756 73.8387 105.908 73.8387 104.955L73.9976 95.685V93.9899C73.5738 93.6192 73.1501 92.9305 72.8852 92.083C72.4085 90.6528 72.5144 89.3285 73.1501 89.1696Z" fill="#F3F7FA"/>
<path d="M82.1946 105.217C83.5602 111.363 71.7247 118.874 68.083 105.217C72.1799 103.397 76.5044 102.259 82.1946 105.217Z" fill="#F3F7FA"/>
<path d="M75.5869 90.6009C75.2161 90.8128 74.7923 90.7068 74.5275 90.389L73.9978 89.4885C73.9978 89.4885 72.7795 88.4291 72.6206 90.2301C72.5676 90.7068 72.6735 91.1836 72.7795 91.6073C72.9913 92.3489 73.4681 93.5672 73.9978 93.8851L76.3815 110.253C76.7523 112.69 74.8453 114.861 72.3557 114.861C69.7601 114.861 67.8532 112.478 68.3829 109.935L71.9849 93.5672C71.9849 93.5672 70.9785 87.3697 71.9849 84.6682C72.7265 82.8672 74.2626 81.1191 78.0765 81.1191C82.5261 81.1191 83.6914 83.4498 83.6914 85.4098L75.5869 90.6009Z" fill="#7B91A5"/>
<path d="M69.9709 96.7977C70.1298 94.573 71.507 92.8249 73.2021 92.666C73.2021 92.719 73.2551 92.8249 73.308 92.8779C73.361 92.9838 73.414 93.0898 73.467 93.1957C71.9838 93.2487 70.6595 94.8378 70.5536 96.8507C70.3947 98.9695 71.613 100.771 73.2021 100.876C74.7912 100.982 76.2214 99.3403 76.3274 97.2215C76.4333 95.5264 75.6917 93.9373 74.5264 93.4076C74.4204 93.3546 74.3145 93.1957 74.4204 93.0368C74.4734 92.9309 74.6323 92.8249 74.7912 92.9309C76.1685 93.6195 77.016 95.3675 76.91 97.2745C76.7511 99.7111 75.109 101.565 73.2021 101.459C71.2952 101.353 69.812 99.1814 69.9709 96.7977Z" fill="#7B91A5"/>
</g>
<circle cx="77.3049" cy="165.678" r="23.8986" fill="#F3F7FA"/>
<mask id="mask2" style="mask-type:alpha" maskUnits="userSpaceOnUse" x="56" y="148" width="43" height="43">
<circle cx="77.237" cy="169.317" r="21.1686" fill="#C4C4C4"/>
</mask>
<g mask="url(#mask2)">
<path d="M80.2243 180.47L72.9013 180.47C72.9013 180.47 73.6192 175.193 73.541 173.24C73.4628 171.288 80.6265 170.845 79.5845 173.24C78.5426 175.636 80.2243 180.47 80.2243 180.47Z" fill="#D1E3EE"/>
<path d="M70.7446 162.968C70.7446 162.968 69.6605 174.271 76.4229 174.271L81.1317 173.252C85.1578 171.463 82.9211 159.832 82.9211 159.832C82.7662 157.661 83.2198 157.221 81.4647 157.093C78.6771 156.901 75.3905 157.029 72.6029 158.881C71.364 159.711 70.6413 161.308 70.7446 162.968Z" fill="#D1E3EE"/>
<path d="M71.3778 168.992C71.3778 168.992 76.2318 167.383 75.0835 160.752C73.9353 154.122 80.3028 164.293 85.3134 160.752C90.3239 157.212 88.2362 154.894 86.0963 155.667C83.9564 156.439 85.1046 156.246 82.8081 154.379C80.5116 152.512 77.4322 152.19 75.0313 156.053C72.6304 159.915 71.4822 155.474 70.2817 157.276C69.0813 159.079 68.6637 168.091 71.3778 168.992Z" fill="#7B91A5"/>
<path d="M51.1807 206.602L59.6897 185.873C62.2487 181.778 66.7911 179.283 71.5894 179.283H82.0178C87.136 179.283 91.8703 182.098 94.3654 186.577L101.275 206.41L51.1807 206.602Z" fill="#7B91A5"/>
<path d="M68.4744 179.595C68.4744 179.595 71.9093 203.657 61.2891 206.664L95.6449 206.536C95.6449 206.536 83.1693 186.384 86.4322 180.05C86.4322 180.05 85.0547 179.138 80.6102 179.282L78.8189 185.168C78.6909 186.32 77.2194 186.767 76.5157 185.808L71.8476 179.252L70.1324 179.309L68.4744 179.595Z" fill="#D1E3EE"/>
<path d="M79.2669 179.661H73.5089C73.1251 179.661 72.8691 179.341 72.8691 179.021V177.485C72.8691 177.102 73.189 176.846 73.5089 176.846H79.2669C79.6507 176.846 79.9067 177.166 79.9067 177.485V179.021C79.9067 179.405 79.6507 179.661 79.2669 179.661Z" fill="#7B91A5"/>
</g>
<rect x="112.053" y="92.7676" width="24.4358" height="9.77431" rx="4.88715" fill="white"/>
<rect x="112.052" y="164.121" width="24.4358" height="9.77431" rx="4.88715" fill="#F3F7FA"/>
<rect x="112.052" y="234.494" width="24.4358" height="9.77431" rx="4.88715" fill="white"/>
</g>
<rect x="153.105" y="69.3086" width="44.9618" height="53.7587" rx="7.81945" fill="#E2EDF4"/>
<rect x="153.105" y="141.057" width="44.9618" height="53.7587" rx="7.81945" fill="#E2EDF4"/>
<rect x="153.105" y="214.945" width="44.9618" height="52.7813" rx="7.81945" fill="#E2EDF4"/>
<rect x="203.932" y="69.3086" width="44.9618" height="53.7587" rx="7.81945" fill="#E2EDF4"/>
<rect x="203.932" y="141.057" width="44.9618" height="53.7587" rx="7.81945" fill="#E2EDF4"/>
<rect x="203.932" y="214.945" width="44.9618" height="52.7813" rx="7.81945" fill="#E2EDF4"/>
<rect x="255.126" y="68.332" width="44.9618" height="53.7587" rx="7.81945" fill="#E2EDF4"/>
<rect x="255.126" y="140.078" width="44.9618" height="53.7587" rx="7.81945" fill="#FF6847"/>
<rect x="255.126" y="213.971" width="44.9618" height="52.7813" rx="7.81945" fill="#E2EDF4"/>
<mask id="mask3" style="mask-type:alpha" maskUnits="userSpaceOnUse" x="255" y="140" width="46" height="54">
<path d="M255.045 147.88C255.045 143.561 258.546 140.061 262.864 140.061H292.364C296.683 140.061 300.184 143.561 300.184 147.88V185.94C300.184 190.258 296.683 193.759 292.364 193.759H262.864C258.546 193.759 255.045 190.258 255.045 185.94V147.88Z" fill="#F3F7FA"/>
</mask>
<g mask="url(#mask3)">
<path d="M250.06 180.279L282.99 133.486" stroke="#F3F7FA" stroke-width="3.30808"/>
<path d="M248.992 160.041L269.107 131.459" stroke="#F3F7FA" stroke-width="3.30808"/>
<path d="M256.112 193.43L296.163 136.52" stroke="#F3F7FA" stroke-width="3.30808"/>
<path d="M267.504 200.508L307.555 143.598" stroke="#F3F7FA" stroke-width="3.30808"/>
<path d="M277.473 210.121L317.523 153.211" stroke="#F3F7FA" stroke-width="3.30808"/>
</g>
<path d="M296.485 179.355C297.16 179.355 297.722 179.018 298.059 178.456C299.634 175.756 301.209 173.057 302.784 170.245C303.121 169.57 303.683 169.345 304.358 169.345C306.833 169.345 309.307 169.345 311.894 169.345C312.682 169.345 313.357 169.345 314.144 169.345C314.819 169.345 315.381 168.783 315.606 168.108C315.831 167.433 315.606 166.758 314.931 166.308C313.919 165.633 312.907 164.958 311.894 164.283C306.608 160.797 301.434 157.31 296.147 153.935C295.585 153.598 294.91 153.485 294.348 153.823C293.785 154.16 293.448 154.723 293.448 155.398C293.448 156.522 293.56 157.535 293.673 158.659C293.673 159.559 293.785 160.347 293.785 161.246C293.898 162.371 293.898 163.496 294.01 164.621C294.123 165.633 294.123 166.758 294.235 167.77C294.348 168.895 294.348 170.02 294.46 171.145C294.573 172.157 294.573 173.282 294.685 174.294C294.798 175.531 294.798 176.768 294.91 178.006C294.91 178.793 295.81 179.355 296.485 179.355Z" fill="#FDBE1D"/>
<rect x="308.597" y="172.668" width="41.4051" height="23.0028" rx="4.02693" fill="#FDBE1D"/>
<path d="M325.822 178.152L321.892 184.95V189.428H320.039V184.95L316.109 178.152H318.219L320.973 183.146L323.712 178.152H325.822ZM328.917 189.637C327.736 189.637 326.732 189.229 325.905 188.413C325.078 187.597 324.665 186.593 324.665 185.401C324.665 184.209 325.078 183.205 325.905 182.389C326.732 181.573 327.736 181.164 328.917 181.164C330.109 181.164 331.113 181.573 331.929 182.389C332.756 183.205 333.17 184.209 333.17 185.401C333.17 186.593 332.756 187.597 331.929 188.413C331.113 189.229 330.109 189.637 328.917 189.637ZM327.129 187.221C327.613 187.704 328.209 187.946 328.917 187.946C329.626 187.946 330.222 187.704 330.705 187.221C331.188 186.738 331.43 186.131 331.43 185.401C331.43 184.671 331.188 184.064 330.705 183.581C330.222 183.097 329.626 182.856 328.917 182.856C328.209 182.856 327.613 183.097 327.129 183.581C326.646 184.064 326.404 184.671 326.404 185.401C326.404 186.131 326.646 186.738 327.129 187.221ZM339.97 181.374H341.709V189.428H339.97V188.397C339.444 189.224 338.611 189.637 337.473 189.637C336.549 189.637 335.803 189.342 335.234 188.751C334.665 188.161 334.38 187.35 334.38 186.319V181.374H336.12V186.142C336.12 186.743 336.281 187.205 336.603 187.527C336.925 187.849 337.366 188.01 337.924 188.01C338.536 188.01 339.03 187.822 339.406 187.446C339.782 187.06 339.97 186.475 339.97 185.691V181.374Z" fill="white"/>
<path d="M64.2946 194.275C63.6197 194.275 63.0573 193.938 62.7199 193.376C61.1452 190.676 59.5705 187.977 57.9958 185.165C57.6583 184.49 57.0959 184.265 56.4211 184.265C53.9465 184.265 51.472 184.265 48.885 184.265C48.0977 184.265 47.4228 184.265 46.6354 184.265C45.9606 184.265 45.3982 183.702 45.1732 183.028C44.9483 182.353 45.1732 181.678 45.8481 181.228C46.8604 180.553 47.8727 179.878 48.885 179.203C54.1715 175.716 59.3455 172.23 64.632 168.855C65.1944 168.518 65.8693 168.405 66.4317 168.743C66.994 169.08 67.3315 169.643 67.3315 170.318C67.3315 171.442 67.219 172.455 67.1065 173.579C67.1065 174.479 66.994 175.267 66.994 176.166C66.8816 177.291 66.8816 178.416 66.7691 179.541C66.6566 180.553 66.6566 181.678 66.5441 182.69C66.4317 183.815 66.4316 184.94 66.3192 186.064C66.2067 187.077 66.2067 188.202 66.0942 189.214C65.9817 190.451 65.9817 191.688 65.8693 192.926C65.8693 193.713 64.9694 194.275 64.2946 194.275Z" fill="#FF6847"/>
<rect y="190.627" width="58.5684" height="21.7754" rx="3.75439" fill="#FF6847"/>
<path d="M17.7211 197.272H13.2909V200.216H17.5709V201.868H13.2909V206.133H11.5639V195.621H17.7211V197.272ZM20.3203 203.069C20.4405 203.64 20.7158 204.08 21.1463 204.391C21.5768 204.691 22.1024 204.841 22.7231 204.841C23.5841 204.841 24.2299 204.531 24.6604 203.91L25.997 204.691C25.2561 205.782 24.1598 206.328 22.7081 206.328C21.4867 206.328 20.5005 205.958 19.7497 205.217C18.9988 204.466 18.6233 203.52 18.6233 202.378C18.6233 201.257 18.9938 200.321 19.7346 199.57C20.4755 198.809 21.4266 198.429 22.588 198.429C23.6893 198.429 24.5903 198.814 25.2911 199.585C26.002 200.356 26.3574 201.292 26.3574 202.393C26.3574 202.564 26.3374 202.789 26.2973 203.069H20.3203ZM20.3053 201.748H24.7205C24.6103 201.137 24.355 200.676 23.9546 200.366C23.5641 200.056 23.1036 199.901 22.573 199.901C21.9723 199.901 21.4717 200.066 21.0712 200.396C20.6707 200.726 20.4154 201.177 20.3053 201.748ZM31.552 200.186H29.6899V203.79C29.6899 204.1 29.7599 204.326 29.9001 204.466C30.0403 204.596 30.2455 204.671 30.5158 204.691C30.7962 204.701 31.1416 204.696 31.552 204.676V206.133C30.3106 206.283 29.4195 206.178 28.8789 205.817C28.3383 205.447 28.068 204.771 28.068 203.79V200.186H26.6864V198.624H28.068V197.002L29.6899 196.522V198.624H31.552V200.186ZM36.0715 206.328C34.9402 206.328 33.9941 205.948 33.2332 205.187C32.4823 204.426 32.1069 203.49 32.1069 202.378C32.1069 201.257 32.4823 200.321 33.2332 199.57C33.9941 198.809 34.9402 198.429 36.0715 198.429C36.8024 198.429 37.4681 198.604 38.0688 198.954C38.6695 199.305 39.1201 199.775 39.4204 200.366L38.0238 201.177C37.8536 200.817 37.5933 200.536 37.2429 200.336C36.9025 200.126 36.507 200.021 36.0565 200.021C35.3957 200.021 34.8401 200.246 34.3895 200.696C33.949 201.147 33.7288 201.708 33.7288 202.378C33.7288 203.049 33.949 203.61 34.3895 204.06C34.8401 204.511 35.3957 204.736 36.0565 204.736C36.497 204.736 36.8925 204.631 37.2429 204.421C37.6033 204.211 37.8736 203.93 38.0538 203.58L39.4504 204.376C39.1301 204.976 38.6695 205.452 38.0688 205.802C37.4681 206.153 36.8024 206.328 36.0715 206.328ZM44.3846 198.429C45.2457 198.429 45.9415 198.704 46.4721 199.255C47.0027 199.805 47.268 200.561 47.268 201.522V206.133H45.6461V201.688C45.6461 201.127 45.4959 200.696 45.1956 200.396C44.8952 200.096 44.4848 199.946 43.9642 199.946C43.3935 199.946 42.9329 200.126 42.5825 200.486C42.2321 200.837 42.0569 201.377 42.0569 202.108V206.133H40.435V195.621H42.0569V199.585C42.5475 198.814 43.3234 198.429 44.3846 198.429Z" fill="white"/>
<defs>
<filter id="filter0_d" x="15.4157" y="54.9046" width="326.036" height="241.377" filterUnits="userSpaceOnUse" color-interpolation-filters="sRGB">
<feFlood flood-opacity="0" result="BackgroundImageFix"/>
<feColorMatrix in="SourceAlpha" type="matrix" values="0 0 0 0 0 0 0 0 0 0 0 0 0 0 0 0 0 0 127 0" result="hardAlpha"/>
<feOffset dy="6.5856"/>
<feGaussianBlur stdDeviation="6.5856"/>
<feColorMatrix type="matrix" values="0 0 0 0 0.0764236 0 0 0 0 0.165046 0 0 0 0 0.591667 0 0 0 0.1 0"/>
<feBlend mode="normal" in2="BackgroundImageFix" result="effect1_dropShadow"/>
<feBlend mode="normal" in="SourceGraphic" in2="effect1_dropShadow" result="shape"/>
</filter>
<filter id="filter1_d" x="18.4278" y="125.833" width="320.012" height="92.2787" filterUnits="userSpaceOnUse" color-interpolation-filters="sRGB">
<feFlood flood-opacity="0" result="BackgroundImageFix"/>
<feColorMatrix in="SourceAlpha" type="matrix" values="0 0 0 0 0 0 0 0 0 0 0 0 0 0 0 0 0 0 127 0" result="hardAlpha"/>
<feOffset dy="5.07956"/>
<feGaussianBlur stdDeviation="5.07956"/>
<feColorMatrix type="matrix" values="0 0 0 0 0.0764236 0 0 0 0 0.165046 0 0 0 0 0.591667 0 0 0 0.1 0"/>
<feBlend mode="normal" in2="BackgroundImageFix" result="effect1_dropShadow"/>
<feBlend mode="normal" in="SourceGraphic" in2="effect1_dropShadow" result="shape"/>
</filter>
</defs>
</svg>
