<svg width="337" height="389" viewBox="0 0 337 389" fill="none" xmlns="http://www.w3.org/2000/svg">
<rect x="265.124" y="301.77" width="71.6326" height="86.4531" rx="6.58691" fill="#FF6847"/>
<rect y="50.0547" width="86.8237" height="155.657" rx="8.91299" fill="#FFC01E"/>
<path d="M51.5681 182.034C51.5681 182.034 22.7297 178.645 20.7934 159.35C18.857 140.056 31.4435 129.129 31.4435 129.129L41.6787 147.248C41.6787 147.248 32.8266 154.44 42.1628 168.341C49.7009 179.544 57.5848 177.884 56.6166 184.178C55.5792 190.471 55.3026 194.344 54.3344 191.37C54.0578 190.471 54.8185 188.12 54.1269 187.221C52.6055 185.284 49.6317 184.869 51.5681 182.034Z" fill="#955524"/>
<path d="M82.7275 93.8092L76.4296 77.0987C76.0937 76.175 76.5975 75.0833 77.5212 74.7474L84.9948 72.2283C85.9185 71.8924 86.8422 72.3962 87.1781 73.2359L93.644 89.3587C93.9799 90.2824 93.56 91.29 92.6363 91.7099L84.9108 94.8169C84.0711 95.2367 83.0634 94.7329 82.7275 93.8092Z" fill="#FF6847"/>
<path d="M20.5855 171.312C20.5855 171.312 15.0529 180.372 11.7334 206.513L76.7408 205.407C76.7408 205.407 73.4213 192.82 64.8458 175.877C64.915 175.877 35.2467 177.398 20.5855 171.312Z" fill="white"/>
<path d="M69.8241 81.1323L56.9609 87.2181L62.286 103.055L62.2169 117.232L66.712 118.27L67.9569 105.96L73.8352 103.401C76.394 102.156 77.0856 99.943 75.8407 97.1767C75.9099 97.1075 70.0316 80.5099 69.8241 81.1323Z" fill="#955524"/>
<path d="M74.8868 89.7082L69.7382 85.2964L73.9908 93.1325L74.9915 92.1111C75.6583 91.4306 75.6102 90.3281 74.8868 89.7082Z" fill="#955524"/>
<path d="M44.5833 129.197L37.6677 130.719L20.5859 171.314C20.5859 171.314 39.3274 180.512 64.6388 178.714C65.7453 178.644 66.2986 177.4 65.5378 176.639C63.4631 174.564 61.3193 170.069 62.979 160.318C65.8836 143.651 75.6347 134.315 68.5807 132.378C61.5267 130.442 44.5833 129.197 44.5833 129.197Z" fill="#BDC8D2"/>
<path d="M88.2642 119.053C82.9947 118.065 67.6801 112.603 60.6815 109.996L54.918 133.05L89.0875 142.107L88.2642 119.053Z" fill="#BDC8D2"/>
<path d="M97.7648 85.4219C96.1742 86.2518 94.4452 86.5975 92.8546 87.3583C96.3816 93.7207 102.122 102.365 103.366 110.387C105.556 124.406 86.6182 118.643 86.6182 118.643L88.9127 136.259C88.9127 136.259 109.347 141.017 115.848 122.759C120.965 108.375 105.579 93.1674 97.7648 85.4219Z" fill="#955524"/>
<path d="M97.7652 85.4199L94.5838 81.547C93.4773 80.3712 92.2324 79.818 90.8492 80.3021L85.593 82.1694C85.0397 82.3769 85.0397 83.0685 85.5238 83.3451C85.8696 83.4835 86.2154 83.4835 86.4921 83.4143L89.8118 82.446L87.6678 83.9676C87.1837 84.3134 87.1145 85.0741 87.5986 85.4891L89.1893 86.734C89.8118 87.2181 90.6417 87.2873 91.2641 86.8723L91.5408 86.734C91.8866 86.5265 92.3015 86.6648 92.5782 87.0106L92.924 87.5639L96.382 86.734L97.7652 85.4199Z" fill="#955524"/>
<path d="M71.6225 104.303C71.6225 104.303 74.0303 113.131 77.9724 116.174C71.7969 114.115 66.8564 112.468 66.8564 112.468L67.957 105.824L71.6225 104.303Z" fill="#17274E"/>
<path d="M68.9149 82.0021C68.9149 82.0021 68.5107 83.9681 72.5912 87.8411L73.0319 88.1777C73.0319 88.1777 73.6286 82.5158 71.6921 78.9886C70.793 77.3287 68.7182 76.6371 66.92 77.3287L63.877 78.5045L68.9149 82.0021Z" fill="#17274E"/>
<path d="M57.2391 81.6154C53.5046 83.3443 51.1533 87.0788 51.2224 91.0207C51.3607 96.6916 51.0149 102.017 46.5889 107.618C41.0564 114.465 28.6773 124.977 30.6137 134.866C32.1351 142.612 38.2209 146.83 46.3123 144.617C54.9569 142.266 63.0482 135.281 62.1492 117.508C62.1492 117.439 62.1492 115.519 62.741 114.111L62.8408 113.704C64.0164 107.826 63.3249 101.74 60.7661 96.3458L60.1436 95.0318C59.7287 94.202 60.4203 93.3721 61.3193 93.2338C70.1022 91.7815 69.3415 81.6846 68.9266 80.7855C68.9266 80.7164 68.8574 80.7164 68.8574 80.6472C68.235 78.5725 65.8145 77.6043 63.7398 78.5725L57.2391 81.6154Z" fill="#17274E"/>
<path d="M84.8419 76.8049C85.4531 76.8049 85.9485 76.3095 85.9485 75.6984C85.9485 75.0872 85.4531 74.5918 84.8419 74.5918C84.2308 74.5918 83.7354 75.0872 83.7354 75.6984C83.7354 76.3095 84.2308 76.8049 84.8419 76.8049Z" fill="#F7F7FB"/>
<path d="M74.5679 95.0006L71 96.1797C72.0526 97.5908 74.5679 96.8043 74.5679 95.0006Z" fill="#F7E2D2"/>
<path d="M93.8554 41.5612C96.9064 41.599 99.3248 44.0881 99.3248 47.1806C99.2876 50.2732 96.832 52.7246 93.8182 52.6869C90.7673 52.6869 88.3116 50.16 88.3489 47.0675C88.3489 44.0127 90.8045 41.5612 93.8554 41.5612ZM75.9591 42.3532C76.852 43.2584 77.7822 44.1258 78.6751 45.0309C80.0146 46.3509 80.0146 47.9349 78.6751 49.2926C77.7822 50.16 76.8892 51.0275 75.9963 51.8949C74.694 53.2149 74.4336 55.0252 75.3637 56.6469C75.7358 57.3257 76.1451 58.0046 76.5172 58.6457C77.4101 60.2297 79.1216 60.9085 80.8331 60.4183C82.0237 60.0788 83.2515 59.7394 84.4422 59.3623C86.2281 58.8343 87.6047 59.6263 88.0512 61.4743C88.3489 62.7188 88.6465 63.9634 88.9814 65.2079C89.3906 66.9051 90.8417 68.0742 92.5904 68.0742C93.409 68.0742 94.2275 68.0742 95.046 68.0742C96.7947 68.0742 98.2458 66.9051 98.6551 65.2079C98.9899 63.9257 99.2876 62.6057 99.6225 61.3234C99.9573 60.0034 100.925 59.2491 102.19 59.2114C102.525 59.2114 102.859 59.2868 103.194 59.3623C104.497 59.7017 105.762 60.1543 107.064 60.456C108.589 60.8331 110.115 60.192 110.933 58.872C111.454 58.0423 111.975 57.1749 112.384 56.3074C113.128 54.8366 112.794 53.1017 111.64 51.9703C110.747 51.0652 109.817 50.1978 108.924 49.2926C107.585 47.9726 107.585 46.3509 108.924 45.0309C109.817 44.1635 110.71 43.2961 111.603 42.4287C112.905 41.1464 113.166 39.3361 112.273 37.7144C111.901 37.0356 111.491 36.3567 111.119 35.6779C110.189 34.0939 108.552 33.415 106.803 33.9053C105.613 34.2447 104.385 34.5841 103.194 34.9613C101.408 35.4893 100.032 34.6973 99.548 32.8493C99.2504 31.6802 98.9527 30.4733 98.6551 29.3042C98.283 27.7202 97.2784 26.7396 95.7158 26.3625C95.6786 26.3625 95.6041 26.3248 95.5669 26.2871C94.3763 26.2871 93.1857 26.2871 92.0323 26.2871C91.0649 26.5133 90.2092 26.9282 89.6139 27.7956C89.3162 28.2105 89.093 28.7008 88.9814 29.191C88.6465 30.4356 88.3489 31.6802 88.0512 32.9624C87.6047 34.735 86.2281 35.527 84.4794 35.0367C83.1771 34.6596 81.8749 34.2447 80.5355 33.9053C79.01 33.5282 77.4845 34.207 76.666 35.527C76.1823 36.319 75.6986 37.1487 75.2521 38.0161C74.4708 39.4115 74.7684 41.1841 75.9591 42.3532Z" fill="#D1E3EE"/>
<g filter="url(#filter0_d)">
<rect x="125.199" y="127.225" width="176.726" height="238.681" rx="10.1567" fill="white"/>
</g>
<rect x="181.061" y="215.588" width="59.9243" height="8.12532" rx="4.06266" fill="#D1E3EE"/>
<rect x="277.042" y="216.096" width="12.188" height="7.10966" rx="3.55483" stroke="#D1E3EE" stroke-width="1.01567"/>
<circle cx="155.161" cy="219.143" r="17.7741" fill="#F3F7FA"/>
<circle cx="259.848" cy="218.219" r="5.23449" fill="white"/>
<path d="M267.769 218.443C268.229 217.983 268.435 217.328 268.323 216.689C268.21 216.05 267.792 215.504 267.203 215.23L266.358 214.836C266.099 214.715 265.941 214.443 265.966 214.157L266.048 213.23C266.105 212.583 265.842 211.948 265.345 211.53C264.848 211.113 264.175 210.965 263.549 211.132L262.648 211.374C262.373 211.447 262.076 211.34 261.912 211.106L261.378 210.342C261.006 209.81 260.396 209.492 259.747 209.492C259.098 209.492 258.488 209.81 258.116 210.341L257.581 211.105C257.417 211.34 257.122 211.446 256.845 211.373L255.945 211.131C255.318 210.964 254.646 211.112 254.149 211.529C253.652 211.947 253.389 212.582 253.446 213.229L253.528 214.157C253.552 214.442 253.395 214.714 253.136 214.836L252.291 215.229C251.702 215.503 251.283 216.049 251.171 216.688C251.058 217.328 251.265 217.983 251.724 218.442L252.383 219.101C252.586 219.303 252.64 219.613 252.52 219.872L252.125 220.717C251.851 221.306 251.88 221.993 252.205 222.555C252.53 223.117 253.11 223.487 253.757 223.543L254.686 223.624C254.971 223.649 255.211 223.851 255.285 224.127L255.526 225.027C255.694 225.655 256.158 226.161 256.769 226.383C257.378 226.605 258.06 226.516 258.593 226.143L259.356 225.608C259.59 225.445 259.905 225.443 260.139 225.608L260.903 226.143C261.241 226.381 261.642 226.503 262.045 226.503C262.275 226.503 262.505 226.464 262.726 226.383C263.336 226.161 263.801 225.654 263.969 225.027L264.209 224.127C264.283 223.851 264.524 223.648 264.809 223.624L265.737 223.543C266.384 223.487 266.964 223.117 267.289 222.555C267.613 221.993 267.643 221.306 267.368 220.717L266.974 219.872C266.853 219.613 266.908 219.303 267.11 219.101L267.769 218.443ZM263.364 216.716L259.002 221.078C258.874 221.206 258.706 221.27 258.539 221.27C258.371 221.27 258.204 221.206 258.076 221.078L255.895 218.897C255.639 218.642 255.639 218.228 255.895 217.972C256.15 217.716 256.564 217.716 256.82 217.972L258.539 219.69L262.438 215.791C262.694 215.535 263.108 215.535 263.363 215.791C263.619 216.047 263.619 216.461 263.364 216.716Z" fill="#FF6847"/>
<rect x="181.061" y="269.416" width="59.9243" height="8.12532" rx="4.06266" fill="#D1E3EE"/>
<rect x="277.042" y="269.924" width="12.188" height="7.10966" rx="3.55483" stroke="#D1E3EE" stroke-width="1.01567"/>
<circle cx="155.161" cy="272.975" r="17.7741" fill="#F3F7FA"/>
<circle cx="259.848" cy="272.049" r="5.23449" fill="white"/>
<path d="M267.769 272.275C268.229 271.815 268.435 271.16 268.323 270.521C268.21 269.882 267.792 269.336 267.203 269.062L266.358 268.668C266.099 268.547 265.941 268.275 265.966 267.989L266.048 267.062C266.105 266.415 265.842 265.78 265.345 265.362C264.848 264.945 264.175 264.797 263.549 264.964L262.648 265.206C262.373 265.279 262.076 265.172 261.912 264.938L261.378 264.174C261.006 263.642 260.396 263.324 259.747 263.324C259.098 263.324 258.488 263.642 258.116 264.174L257.581 264.937C257.417 265.172 257.122 265.278 256.845 265.205L255.945 264.963C255.318 264.796 254.646 264.944 254.149 265.361C253.652 265.779 253.389 266.414 253.446 267.061L253.528 267.989C253.552 268.274 253.395 268.546 253.136 268.668L252.291 269.061C251.702 269.335 251.283 269.881 251.171 270.52C251.058 271.16 251.265 271.815 251.724 272.274L252.383 272.933C252.586 273.135 252.64 273.445 252.52 273.704L252.125 274.549C251.851 275.138 251.88 275.825 252.205 276.387C252.53 276.949 253.11 277.319 253.757 277.375L254.686 277.456C254.971 277.481 255.211 277.683 255.285 277.959L255.526 278.859C255.694 279.487 256.158 279.993 256.769 280.215C257.378 280.438 258.06 280.348 258.593 279.975L259.356 279.44C259.59 279.277 259.905 279.275 260.139 279.44L260.903 279.975C261.241 280.213 261.642 280.335 262.045 280.335C262.275 280.335 262.505 280.296 262.726 280.215C263.336 279.993 263.801 279.486 263.969 278.859L264.209 277.959C264.283 277.683 264.524 277.48 264.809 277.456L265.737 277.375C266.384 277.319 266.964 276.949 267.289 276.387C267.613 275.825 267.643 275.138 267.368 274.549L266.974 273.704C266.853 273.445 266.908 273.135 267.11 272.933L267.769 272.275ZM263.364 270.548L259.002 274.91C258.874 275.038 258.706 275.102 258.539 275.102C258.371 275.102 258.204 275.038 258.076 274.91L255.895 272.729C255.639 272.474 255.639 272.06 255.895 271.804C256.15 271.548 256.564 271.548 256.82 271.804L258.539 273.522L262.438 269.623C262.694 269.367 263.108 269.367 263.363 269.623C263.619 269.879 263.619 270.293 263.364 270.548Z" fill="#FF6847"/>
<rect x="181.061" y="323.25" width="59.9243" height="8.12532" rx="4.06266" fill="#D1E3EE"/>
<rect x="277.042" y="323.758" width="12.188" height="7.10966" rx="3.55483" stroke="#D1E3EE" stroke-width="1.01567"/>
<circle cx="154.145" cy="326.803" r="17.7741" fill="#F3F7FA"/>
<mask id="mask0" style="mask-type:alpha" maskUnits="userSpaceOnUse" x="136" y="309" width="36" height="36">
<circle cx="153.968" cy="326.626" r="17.597" fill="#C4C4C4"/>
</mask>
<g mask="url(#mask0)">
<path d="M156.451 335.898L150.363 335.898C150.363 335.898 150.96 331.511 150.895 329.888C150.83 328.265 156.785 327.897 155.919 329.888C155.053 331.88 156.451 335.898 156.451 335.898Z" fill="#D1E3EE"/>
<path d="M148.57 321.346C148.57 321.346 147.669 330.742 153.29 330.742L157.204 329.896C160.551 328.408 158.692 318.74 158.692 318.74C158.563 316.935 158.94 316.569 157.481 316.463C155.164 316.303 152.432 316.41 150.115 317.949C149.085 318.639 148.484 319.966 148.57 321.346Z" fill="#D1E3EE"/>
<path d="M149.097 326.355C149.097 326.355 153.132 325.017 152.178 319.505C151.223 313.993 156.516 322.448 160.682 319.505C164.847 316.562 163.111 314.636 161.332 315.278C159.554 315.92 160.508 315.759 158.599 314.207C156.69 312.656 154.13 312.388 152.134 315.599C150.139 318.81 149.184 315.117 148.186 316.616C147.188 318.114 146.841 325.606 149.097 326.355Z" fill="#7B91A5"/>
<path d="M132.308 357.619L139.381 340.388C141.508 336.984 145.284 334.91 149.273 334.91H157.942C162.196 334.91 166.132 337.25 168.206 340.973L173.95 357.46L132.308 357.619Z" fill="#D1E3EE"/>
<path d="M146.774 335.282C146.774 335.282 149.539 355.173 140.711 357.672L169.27 357.566C169.27 357.566 158.9 340.813 161.612 335.548C161.612 335.548 160.442 334.963 156.772 334.91L155.283 339.803C155.177 340.76 153.953 341.133 153.368 340.335L149.433 334.963L146.774 335.282Z" fill="#D1E3EE"/>
<path d="M155.653 335.225H150.867C150.548 335.225 150.335 334.959 150.335 334.693V333.417C150.335 333.097 150.601 332.885 150.867 332.885H155.653C155.972 332.885 156.185 333.151 156.185 333.417V334.693C156.185 335.012 155.972 335.225 155.653 335.225Z" fill="#D1E3EE"/>
</g>
<circle cx="259.848" cy="325.877" r="5.23449" fill="white"/>
<path d="M267.769 326.103C268.229 325.644 268.435 324.988 268.323 324.349C268.21 323.71 267.792 323.164 267.203 322.89L266.358 322.496C266.099 322.375 265.941 322.103 265.966 321.818L266.048 320.89C266.105 320.243 265.842 319.608 265.345 319.19C264.848 318.773 264.175 318.625 263.549 318.792L262.648 319.034C262.373 319.107 262.076 319.001 261.912 318.766L261.378 318.003C261.006 317.47 260.396 317.152 259.747 317.152C259.098 317.152 258.488 317.47 258.116 318.002L257.581 318.765C257.417 319 257.122 319.106 256.845 319.033L255.945 318.791C255.318 318.624 254.646 318.772 254.149 319.189C253.652 319.607 253.389 320.242 253.446 320.889L253.528 321.817C253.552 322.102 253.395 322.375 253.136 322.496L252.291 322.889C251.702 323.163 251.283 323.709 251.171 324.348C251.058 324.988 251.265 325.644 251.724 326.102L252.383 326.761C252.586 326.963 252.64 327.273 252.52 327.532L252.125 328.377C251.851 328.966 251.88 329.653 252.205 330.215C252.53 330.777 253.11 331.147 253.757 331.203L254.686 331.284C254.971 331.309 255.211 331.511 255.285 331.788L255.526 332.687C255.694 333.315 256.158 333.822 256.769 334.044C257.378 334.266 258.06 334.176 258.593 333.803L259.356 333.268C259.59 333.105 259.905 333.103 260.139 333.268L260.903 333.803C261.241 334.041 261.642 334.164 262.045 334.164C262.275 334.164 262.505 334.124 262.726 334.044C263.336 333.821 263.801 333.314 263.969 332.687L264.209 331.788C264.283 331.511 264.524 331.309 264.809 331.284L265.737 331.203C266.384 331.147 266.964 330.777 267.289 330.215C267.613 329.653 267.643 328.966 267.368 328.377L266.974 327.532C266.853 327.273 266.908 326.963 267.11 326.761L267.769 326.103ZM263.364 324.376L259.002 328.738C258.874 328.866 258.706 328.93 258.539 328.93C258.371 328.93 258.204 328.866 258.076 328.738L255.895 326.557C255.639 326.302 255.639 325.888 255.895 325.632C256.15 325.377 256.564 325.377 256.82 325.632L258.539 327.35L262.438 323.451C262.694 323.196 263.108 323.196 263.363 323.451C263.619 323.707 263.619 324.121 263.364 324.376Z" fill="#FF6847"/>
<rect x="181.061" y="161.758" width="59.9243" height="8.12532" rx="4.06266" fill="#D1E3EE"/>
<rect x="277.042" y="162.266" width="12.188" height="7.10966" rx="3.55483" stroke="#D1E3EE" stroke-width="1.01567"/>
<circle cx="155.161" cy="165.311" r="17.7741" fill="#F3F7FA"/>
<circle cx="259.848" cy="164.389" r="5.23449" fill="white"/>
<path d="M267.769 164.615C268.229 164.155 268.435 163.5 268.323 162.861C268.21 162.222 267.792 161.675 267.203 161.402L266.358 161.008C266.099 160.887 265.941 160.615 265.966 160.329L266.048 159.401C266.105 158.755 265.842 158.119 265.345 157.702C264.848 157.285 264.175 157.137 263.549 157.304L262.648 157.546C262.373 157.619 262.076 157.512 261.912 157.278L261.378 156.514C261.006 155.982 260.396 155.664 259.747 155.664C259.098 155.664 258.488 155.982 258.116 156.513L257.581 157.277C257.417 157.511 257.122 157.618 256.845 157.545L255.945 157.303C255.318 157.136 254.646 157.284 254.149 157.701C253.652 158.119 253.389 158.754 253.446 159.401L253.528 160.329C253.552 160.614 253.395 160.886 253.136 161.008L252.291 161.401C251.702 161.675 251.283 162.221 251.171 162.86C251.058 163.5 251.265 164.155 251.724 164.614L252.383 165.273C252.586 165.475 252.64 165.785 252.52 166.044L252.125 166.889C251.851 167.477 251.88 168.164 252.205 168.727C252.53 169.289 253.11 169.658 253.757 169.715L254.686 169.796C254.971 169.821 255.211 170.023 255.285 170.299L255.526 171.199C255.694 171.826 256.158 172.333 256.769 172.555C257.378 172.777 258.06 172.688 258.593 172.315L259.356 171.78C259.59 171.617 259.905 171.615 260.139 171.78L260.903 172.315C261.241 172.553 261.642 172.675 262.045 172.675C262.275 172.675 262.505 172.636 262.726 172.555C263.336 172.333 263.801 171.826 263.969 171.199L264.209 170.299C264.283 170.023 264.524 169.82 264.809 169.796L265.737 169.715C266.384 169.658 266.964 169.289 267.289 168.727C267.613 168.164 267.643 167.477 267.368 166.889L266.974 166.044C266.853 165.785 266.908 165.475 267.11 165.273L267.769 164.615ZM263.364 162.888L259.002 167.25C258.874 167.378 258.706 167.442 258.539 167.442C258.371 167.442 258.204 167.378 258.076 167.25L255.895 165.069C255.639 164.814 255.639 164.4 255.895 164.144C256.15 163.888 256.564 163.888 256.82 164.144L258.539 165.862L262.438 161.963C262.694 161.707 263.108 161.707 263.363 161.963C263.619 162.219 263.619 162.632 263.364 162.888Z" fill="#FF6847"/>
<mask id="mask1" style="mask-type:alpha" maskUnits="userSpaceOnUse" x="136" y="198" width="39" height="39">
<circle cx="155.524" cy="217.477" r="19.1526" fill="#7B91A5"/>
</mask>
<g mask="url(#mask1)">
<path d="M151.133 223.432L146.421 225.554C142.558 227.295 141.114 231.158 141.114 235.403V253.869H158.095C158.095 253.869 168.623 238.247 165.524 230.012C165.524 230.012 160.557 224.366 157.416 223.814C157.586 224.917 156.736 225.851 155.633 225.851H153.043C152.152 225.851 151.388 225.215 151.26 224.323L151.133 223.432Z" fill="#D1E3EE"/>
<path d="M164.885 242.493C161.319 239.224 160.725 235.277 160.725 235.277C160.725 235.277 156.268 224.154 158.518 224.494C161.702 225.003 164.928 229.333 167.899 232.517" fill="#D1E3EE"/>
<path d="M167.857 232.517C171.762 236.677 175.243 238.842 177.578 227.465L180.04 227.804C180.04 227.804 179.785 248.351 171.125 245.889C168.408 245.124 166.371 243.851 164.843 242.493L167.857 232.517Z" fill="#D1E3EE"/>
<path d="M152.193 211.885C152.406 211.8 152.66 211.928 152.873 212.14V210.315C152.873 208.107 154.656 206.324 156.863 206.324C159.071 206.324 160.854 208.107 160.854 210.315V216.979C160.854 217.446 160.726 217.913 160.471 218.295C159.92 219.102 158.901 219.442 157.967 219.187L156.778 218.89L157.5 224.366C157.627 225.215 156.948 225.979 156.057 225.979H154.189C153.382 225.979 152.745 225.3 152.745 224.536L152.873 217.107V215.748C152.533 215.451 152.193 214.899 151.981 214.22C151.599 213.074 151.684 212.013 152.193 211.885Z" fill="#D1E3EE"/>
<path d="M160.521 215.837L157.864 215.453C158.087 216.691 159.946 216.99 160.521 215.837Z" fill="#D1E3EE"/>
<path d="M159.441 224.741C160.535 229.666 151.05 235.686 148.132 224.741C151.415 223.282 154.881 222.37 159.441 224.741Z" fill="#D1E3EE"/>
<path d="M154.146 213.032C153.848 213.202 153.509 213.117 153.297 212.863L152.872 212.141C152.872 212.141 151.896 211.292 151.768 212.735C151.726 213.117 151.811 213.499 151.896 213.839C152.066 214.433 152.448 215.41 152.872 215.664L154.782 228.782C155.08 230.734 153.551 232.475 151.556 232.475C149.476 232.475 147.948 230.565 148.372 228.527L151.259 215.41C151.259 215.41 150.452 210.443 151.259 208.278C151.853 206.834 153.084 205.434 156.141 205.434C159.707 205.434 160.641 207.301 160.641 208.872L154.146 213.032Z" fill="#7B91A5"/>
<path d="M149.645 217.997C149.772 216.214 150.876 214.813 152.234 214.686C152.234 214.728 152.277 214.813 152.319 214.855C152.362 214.94 152.404 215.025 152.446 215.11C151.258 215.153 150.197 216.426 150.112 218.039C149.984 219.737 150.961 221.181 152.234 221.265C153.508 221.35 154.654 220.034 154.739 218.336C154.824 216.978 154.229 215.704 153.295 215.28C153.211 215.237 153.126 215.11 153.211 214.983C153.253 214.898 153.38 214.813 153.508 214.898C154.611 215.45 155.291 216.851 155.206 218.379C155.078 220.332 153.762 221.817 152.234 221.732C150.706 221.648 149.517 219.907 149.645 217.997Z" fill="#7B91A5"/>
</g>
<mask id="mask2" style="mask-type:alpha" maskUnits="userSpaceOnUse" x="136" y="252" width="39" height="39">
<circle cx="155.524" cy="271.303" r="19.1526" fill="#C4C4C4"/>
</mask>
<g mask="url(#mask2)">
<path d="M152.049 274.549C152.049 274.549 152.049 275.115 152.002 275.35C151.86 276.388 151.294 278.933 147.429 280.301C147.193 280.395 146.391 280.631 146.156 280.725C143.94 281.432 148.749 284.12 152.945 284.45C159.781 284.968 168.409 282.281 163.364 279.405C161.525 278.368 156.339 280.206 156.528 274.596H152.049V274.549Z" fill="#D1E3EE"/>
<path d="M151.947 264.328V268.018C151.491 267.699 150.808 267.471 150.717 268.701C150.626 269.977 151.446 270.797 151.947 271.161V276.035H155.773C158.279 276.035 160.329 273.985 160.329 271.48V264.328H151.947Z" fill="#D1E3EE"/>
<path d="M158.728 272.508C158.771 272.49 158.797 272.433 158.78 272.394C158.764 272.356 158.704 272.336 158.661 272.355C158.533 272.41 157.361 272.874 156.576 272.121C156.559 272.082 156.457 272.081 156.431 272.138C156.388 272.157 156.378 272.252 156.438 272.272C157.315 273.121 158.728 272.508 158.728 272.508Z" fill="#D1E3EE"/>
<path d="M151.945 272.846C151.945 272.846 147.254 269.611 148.347 265.922C149.44 262.232 153.676 263.28 155.316 261.685C156.956 260.091 161.557 258.497 162.058 263.462C162.559 268.427 160.327 268.063 160.327 268.063C160.327 268.063 158.368 265.011 155.362 265.33C155.362 265.33 154.314 269.156 151.945 268.063C150.852 267.562 150.442 268.473 150.943 269.794C151.171 270.477 151.991 270.978 151.945 271.251C151.9 272.208 151.945 272.846 151.945 272.846Z" fill="#7B91A5"/>
<path d="M149.263 265.003C151.201 265.003 152.771 263.433 152.771 261.496C152.771 259.559 151.201 257.988 149.263 257.988C147.326 257.988 145.756 259.559 145.756 261.496C145.756 263.433 147.326 265.003 149.263 265.003Z" fill="#7B91A5"/>
<path d="M145.968 280.723L144.507 281.713C141.678 283.74 139.98 286.993 139.98 290.482V296.375H148.467V307.219H163.931L164.921 295.008L166.288 296.422L171.993 290.199L168.834 284.683C167.514 282.467 165.581 280.628 163.318 279.403C163.318 279.355 155.539 285.862 145.968 280.723Z" fill="#D1E3EE"/>
<path d="M171.993 290.151C171.993 290.151 177.226 298.873 178.688 282.089L180.526 281.947C180.526 281.947 182.506 312.309 166.288 296.421L171.993 290.151Z" fill="#D1E3EE"/>
<path d="M159.689 267.059C158.642 267.059 157.73 267.651 157.548 268.425C157.366 267.651 156.455 267.059 155.407 267.059C154.496 267.059 153.722 267.514 153.403 268.106H152.173C152.036 268.106 151.945 268.197 151.945 268.334C151.945 268.471 152.036 268.562 152.173 268.562H153.266C153.266 268.607 153.266 268.653 153.266 268.698C153.266 269.61 154.223 270.384 155.453 270.384C156.501 270.384 157.412 269.792 157.594 269.017C157.776 269.792 158.687 270.384 159.735 270.384C160.919 270.384 161.921 269.655 161.921 268.698C161.921 267.742 160.919 267.059 159.689 267.059ZM155.453 269.928C154.496 269.928 153.767 269.382 153.767 268.744C153.767 268.106 154.542 267.56 155.453 267.56C156.409 267.56 157.138 268.106 157.138 268.744C157.138 269.382 156.364 269.928 155.453 269.928ZM159.689 269.928C158.733 269.928 158.004 269.382 158.004 268.744C158.004 268.106 158.778 267.56 159.689 267.56C160.646 267.56 161.375 268.106 161.375 268.744C161.42 269.382 160.646 269.928 159.689 269.928Z" fill="#D1E3EE"/>
</g>
<mask id="mask3" style="mask-type:alpha" maskUnits="userSpaceOnUse" x="136" y="147" width="39" height="36">
<ellipse cx="155.524" cy="165.166" rx="19.1526" ry="17.6291" fill="#C4C4C4"/>
</mask>
<g mask="url(#mask3)">
<path d="M150.103 154.97C148.93 157.903 149.224 157.961 148.336 158.936C146.969 160.415 143.278 162.176 146.217 165.983C149.156 169.789 141.159 171.613 144.064 175.168C146.969 178.723 163.749 179.415 164.706 175.766C165.663 172.117 162.895 171.488 162.348 169.254C161.528 165.92 166.551 166.266 163.236 161.484C159.921 156.703 161.134 159.52 160.074 155.557C159.083 151.908 150.103 154.97 150.103 154.97Z" fill="#7B91A5"/>
<path d="M155.343 154.371C153.258 154.371 154.21 154.811 154.21 156.73C154.21 156.73 152.133 159.377 152.817 162.523C153.5 165.668 155.343 164.253 154.867 169.6L153.5 169.758H157.055L157.089 165.48C158.763 165.165 159.137 163.781 159.137 162.145V157.863C159.137 155.944 157.428 154.371 155.343 154.371Z" fill="#D1E3EE"/>
<path d="M154.622 168.236L153.526 168.508C150.282 169.322 145.524 173.289 142.364 182.818H167.855C166.381 170.186 160.858 168.895 158.793 168.469L157.445 168.197H154.622V168.236Z" fill="#D1E3EE"/>
<path d="M154.792 168.234L152.682 182.817H159.887L157.109 168.234H154.792Z" fill="#D1E3EE"/>
<path d="M149.43 157.199H152.642H157.905L157.769 154.966C157.769 154.808 157.974 154.777 158.042 154.903L158.896 157.199H160.161C160.366 157.199 160.537 157.01 160.503 156.821C160.161 155.437 158.76 150.907 154.693 151.505C149.43 152.292 149.43 157.199 149.43 157.199Z" fill="#7B91A5"/>
</g>
<path d="M196.033 -3.35873e-05C203.369 -3.2946e-05 209.329 5.96021 209.329 13.2959C209.329 20.6316 203.369 26.5918 196.033 26.5918C188.698 26.5918 182.737 20.6316 182.737 13.2959C182.737 5.96021 188.698 -3.42286e-05 196.033 -3.35873e-05Z" fill="#D1E3EE"/>
<path d="M195.828 18.2067L200.937 13.0977L195.828 7.98866L190.719 13.0977L195.828 18.2067Z" fill="#F8F8F8"/>
<path d="M168.188 58.3578C179.384 58.2959 188.427 67.2701 188.488 78.4724C188.55 89.1177 179.445 98.092 168.495 98.2157C157.238 98.2776 148.195 89.3034 148.133 78.1011C148.072 67.5177 157.299 58.4197 168.188 58.3578ZM110.608 74.0163C110.793 75.4398 110.67 76.8633 110.67 78.2868C110.67 79.8959 110.793 81.4432 110.67 83.0524C110.424 85.4042 111.47 86.7659 113.561 87.5704C117.252 88.9939 120.943 90.5412 124.634 91.9647C127.341 93.0169 128.817 96.5447 127.71 99.3298C126.172 103.167 124.634 107.004 123.096 110.842C122.481 112.451 122.727 113.812 124.08 115.112C126.603 117.464 129.063 119.94 131.462 122.415C132.57 123.591 133.8 123.962 135.276 123.344C139.275 121.734 143.335 120.125 147.395 118.516C149.917 117.464 153.485 118.887 154.592 121.425C156.253 125.262 157.976 129.161 159.698 132.999C160.437 134.608 161.605 135.289 163.451 135.227C166.773 135.103 170.033 135.041 173.355 135.227C175.57 135.35 176.923 134.484 177.723 132.503C179.261 128.79 180.798 125.138 182.275 121.425C183.259 118.887 186.827 117.278 189.349 118.269C193.163 119.816 197.039 121.239 200.853 122.725C202.821 123.467 204.482 123.344 206.082 121.549C208.235 119.135 210.572 116.907 212.972 114.679C214.325 113.441 214.632 112.079 213.956 110.408C212.479 106.819 211.003 103.167 209.404 99.5773C207.866 96.1733 209.158 92.955 212.602 91.4696C216.293 89.9223 219.923 88.375 223.552 86.7659C225.275 86.0232 226.136 84.7853 226.013 82.681C225.828 79.6484 225.767 76.6157 226.013 73.6449C226.259 70.8598 225.029 69.4363 222.63 68.5079C219 67.0844 215.371 65.5991 211.741 64.1756C209.404 63.2472 207.866 59.7194 208.85 57.3675C210.388 53.5922 211.926 49.8168 213.402 46.0414C214.202 44.1228 213.956 42.5136 212.233 41.0282C209.834 38.9239 207.558 36.5721 205.344 34.2202C203.929 32.7348 202.514 32.4872 200.668 33.2299C197.162 34.7153 193.594 36.0769 190.087 37.6242C186.335 39.2334 183.259 37.9956 181.721 34.2821C180.245 30.7543 178.645 27.2265 177.046 23.7606C176.246 22.0276 174.954 21.1611 172.986 21.2849C169.664 21.4087 166.404 21.4087 163.082 21.2849C161.052 21.223 159.76 21.9657 159.022 23.7606C157.422 27.5978 155.823 31.3732 154.285 35.2104C153.362 37.5623 149.61 39.1096 147.272 38.1812C143.458 36.6339 139.582 35.2105 135.768 33.7251C133.8 32.9824 132.139 33.1061 130.54 34.901C128.387 37.3147 126.049 39.5428 123.65 41.709C122.358 42.885 121.989 44.1847 122.665 45.732C124.265 49.6311 125.864 53.5303 127.525 57.3675C128.571 59.7813 127.218 63.4947 124.819 64.485C121.005 66.0942 117.252 67.7034 113.438 69.3125C111.47 70.3028 110.301 71.6025 110.608 74.0163Z" fill="#7B91A5"/>
<circle cx="168.414" cy="78.0511" r="32.4652" fill="white"/>
<path d="M196.523 71.2014C196.523 71.2014 193.824 69.8757 194.345 67.4609C194.866 65.0461 196.476 69.4495 196.523 65.567C196.523 64.3832 196.949 63.7677 197.517 63.531C195.245 58.8435 191.836 54.7715 187.669 51.6465C187.669 51.6465 180.235 57.3283 170.718 56.1446C170.718 56.1446 170.008 56.2393 169.061 56.3813C168.635 60.1219 163.568 60.2639 165.462 63.0575C167.404 65.9931 176.542 69.4969 171.665 77.8302C166.788 86.1636 163.048 84.459 162.906 82.1389C162.811 80.4344 161.864 79.3927 162.053 78.9192C160.68 77.8776 158.597 76.3151 156.324 74.9893C152.442 72.6692 155.661 74.3264 154.241 76.3151C152.82 78.3037 151.921 81.4287 153.578 82.423C155.235 83.4174 154.146 85.3587 158.455 88.3416C162.764 91.3246 161.012 92.8397 161.012 94.4969C161.012 96.1541 164.421 97.5746 162.243 98.3795C160.017 99.1371 155.709 93.1238 154.383 88.3416C153.057 83.5594 149.743 84.9799 150.264 82.6598C150.832 80.3397 151.826 70.4912 148.37 65.2829C148.37 65.2829 144.156 71.4855 142.404 66.8454C140.652 62.2052 144.534 62.4893 140.983 60.0272C137.621 65.0935 135.633 71.2488 135.633 77.8302C135.633 92.6503 145.481 105.15 159.023 109.128C158.55 108.701 142.214 92.7924 144.392 90.4723C146.618 88.1522 153.199 99.2791 159.023 99.8C164.847 100.321 168.824 109.791 166.362 110.406C166.978 110.453 167.593 110.453 168.256 110.453C171.665 110.453 174.932 109.933 178.01 108.986C175.784 108.417 173.133 106.003 172.328 98.4268C172.328 98.4268 172.091 95.2545 176.447 97.5746C180.756 99.8947 182.082 91.8454 185.207 90.1882C188.284 88.531 188.095 85.0746 190.51 87.6314C192.925 90.1882 187.527 92.745 189.61 94.9231C191.078 96.4382 193.019 97.8113 193.398 98.6636C198.086 93.0291 200.879 85.7848 200.879 77.8776C200.879 76.6465 200.784 75.4155 200.642 74.1844C198.417 73.0007 200.642 72.9533 196.523 71.2014ZM191.788 83.228C191.267 83.5594 190.699 82.9439 191.078 82.4704C192.262 81.0499 193.824 79.0139 194.108 77.8776C194.487 76.2677 194.913 81.0973 191.788 83.228ZM197.896 74.3264C197.659 74.9893 196.76 75.1314 196.239 74.6105C195.481 73.853 194.582 72.8113 195.671 72.9533C196.902 73.1901 198.18 73.5215 197.896 74.3264Z" fill="#D1E3EE"/>
<path d="M231.133 134.496L244.891 134.496L254.607 124.78L254.607 111.061L244.891 101.345L231.133 101.345L221.417 111.061L221.417 124.78L231.133 134.496Z" fill="#D1E3EE"/>
<path d="M238.512 110.463C234.525 110.463 231.294 113.694 231.294 117.681C231.294 121.667 234.525 124.898 238.512 124.898C242.498 124.898 245.729 121.667 245.729 117.681C245.729 113.694 242.498 110.463 238.512 110.463Z" fill="#F8F8F8"/>
<defs>
<filter id="filter0_d" x="113.011" y="121.131" width="201.102" height="263.057" filterUnits="userSpaceOnUse" color-interpolation-filters="sRGB">
<feFlood flood-opacity="0" result="BackgroundImageFix"/>
<feColorMatrix in="SourceAlpha" type="matrix" values="0 0 0 0 0 0 0 0 0 0 0 0 0 0 0 0 0 0 127 0" result="hardAlpha"/>
<feOffset dy="6.09399"/>
<feGaussianBlur stdDeviation="6.09399"/>
<feColorMatrix type="matrix" values="0 0 0 0 0.0764236 0 0 0 0 0.165046 0 0 0 0 0.591667 0 0 0 0.1 0"/>
<feBlend mode="normal" in2="BackgroundImageFix" result="effect1_dropShadow"/>
<feBlend mode="normal" in="SourceGraphic" in2="effect1_dropShadow" result="shape"/>
</filter>
</defs>
</svg>
