<svg width="361" height="394" viewBox="0 0 361 394" fill="none" xmlns="http://www.w3.org/2000/svg">
<rect x="23.1553" y="382.682" width="69.7723" height="133.104" rx="19.4832" transform="rotate(-90 23.1553 382.682)" fill="#FF6847"/>
<path d="M170.05 8.8796C175.793 3.80729 184.416 3.80728 190.159 8.87959L330.117 132.481C340.605 141.742 334.054 159.056 320.063 159.056H40.1464C26.1552 159.056 19.6046 141.742 30.0917 132.481L170.05 8.8796Z" fill="#17274E"/>
<path d="M125.081 121.226C127.282 137.16 141.368 148.429 162.056 148.429C182.745 148.429 200 137.248 200 121.226C200 105.203 192.076 92.0859 162.585 92.0859C141.808 92.0859 121.648 96.0475 125.081 121.226Z" fill="#EF674A"/>
<path d="M104.745 85.0435L103.601 90.7658L105.801 92.1744L109.147 90.7658V90.1496C109.147 88.741 109.939 87.5085 111.172 86.9803L113.108 86.1C114.429 85.4837 115.221 84.1632 115.221 82.7546V80.3776L115.485 80.2016C116.19 79.8494 116.366 78.9691 115.926 78.3528L113.02 74.0391L108.178 79.5853C108.178 79.5853 104.393 78.0007 106.594 82.4025L104.745 85.0435Z" fill="#EAC7AC"/>
<path d="M104.664 85.3301L102.552 74.726C102.112 72.6132 103.344 70.4123 105.369 69.796L116.109 66.2746C116.109 66.2746 120.951 65.4823 113.028 74.1978L108.186 79.7441C108.186 79.7441 105.642 78.972 106.602 82.5612L104.664 85.3301Z" fill="#EF674A"/>
<path d="M103.6 90.6797C103.6 90.6797 99.9024 92.5284 98.6699 96.8422L114.164 115.946H127.017C127.017 115.946 120.151 91.1199 109.146 90.6797C109.146 90.6797 105.361 92.2643 103.6 90.6797Z" fill="#7B91A5"/>
<path d="M114.164 115.945H130.363C136.613 115.945 140.047 120.347 144.096 125.101C149.202 130.999 153.692 140.507 155.805 145.877L146.825 151.688L114.164 115.945Z" fill="#E6F1F5"/>
<path d="M149.907 149.665L155.806 159.085H162.056L154.749 146.584L149.907 149.665Z" fill="#FFF1E5"/>
<path d="M233.724 69.7263C233.724 69.7263 230.027 68.934 231.259 65.2365C232.492 61.539 237.95 65.2365 240.679 62.6835C243.408 60.1304 250.539 60.7467 245.609 76.241L241.207 74.2161C241.207 74.2161 242.792 70.0785 239.447 71.7511C239.535 71.6631 238.038 67.8776 233.724 69.7263Z" fill="white"/>
<path d="M247.37 63.9161C250.287 63.9161 251.388 62.9525 251.388 62.9525C248.295 59.9622 243.318 55.8605 243.318 55.8605C243.318 55.8605 242.088 55.7167 242.088 58.634C242.088 61.5512 244.453 63.9161 247.37 63.9161Z" fill="white"/>
<path d="M250.557 81.347L245.698 76.1529L241.296 74.1281C241.296 74.1281 243.673 69.7263 239.535 71.6631C239.535 71.6631 237.598 66.9091 233.813 69.7263C233.813 69.7263 233.549 71.3989 233.725 73.5118C233.725 73.5118 233.285 79.4982 233.989 79.4982C234.341 79.4982 234.693 79.4102 235.045 79.2341C235.221 79.5863 235.397 79.8504 235.573 80.2025C236.19 81.0829 237.246 81.5231 238.303 81.347L240.68 80.8188C241.56 80.6427 241.39 81.2987 241.83 82.091L241.918 82.1791L239.039 83.7788C239.039 83.7788 242.616 98.69 253.973 91.0309C253.797 90.9429 254.959 84.3402 250.557 81.347Z" fill="#955624"/>
<path d="M253.798 90.9422L253.886 108.374L227.563 103.707L226.595 95.6081C226.595 95.6081 231.261 86.9806 239.712 83.3711C239.8 83.4591 242.001 96.7525 253.798 90.9422Z" fill="#F5F9FD"/>
<path d="M221.135 106.966C221.135 106.966 209.954 100.892 204.672 102.124C199.39 103.357 179.494 116.034 179.494 116.034L188.298 125.982L196.397 115.065C197.365 113.745 199.214 113.393 200.623 114.185L210.307 119.643L221.135 106.966Z" fill="#EAECED"/>
<path d="M188.298 125.895L179.494 138.484L198.158 144.558L209.338 121.493C209.866 120.348 209.426 119.028 208.37 118.5L199.918 113.658C198.862 113.042 197.629 113.394 196.925 114.274L188.298 125.895Z" fill="#D6D6D6"/>
<path d="M190.676 142.092L189.003 146.582L193.053 146.934L194.549 143.324L190.676 142.092Z" fill="#955624"/>
<path d="M184.161 121.227L180.903 123.868C180.903 123.868 180.727 125.54 181.872 125.892C182.84 126.245 185.041 125.452 186.097 124.924L186.89 124.22L184.161 121.227Z" fill="#955624"/>
<path d="M193.052 146.936C193.052 146.936 193.668 153.363 182.488 152.571C181.607 152.483 181.343 151.426 182.048 150.898C183.544 149.841 186.009 148.257 189.002 146.496L193.052 146.936Z" fill="black"/>
<path d="M186.097 124.926L182.312 130.032C182.312 130.032 169.37 126.95 169.899 126.334C170.427 125.718 178.702 125.63 180.815 123.869C180.903 123.869 182.224 126.158 186.097 124.926Z" fill="black"/>
<path d="M207.05 101.947V89.0055C207.05 88.2132 207.842 87.5969 208.634 87.9491L225.977 94.7278C226.858 95.08 227.474 95.9603 227.474 96.9287V110.662C227.562 110.574 212.772 102.035 207.05 101.947Z" fill="#FFBE16"/>
<path d="M239.622 71.9286L239.27 71.4004L235.573 73.6013C234.869 72.3688 233.812 71.7525 233.02 72.1047C232.227 72.5449 232.051 73.9534 232.756 75.362C233.46 76.7706 234.604 77.5629 235.485 77.1227C236.277 76.7706 236.365 75.5381 235.925 74.2175L239.622 71.9286ZM235.309 76.5945C234.692 76.8586 233.724 76.1543 233.196 75.0099C232.668 73.8654 232.668 72.6329 233.284 72.3688C233.9 72.1047 234.869 72.809 235.397 73.9534C235.925 75.0979 235.925 76.3304 235.309 76.5945Z" fill="#FFBE16"/>
<path d="M59.2749 159.441H135.919C135.919 159.441 156.422 129.063 119.271 117.619C104.657 113.129 106.946 85.0454 77.3657 98.4268C58.5438 106.174 45.4533 142.715 59.2749 159.441Z" fill="white"/>
<path d="M202.087 159.435L236.832 159.004H256.917H284.952C284.952 159.004 280.349 85.7787 253.903 97.81C227.456 109.841 232.774 89.887 205.954 118.788C179.134 147.689 202.087 159.435 202.087 159.435Z" fill="#D1E3EE"/>
<path d="M140.928 90.6809C140.928 90.6809 144.273 75.1866 157.566 69.8164C157.566 69.8164 159.767 72.1053 163.465 69.8164C163.465 69.8164 173.237 71.4891 174.381 72.6335C175.174 73.4259 178.959 77.7396 181.424 80.4687C182.657 81.7893 184.593 82.1414 186.178 81.261L197.271 75.0985C197.271 75.0985 198.679 86.2791 197.271 88.568L187.763 92.0014C187.763 92.0014 165.754 100.365 162.761 103.27C159.943 106.263 145.869 90.6809 140.928 90.6809Z" fill="white"/>
<path d="M160.119 70.7862L153.076 95.6122C153.076 95.6122 160.999 101.07 162.056 102.479C162.056 102.479 169.011 96.8447 171.828 95.084L163.64 70.1699C163.64 70.258 161.88 71.3144 160.119 70.7862Z" fill="#D6D6D6"/>
<path d="M176.054 97.8101L177.55 80.7311C177.638 79.8508 176.934 79.1465 176.054 79.1465H149.467C148.587 79.1465 147.882 79.9388 147.97 80.8192L150.611 97.8101H176.054Z" fill="#FFBE16"/>
<path d="M155.805 108.111C155.805 108.111 128.338 103.798 134.941 93.5856C141.631 83.3735 162.848 103.358 162.848 103.358L155.805 108.111Z" fill="#E6F1F5"/>
<path d="M155.806 108.111C155.806 108.111 181.864 83.0211 187.851 92.0887C193.837 101.156 170.332 109.256 170.332 109.256C170.332 109.256 164.697 104.59 155.806 108.111Z" fill="#E6F1F5"/>
<path d="M166.697 67.3711C166.697 67.3711 171.448 69.1076 170.919 71.4846L163.792 69.9242H163H162.648C162.648 69.8361 160.007 66.0506 166.697 67.3711Z" fill="#EF674A"/>
<path d="M197.447 75.1881C197.447 75.1881 202.817 71.6667 202.641 72.7231C202.465 73.6915 201.144 74.2197 201.144 74.2197C201.144 74.2197 207.483 73.1633 207.747 74.2197C207.835 74.5718 207.395 74.7479 207.043 75.1001C206.514 75.5402 206.162 76.0685 205.37 76.1565C205.37 76.1565 198.415 76.1565 197.623 76.8608C197.359 76.9488 197.447 75.1881 197.447 75.1881Z" fill="#F7E2D2"/>
<path d="M170.243 62.9493C168.482 62.5971 168.482 57.7552 168.482 57.7552C168.482 57.7552 165.401 53.3534 164.785 57.7552C164.169 62.157 160.031 70.8725 160.031 70.8725L158.446 76.5068C161.351 80.4684 165.753 77.035 165.753 77.035L163.552 70.3443L163.288 69.3759C163.024 68.4955 162.672 66.4707 165.401 67.4391L166.986 67.7912C167.954 68.0554 168.923 67.3511 169.011 66.3827L169.275 64.1818C170.067 64.1818 171.123 63.1254 170.243 62.9493Z" fill="#F7E2D2"/>
<path d="M168.746 56.3459C164.697 45.6936 157.39 57.7545 155.365 62.2443C155.189 62.5965 154.925 63.0366 154.661 63.5649C152.988 65.9418 151.931 65.7657 148.058 67.0863C140.135 69.9034 146.297 79.3232 141.895 78.795C137.494 78.1788 140.047 83.4609 142.776 85.2216C147.97 74.1291 157.566 69.8154 157.566 69.8154C158.534 70.6957 159.326 71.4 160.031 70.7838C162.848 68.4068 164.08 61.6281 164.432 59.5152C164.521 58.899 165.137 58.3707 165.753 58.3707C165.753 58.3707 166.017 56.434 166.105 56.1699C166.193 55.9057 166.809 58.3707 166.809 58.3707L169.539 58.4588L168.746 56.3459Z" fill="#EF674A"/>
<path d="M157.742 69.9023C158.007 70.2558 157.831 70.0791 157.742 69.9023V69.9023Z" fill="#EF674A"/>
<path d="M169.098 64.7099L167.073 64.1816C167.161 64.1816 167.601 66.6466 169.098 64.7099Z" fill="#926F56"/>
<path d="M237.247 78.2656L235.574 79.4981C235.574 79.4981 237.775 80.7306 237.247 78.2656Z" fill="#F7E2D2"/>
<path d="M114.693 82.4066C114.887 82.4066 115.045 82.0913 115.045 81.7023C115.045 81.3134 114.887 80.998 114.693 80.998C114.498 80.998 114.341 81.3134 114.341 81.7023C114.341 82.0913 114.498 82.4066 114.693 82.4066Z" fill="#926F56"/>
<path d="M271.178 126.437C271.178 126.437 272.135 113.99 273.93 110.16C275.726 106.33 278.239 126.437 278.239 126.437C278.239 126.437 288.412 105.373 288.891 109.801C289.25 114.23 284.582 131.703 284.582 131.703C284.582 131.703 294.995 116.623 294.995 118.538C295.115 120.453 291.165 133.14 291.165 133.14L284.941 136.132H272.734L271.178 126.437Z" fill="#7B91A5"/>
<path d="M257.762 111.238C255.488 110.879 253.094 107.647 255.249 108.006C257.044 108.246 257.882 110.161 258.241 110.998C259.318 112.076 260.276 113.033 261.233 114.11C259.318 109.921 261.233 110.041 261.712 111.717C262.071 113.033 261.951 114.23 261.831 114.709C262.669 115.666 263.387 116.624 264.105 117.581C262.669 112.554 264.584 112.913 264.824 114.828C264.943 116.265 264.584 117.461 264.465 118.06C265.302 119.137 266.02 120.214 266.739 121.291C265.781 116.624 267.935 117.461 268.055 119.257C268.175 120.693 267.576 121.65 267.217 122.009C267.696 122.847 268.175 123.565 268.653 124.283C268.414 119.975 269.97 120.693 269.731 122.368C269.611 123.565 269.132 124.403 268.893 124.882C269.491 126.079 270.09 127.156 270.568 128.113C270.568 125.361 271.646 125.959 271.406 127.156C271.287 127.874 271.047 128.472 270.927 128.951C272.842 133.26 273.561 136.132 273.561 136.252L272.962 136.372C272.962 136.372 272.364 133.978 270.927 130.507C265.422 130.866 266.619 128.592 268.534 128.831C269.372 128.951 270.09 129.31 270.449 129.55C269.85 128.353 269.252 126.916 268.414 125.48C263.028 125.72 263.866 123.924 265.781 124.164C266.739 124.283 267.576 124.642 268.175 125.001C267.576 123.924 266.858 122.847 266.14 121.65C260.874 121.77 261.712 120.094 263.627 120.334C264.465 120.453 265.063 120.693 265.661 120.932C264.943 119.975 264.225 118.898 263.507 117.94C258.002 117.94 258.839 116.145 260.754 116.504C261.712 116.624 262.55 116.983 263.028 117.342C261.951 116.025 260.874 114.709 259.677 113.392C254.172 114.828 254.89 112.315 256.805 112.195C257.643 112.195 258.361 112.315 258.839 112.554C258.6 112.076 258.121 111.717 257.762 111.238Z" fill="white"/>
<path d="M281.805 99.0577C284.142 97.1534 284.673 91.8886 282.549 93.6809C280.743 95.1371 280.956 97.9375 281.062 99.0577C280.531 100.962 280 102.866 279.681 104.659C279.15 98.4976 277.238 99.8418 277.769 102.194C278.194 103.986 278.938 105.219 279.469 105.891C279.15 107.459 278.938 109.139 278.725 110.595C277.238 103.762 275.327 105.443 276.283 107.795C277.026 109.587 278.194 110.819 278.619 111.267C278.407 113.06 278.194 114.74 278.088 116.42C276.389 110.371 274.371 112.724 275.327 114.964C276.07 116.644 277.345 117.428 277.982 117.652C277.876 118.885 277.876 120.117 277.876 121.237C275.433 116.084 274.265 117.876 275.433 119.669C276.283 120.901 277.238 121.685 277.876 122.021C277.876 123.813 277.982 125.382 277.982 126.95C276.283 123.701 275.539 125.046 276.389 126.39C276.92 127.174 277.557 127.734 278.088 128.07C278.513 134.343 279.575 138.263 279.575 138.263L280.212 138.039C280.212 137.927 279.363 134.903 278.938 129.862C285.204 126.726 282.549 124.821 280.531 126.39C279.681 127.062 279.15 127.846 278.832 128.518C278.725 126.726 278.619 124.709 278.619 122.581C284.779 119.333 282.761 117.764 280.743 119.333C279.681 120.117 279.044 121.125 278.619 121.797C278.619 120.117 278.725 118.437 278.832 116.532C284.673 113.396 282.655 111.828 280.743 113.396C279.894 114.068 279.363 114.74 278.938 115.412C279.044 113.844 279.256 112.164 279.469 110.483C285.629 106.899 283.505 105.443 281.593 107.011C280.637 107.795 280 108.691 279.575 109.475C279.894 107.235 280.319 104.995 280.956 102.642C287.966 100.738 285.629 98.3856 283.399 99.5058C282.443 99.9538 281.699 100.738 281.381 101.298C281.381 100.514 281.593 99.8418 281.805 99.0577Z" fill="white"/>
<path d="M271.416 136.013C271.416 136.013 261.363 131.465 261.004 119.018C261.004 118.539 261.483 118.18 261.961 118.3C265.193 119.736 275.246 124.883 275.725 135.894C275.725 135.894 273.571 125.481 280.273 114.949C280.632 114.47 281.35 114.47 281.59 115.069C283.026 118.539 286.975 128.473 284.821 136.013C284.821 136.013 293.319 122.13 303.612 120.454C304.21 120.335 304.689 120.933 304.449 121.412C303.133 124.404 298.944 132.303 290.207 136.013H271.416Z" fill="white"/>
<path d="M263.55 135.977H296.309V159.007H263.55V135.977Z" fill="#E6F1F5"/>
<rect x="263.548" y="135.975" width="32.7594" height="6.85663" fill="#7B91A5"/>
<rect x="182.021" y="382.682" width="199.656" height="152.426" rx="19.4832" transform="rotate(-90 182.021 382.682)" fill="#FF6847"/>
<path d="M287.616 286.494C287.616 286.494 287.616 288.159 287.754 288.852C288.171 291.904 289.835 299.395 301.211 303.418C301.904 303.696 304.263 304.389 304.956 304.667C311.476 306.748 297.326 314.655 284.98 315.626C264.865 317.152 239.479 309.245 254.322 300.783C259.732 297.731 274.992 303.141 274.437 286.633H287.616V286.494Z" fill="#955524"/>
<path d="M287.924 256.422V267.279C289.264 266.34 291.275 265.67 291.543 269.289C291.811 273.042 289.398 275.455 287.924 276.527V290.869H276.665C269.293 290.869 263.262 284.837 263.262 277.465V256.422H287.924Z" fill="#955524"/>
<path d="M267.965 280.5C267.839 280.445 267.762 280.278 267.811 280.165C267.86 280.052 268.035 279.994 268.161 280.048C268.539 280.212 271.988 281.576 274.298 279.36C274.347 279.247 274.647 279.243 274.724 279.411C274.85 279.465 274.878 279.746 274.703 279.804C272.121 282.304 267.965 280.5 267.965 280.5Z" fill="#F7E2D2"/>
<path d="M287.924 281.487C287.924 281.487 301.73 271.971 298.513 261.114C295.296 250.257 282.831 253.34 278.006 248.649C273.181 243.958 259.643 239.267 258.169 253.876C256.695 268.486 263.262 267.414 263.262 267.414C263.262 267.414 269.026 258.433 277.872 259.372C277.872 259.372 280.955 270.631 287.924 267.414C291.141 265.939 292.347 268.62 290.873 272.507C290.203 274.518 287.79 275.992 287.924 276.796C288.058 279.611 287.924 281.487 287.924 281.487Z" fill="#F3F7FA"/>
<path d="M295.812 258.413C290.112 258.413 285.492 253.792 285.492 248.092C285.492 242.392 290.112 237.771 295.812 237.771C301.512 237.771 306.133 242.392 306.133 248.092C306.133 253.792 301.512 258.413 295.812 258.413Z" fill="#F3F7FA"/>
<path d="M305.511 304.668L309.811 307.581C318.135 313.547 323.129 323.118 323.129 333.384V350.724H298.159V382.631H252.657L249.744 346.701L245.721 350.863L228.936 332.552L238.23 316.321C242.114 309.801 247.802 304.391 254.461 300.784C254.461 300.645 277.35 319.789 305.511 304.668Z" fill="#F3F7FA"/>
<path d="M251.963 336.293H283.731C285.673 336.293 287.338 337.819 287.338 339.9V384.014H248.218L248.495 339.9C248.495 337.819 250.021 336.293 251.963 336.293Z" fill="#17274E"/>
<path d="M255.848 339.07H279.708C279.708 336.019 277.211 333.521 274.159 333.521H261.397C258.345 333.521 255.848 336.019 255.848 339.07Z" fill="#FFC01E"/>
<path d="M228.936 332.411C228.936 332.411 213.538 358.075 209.237 308.69L203.827 308.273C203.827 308.273 198.001 397.611 245.722 350.862L228.936 332.411Z" fill="#955524"/>
<path d="M214.925 299.393C214.787 298.699 214.093 298.422 213.538 298.838C212.983 299.254 212.428 299.948 212.012 301.474C211.457 304.665 205.908 301.89 209.793 299.116C210.347 298.699 211.041 298.561 211.735 298.561C212.012 298.561 212.567 298.699 212.844 298.699C213.399 298.838 214.093 298.422 214.093 297.867C214.232 296.48 210.625 293.428 206.463 297.59C206.463 297.59 206.324 294.815 204.66 292.318C203.689 290.931 197.03 289.96 198.279 294.815C199.388 298.977 203.827 307.3 203.689 308.133C203.55 308.965 209.099 308.549 209.099 308.549C209.099 308.549 216.313 305.219 214.925 299.393Z" fill="#955524"/>
<path d="M323.129 347.252V364.731C323.129 365.286 323.129 365.841 323.129 366.396C322.019 386.788 301.488 397.886 281.789 392.753C273.743 390.672 253.767 382.488 253.767 382.488L255.154 376.106L270.137 375.69C285.674 375.135 298.02 371.806 298.159 356.269V347.252H323.129Z" fill="#955524"/>
<path d="M246.415 370.145C245.305 371.532 249.744 374.307 249.744 374.307C249.744 374.307 245.86 374.307 244.889 375.417C243.918 376.526 243.502 386.376 244.473 386.515C253.629 387.902 259.455 382.769 259.455 382.769L257.929 376.388C257.79 376.388 247.525 368.758 246.415 370.145Z" fill="#955524"/>
<path d="M265.139 264.465C268.222 264.465 270.903 266.207 271.439 268.486C271.975 266.207 274.655 264.465 277.738 264.465C280.419 264.465 282.697 265.805 283.636 267.548H287.255C287.657 267.548 287.925 267.816 287.925 268.218C287.925 268.62 287.657 268.888 287.255 268.888H284.038C284.038 269.022 284.038 269.156 284.038 269.29C284.038 271.971 281.223 274.249 277.604 274.249C274.521 274.249 271.841 272.507 271.305 270.228C270.768 272.507 268.088 274.249 265.005 274.249C261.52 274.249 258.571 272.105 258.571 269.29C258.571 266.475 261.52 264.465 265.139 264.465ZM277.604 272.909C280.419 272.909 282.563 271.301 282.563 269.424C282.563 267.548 280.285 265.939 277.604 265.939C274.79 265.939 272.645 267.548 272.645 269.424C272.645 271.301 274.924 272.909 277.604 272.909ZM265.139 272.909C267.954 272.909 270.098 271.301 270.098 269.424C270.098 267.548 267.82 265.939 265.139 265.939C262.324 265.939 260.18 267.548 260.18 269.424C260.046 271.301 262.324 272.909 265.139 272.909Z" fill="#FFBE16"/>
<rect x="23.1562" y="292.516" width="109.489" height="133.104" rx="19.4832" transform="rotate(-90 23.1562 292.516)" fill="white"/>
<path d="M78.3963 202.713L64.5315 208.958C53.1648 214.08 48.918 225.446 48.918 237.937V292.272H98.8813C98.8813 292.272 129.859 246.306 120.74 222.074C120.74 222.074 106.126 205.461 96.8827 203.837C97.3824 207.085 94.8842 209.833 91.6366 209.833H84.0172C81.3941 209.833 79.1458 207.959 78.771 205.336L78.3963 202.713Z" fill="#F3F7FA"/>
<path d="M118.866 258.794C108.374 249.176 106.625 237.56 106.625 237.56C106.625 237.56 93.5095 204.834 100.13 205.833C109.498 207.332 118.991 220.073 127.734 229.441" fill="#F3F7FA"/>
<path d="M127.609 229.442C139.101 241.683 149.343 248.054 156.213 214.578L163.458 215.577C163.458 215.577 162.709 276.033 137.227 268.788C129.233 266.54 123.238 262.793 118.741 258.796L127.609 229.442Z" fill="#955524"/>
<path d="M163.458 215.826C163.458 215.826 163.958 212.953 167.455 210.33C168.329 209.705 168.704 208.706 168.454 207.707L167.33 203.335C167.08 201.961 165.831 200.961 164.457 200.961H160.585C160.585 200.961 158.158 190.152 156.796 201.273C155.297 213.514 156.213 214.576 156.213 214.576L163.458 215.826Z" fill="#955524"/>
<path d="M81.5178 168.738C82.1423 168.488 82.8917 168.863 83.5163 169.487V164.116C83.5163 157.621 88.7624 152.375 95.2577 152.375C101.753 152.375 106.999 157.621 106.999 164.116V180.647C106.999 182.021 106.624 183.395 105.875 184.519C104.251 186.892 102.342 189.139 98.5053 189.342L95.0078 189.348L97.1313 205.461C97.506 207.959 95.5075 210.208 92.8844 210.208H87.3884C85.0152 210.208 83.1416 208.209 83.1416 205.961L83.5163 184.102V180.105C82.517 179.23 81.5178 177.606 80.8932 175.608C79.769 172.235 80.0189 169.113 81.5178 168.738Z" fill="#955524"/>
<path d="M105.641 179.88C105.748 179.88 105.856 179.765 105.856 179.65C105.856 179.534 105.748 179.419 105.641 179.419C105.317 179.419 102.409 179.304 101.439 176.54C101.439 176.425 101.224 176.309 101.116 176.425C101.008 176.425 100.901 176.655 101.008 176.77C102.086 179.88 105.641 179.88 105.641 179.88Z" fill="#F7E2D2"/>
<path d="M109.242 174.196L104.725 160.844L103.989 177.546L107.935 176.577C108.984 176.319 109.588 175.219 109.242 174.196Z" fill="#955524"/>
<path d="M102.846 206.57C106.067 221.062 78.1577 238.773 69.5703 206.569C79.2311 202.277 89.4286 199.593 102.846 206.57Z" fill="#955524"/>
<path d="M87.2639 172.109C86.3896 172.608 85.3903 172.358 84.7658 171.609L83.5167 169.486C83.5167 169.486 80.6438 166.987 80.2691 171.234C80.1441 172.358 80.394 173.483 80.6438 174.482C81.1434 176.231 82.2676 179.103 83.5167 179.853L89.1375 218.45C90.0119 224.195 85.5152 229.317 79.6445 229.317C73.524 229.317 69.0273 223.696 70.2764 217.7L78.7702 179.103C78.7702 179.103 76.3969 164.489 78.7702 158.119C80.5189 153.872 84.1412 149.75 93.1346 149.75C103.627 149.75 106.522 156.134 106.522 160.756L87.2639 172.109Z" fill="#17274E"/>
<path d="M74.0233 186.725C74.398 181.479 77.6456 177.357 81.6427 176.982C81.6427 177.107 81.7676 177.357 81.8925 177.482C82.0174 177.732 82.1423 177.982 82.2672 178.232C78.7698 178.356 75.6471 182.104 75.3972 186.85C75.0225 191.847 77.8954 196.093 81.6427 196.343C85.3899 196.593 88.7624 192.721 89.0122 187.725C89.2621 183.727 87.5133 179.98 84.7654 178.731C84.5155 178.606 84.2657 178.232 84.5155 177.857C84.6405 177.607 85.0152 177.357 85.3899 177.607C88.6375 179.231 90.6361 183.353 90.3862 187.849C90.0115 193.595 86.1394 197.967 81.6427 197.717C77.146 197.467 73.6485 192.346 74.0233 186.725Z" fill="#FF6847"/>
<path d="M121.24 280.527L125.612 257.044C126.237 253.422 123.738 250.05 120.241 249.55L71.5268 243.055V281.027L115.12 282.776C114.995 282.776 121.49 283.9 121.24 280.527Z" fill="#FF6847"/>
<path d="M48.917 255.422V271.16C48.917 271.66 48.917 272.159 48.917 272.659C49.9163 291.021 68.4027 301.013 86.1396 296.392C93.3843 294.518 111.371 287.148 111.371 287.148L110.122 281.403L96.6319 280.903C82.6422 280.403 71.5254 277.406 71.4005 263.416V255.297H48.917V255.422Z" fill="#955524"/>
<path d="M118.241 279.528C118.241 279.528 121.239 280.777 121.864 277.405C121.864 277.405 124.487 277.779 123.113 284.899C121.739 291.894 111.246 287.148 111.246 287.148L110.122 281.527C110.122 281.402 124.736 272.034 118.241 279.528Z" fill="#955524"/>
</svg>
