<svg width="340" height="333" viewBox="0 0 340 333" fill="none" xmlns="http://www.w3.org/2000/svg">
<circle cx="151.667" cy="181.28" r="148.667" stroke="#D1E3EE" stroke-width="6"/>
<line y1="179.781" x2="303.333" y2="179.781" stroke="#D1E3EE" stroke-width="6"/>
<line x1="149.576" y1="332.947" x2="149.576" y2="29.6139" stroke="#D1E3EE" stroke-width="6"/>
<path d="M39.2422 86.8867C77.424 108.496 176.697 138.75 268.333 86.8867" stroke="#D1E3EE" stroke-width="6"/>
<path d="M261.286 280.377C224.245 258.853 127.94 228.72 39.0419 280.377" stroke="#D1E3EE" stroke-width="6"/>
<path d="M240.303 181.28C240.303 222.699 229.989 260.053 213.473 286.955C196.927 313.906 174.467 329.947 150.188 329.947C125.909 329.947 103.449 313.906 86.9025 286.955C70.3864 260.053 60.0732 222.699 60.0732 181.28C60.0732 139.861 70.3864 102.507 86.9025 75.605C103.449 48.6539 125.909 32.6133 150.188 32.6133C174.467 32.6133 196.927 48.6539 213.473 75.605C229.989 102.507 240.303 139.861 240.303 181.28Z" stroke="#D1E3EE" stroke-width="6"/>
<circle cx="35.6355" cy="56.7644" r="35.6355" fill="#E2EDF4"/>
<path d="M149.545 235.371V279.917H96.5146" stroke="#FF6847" stroke-width="5.30303"/>
<circle cx="65.3317" cy="275.249" r="35.6355" fill="#E2EDF4"/>
<mask id="mask0" style="mask-type:alpha" maskUnits="userSpaceOnUse" x="29" y="239" width="72" height="72">
<circle cx="65.3317" cy="275.249" r="35.6355" fill="#C4C4C4"/>
</mask>
<g mask="url(#mask0)">
<path d="M58.8712 281.295C58.8712 281.295 58.8712 282.348 58.7834 282.786C58.5203 284.716 57.4676 289.453 50.2745 291.997C49.8359 292.172 48.3447 292.611 47.9061 292.786C43.7832 294.102 52.7307 299.102 60.5379 299.716C73.2574 300.681 89.3103 295.681 79.9242 290.33C76.5031 288.4 66.8538 291.821 67.2046 281.383H58.8712V281.295Z" fill="#F3F7FA"/>
<path d="M58.6774 262.273V269.139C57.8298 268.545 56.5585 268.122 56.389 270.41C56.2195 272.783 57.7451 274.309 58.6774 274.987V284.056H65.7968C70.4584 284.056 74.2724 280.242 74.2724 275.58V262.273H58.6774Z" fill="#F3F7FA"/>
<path d="M71.2973 277.501C71.3769 277.467 71.4256 277.361 71.3946 277.289C71.3636 277.218 71.253 277.181 71.1734 277.216C70.9344 277.32 68.753 278.182 67.2928 276.78C67.2619 276.709 67.0716 276.707 67.0229 276.813C66.9433 276.847 66.9256 277.025 67.0362 277.061C68.669 278.642 71.2973 277.501 71.2973 277.501Z" fill="#D1E3EE"/>
<path d="M58.6768 278.129C58.6768 278.129 49.947 272.112 51.9811 265.247C54.0153 258.381 61.8975 260.331 64.9487 257.364C67.9999 254.398 76.5602 251.432 77.4925 260.67C78.4248 269.908 74.2718 269.23 74.2718 269.23C74.2718 269.23 70.6273 263.552 65.0335 264.145C65.0335 264.145 63.0841 271.264 58.6768 269.23C56.6427 268.298 55.8799 269.993 56.8122 272.451C57.236 273.722 58.7616 274.654 58.6768 275.163C58.5921 276.943 58.6768 278.129 58.6768 278.129Z" fill="#7B91A5"/>
<path d="M53.6883 263.537C57.2926 263.537 60.2144 260.615 60.2144 257.011C60.2144 253.406 57.2926 250.484 53.6883 250.484C50.084 250.484 47.1621 253.406 47.1621 257.011C47.1621 260.615 50.084 263.537 53.6883 263.537Z" fill="#7B91A5"/>
<path d="M47.5556 292.785L44.8362 294.627C39.573 298.399 36.415 304.452 36.415 310.943L36.415 321.908H52.2048L52.2048 342.084H80.9772L82.8194 319.364L85.3633 321.996L95.9775 310.417L90.1002 300.153C87.644 296.03 84.0475 292.609 79.8369 290.329C79.8369 290.241 65.3629 302.346 47.5556 292.785Z" fill="#7B91A5"/>
<path d="M95.9775 310.326C95.9775 310.326 105.715 326.554 108.434 295.326L111.855 295.062C111.855 295.062 115.539 351.555 85.3633 321.993L95.9775 310.326Z" fill="#D1E3EE"/>
<path d="M73.0852 267.363C71.1358 267.363 69.4407 268.465 69.1017 269.906C68.7626 268.465 67.0675 267.363 65.1182 267.363C63.4231 267.363 61.9822 268.211 61.3889 269.313H59.1005C58.8463 269.313 58.6768 269.482 58.6768 269.736C58.6768 269.991 58.8463 270.16 59.1005 270.16H61.1347C61.1347 270.245 61.1347 270.33 61.1347 270.414C61.1347 272.11 62.9145 273.55 65.2029 273.55C67.1523 273.55 68.8474 272.449 69.1864 271.008C69.5254 272.449 71.2205 273.55 73.1699 273.55C75.3736 273.55 77.2382 272.194 77.2382 270.414C77.2382 268.635 75.3736 267.363 73.0852 267.363ZM65.2029 272.703C63.4231 272.703 62.067 271.686 62.067 270.499C62.067 269.313 63.5078 268.296 65.2029 268.296C66.9828 268.296 68.3389 269.313 68.3389 270.499C68.3389 271.686 66.898 272.703 65.2029 272.703ZM73.0852 272.703C71.3053 272.703 69.9492 271.686 69.9492 270.499C69.9492 269.313 71.3901 268.296 73.0852 268.296C74.865 268.296 76.2211 269.313 76.2211 270.499C76.3059 271.686 74.865 272.703 73.0852 272.703Z" fill="#7B91A5"/>
</g>
<path d="M94.3939 180.75H35V90.0684" stroke="#FF6847" stroke-width="5.30303"/>
<mask id="mask1" style="mask-type:alpha" maskUnits="userSpaceOnUse" x="0" y="21" width="72" height="72">
<circle cx="35.6355" cy="56.7644" r="35.6355" fill="#7B91A5"/>
</mask>
<g mask="url(#mask1)">
<path d="M27.4618 67.8574L18.6944 71.8067C11.5068 75.045 8.82132 82.2327 8.82132 90.1312V124.49H40.4153C40.4153 124.49 60.0035 95.4232 54.2377 80.1001C54.2377 80.1001 41.3753 71.4305 39.1515 68.5683C39.4675 70.6219 37.8878 72.3596 35.8342 72.3596H31.0161C29.3574 72.3596 27.9357 71.1748 27.6987 69.5161L27.4618 67.8574Z" fill="#7B91A5"/>
<path d="M53.0542 103.324C46.4194 97.2423 45.3137 89.8967 45.3137 89.8967C45.3137 89.8967 37.0202 69.2026 41.2064 69.8345C47.1303 70.7823 53.1332 78.8388 58.6621 84.7626" fill="#7B91A5"/>
<path d="M58.5804 84.7625C65.847 92.503 72.3237 96.5312 76.6679 75.3633L81.249 75.9952C81.249 75.9952 80.7751 114.224 64.6622 109.643C59.6072 108.221 55.8159 105.851 52.9724 103.324L58.5804 84.7625Z" fill="#7B91A5"/>
<path d="M29.4359 46.3744C29.8308 46.2164 30.3047 46.4534 30.6997 46.8483V43.4519C30.6997 39.3447 34.017 36.0273 38.1242 36.0273C42.2315 36.0273 45.5488 39.3447 45.5488 43.4519V55.8526C45.5488 56.7214 45.3119 57.5902 44.838 58.3011C43.8112 59.8018 41.9155 60.4337 40.1779 59.9598L37.9663 59.4069L39.309 69.5959C39.546 71.1756 38.2822 72.5974 36.6235 72.5974H33.1482C31.6475 72.5974 30.4627 71.3336 30.4627 69.9119L30.6997 56.0895V53.562C30.0678 53.0091 29.4359 51.9823 29.041 50.7185C28.3301 48.5859 28.4881 46.6113 29.4359 46.3744Z" fill="#F3F7FA"/>
<path d="M42.9218 70.2973C44.9581 79.4611 27.31 90.6608 21.8799 70.2965C27.9888 67.5825 34.4371 65.8855 42.9218 70.2973Z" fill="#F3F7FA"/>
<path d="M33.0706 48.5055C32.5177 48.8214 31.8858 48.6635 31.4909 48.1895L30.701 46.8468C30.701 46.8468 28.8844 45.2671 28.6474 47.9526C28.5684 48.6635 28.7264 49.3743 28.8844 50.0062C29.2003 51.112 29.9112 52.9286 30.701 53.4025L34.2554 77.8089C34.8083 81.4422 31.9648 84.6806 28.2525 84.6806C24.3822 84.6806 21.5388 81.1263 22.3286 77.335L27.6996 52.9286C27.6996 52.9286 26.1989 43.6874 27.6996 39.6592C28.8054 36.9737 31.096 34.3672 36.7829 34.3672C43.4176 34.3672 45.1553 37.8425 45.1553 40.765L33.0706 48.5055Z" fill="#7B91A5"/>
<path d="M24.6963 57.7468C24.9333 54.4294 26.9869 51.8229 29.5144 51.5859C29.5144 51.6649 29.5934 51.8229 29.6724 51.9019C29.7514 52.0598 29.8304 52.2178 29.9093 52.3758C27.6978 52.4548 25.7231 54.8243 25.5652 57.8257C25.3282 60.9851 27.1449 63.6706 29.5144 63.8286C31.884 63.9866 34.0166 61.538 34.1745 58.3786C34.3325 55.8511 33.2267 53.4816 31.489 52.6917C31.3311 52.6127 31.1731 52.3758 31.3311 52.1388C31.4101 51.9809 31.647 51.8229 31.884 51.9809C33.9376 53.0077 35.2013 55.6142 35.0434 58.4576C34.8064 62.0909 32.3579 64.8554 29.5144 64.6974C26.671 64.5395 24.4594 61.3011 24.6963 57.7468Z" fill="#7B91A5"/>
</g>
<path d="M212.121 180.749H256.667L293.257 144.158" stroke="#FFC01E" stroke-width="5.30303"/>
<circle cx="303.968" cy="119.339" r="35.6355" fill="#E2EDF4"/>
<mask id="mask2" style="mask-type:alpha" maskUnits="userSpaceOnUse" x="272" y="93" width="64" height="64">
<circle cx="303.864" cy="124.766" r="31.5647" fill="#E2EDF4"/>
</mask>
<g mask="url(#mask2)">
<path d="M308.32 141.399L297.4 141.399C297.4 141.399 298.471 133.531 298.354 130.619C298.238 127.708 308.919 127.047 307.366 130.619C305.812 134.191 308.32 141.399 308.32 141.399Z" fill="#F3F7FA"/>
<path d="M294.185 115.297C294.185 115.297 292.569 132.152 302.652 132.152L309.673 130.633C315.677 127.965 312.342 110.621 312.342 110.621C312.111 107.384 312.787 106.728 310.17 106.537C306.013 106.251 301.113 106.442 296.956 109.203C295.109 110.441 294.031 112.822 294.185 115.297Z" fill="#F3F7FA"/>
<path d="M295.13 124.281C295.13 124.281 302.368 121.881 300.656 111.994C298.944 102.107 308.438 117.274 315.91 111.994C323.381 106.715 320.268 103.259 317.077 104.411C313.886 105.563 315.598 105.275 312.174 102.491C308.75 99.7078 304.158 99.2278 300.578 104.987C296.998 110.746 295.286 104.123 293.496 106.811C291.706 109.499 291.083 122.937 295.13 124.281Z" fill="#7B91A5"/>
<path d="M265.013 180.362L277.701 149.453C281.516 143.347 288.29 139.627 295.444 139.627H310.994C318.626 139.627 325.685 143.824 329.406 150.502L339.709 180.075L265.013 180.362Z" fill="#7B91A5"/>
<path d="M290.8 140.094C290.8 140.094 295.922 175.973 280.086 180.457L331.314 180.266C331.314 180.266 312.712 150.216 317.577 140.772C317.577 140.772 315.523 139.412 308.896 139.627L306.225 148.404C306.034 150.121 303.84 150.788 302.79 149.358L295.83 139.582L293.272 139.667L290.8 140.094Z" fill="#D1E3EE"/>
<path d="M306.891 140.194H298.306C297.733 140.194 297.352 139.717 297.352 139.24V136.95C297.352 136.378 297.829 135.996 298.306 135.996H306.891C307.464 135.996 307.845 136.473 307.845 136.95V139.24C307.845 139.812 307.464 140.194 306.891 140.194Z" fill="#7B91A5"/>
</g>
<g filter="url(#filter0_d)">
<rect x="92.2725" y="128.25" width="120.733" height="106.659" rx="8.16467" fill="#EAF2F8"/>
</g>
<circle cx="108.197" cy="143.438" r="2.59242" fill="#F8FAFC"/>
<circle cx="125.972" cy="143.438" r="2.59242" fill="#F8FAFC"/>
<circle cx="143.75" cy="143.438" r="2.59242" fill="#F8FAFC"/>
<circle cx="179.303" cy="143.438" r="2.59242" fill="#F8FAFC"/>
<circle cx="161.527" cy="143.438" r="2.59242" fill="#F8FAFC"/>
<circle cx="197.079" cy="143.438" r="2.59242" fill="#F8FAFC"/>
<circle cx="108.197" cy="181.214" r="2.59242" fill="#F8FAFC"/>
<circle cx="125.973" cy="181.212" r="2.59242" fill="#F8FAFC"/>
<circle cx="143.751" cy="181.212" r="2.59242" fill="#F8FAFC"/>
<circle cx="179.303" cy="181.212" r="2.59242" fill="#F8FAFC"/>
<circle cx="161.527" cy="181.212" r="2.59242" fill="#F8FAFC"/>
<circle cx="197.079" cy="181.212" r="2.59242" fill="#F8FAFC"/>
<circle cx="108.197" cy="156.028" r="2.59242" fill="#F8FAFC"/>
<circle cx="125.973" cy="156.028" r="2.59242" fill="#F8FAFC"/>
<circle cx="143.751" cy="156.028" r="2.59242" fill="#F8FAFC"/>
<circle cx="179.303" cy="156.028" r="2.59242" fill="#F8FAFC"/>
<circle cx="161.527" cy="156.028" r="2.59242" fill="#F8FAFC"/>
<circle cx="197.079" cy="156.028" r="2.59242" fill="#F8FAFC"/>
<circle cx="108.197" cy="193.803" r="2.59242" fill="#F8FAFC"/>
<circle cx="125.972" cy="193.803" r="2.59242" fill="#F8FAFC"/>
<circle cx="143.75" cy="193.803" r="2.59242" fill="#F8FAFC"/>
<circle cx="179.303" cy="193.803" r="2.59242" fill="#F8FAFC"/>
<circle cx="161.527" cy="193.803" r="2.59242" fill="#F8FAFC"/>
<circle cx="197.079" cy="193.803" r="2.59242" fill="#F8FAFC"/>
<circle cx="108.197" cy="168.62" r="2.59242" fill="#F8FAFC"/>
<circle cx="125.972" cy="168.62" r="2.59242" fill="#F8FAFC"/>
<circle cx="143.75" cy="168.62" r="2.59242" fill="#F8FAFC"/>
<circle cx="179.303" cy="168.62" r="2.59242" fill="#F8FAFC"/>
<circle cx="161.527" cy="168.62" r="2.59242" fill="#F8FAFC"/>
<circle cx="197.079" cy="168.62" r="2.59242" fill="#F8FAFC"/>
<circle cx="108.197" cy="206.395" r="2.59242" fill="#F8FAFC"/>
<circle cx="125.973" cy="206.395" r="2.59242" fill="#F8FAFC"/>
<circle cx="143.751" cy="206.395" r="2.59242" fill="#F8FAFC"/>
<circle cx="179.303" cy="206.395" r="2.59242" fill="#F8FAFC"/>
<circle cx="161.527" cy="206.395" r="2.59242" fill="#F8FAFC"/>
<circle cx="197.079" cy="206.395" r="2.59242" fill="#F8FAFC"/>
<circle cx="108.197" cy="218.987" r="2.59242" fill="#F8FAFC"/>
<circle cx="125.973" cy="218.987" r="2.59242" fill="#F8FAFC"/>
<circle cx="143.751" cy="218.987" r="2.59242" fill="#F8FAFC"/>
<circle cx="179.303" cy="218.987" r="2.59242" fill="#F8FAFC"/>
<circle cx="161.527" cy="218.987" r="2.59242" fill="#F8FAFC"/>
<circle cx="197.079" cy="218.987" r="2.59242" fill="#F8FAFC"/>
<path d="M137.303 174.792H129.95V179.883H137.053V182.739H129.95V190.115H127.084V171.936H137.303V174.792Z" fill="#7B91A5"/>
<path d="M141.616 184.817C141.816 185.804 142.273 186.566 142.987 187.103C143.702 187.622 144.574 187.882 145.604 187.882C147.033 187.882 148.105 187.345 148.819 186.271L151.037 187.622C149.808 189.509 147.988 190.453 145.579 190.453C143.552 190.453 141.915 189.812 140.669 188.531C139.423 187.232 138.8 185.596 138.8 183.622C138.8 181.683 139.415 180.064 140.644 178.766C141.874 177.45 143.452 176.792 145.38 176.792C147.207 176.792 148.703 177.459 149.866 178.792C151.046 180.125 151.635 181.744 151.635 183.648C151.635 183.943 151.602 184.332 151.536 184.817H141.616ZM141.591 182.532H148.919C148.736 181.476 148.312 180.679 147.648 180.142C147 179.606 146.235 179.337 145.355 179.337C144.358 179.337 143.527 179.623 142.862 180.194C142.198 180.766 141.774 181.545 141.591 182.532Z" fill="#7B91A5"/>
<path d="M160.257 179.831H157.166V186.064C157.166 186.6 157.282 186.99 157.515 187.232C157.748 187.457 158.088 187.587 158.537 187.622C159.002 187.639 159.575 187.631 160.257 187.596V190.115C158.196 190.375 156.718 190.193 155.82 189.57C154.923 188.929 154.474 187.76 154.474 186.064V179.831H152.181V177.13H154.474V174.325L157.166 173.494V177.13H160.257V179.831Z" fill="#7B91A5"/>
<path d="M167.757 190.453C165.88 190.453 164.31 189.795 163.047 188.479C161.801 187.163 161.177 185.544 161.177 183.622C161.177 181.683 161.801 180.064 163.047 178.766C164.31 177.45 165.88 176.792 167.757 176.792C168.97 176.792 170.075 177.095 171.072 177.701C172.069 178.307 172.817 179.121 173.315 180.142L170.997 181.545C170.715 180.921 170.283 180.437 169.701 180.09C169.136 179.727 168.48 179.545 167.732 179.545C166.636 179.545 165.714 179.935 164.966 180.714C164.235 181.493 163.869 182.462 163.869 183.622C163.869 184.782 164.235 185.752 164.966 186.531C165.714 187.31 166.636 187.7 167.732 187.7C168.463 187.7 169.12 187.518 169.701 187.155C170.299 186.791 170.748 186.306 171.047 185.7L173.365 187.077C172.833 188.115 172.069 188.938 171.072 189.544C170.075 190.15 168.97 190.453 167.757 190.453Z" fill="#7B91A5"/>
<path d="M181.554 176.792C182.983 176.792 184.138 177.268 185.018 178.221C185.899 179.173 186.339 180.48 186.339 182.142V190.115H183.647V182.428C183.647 181.458 183.398 180.714 182.9 180.194C182.401 179.675 181.72 179.415 180.856 179.415C179.909 179.415 179.145 179.727 178.563 180.35C177.982 180.956 177.691 181.891 177.691 183.155V190.115H174.999V171.936H177.691V178.792C178.505 177.459 179.793 176.792 181.554 176.792Z" fill="#7B91A5"/>
<circle cx="108.151" cy="32.8486" r="32.8486" fill="#FFC01E"/>
<path d="M120.271 42.6538C120.271 45.3507 119.338 47.598 117.471 49.3959C115.638 51.1593 113.218 52.1792 110.21 52.4558V57.1234H107.772V52.5077C104.903 52.3694 102.448 51.6606 100.408 50.3813C98.4025 49.1021 97.0023 47.356 96.207 45.1432L98.5927 43.7948C99.8374 47.5635 102.897 49.5861 107.772 49.8627V34.4596C106.147 33.9064 104.851 33.405 103.883 32.9556C102.949 32.5061 101.964 31.901 100.927 31.1404C99.8893 30.3797 99.1286 29.4635 98.6446 28.3917C98.1605 27.2853 97.9185 25.9887 97.9185 24.502C97.9185 21.8743 98.852 19.6961 100.719 17.9673C102.586 16.2386 104.937 15.2878 107.772 15.1149V10.4473H110.21V15.1149C112.319 15.3569 114.169 16.0311 115.759 17.1375C117.384 18.2439 118.594 19.7479 119.39 21.6495L117.056 22.9461C115.846 19.9381 113.564 18.2266 110.21 17.8117V32.5407C111.455 32.9901 112.492 33.3877 113.322 33.7335C114.151 34.0792 115.05 34.546 116.018 35.1338C116.987 35.7216 117.747 36.3439 118.3 37.0008C118.854 37.6232 119.32 38.4184 119.701 39.3865C120.081 40.3546 120.271 41.4437 120.271 42.6538ZM100.667 24.502C100.667 26.369 101.255 27.8212 102.431 28.8584C103.606 29.8611 105.387 30.7946 107.772 31.659V17.7599C105.663 17.9327 103.952 18.6415 102.638 19.8862C101.324 21.1309 100.667 22.6695 100.667 24.502ZM110.21 49.759C112.492 49.517 114.272 48.7563 115.552 47.477C116.831 46.1632 117.471 44.5555 117.471 42.6538C117.471 40.7522 116.866 39.2655 115.655 38.1937C114.445 37.1218 112.63 36.1537 110.21 35.2894V49.759Z" fill="white"/>
<circle cx="15.909" cy="249.159" r="14.8485" fill="#FFC01E"/>
<path d="M15.9564 257.349H11.1602V241.059H15.9564V238.553H16.8421V241.08C18.1384 241.188 19.1754 241.599 19.91 242.29C20.6445 242.982 21.0334 243.911 21.0334 245.099C21.0334 245.574 20.9686 246.05 20.8174 246.46C20.6661 246.892 20.4717 247.259 20.2125 247.583C19.9532 247.907 19.6507 248.188 19.3051 248.404C18.9594 248.62 18.6137 248.772 18.2464 248.858C18.7217 248.901 19.1538 249.031 19.5859 249.225C20.018 249.42 20.3853 249.679 20.7094 250.025C21.0334 250.349 21.2927 250.759 21.4871 251.235C21.6816 251.71 21.768 252.228 21.768 252.833C21.768 254.086 21.3575 255.123 20.5581 255.944C19.7588 256.765 18.5273 257.241 16.8421 257.37V259.876H15.9564V257.349ZM15.9564 248.426V242.117H12.3484V248.426H15.9564ZM15.9564 256.29V249.42H12.3484V256.29H15.9564ZM19.8236 245.099C19.8236 244.17 19.5643 243.479 19.0458 243.003C18.5273 242.528 17.7927 242.226 16.8421 242.161V248.426C17.7495 248.318 18.4625 247.972 19.0026 247.432C19.5427 246.87 19.8236 246.093 19.8236 245.099ZM20.5365 252.812C20.5365 251.645 20.2125 250.802 19.5427 250.327C18.873 249.83 17.9656 249.549 16.8205 249.463V256.268C18.1168 256.182 19.0458 255.858 19.6507 255.275C20.2341 254.691 20.5365 253.87 20.5365 252.812Z" fill="white"/>
<circle cx="301.439" cy="183.629" r="23.5605" fill="#FF6847"/>
<path d="M292.463 182.684H296.077C295.593 181.79 295.146 180.859 294.773 179.927C294.4 178.958 294.214 177.915 294.214 176.76C294.214 175.642 294.438 174.636 294.922 173.742C295.369 172.848 296.002 172.102 296.785 171.469C297.567 170.836 298.462 170.351 299.505 170.016C300.511 169.68 301.629 169.494 302.784 169.494C304.2 169.494 305.392 169.643 306.398 169.979C307.404 170.314 308.224 170.649 308.895 171.059L308.41 172.512C307.665 172.065 306.883 171.693 306.063 171.469C305.243 171.208 304.2 171.096 302.896 171.096C301.741 171.096 300.735 171.283 299.915 171.655C299.095 172.028 298.387 172.512 297.866 173.108C297.344 173.705 296.934 174.338 296.673 175.083C296.412 175.791 296.301 176.536 296.301 177.244C296.301 178.25 296.487 179.219 296.859 180.113C297.232 181.008 297.679 181.865 298.164 182.722H305.653V184.175H298.946C299.319 184.883 299.617 185.591 299.878 186.299C300.138 187.044 300.25 187.826 300.25 188.646C300.25 190.36 299.878 191.85 299.17 193.043C298.462 194.235 297.53 195.278 296.412 196.061H310.534V197.924H292.016V196.061H293.73C294.624 195.8 295.369 195.39 295.965 194.869C296.561 194.347 297.046 193.713 297.381 193.043C297.754 192.372 297.977 191.627 298.126 190.882C298.275 190.136 298.35 189.354 298.35 188.609C298.35 187.826 298.201 187.081 297.903 186.336C297.605 185.591 297.269 184.845 296.859 184.1H292.463V182.684Z" fill="white"/>
<defs>
<filter id="filter0_d" x="81.4842" y="122.856" width="142.309" height="128.236" filterUnits="userSpaceOnUse" color-interpolation-filters="sRGB">
<feFlood flood-opacity="0" result="BackgroundImageFix"/>
<feColorMatrix in="SourceAlpha" type="matrix" values="0 0 0 0 0 0 0 0 0 0 0 0 0 0 0 0 0 0 127 0" result="hardAlpha"/>
<feOffset dy="5.39412"/>
<feGaussianBlur stdDeviation="5.39412"/>
<feColorMatrix type="matrix" values="0 0 0 0 0.0764236 0 0 0 0 0.165046 0 0 0 0 0.591667 0 0 0 0.1 0"/>
<feBlend mode="normal" in2="BackgroundImageFix" result="effect1_dropShadow"/>
<feBlend mode="normal" in="SourceGraphic" in2="effect1_dropShadow" result="shape"/>
</filter>
</defs>
</svg>
