<svg width="355" height="406" viewBox="0 0 355 406" fill="none" xmlns="http://www.w3.org/2000/svg">
<path d="M246.67 198.03H341.75C347.256 198.03 351.708 192.561 351.708 185.799V16.416H246.67V198.03Z" fill="#D1E3EE"/>
<path d="M345.971 0.259766L352 8.44168V58.1483H246.731V9.45673L252.329 1.09026L259.204 8.7185L266.183 0.259766L272.489 8.7185L279.235 0.259766L285.774 8.74927L292.469 0.290536L298.646 8.22637L304.953 0.259766L312.086 8.7185L318.574 0.259766L325.63 8.7185L332.35 0.259766L339.742 8.7185L345.971 0.259766Z" fill="#D1E3EE"/>
<path d="M286.644 113.272C286.846 103.459 293.552 95.5879 301.788 95.5879C310.024 95.5879 316.729 103.459 316.932 113.272H317.112V183.254C317.359 188.376 319.002 198.242 327.98 198.242H310.496H293.259H286.621V190.289V180.207V113.272H286.644Z" fill="#7B91A5"/>
<rect x="148.711" y="107.523" width="152.383" height="254.539" rx="17.8773" fill="#17274E"/>
<path d="M182.254 95.6426H280.318H281.264C281.264 95.6426 311.889 95.6426 302.168 95.6426C292.447 95.6426 286.822 105.824 286.822 110.505C286.822 115.186 286.822 320.171 286.822 320.171C286.822 328.582 281.128 326.83 274.085 326.83H166.187C163.127 326.83 160.629 323.838 160.629 320.171V121.549C160.651 107.234 170.327 95.6426 182.254 95.6426Z" fill="#F3F7FA"/>
<path d="M234.402 274.877C234.922 274.304 235.338 273.833 235.758 273.353C235.77 273.287 235.781 273.222 235.793 273.156C235.816 273.024 235.839 272.891 235.863 272.76L236.221 272.822L236.495 273.061L236.442 273.123C236.326 273.256 236.212 273.386 236.099 273.516L235.776 275.668C235.722 276.176 235.688 276.65 235.777 277.276C235.779 277.289 235.781 277.303 235.783 277.316C235.826 277.621 235.877 277.985 236.171 278.461C236.478 278.959 237.25 279.542 237.993 279.622C239.788 279.815 241.178 278.883 242.271 277.974C243.043 277.33 243.751 276.622 244.454 275.919C244.745 275.627 245.036 275.336 245.33 275.051C247.337 273.11 249.177 271.678 251.71 271.95C252.503 272.049 253.284 271.7 253.759 271.036C254.238 270.378 254.332 269.504 254.004 268.758C253.68 268.009 252.992 267.502 252.196 267.43C247.803 266.958 244.561 269.552 242.316 271.727C241.815 272.21 241.423 272.597 241.034 272.98C241.029 273.009 241.024 273.038 241.019 273.068C241.009 273.128 240.999 273.188 240.989 273.248C240.985 273.272 240.984 273.291 240.982 273.321C240.979 273.354 240.976 273.4 240.967 273.458L240.607 273.401L240.356 273.145L240.353 273.142L240.352 273.141C240.468 273.027 240.582 272.915 240.695 272.803C240.867 271.775 241.034 270.719 241.04 269.696C241.045 269.121 241.027 268.569 240.753 267.843C240.479 267.117 239.549 266.071 238.454 265.953C237.264 265.825 236.544 266.342 235.969 266.758C235.394 267.174 234.895 267.66 234.39 268.196C233.818 268.799 233.233 269.475 232.628 270.175C232.16 270.716 231.68 271.272 231.186 271.817C230.052 273.066 228.842 274.226 227.752 274.984C227.308 275.293 226.954 275.418 226.624 275.496C226.511 275.62 226.397 275.743 226.283 275.867L226.016 275.619L225.937 275.264C226.041 275.241 226.139 275.222 226.234 275.204C226.301 275.191 226.367 275.178 226.433 275.165C227.419 274.079 228.349 272.968 229.17 271.814C231.38 268.712 232.999 265.572 233.619 262.754C233.931 261.345 234.046 259.955 233.514 258.563C232.981 257.17 231.489 256.059 229.977 255.896C227.07 255.584 224.382 257.229 222.38 259.653C220.377 262.077 218.944 265.433 218.527 269.313C218.279 271.613 218.563 273.787 219.298 275.719C219.175 275.814 219.057 275.926 218.939 276.037C218.793 276.175 218.648 276.312 218.493 276.419M234.402 274.877L234.132 274.632C234.132 274.633 234.132 274.633 234.132 274.633M234.402 274.877L234.132 274.633M234.402 274.877C233.17 276.232 231.81 277.653 230.232 278.752C228.654 279.851 226.769 280.702 224.66 280.475C223.633 280.365 222.767 279.861 221.972 279.293C221.813 279.416 221.662 279.556 221.512 279.696C221.326 279.869 221.14 280.041 220.938 280.182L208.625 278.201M234.132 274.633C234.818 273.878 235.321 273.3 235.894 272.643L235.947 272.583L236.804 271.6L236.58 272.885C236.556 273.019 236.532 273.153 236.509 273.287C236.361 274.125 236.216 274.946 236.138 275.705L236.138 275.707C236.085 276.203 236.055 276.642 236.137 277.224C236.139 277.237 236.141 277.25 236.143 277.263C236.184 277.557 236.227 277.859 236.481 278.27C236.601 278.465 236.83 278.7 237.121 278.896C237.412 279.092 237.735 279.228 238.031 279.26C239.67 279.436 240.958 278.592 242.038 277.694C242.797 277.062 243.486 276.372 244.184 275.674C244.478 275.38 244.774 275.084 245.077 274.79L245.077 274.79C247.083 272.85 249.033 271.297 251.749 271.588L251.755 271.589L251.755 271.589C252.412 271.671 253.063 271.383 253.463 270.824L253.465 270.822C253.868 270.268 253.947 269.532 253.671 268.905L253.67 268.903C253.397 268.272 252.822 267.852 252.163 267.792L252.157 267.792C247.939 267.338 244.805 269.823 242.57 271.988L242.569 271.989C242.043 272.496 241.637 272.896 241.229 273.299C241.108 273.418 240.987 273.538 240.863 273.66L240.073 274.437L240.248 273.343C240.252 273.318 240.253 273.3 240.256 273.268L240.256 273.266C240.258 273.233 240.262 273.189 240.271 273.131L240.271 273.129C240.28 273.074 240.289 273.019 240.299 272.964C240.484 271.861 240.67 270.757 240.676 269.694L240.676 269.693C240.681 269.135 240.663 268.636 240.412 267.972C240.299 267.671 240.034 267.274 239.666 266.939C239.299 266.605 238.861 266.363 238.415 266.315C237.371 266.203 236.749 266.642 236.183 267.052C235.635 267.449 235.154 267.916 234.655 268.445L234.654 268.446C234.083 269.049 233.511 269.71 232.915 270.4C232.448 270.941 231.965 271.499 231.455 272.061C230.314 273.319 229.082 274.502 227.96 275.283L227.96 275.283C227.296 275.745 226.786 275.842 226.348 275.924C226.261 275.941 226.177 275.957 226.094 275.975L224.957 276.227L225.749 275.372C226.883 274.148 227.95 272.901 228.874 271.603L228.874 271.603C231.069 268.521 232.658 265.427 233.264 262.676L233.264 262.675C233.57 261.294 233.669 259.988 233.174 258.693C232.692 257.434 231.321 256.407 229.938 256.258C227.201 255.964 224.622 257.51 222.66 259.885C220.707 262.249 219.299 265.536 218.888 269.352C218.647 271.598 218.924 273.714 219.638 275.59L219.734 275.842L219.52 276.007C219.412 276.09 219.308 276.189 219.188 276.303C219.175 276.315 219.161 276.328 219.148 276.341C219.017 276.464 218.866 276.604 218.7 276.718M234.132 274.633C232.902 275.986 231.565 277.38 230.024 278.453C228.48 279.529 226.683 280.327 224.699 280.113C223.768 280.013 222.964 279.555 222.183 278.997L221.963 278.84L221.749 279.005C221.576 279.139 221.413 279.291 221.264 279.429C221.247 279.446 221.229 279.462 221.212 279.478C221.043 279.635 220.89 279.772 220.73 279.884L220.73 279.884C217.564 282.095 214.024 283.539 210.367 283.146C208.5 282.945 206.899 282.163 205.501 281.07L205.243 280.869L205.015 281.105C203.727 282.442 202.579 283.593 201.755 284.411C201.342 284.819 201.01 285.144 200.782 285.367C200.667 285.478 200.579 285.564 200.519 285.622L200.451 285.688L200.434 285.704L200.433 285.705C199.662 286.393 198.504 286.312 197.835 285.526C197.162 284.734 197.246 283.522 198.024 282.823L198.03 282.818L198.036 282.812L197.781 282.552L198.036 282.812L198.036 282.812L198.036 282.812L198.038 282.811L198.042 282.806L198.059 282.789L198.126 282.723C198.185 282.665 198.272 282.579 198.385 282.467C198.609 282.244 198.935 281.92 199.339 281.514C200.148 280.701 201.271 279.561 202.53 278.249L202.729 278.042L202.573 277.801C202.489 277.67 202.405 277.541 202.322 277.414C202.02 276.953 201.729 276.509 201.502 276.042C199.761 272.453 199.09 268.277 199.483 264.623C200.302 256.999 203.212 251.577 206.497 248.13C209.809 244.656 213.157 243.023 216.07 243.336C218.991 243.65 220.977 245.434 221.759 247.262C222.556 249.124 222.47 250.881 222.364 251.863C221.471 260.171 215.918 268.431 210.676 274.842C210.065 275.586 209.564 276.12 209.039 276.679C208.725 277.014 208.401 277.358 208.042 277.762L207.763 278.075L208.112 278.307C208.904 278.833 209.788 279.243 210.775 279.349C213.221 279.612 216.011 278.592 218.7 276.718M218.7 276.718C218.7 276.718 218.7 276.717 218.701 276.717L218.493 276.419M218.7 276.718C218.699 276.718 218.699 276.718 218.699 276.719L218.493 276.419M218.493 276.419C215.84 278.268 213.138 279.237 210.814 278.987C210.027 278.903 209.3 278.607 208.625 278.201M208.625 278.201C208.612 278.216 208.599 278.231 208.585 278.246L208.313 278.004L208.625 278.201ZM205.096 274.718L205.341 275.187L205.691 274.79C205.979 274.462 206.253 274.171 206.526 273.88C206.954 273.423 207.383 272.966 207.87 272.369C210.379 269.298 212.9 265.755 214.885 262.144C216.867 258.537 218.328 254.841 218.69 251.468C218.723 251.16 218.739 250.711 218.706 250.241C218.672 249.774 218.588 249.257 218.406 248.83C218.241 248.443 218.044 248.043 217.611 247.73C217.187 247.424 216.581 247.232 215.662 247.133C215.545 247.12 215.399 247.133 215.249 247.158C215.091 247.183 214.904 247.225 214.692 247.285C214.268 247.404 213.736 247.598 213.141 247.88C211.951 248.445 210.495 249.371 209.14 250.791C206.444 253.618 203.892 258.175 203.157 265.018C202.858 267.804 203.44 271.489 204.819 274.322L204.82 274.323C204.88 274.445 204.953 274.533 205.002 274.592L205.003 274.592C205.055 274.655 205.077 274.682 205.096 274.718ZM229.744 260.383L229.697 260.095L229.406 260.078C228.309 260.012 226.828 260.676 225.471 262.32L225.471 262.32C224.068 264.025 222.893 266.667 222.562 269.747C222.461 270.693 222.494 271.596 222.599 272.408L222.7 273.186L223.229 272.607C224.181 271.564 225.129 270.486 225.93 269.359C227.896 266.598 229.254 263.722 229.664 261.869C229.85 261.037 229.775 260.575 229.746 260.393L229.744 260.383Z" fill="#7B91A5" stroke="#F3F7FA" stroke-width="0.727903"/>
<path d="M200.064 148.921C200.064 151.943 199.018 154.461 196.926 156.475C194.873 158.451 192.161 159.593 188.791 159.903V165.133H186.06V159.961C182.845 159.806 180.094 159.012 177.809 157.579C175.562 156.146 173.993 154.189 173.102 151.71L175.775 150.199C177.17 154.422 180.598 156.688 186.06 156.998V139.74C184.239 139.12 182.787 138.558 181.702 138.055C180.656 137.551 179.552 136.873 178.39 136.021C177.228 135.169 176.376 134.142 175.833 132.941C175.291 131.702 175.02 130.249 175.02 128.583C175.02 125.639 176.066 123.199 178.158 121.262C180.249 119.325 182.884 118.26 186.06 118.066V112.836H188.791V118.066C191.154 118.337 193.227 119.092 195.009 120.332C196.829 121.572 198.185 123.257 199.076 125.387L196.461 126.84C195.106 123.47 192.549 121.552 188.791 121.087V137.59C190.186 138.094 191.348 138.539 192.278 138.926C193.207 139.314 194.215 139.837 195.299 140.495C196.384 141.154 197.236 141.851 197.856 142.587C198.476 143.285 198.999 144.176 199.425 145.26C199.851 146.345 200.064 147.565 200.064 148.921ZM178.099 128.583C178.099 130.675 178.758 132.302 180.075 133.464C181.392 134.588 183.387 135.634 186.06 136.602V121.029C183.697 121.223 181.78 122.017 180.307 123.412C178.835 124.806 178.099 126.53 178.099 128.583ZM188.791 156.882C191.348 156.611 193.343 155.758 194.776 154.325C196.21 152.853 196.926 151.052 196.926 148.921C196.926 146.79 196.248 145.125 194.893 143.924C193.537 142.723 191.503 141.638 188.791 140.67V156.882Z" fill="#17274E"/>
<rect x="170.771" y="183.117" width="60.3121" height="9.48729" fill="#D1E3EE"/>
<rect x="170.771" y="202.092" width="38.6268" height="9.48729" fill="#D1E3EE"/>
<rect x="170.938" y="291.824" width="105.129" height="9.05478" fill="#D1E3EE"/>
<rect x="199.789" y="337.373" width="45.119" height="11.9182" rx="5.95911" fill="#D1E3EE"/>
<g filter="url(#filter0_d)">
<rect x="250.735" y="206.836" width="77.2861" height="49.8797" rx="6.87346" fill="white"/>
</g>
<rect x="283.075" y="227.666" width="30.6952" height="6.57754" fill="#FF6847"/>
<circle cx="268.506" cy="231.479" r="6.96892" fill="#FF6847"/>
<g filter="url(#filter1_d)">
<rect x="160.605" y="29.2871" width="109.626" height="49.8797" rx="6.87346" fill="white"/>
</g>
<rect x="192.945" y="50.1152" width="63.0347" height="6.57754" fill="#7B91A5"/>
<circle cx="178.377" cy="53.9299" r="6.96892" fill="#7B91A5"/>
<g filter="url(#filter2_d)">
<rect x="283.263" y="337.625" width="59.746" height="49.8797" rx="6.87346" fill="white"/>
</g>
<rect x="315.603" y="358.455" width="15.8957" height="6.57754" fill="#FFBE16"/>
<circle cx="301.033" cy="362.27" r="6.96892" fill="#FFBE16"/>
<rect y="315.941" width="122.657" height="148.408" rx="15.5863" transform="rotate(-90 0 315.941)" fill="white"/>
<path d="M57.4547 224.752L41.5874 231.899C28.5791 237.76 23.7189 250.768 23.7189 265.063L23.7189 316.037L105.914 316.037C105.914 316.037 105.914 276.762 105.914 246.909C105.914 246.909 89.1891 227.897 78.611 226.038C79.1828 229.755 76.3238 232.9 72.6072 232.9L63.8873 232.9C60.8854 232.9 58.3124 230.756 57.8835 227.754L57.4547 224.752Z" fill="#F3F7FA"/>
<path d="M103.772 288.936C91.7639 277.929 89.7627 264.635 89.7627 264.635C89.7627 264.635 74.7531 227.183 82.3294 228.326C93.0505 230.042 103.915 244.623 113.921 255.344" fill="#F3F7FA"/>
<path d="M113.775 255.345C126.926 269.354 138.648 276.644 146.51 238.334L154.801 239.478C154.801 239.478 153.943 308.664 124.782 300.373C115.633 297.8 108.771 293.512 103.625 288.938L113.775 255.345Z" fill="#EAC7AC"/>
<path d="M54.3323 257.195C67.4835 271.204 79.2053 276.644 87.0674 238.334L95.3584 239.478C95.3584 239.478 94.5007 308.664 65.3393 300.373C56.1906 297.8 49.3291 293.512 44.183 288.938L54.3323 257.195Z" fill="#EAC7AC"/>
<path d="M154.803 239.762C154.803 239.762 155.374 236.475 159.377 233.473C160.378 232.758 160.806 231.614 160.52 230.471L159.234 225.468C158.948 223.895 157.519 222.752 155.946 222.752L151.515 222.752C151.515 222.752 148.737 210.38 147.178 223.108C145.463 237.117 146.512 238.333 146.512 238.333L154.803 239.762Z" fill="#EAC7AC"/>
<path d="M95.3572 239.762C95.3572 239.762 95.929 236.475 99.9316 233.473C100.932 232.758 101.361 231.614 101.075 230.471L99.7886 225.468C99.5027 223.895 98.0733 222.752 96.5008 222.752L92.0694 222.752C92.0694 222.752 89.2913 210.38 87.7329 223.108C86.0175 237.117 87.0663 238.333 87.0663 238.333L95.3572 239.762Z" fill="#EAC7AC"/>
<path d="M55.1101 200.407C55.9037 200.159 56.8559 200.531 57.6495 201.151L57.6495 195.819C57.6495 189.37 64.3156 184.162 72.5687 184.162C80.8219 184.162 82.1546 177.715 82.1546 184.163L87.0527 212.23C87.0527 213.594 86.5766 214.958 85.6243 216.074C83.561 218.431 81.5699 220.66 76.6953 220.862L75.5394 220.868L78.2375 227.648C78.7137 230.128 72.8862 232.36 69.5531 232.36L62.5697 232.36C59.5541 232.36 57.1734 230.376 57.1734 228.144L57.6495 215.659L57.6495 211.691C56.3798 210.823 55.1101 209.211 54.3165 207.227C52.8881 203.879 53.2055 200.779 55.1101 200.407Z" fill="#EAC7AC"/>
<path d="M83.7381 212.97C83.8759 212.97 84.0138 212.823 84.0138 212.675C84.0138 212.528 83.8759 212.38 83.7381 212.38C83.3247 212.38 79.6036 212.233 78.3632 208.697C78.3632 208.549 78.0876 208.402 77.9498 208.549C77.812 208.549 77.6741 208.844 77.812 208.991C79.1901 212.97 83.7381 212.97 83.7381 212.97Z" fill="#955524"/>
<path d="M89.9623 202.277L82.4184 189.386L85.3008 207.329L88.9402 205.597C90.1879 205.004 90.6602 203.469 89.9623 202.277Z" fill="#EAC7AC"/>
<path d="M79.3414 226.202C81.8492 232.965 60.1151 241.229 53.4277 226.202C60.9511 224.199 68.8923 222.947 79.3414 226.202Z" fill="#EAC7AC"/>
<path d="M65.465 196.091C65.7479 194.199 67.4882 192.911 69.3805 193.194C70.7052 193.392 72.2473 193.43 73.8744 192.899C80.9504 190.862 89.68 184.235 89.222 175.654C89.222 175.654 88.9639 169.618 80.5455 174.163C79.9212 174.457 79.7603 174.239 79.656 173.643C79.939 171.751 77.838 170.276 76.3152 171.402C70.2809 175.53 64.8832 185.75 57.4448 181.156C48.2555 175.332 51.5463 214.13 57.715 214.279C62.3132 214.579 64.692 202.553 65.465 196.091Z" fill="#FAAE6B"/>
<defs>
<filter id="filter0_d" x="238.952" y="200.944" width="100.852" height="73.4458" filterUnits="userSpaceOnUse" color-interpolation-filters="sRGB">
<feFlood flood-opacity="0" result="BackgroundImageFix"/>
<feColorMatrix in="SourceAlpha" type="matrix" values="0 0 0 0 0 0 0 0 0 0 0 0 0 0 0 0 0 0 127 0" result="hardAlpha"/>
<feOffset dy="5.89154"/>
<feGaussianBlur stdDeviation="5.89154"/>
<feColorMatrix type="matrix" values="0 0 0 0 0.0764236 0 0 0 0 0.165046 0 0 0 0 0.591667 0 0 0 0.1 0"/>
<feBlend mode="normal" in2="BackgroundImageFix" result="effect1_dropShadow"/>
<feBlend mode="normal" in="SourceGraphic" in2="effect1_dropShadow" result="shape"/>
</filter>
<filter id="filter1_d" x="148.822" y="23.3956" width="133.192" height="73.4458" filterUnits="userSpaceOnUse" color-interpolation-filters="sRGB">
<feFlood flood-opacity="0" result="BackgroundImageFix"/>
<feColorMatrix in="SourceAlpha" type="matrix" values="0 0 0 0 0 0 0 0 0 0 0 0 0 0 0 0 0 0 127 0" result="hardAlpha"/>
<feOffset dy="5.89154"/>
<feGaussianBlur stdDeviation="5.89154"/>
<feColorMatrix type="matrix" values="0 0 0 0 0.0764236 0 0 0 0 0.165046 0 0 0 0 0.591667 0 0 0 0.1 0"/>
<feBlend mode="normal" in2="BackgroundImageFix" result="effect1_dropShadow"/>
<feBlend mode="normal" in="SourceGraphic" in2="effect1_dropShadow" result="shape"/>
</filter>
<filter id="filter2_d" x="271.48" y="331.733" width="83.3121" height="73.4458" filterUnits="userSpaceOnUse" color-interpolation-filters="sRGB">
<feFlood flood-opacity="0" result="BackgroundImageFix"/>
<feColorMatrix in="SourceAlpha" type="matrix" values="0 0 0 0 0 0 0 0 0 0 0 0 0 0 0 0 0 0 127 0" result="hardAlpha"/>
<feOffset dy="5.89154"/>
<feGaussianBlur stdDeviation="5.89154"/>
<feColorMatrix type="matrix" values="0 0 0 0 0.0764236 0 0 0 0 0.165046 0 0 0 0 0.591667 0 0 0 0.1 0"/>
<feBlend mode="normal" in2="BackgroundImageFix" result="effect1_dropShadow"/>
<feBlend mode="normal" in="SourceGraphic" in2="effect1_dropShadow" result="shape"/>
</filter>
</defs>
</svg>
