<svg width="348" height="284" viewBox="0 0 348 284" fill="none" xmlns="http://www.w3.org/2000/svg">
<rect x="261.804" y="43.7969" width="46.2016" height="67.3773" rx="7.922" fill="#F8FAFC"/>
<rect x="125.938" y="52.6777" width="41.3889" height="48.1266" rx="7.922" fill="#F8FAFC"/>
<rect x="145.619" y="77.5801" width="143.512" height="205.982" rx="6.94798" fill="#FFC01E"/>
<rect width="159.843" height="116.335" rx="8.13976" transform="matrix(-1 0 0 1 160.571 26)" fill="#E6F1F5"/>
<path d="M160.571 35.0851C160.571 30.5896 156.927 26.9453 152.432 26.9453H8.86848C4.37303 26.9453 0.728745 30.5896 0.728745 35.0851V46.8074H160.571V35.0851Z" fill="#7B91A5"/>
<circle r="3.48847" transform="matrix(-1 0 0 1 38.2215 38.0002)" fill="#E6F1F5"/>
<circle r="3.48847" transform="matrix(-1 0 0 1 27.0594 38.0002)" fill="#E6F1F5"/>
<circle r="3.48847" transform="matrix(-1 0 0 1 15.8963 38.0002)" fill="#E6F1F5"/>
<path d="M87.4874 100.359L75.6024 100.359C75.6024 100.359 76.7676 91.7947 76.6407 88.6258C76.5138 85.457 88.1402 84.7377 86.4491 88.6257C84.7581 92.5137 87.4874 100.359 87.4874 100.359Z" fill="#D1E3EE"/>
<path d="M72.1017 71.946C72.1017 71.946 70.3424 90.2906 81.3175 90.2906L88.9597 88.6374C95.494 85.7333 91.8638 66.8565 91.8638 66.8565C91.6125 63.3327 92.3487 62.6182 89.5002 62.4109C84.9761 62.1 79.6419 62.3073 75.1178 65.3129C73.1071 66.6603 71.9342 69.2513 72.1017 71.946Z" fill="#D1E3EE"/>
<path d="M91.2768 83.3651L85.9766 81.9824C85.9766 81.9824 87.1288 88.4349 91.2768 83.3651Z" fill="#7B91A5"/>
<path d="M95.5774 79.9061L91.5254 68.5605V81.8019H94.2413C95.2224 81.8019 95.9073 80.83 95.5774 79.9061Z" fill="#D1E3EE"/>
<path d="M73.1289 81.7245C73.1289 81.7245 81.0068 79.1126 79.1432 68.3515C77.2796 57.5903 87.614 74.0977 95.746 68.3515C103.878 62.6052 100.49 58.8441 97.0166 60.0978C93.5436 61.3515 95.4071 61.0381 91.68 58.0082C87.9528 54.9784 82.9551 54.456 79.0585 60.7247C75.1619 66.9933 73.2983 59.7844 71.3501 62.7097C69.4018 65.6351 68.7241 80.2619 73.1289 81.7245Z" fill="#7B91A5"/>
<path d="M40.3496 142.759L54.1594 109.117C58.3128 102.471 65.6849 98.4219 73.4724 98.4219H90.3972C98.7039 98.4219 106.388 102.991 110.437 110.259L121.651 142.447L40.3496 142.759Z" fill="#7B91A5"/>
<path d="M68.5928 99.1487C68.5928 99.1487 73.9922 137.982 56.7559 142.862L112.514 142.655C112.514 142.655 92.2668 109.947 97.5623 99.6679C97.5623 99.6679 95.278 98.5257 88.1135 98.4219L85.2061 107.975C84.9985 109.844 82.6103 110.57 81.4681 109.013L73.7845 98.5257L68.5928 99.1487Z" fill="#D1E3EE"/>
<path d="M85.9321 99.0433H76.5872C75.9642 99.0433 75.5488 98.5241 75.5488 98.0049V95.5129C75.5488 94.8899 76.068 94.4746 76.5872 94.4746H85.9321C86.5551 94.4746 86.9705 94.9938 86.9705 95.5129V98.0049C86.9705 98.6279 86.5551 99.0433 85.9321 99.0433Z" fill="#7B91A5"/>
<circle cx="57.1712" cy="130.416" r="8.41049" fill="white"/>
<circle cx="81.0003" cy="130.416" r="8.41049" fill="white"/>
<circle cx="104.829" cy="130.416" r="8.41049" fill="#FF6847"/>
<rect x="265.938" width="81.5359" height="92.1982" rx="5.97395" fill="#FF6847"/>
<path d="M338.947 93.0262L335.267 69.7342C333.906 61.0981 330.843 50.9092 322.845 47.3357C318.336 45.3149 313.677 43.9961 313.677 43.9961C313.677 43.9961 312.486 48.6332 306.721 50.1435C301.042 51.6325 301.042 44.6768 301.042 44.6768C301.042 44.6768 301.021 44.698 300.978 44.7619C296.809 49.5904 292.619 58.7796 290.364 64.7568C284.217 81.093 282.047 93.0262 282.047 93.0262L338.947 93.0262Z" fill="white"/>
<path d="M298.681 30.2961L298.042 29.3389C297.851 29.0411 297.851 28.6582 298.064 28.3604L301.999 22.915L303.807 18.916L316.038 24.4465L314.528 27.7648C315.123 27.2756 315.868 27.1054 316.485 27.3819C317.463 27.8286 317.825 29.2113 317.25 30.4875C316.889 31.3171 316.208 31.8914 315.527 32.0616L313.719 45.4837C313.719 45.4837 309.486 52.1629 303.403 50.8015C301.871 50.4612 300.659 49.2487 300.425 47.6959C300.297 46.8451 300.361 45.7603 300.829 44.3776L303.956 43.0588L304.02 40.8891L302.701 39.9532C298.936 38.2515 297.234 33.8909 298.787 30.1047L298.681 30.2961Z" fill="#D0B9A7"/>
<path d="M312.783 31.2549C313.017 32.9354 310.847 29.3405 310.847 29.3405C310.273 27.7027 311.507 26.7667 311.507 26.7667C310.805 26.5327 311.336 25.0012 311.336 25.0012C311.336 25.0012 310.188 24.9374 310.188 23.8738C310.188 23.8738 306.997 24.044 306.125 21.0022C306.125 21.0022 300.807 25.0438 298.404 18.6199C296 12.196 302.169 13.6637 302.169 13.6637C302.169 13.6637 304.913 9.81358 307.954 13.536C307.954 13.536 310.635 11.026 312.804 14.7698C312.804 14.7698 317.888 11.4302 319.909 17.3436C319.909 17.3436 324.631 18.7262 322.164 25.1714C322.164 25.1714 324.291 28.4259 320.845 29.9149C320.845 29.9149 320.93 32.2334 318.93 32.2121C318.93 32.2121 317.845 38.5297 314.634 34.9774L315.527 32.0632C315.527 32.0632 317.76 31.0848 317.441 29.0002C317.186 27.256 316.08 27.2347 314.548 27.7665C314.527 27.7877 312.336 28.1919 312.783 31.2549Z" fill="#17274E"/>
<path d="M299 45.5676L304.892 45.5676L304.807 45.4187C304.212 44.3338 303.978 43.0788 304.233 41.8664C304.403 41.0155 304.828 40.1434 305.743 39.6329C305.977 39.5053 306.062 39.2075 305.934 38.9522C305.807 38.7182 305.53 38.6331 305.296 38.7395L303.552 39.484C302.85 39.7818 302.042 39.6116 301.51 39.0586C300.659 38.1439 299.979 37.0804 299.511 35.9104L299.234 35.2298L299.128 33.1239C299 32.8261 298.681 32.6559 298.362 32.7623C298.043 32.8687 297.851 33.209 297.937 33.5281L297.83 35.5701L298.468 38.0376C298.575 38.4417 298.468 38.8671 298.17 39.1862C297.192 40.2285 296.979 41.7813 297.66 43.0576L298.958 45.4612L299 45.5676Z" fill="#E4CFBD"/>
<path d="M319.441 65.4804C319.441 65.4804 316.186 73.9889 311.996 65.4804L304.806 45.4004L298.999 45.4217C298.999 45.4217 299.531 62.1195 299.871 67.6926C300.211 73.2231 301.509 86.8154 313.123 85.454C324.737 84.114 328.077 77.4986 328.077 77.4986L319.441 65.4804Z" fill="#E4CFBD"/>
<path d="M300.255 33.2862C302.197 34.063 302.974 32.1211 302.974 32.1211" stroke="#F7E2D2" stroke-width="0.582565" stroke-linecap="round"/>
<path d="M259.245 93.0288L317.507 93.0288C317.507 91.9227 316.614 91.0293 315.507 91.0293L259.245 91.0293L259.245 93.0288Z" fill="#7B91A5"/>
<path d="M300.191 91.1337L290.981 63.9917C290.811 63.5025 290.385 63.1621 289.896 63.1621L251.417 63.1621C250.608 63.1621 250.055 64.0555 250.332 64.8851L259.244 91.1337L300.191 91.1337Z" fill="#D1E3EE"/>
<path d="M275.513 80.525C276.864 80.2698 277.676 78.5656 277.327 76.7187C276.978 74.8718 275.6 73.5814 274.249 73.8367C272.899 74.0919 272.087 75.7961 272.436 77.643C272.785 79.4899 274.163 80.7803 275.513 80.525Z" fill="white"/>
<path d="M179.929 161.702C180.513 159.366 181.097 159.074 179.929 154.695C177.593 145.06 176.814 130.372 171.851 121.904C172.143 118.401 174.248 114.46 176 113C187.971 100.737 200.075 100.68 200.075 100.68C200.075 100.68 202.411 107.979 218.761 102.724L224.893 103.307C237.74 104.767 256.426 112.651 264.601 132.505L274.236 161.702L236.28 154.111V147.687L211.17 148.563C208.25 148.563 205.623 150.899 205.623 154.111V161.41H179.929V161.702Z" fill="#D6D6D6"/>
<path d="M128 141.555C123.912 138.343 140.221 141.555 140.221 141.555C140.221 141.555 144.6 142.431 156.279 157.029C163.286 165.789 166.79 164.037 168.25 161.117C172.338 153.526 168.542 143.891 170.002 130.46C170.002 130.168 170.002 129.584 170.002 129C172.338 136.883 178.469 147.033 179.929 155.5C180.805 159.88 180.221 160.241 179.929 161.993C179.929 161.993 179.053 163.453 178.177 164.621C160.367 210.169 145.768 165.789 141.68 150.898C140.805 148.27 138.469 146.518 135.841 146.518C134.089 146.518 132.337 146.518 130.585 146.518C126.498 146.226 120.5 144.46 120.5 143C120.5 141.54 132 143.5 128 141.555Z" fill="#955524"/>
<path d="M233.067 185.939C233.067 185.939 245.33 220.392 238.615 253.969H157.446C157.446 253.969 152.775 201.997 179.928 161.705H205.914H224.6L233.067 185.939Z" fill="white"/>
<path d="M162.411 283.752C158.907 269.153 156.863 258.058 157.447 253.971H187.521C187.521 253.971 188.689 265.942 190.44 283.752H162.411Z" fill="#805130"/>
<path d="M187.812 283.752C185.768 265.942 184.6 253.971 184.6 253.971H238.323C236.863 258.058 233.068 267.985 229.272 283.752H187.812Z" fill="#955524"/>
<path d="M172 120L166.499 145.938L179.93 154.989C179.93 154.697 179.007 126.131 172 120Z" fill="#D6D6D6"/>
<path d="M186.937 76.7353C188.397 75.5674 189.564 70.6038 190.44 67.9761C190.732 66.8082 191.024 65.6403 191.316 64.7644C194.236 55.4212 199.783 51.9176 212.046 53.9614L219.054 54.8373V65.9323L216.718 104.181C216.718 104.181 204.455 110.02 200.075 101.261L203.871 91.9179C204.455 90.75 203.287 89.5821 202.119 89.8741C197.156 91.3339 187.813 92.2099 188.688 79.655C186.645 79.363 186.061 77.3192 186.937 76.7353Z" fill="#955524"/>
<path d="M214.09 53.119C220.221 54.5789 224.601 56.6227 225.769 62.4621C227.229 70.9294 229.565 78.5207 237.74 85.236C247.959 93.7033 262.266 105.966 262.558 121.149C262.558 133.12 252.631 136.331 250.587 136.915C220.221 144.215 213.506 112.974 211.754 106.842C209.127 98.0829 211.17 81.7324 213.214 72.9732L213.798 70.9294C214.09 69.4695 212.922 68.3016 211.462 68.5936C192.776 71.5133 196.28 56.6227 196.572 55.1628C196.572 55.1628 196.572 55.1628 196.572 54.8708C196.864 51.6591 200.075 49.3233 203.579 50.1993L214.09 53.119Z" fill="#17274E"/>
<path d="M197.447 57.2088C197.447 57.2088 193.943 58.3767 191.607 65.0921C191.607 65.0921 188.979 47.8657 203.286 50.4934L197.447 57.2088Z" fill="#17274E"/>
<path d="M190.732 81.4022L197.447 79.6504C197.447 79.6504 195.987 87.8256 190.732 81.4022Z" fill="#D0B9A7"/>
<rect width="56.8647" height="45.849" rx="1.21165" transform="matrix(-1 0 0 1 255.637 146.488)" fill="#7B91A5"/>
<path d="M229.269 146.488C229.269 146.488 244.006 158.025 238.572 165.989C230.236 176.56 205.797 179.312 205.185 179.006C204.574 178.7 198.156 174.114 198.767 176.56C199.378 179.006 201.518 181.452 201.518 181.452L198.767 180.48C198.767 180.48 197.866 180.285 197.544 181.452C197.223 182.619 197.239 188.179 200.601 189.402C203.963 190.625 254.243 193.48 261.571 158.878L229.269 146.488Z" fill="#955524"/>
<path d="M229.571 152.741L263.517 158.994L261.73 143.808L229.571 139.342V152.741Z" fill="#D6D6D6"/>
</svg>
