<svg width="432" height="417" viewBox="0 0 432 417" fill="none" xmlns="http://www.w3.org/2000/svg">
<rect x="337.25" y="77.7812" width="70.2368" height="70.2368" rx="12.5815" fill="#FF6847"/>
<rect x="333.558" y="206.082" width="97.5068" height="171.423" rx="12.5815" fill="#F3F7FA"/>
<rect y="449.297" width="124.135" height="252.6" rx="12.5815" transform="rotate(-90 0 449.297)" fill="#FF6847"/>
<rect x="130.187" y="186.35" width="186.349" height="104.106" rx="15.7269" transform="rotate(-90 130.187 186.35)" fill="#F3F7FA"/>
<path d="M428.515 447.582L337.954 339.369C372.183 306.829 393.519 260.934 393.519 209.974C393.519 111.585 313.395 31.4609 215.005 31.4609C116.616 31.4609 36.4922 111.585 36.4922 209.974C36.4922 308.364 116.616 388.487 215.005 388.487C248.774 388.487 280.394 379.124 307.409 362.7L399.658 472.755C403.189 476.9 409.482 477.207 413.473 473.676L427.594 461.397C431.585 457.866 432.045 451.727 428.515 447.582ZM59.5162 209.974C59.5162 124.171 129.202 54.485 215.005 54.485C300.808 54.485 370.494 124.171 370.494 209.974C370.494 295.777 300.808 365.463 215.005 365.463C129.202 365.463 59.5162 295.777 59.5162 209.974Z" fill="#17274E"/>
<mask id="mask0" style="mask-type:alpha" maskUnits="userSpaceOnUse" x="57" y="51" width="316" height="316">
<circle cx="215.096" cy="208.732" r="157.72" fill="#C4C4C4"/>
</mask>
<g mask="url(#mask0)">
<path d="M172.485 192.181C193.056 186.601 205.819 167.652 200.992 149.858C196.165 132.063 175.576 122.162 155.005 127.742C134.434 133.322 121.671 152.271 126.498 170.066C131.325 187.86 151.914 197.762 172.485 192.181Z" fill="#FFC01E"/>
<path d="M188.944 311.076C188.944 311.076 184.365 374.187 240.507 372.594C304.414 370.603 311.382 475.522 311.382 475.522L319.744 478.11L332.485 363.038C336.268 344.125 324.721 325.41 306.007 320.632L268.778 311.275H188.944" fill="#D6D6D6"/>
<path d="M217.413 183.462L170.428 185.452C152.311 186.249 142.556 192.62 137.977 207.551C136.584 212.13 135.986 216.908 135.986 221.885V279.024L171.225 256.527V311.077H268.578L248.272 227.659V212.927C248.272 196.004 234.335 182.665 217.413 183.462Z" fill="white"/>
<path d="M145.742 311.076C145.742 311.076 143.552 371.997 199.496 377.969C255.439 383.942 252.254 500.209 252.254 500.209L259.819 505.584L289.085 362.839C292.868 343.926 281.32 325.211 262.606 320.433L225.775 311.076H145.742Z" fill="#EAECED"/>
<path d="M225.377 184.056C225.377 184.056 219.205 226.262 173.415 185.25L184.166 184.653C184.166 184.653 186.356 183.857 196.708 176.689L225.377 184.056Z" fill="#F1CFB2"/>
<path d="M253.049 208.746H299.835C303.02 208.746 305.21 211.732 304.215 214.719L278.931 290.77C278.333 292.562 276.542 293.955 274.551 293.955H223.983C220.797 293.955 218.607 290.77 219.603 287.784L248.47 211.732C249.466 209.941 251.059 208.746 253.049 208.746Z" fill="#FF6847"/>
<path d="M190.242 182.712L206.106 144.355L231.914 143.408C233.572 138.909 234.992 135.121 234.992 135.121C234.992 135.121 237.834 138.909 236.65 145.539C236.176 147.67 234.755 151.222 234.045 152.642C232.151 157.141 230.73 162.587 232.151 165.902C234.045 170.163 228.599 168.98 225.995 168.033L225.285 169.69C222.443 175.136 216.05 177.267 210.605 174.899C210.605 174.899 210.368 174.899 210.368 175.136V189.816L190.242 182.712Z" fill="#F1CFB2"/>
<path d="M171.225 256.526V266.679C171.225 272.453 177.397 276.235 182.573 273.448L225.576 251.15L229.757 262.498C229.757 262.498 142.357 372.793 136.186 278.824L171.225 256.526Z" fill="#F1CFB2"/>
<path d="M225.376 251.154L237.719 241.398L234.335 250.158C234.335 250.158 239.71 253.145 249.466 251.353C259.221 249.561 247.475 258.321 243.493 258.122L259.022 260.113C260.614 260.312 261.411 262.303 260.216 263.696C257.23 266.882 251.257 270.863 242.497 267.678C229.358 262.701 229.358 262.701 229.358 262.701L225.376 251.154Z" fill="#F1CFB2"/>
<path d="M298.696 232.466L293.643 241.983C293.643 241.983 292.833 243.768 294.611 245.574C294.611 245.574 290.207 248.526 292.574 251.332L288.358 255.877C288.358 255.877 290.127 258.679 300.127 252.984C307.927 248.466 306.383 242.282 303.833 237.484C302.657 235.085 300.878 233.479 298.696 232.466Z" fill="#F1CFB2"/>
<path d="M237.123 144.118C239.491 143.171 241.149 141.277 242.332 138.909L244.227 134.884C245.647 132.043 244.227 128.491 241.385 127.308L226.232 120.915C213.209 115.469 198.056 119.731 190.006 130.859L188.585 132.99L197.819 164.481L206.58 144.592C206.343 144.592 223.391 150.038 237.123 144.118Z" fill="#FFC01E"/>
<path d="M188.218 146.965L191.753 149.346L201.805 134.421L198.27 132.04L188.218 146.965Z" fill="white"/>
<path d="M223.627 169.686C223.864 169.686 224.101 169.449 224.101 169.212C224.101 168.975 223.864 168.739 223.627 168.739C222.917 168.739 216.524 168.502 214.393 162.819C214.393 162.582 213.919 162.346 213.683 162.582C213.446 162.582 213.209 163.056 213.446 163.293C215.813 169.686 223.627 169.686 223.627 169.686Z" fill="#926F56"/>
</g>
</svg>
