<svg width="332" height="273" viewBox="0 0 332 273" fill="none" xmlns="http://www.w3.org/2000/svg">
<rect x="133" y="63" width="48" height="63" rx="7.71971" transform="rotate(-180 133 63)" fill="#F2684B"/>
<rect x="6.04004" y="40.5918" width="94.2934" height="184.56" rx="5.74501" fill="#FFC01E"/>
<path d="M158.961 130.629L148.914 135.318L143.928 135.02C143.63 135.02 143.556 134.648 143.779 134.425L149.435 130.555H143.779L135.444 134.722C129.49 137.252 129.3 139.113 128.597 143.355L126.514 155.783L137.974 154.741L139.463 140.973C139.314 139.932 140.207 139.113 141.174 139.262L147.947 139.708C149.435 140.006 150.998 139.634 152.263 138.815L164.617 130.555H158.961V130.629Z" fill="#F7E2D2"/>
<path d="M40.335 156.379C36.4652 171.263 44.5769 167.617 30.6604 183.245C27.4603 186.817 1.41332 210.185 19.3485 217.404C49.3398 229.46 10.1205 205.794 10.3437 217.404C10.3437 227.153 34.5302 223.655 34.5302 223.655C34.5302 223.655 53.2097 223.432 72.4845 223.655C88.4104 223.878 84.3173 223.655 80.1497 222.167C80.5962 218.594 80.373 215.469 79.1823 213.162C78.5869 212.046 78.2148 211.004 77.9171 209.962C78.4381 208.325 79.5544 206.613 81.1916 204.901C87.2196 198.799 93.0988 191.282 84.3173 183.468C80.2986 179.822 62.5122 168.51 65.9355 150.054C65.9355 149.979 43.7583 142.984 40.335 156.379Z" fill="#F2684B"/>
<path d="M63.2574 225.217C49.7873 225.217 27.6846 225.217 27.6846 225.217C30.3637 212.863 35.3498 203.263 48.8943 198.574L54.9223 196.342C54.9223 196.342 56.9317 204.081 66.5318 206.612C75.9832 209.142 76.4297 197.086 76.4297 197.086C76.4297 197.086 92.8021 204.379 95.7789 214.128C97.4906 217.552 99.2767 222.091 100.616 225.291C101.956 225.217 77.4716 225.217 63.2574 225.217Z" fill="#D7D6D6"/>
<path d="M81.1175 171.786L80.0012 173.423L79.8523 173.2C82.3826 179.526 70.6242 187.861 70.6242 187.861L71.2196 194.856L76.5034 197.089C77.2476 199.321 77.322 201.182 77.1732 202.596C76.7267 205.201 74.7173 207.21 72.1871 207.805C61.9915 210.038 54.996 198.875 54.996 198.875L53.582 169.256L51.0518 163.674L67.9451 148.344C67.9451 148.344 73.2289 155.711 74.4197 161.07C75.6104 166.502 81.043 170.149 81.043 170.149C81.4151 170.67 81.4151 171.34 81.1175 171.786Z" fill="#F7E2D2"/>
<path d="M78.6615 175.728C75.908 177.812 73.8242 175.059 73.8242 175.059" stroke="#926F56" stroke-width="1.31657" stroke-linecap="round"/>
<path d="M40.3355 170.448L51.1265 167.694L68.6896 163.229L65.1174 152.736C64.8942 152.066 65.5639 151.694 65.936 152.289L70.9966 162.782L76.2804 161.294C77.0246 161.145 77.2479 160.103 76.8758 159.21C73.8246 153.033 62.8104 140.903 51.052 143.359C34.6052 151.322 40.3355 170.448 40.3355 170.448Z" fill="#F2684B"/>
<path d="M54.3262 196.865C69.6568 191.805 59.3124 174.539 52.2425 166.502L34.084 209.07C37.2096 205.647 38.9957 201.926 54.3262 196.865Z" fill="#F2684B"/>
<path d="M57.1544 225.146L50.9031 197.908C34.4563 200.959 28.205 217.332 27.1631 225.146H57.1544Z" fill="white"/>
<path d="M83.0529 225.222L78.6621 198.133C92.0577 201.035 98.9788 217.631 100.542 225.222H83.0529Z" fill="white"/>
<path d="M84.6895 200.808L109.025 185.106L120.858 151.766L150.105 148.045L125.546 203.711L100.69 225.218L84.6895 200.808Z" fill="white"/>
<path d="M51.3496 124.898L61.0986 119.019C63.3312 117.828 64.2987 114.256 64.9685 111.874L66.4569 106.442C67.1267 104.06 68.9872 102.2 71.3686 101.53L80.5223 99.0742C80.5223 99.0742 82.7549 104.432 73.6012 106.591V124.228L54.7729 133.68L51.3496 124.898Z" fill="#F7E2D2"/>
<path d="M69.5078 102.5C69.5078 102.5 69.9543 89.9972 73.6009 88.8809V101.904L69.5078 102.5Z" fill="#F7E2D2"/>
<path d="M50.8289 197.907L31.182 170.446L60.4291 135.544L36.8379 108.604L0 170.446L27.7587 225.219L50.8289 197.907Z" fill="white"/>
<rect x="232.632" y="98.9746" width="93.7846" height="151.752" rx="5.74485" fill="#F2684B"/>
<path d="M265.536 198.746L257.399 202.055C256.862 202.323 256.326 202.591 255.789 202.86C243.001 209.298 233.791 221.281 230.214 235.231L227.263 246.767L260.35 244.352L265.536 198.746Z" fill="white"/>
<path d="M251.406 242.924L256.861 265.548H306.849L305.687 242.387L329.831 241.135L320.263 215.65C316.686 205.992 309.174 199.285 300.411 197.854L278.949 196.334L262.584 200.537L251.406 242.924Z" fill="white"/>
<path d="M257.576 168.521L256.413 166.464C256.055 165.838 256.145 165.033 256.592 164.497L265.266 154.124L269.469 146.344L293.256 159.131L289.768 165.659C291.02 164.765 292.54 164.497 293.792 165.123C295.76 166.106 296.207 168.968 294.865 171.472C293.971 173.082 292.63 174.155 291.199 174.423L285.744 201.161C285.744 201.161 276.355 214.038 264.282 210.461C261.242 209.567 259.006 206.973 258.738 203.843C258.649 203.217 258.649 202.502 258.738 201.697C258.917 200.356 267.502 200.088 268.217 198.389L266.429 194.901L266.786 188.194L264.104 186.853C256.771 182.918 254.177 175.585 257.844 168.163L257.576 168.521Z" fill="#D0B9A7"/>
<path d="M285.746 172.276C286.015 175.674 282.169 168.162 282.169 168.162C281.186 164.764 283.868 163.065 283.868 163.065C282.438 162.439 283.779 159.488 283.779 159.488C283.779 159.488 281.454 159.22 281.633 157.073C281.633 157.073 275.194 156.984 273.853 150.724C273.853 150.724 262.586 158.147 258.651 144.912C254.716 131.677 266.878 135.522 266.878 135.522C266.878 135.522 272.959 128.1 278.503 136.059C278.503 136.059 284.226 131.409 288.071 139.189C288.071 139.189 298.713 133.108 302.022 145.359C302.022 145.359 311.322 148.846 305.509 161.366C305.509 161.366 309.354 168.252 302.2 170.755C302.2 170.755 302.022 175.405 297.997 175.137C297.997 175.137 294.957 187.657 288.966 180.145L291.201 174.422C291.201 174.422 295.851 172.723 295.494 168.52C295.225 164.943 292.99 164.764 289.86 165.658C289.77 165.569 285.299 166.105 285.746 172.276Z" fill="#17274E"/>
<path d="M227.262 246.765L225.562 257.496C226.814 266.17 235.22 271.894 243.716 269.926L284.314 257.854L280.29 242.562L251.495 243.188L227.262 246.765Z" fill="#D0B9A7"/>
<path d="M279.485 250.702L262.853 204.828L274.746 201.787L303.809 246.32L279.485 250.702Z" fill="#E4CFBD"/>
<path d="M262.852 204.827L258.47 199.551C256.056 196.868 255.519 192.933 257.308 189.803C257.844 188.909 257.934 187.747 257.397 186.763L254.357 181.129L253.373 176.121C252.926 175.317 253.194 174.512 253.909 173.975C254.625 173.618 255.519 173.796 256.056 174.422L257.576 179.52L258.649 181.04C260.437 183.544 262.852 185.779 265.445 187.478C266.965 188.462 269.201 188.462 270.632 187.299L274.388 184.348C275.014 183.991 275.729 183.991 276.087 184.527C276.534 185.153 276.534 185.869 275.997 186.316C274.119 188.104 273.672 190.519 273.672 192.665C273.762 195.795 272.42 199.461 274.566 201.697L275.103 202.502L263.12 205.184L262.852 204.827Z" fill="#E4CFBD"/>
<path d="M303.272 244.8L316.328 242.386L331.351 241.402C331.351 241.402 304.614 303.552 279.485 250.702L303.272 244.8Z" fill="#E4CFBD"/>
<path d="M299.069 239.162L320.173 235.406C324.198 235.138 328.132 237.374 330.457 241.308L331.262 242.65C331.799 243.633 331.709 244.885 330.904 245.601L330.815 245.69C330.01 246.406 328.848 246.137 328.4 245.064L326.612 241.308L328.758 250.519C329.026 251.682 328.848 252.934 328.222 253.828L326.701 256.063C324.913 258.746 321.247 258.031 320.263 254.811L319.637 252.844C318.474 249.267 315.881 246.763 312.662 246.227L302.467 244.796L299.069 239.162Z" fill="#D0B9A7"/>
<path d="M258.843 171.247C258.716 171.038 258.85 170.762 259.093 170.741L266.298 170.112C266.542 170.091 266.723 170.323 266.625 170.548C265.86 172.304 262.911 177.925 258.843 171.247Z" fill="#F7E2D2"/>
<path d="M164.225 130.754L73.7812 130.754L73.7812 49.235C73.7812 36.9553 83.7359 27.0006 96.0156 27.0006L164.225 27.0006L164.225 130.754Z" fill="#E2EDF4"/>
<path d="M254.668 130.754L164.225 130.754L164.225 27.0006L232.434 27.0006C244.713 27.0006 254.668 36.9553 254.668 49.235L254.668 130.754Z" fill="#D1E3EE"/>
<ellipse cx="164.81" cy="84.6605" rx="21.1043" ry="21.2809" transform="rotate(180 164.81 84.6605)" fill="#D1E3EE"/>
<path d="M90.6472 128.868L73.7813 147.703L73.7813 128.868L90.6472 128.868Z" fill="#E2EDF4"/>
<path d="M237.679 128.868L254.545 147.703L254.545 128.868L237.679 128.868Z" fill="#D1E3EE"/>
</svg>
