<svg width="323" height="224" viewBox="0 0 323 224" fill="none" xmlns="http://www.w3.org/2000/svg">
<rect x="15.249" width="68.3467" height="117.523" rx="8.29679" fill="#FF6847"/>
<rect x="274.515" y="160.643" width="47.7345" height="50.5424" rx="9.3597" fill="#FFC01E"/>
<g filter="url(#filter0_d)">
<rect x="49.1016" y="23" width="249.429" height="177.834" rx="17.3215" fill="#F8FCFF"/>
<line x1="90.4731" y1="51.9448" x2="90.4731" y2="171.338" stroke="#D1E3EE" stroke-width="1.66699" stroke-linecap="round"/>
<line x1="120.045" y1="51.9448" x2="120.045" y2="171.338" stroke="#D1E3EE" stroke-width="1.66699" stroke-linecap="round"/>
<line x1="149.617" y1="51.9448" x2="149.617" y2="171.338" stroke="#D1E3EE" stroke-width="1.66699" stroke-linecap="round"/>
<rect x="80.3975" y="45.5645" width="19.4066" height="10.1653" rx="5.08267" fill="#7B91A5"/>
<rect x="109.97" y="150.914" width="19.4066" height="10.1653" rx="5.08267" fill="#7B91A5"/>
<path d="M139.543 68.6686C139.543 65.8615 141.819 63.5859 144.626 63.5859H153.867C156.674 63.5859 158.95 65.8615 158.95 68.6686C158.95 71.4757 156.674 73.7513 153.867 73.7513H144.626C141.819 73.7513 139.543 71.4757 139.543 68.6686Z" fill="#7B91A5"/>
<rect opacity="0.2" x="189.443" y="138.9" width="68.385" height="35.1166" rx="17.5583" fill="#D1E3EE"/>
<circle cx="206.216" cy="156.778" r="31.2561" fill="#ED5F42" fill-opacity="0.05"/>
<circle cx="206.216" cy="156.778" r="21.2542" fill="#ED5F42" fill-opacity="0.1"/>
<circle cx="207.05" cy="156.775" r="12.0857" fill="#ED5F42"/>
<rect x="190.279" y="94.4546" width="66.718" height="33.4496" rx="16.7248" stroke="#EEF3F8" stroke-width="1.66699"/>
<rect x="190.279" y="51.021" width="66.718" height="33.4496" rx="16.7248" stroke="#EEF3F8" stroke-width="1.66699"/>
<ellipse cx="239.974" cy="67.594" rx="11.669" ry="11.2522" fill="#D1E3EE"/>
<ellipse cx="239.974" cy="111.768" rx="11.669" ry="11.2522" fill="#D1E3EE"/>
</g>
<rect x="52.2139" y="94.7344" width="47.7345" height="50.5424" rx="9.3597" fill="#F8FCFF"/>
<path d="M222.223 200.71C223.141 200.71 223.906 200.251 224.365 199.486C226.507 195.814 228.649 192.142 230.791 188.317C231.25 187.399 232.015 187.092 232.933 187.092C236.299 187.092 239.665 187.092 243.184 187.092C244.255 187.092 245.173 187.092 246.244 187.092C247.162 187.092 247.927 186.328 248.233 185.41C248.539 184.491 248.233 183.573 247.315 182.961C245.938 182.043 244.561 181.125 243.184 180.207C235.993 175.464 228.955 170.721 221.764 166.131C220.999 165.672 220.081 165.519 219.316 165.978C218.551 166.437 218.092 167.202 218.092 168.12C218.092 169.65 218.245 171.027 218.398 172.557C218.398 173.781 218.551 174.852 218.551 176.076C218.704 177.606 218.704 179.136 218.857 180.666C219.01 182.043 219.01 183.573 219.163 184.95C219.316 186.48 219.316 188.011 219.469 189.541C219.622 190.918 219.622 192.448 219.775 193.825C219.928 195.508 219.928 197.191 220.081 198.874C220.081 199.945 221.152 200.863 222.223 200.71Z" fill="#ED5F42"/>
<path d="M89.8875 87.0417C88.9695 87.0417 88.2045 86.5826 87.7455 85.8176C85.6035 82.1456 83.4615 78.4736 81.3194 74.6486C80.8604 73.7305 80.0954 73.4245 79.1774 73.4245C75.8114 73.4245 72.4453 73.4245 68.9263 73.4245C67.8553 73.4245 66.9373 73.4245 65.8663 73.4245C64.9483 73.4245 64.1833 72.6595 63.8773 71.7415C63.5713 70.8235 63.8773 69.9055 64.7953 69.2935C66.1723 68.3755 67.5493 67.4575 68.9263 66.5395C76.1174 61.7964 83.1554 57.0534 90.3465 52.4634C91.1115 52.0044 92.0295 51.8513 92.7945 52.3103C93.5595 52.7693 94.0186 53.5343 94.0186 54.4524C94.0186 55.9824 93.8656 57.3594 93.7126 58.8894C93.7126 60.1134 93.5595 61.1844 93.5595 62.4084C93.4065 63.9385 93.4065 65.4685 93.2535 66.9985C93.1005 68.3755 93.1005 69.9055 92.9475 71.2825C92.7945 72.8125 92.7945 74.3425 92.6415 75.8725C92.4885 77.2496 92.4885 78.7796 92.3355 80.1566C92.1825 81.8396 92.1825 83.5226 92.0295 85.2056C92.0295 86.2767 90.9585 87.1947 89.8875 87.0417Z" fill="#FFBE16"/>
<rect x="236.638" y="194.701" width="52.5103" height="29.1724" rx="5.10699" fill="#ED5F42"/>
<path d="M258.483 201.439L253.498 210.059V215.738H251.149V210.059L246.165 201.439H248.841L252.334 207.771L255.807 201.439H258.483ZM262.408 216.004C260.91 216.004 259.637 215.486 258.588 214.451C257.54 213.416 257.015 212.143 257.015 210.631C257.015 209.12 257.54 207.846 258.588 206.811C259.637 205.776 260.91 205.259 262.408 205.259C263.92 205.259 265.193 205.776 266.228 206.811C267.277 207.846 267.801 209.12 267.801 210.631C267.801 212.143 267.277 213.416 266.228 214.451C265.193 215.486 263.92 216.004 262.408 216.004ZM260.141 212.94C260.754 213.552 261.51 213.859 262.408 213.859C263.307 213.859 264.063 213.552 264.676 212.94C265.289 212.327 265.595 211.557 265.595 210.631C265.595 209.705 265.289 208.936 264.676 208.323C264.063 207.71 263.307 207.404 262.408 207.404C261.51 207.404 260.754 207.71 260.141 208.323C259.528 208.936 259.222 209.705 259.222 210.631C259.222 211.557 259.528 212.327 260.141 212.94ZM276.425 205.524H278.631V215.738H276.425V214.431C275.758 215.48 274.702 216.004 273.259 216.004C272.088 216.004 271.141 215.629 270.419 214.88C269.698 214.131 269.337 213.103 269.337 211.796V205.524H271.543V211.571C271.543 212.334 271.747 212.919 272.156 213.328C272.564 213.736 273.123 213.941 273.831 213.941C274.607 213.941 275.234 213.702 275.71 213.226C276.187 212.735 276.425 211.993 276.425 210.999V205.524Z" fill="white"/>
<rect x="-0.000488281" y="80.6328" width="79.669" height="29.6205" rx="5.10699" fill="#FFBE16"/>
<path d="M24.1052 89.7092H18.079V93.7131H23.9009V95.9602H18.079V101.762H15.7298V87.4621H24.1052V89.7092ZM27.6409 97.5944C27.8043 98.3707 28.1788 98.9699 28.7644 99.3921C29.35 99.8006 30.065 100.005 30.9093 100.005C32.0805 100.005 32.9589 99.5827 33.5445 98.7384L35.3626 99.8006C34.3548 101.285 32.8636 102.027 30.8889 102.027C29.2274 102.027 27.886 101.523 26.8646 100.516C25.8432 99.4942 25.3325 98.2073 25.3325 96.6547C25.3325 95.1294 25.8364 93.8561 26.8442 92.8347C27.8519 91.7997 29.1457 91.2822 30.7255 91.2822C32.2235 91.2822 33.4492 91.8065 34.4025 92.8551C35.3694 93.9038 35.8529 95.1771 35.8529 96.6752C35.8529 96.9067 35.8257 97.2131 35.7712 97.5944H27.6409ZM27.6204 95.7968H33.6262C33.4764 94.966 33.1292 94.3396 32.5844 93.9174C32.0533 93.4952 31.4268 93.2841 30.705 93.2841C29.8879 93.2841 29.207 93.5088 28.6623 93.9582C28.1175 94.4077 27.7702 95.0205 27.6204 95.7968ZM42.9191 93.6722H40.386V98.575C40.386 98.9971 40.4813 99.3036 40.672 99.4942C40.8626 99.6713 41.1418 99.7734 41.5095 99.8006C41.8908 99.8143 42.3607 99.8074 42.9191 99.7802V101.762C41.2303 101.966 40.0183 101.823 39.2829 101.333C38.5475 100.829 38.1798 99.9096 38.1798 98.575V93.6722H36.3004V91.5477H38.1798V89.3415L40.386 88.6878V91.5477H42.9191V93.6722ZM49.0667 102.027C47.5278 102.027 46.2409 101.51 45.2059 100.475C44.1845 99.4397 43.6738 98.1664 43.6738 96.6547C43.6738 95.1294 44.1845 93.8561 45.2059 92.8347C46.2409 91.7997 47.5278 91.2822 49.0667 91.2822C50.0609 91.2822 50.9665 91.5205 51.7837 91.9972C52.6008 92.4738 53.2136 93.1139 53.6222 93.9174L51.7224 95.0205C51.4909 94.5302 51.1368 94.1489 50.6601 93.8765C50.1971 93.5905 49.6592 93.4475 49.0463 93.4475C48.1475 93.4475 47.3917 93.754 46.7788 94.3668C46.1796 94.9796 45.88 95.7423 45.88 96.6547C45.88 97.5672 46.1796 98.3298 46.7788 98.9427C47.3917 99.5555 48.1475 99.8619 49.0463 99.8619C49.6455 99.8619 50.1835 99.7189 50.6601 99.4329C51.1504 99.1469 51.5181 98.7656 51.7632 98.289L53.663 99.3716C53.2272 100.189 52.6008 100.836 51.7837 101.312C50.9665 101.789 50.0609 102.027 49.0667 102.027ZM60.3749 91.2822C61.5461 91.2822 62.4926 91.6567 63.2144 92.4057C63.9362 93.1547 64.2971 94.1829 64.2971 95.4903V101.762H62.0908V95.715C62.0908 94.9524 61.8866 94.3668 61.478 93.9582C61.0694 93.5497 60.5111 93.3454 59.8029 93.3454C59.0267 93.3454 58.4002 93.5905 57.9235 94.0808C57.4469 94.5575 57.2086 95.2929 57.2086 96.287V101.762H55.0023V87.4621H57.2086V92.8551C57.8759 91.8065 58.9313 91.2822 60.3749 91.2822Z" fill="white"/>
<defs>
<filter id="filter0_d" x="37.8699" y="17.3842" width="271.892" height="200.297" filterUnits="userSpaceOnUse" color-interpolation-filters="sRGB">
<feFlood flood-opacity="0" result="BackgroundImageFix"/>
<feColorMatrix in="SourceAlpha" type="matrix" values="0 0 0 0 0 0 0 0 0 0 0 0 0 0 0 0 0 0 127 0" result="hardAlpha"/>
<feOffset dy="5.61582"/>
<feGaussianBlur stdDeviation="5.61582"/>
<feColorMatrix type="matrix" values="0 0 0 0 0.0764236 0 0 0 0 0.165046 0 0 0 0 0.591667 0 0 0 0.1 0"/>
<feBlend mode="normal" in2="BackgroundImageFix" result="effect1_dropShadow"/>
<feBlend mode="normal" in="SourceGraphic" in2="effect1_dropShadow" result="shape"/>
</filter>
</defs>
</svg>
