<svg width="353" height="337" viewBox="0 0 353 337" fill="none" xmlns="http://www.w3.org/2000/svg">
<rect x="215" y="75" width="50" height="69" rx="7.71971" fill="#FFC01E"/>
<path d="M47.682 38.2398C55.3201 38.3343 61.3746 44.5658 61.3746 52.308C61.2815 60.0502 55.1338 66.1874 47.5889 66.093C39.9508 66.093 33.8031 59.767 33.8963 52.0248C33.8963 44.377 40.044 38.2398 47.682 38.2398ZM2.87836 40.2226C5.11389 42.4886 7.44255 44.6602 9.67808 46.9262C13.0314 50.2308 13.0314 54.1964 9.67807 57.5954C7.44255 59.767 5.20703 61.9386 2.97151 64.1102C-0.288632 67.4148 -0.940671 71.9468 1.388 76.0068C2.31947 77.7063 3.3441 79.4058 4.27556 81.0109C6.51109 84.9764 10.7959 86.6759 15.0806 85.4485C18.0613 84.5988 21.1351 83.749 24.1158 82.8048C28.5869 81.483 32.0333 83.4657 33.1511 88.0922C33.8963 91.208 34.6415 94.3237 35.4798 97.4395C36.5044 101.688 40.1371 104.615 44.515 104.615C46.5643 104.615 48.6135 104.615 50.6627 104.615C55.0406 104.615 58.6734 101.688 59.698 97.4395C60.5363 94.2293 61.2815 90.9247 62.1198 87.7145C62.9581 84.4099 65.3799 82.5216 68.5469 82.4272C69.3853 82.4272 70.2236 82.616 71.0619 82.8048C74.3221 83.6546 77.4891 84.7876 80.7492 85.5429C84.5682 86.4871 88.3872 84.882 90.4365 81.5774C91.7405 79.5002 93.0446 77.3286 94.0692 75.157C95.9321 71.4748 95.0938 67.1316 92.2063 64.299C89.9707 62.033 87.6421 59.8614 85.4065 57.5954C82.0533 54.2908 82.0533 50.2308 85.4065 46.9262C87.6421 44.7546 89.8776 42.5831 92.1131 40.4115C95.3733 37.2013 96.0253 32.6692 93.7898 28.6093C92.8583 26.9098 91.8337 25.2103 90.9022 23.5107C88.5735 19.5452 84.4751 17.8457 80.0972 19.0731C77.1165 19.9229 74.0426 20.7726 71.0619 21.7168C66.5909 23.0387 63.1444 21.0559 61.9335 16.4294C61.1883 13.5025 60.4432 10.4812 59.698 7.55422C58.7665 3.5887 56.2516 1.13384 52.3394 0.189671C52.2462 0.189671 52.06 0.0952492 51.9668 0.000835462C48.9861 0.000835202 46.0054 0.000834941 43.1178 0.000834689C40.696 0.56734 38.5537 1.60593 37.0633 3.77753C36.3181 4.81612 35.7592 6.04354 35.4798 7.27097C34.6415 10.3867 33.8963 13.5025 33.1511 16.7127C32.0334 21.1503 28.5869 23.1331 24.209 21.9056C20.9489 20.9615 17.6887 19.9229 14.3354 19.0731C10.5164 18.129 6.69738 19.8285 4.64815 23.1331C3.43724 25.1158 2.22634 27.193 1.10857 29.3646C-0.847513 32.8581 -0.102342 37.2957 2.87836 40.2226Z" fill="#D1E3EE"/>
<ellipse cx="47.3053" cy="52.6773" rx="22.9167" ry="22.2222" fill="white"/>
<mask id="mask0" style="mask-type:alpha" maskUnits="userSpaceOnUse" x="23" y="29" width="50" height="47">
<ellipse cx="48" cy="52.6285" rx="25" ry="23.0114" fill="#C4C4C4"/>
</mask>
<g mask="url(#mask0)">
<path d="M40.924 39.3201C39.3928 43.148 39.7765 43.2236 38.6166 44.4965C36.8322 46.4264 32.0143 48.7258 35.8508 53.6943C39.6872 58.6628 29.2484 61.0443 33.0403 65.6843C36.8322 70.3243 58.7358 71.2276 59.9849 66.4645C61.234 61.7013 57.6205 60.8801 56.9068 57.9647C55.8361 53.6122 62.3938 54.0639 58.0666 47.8225C53.7395 41.5811 55.322 45.2593 53.9391 40.0855C52.6454 35.3224 40.924 39.3201 40.924 39.3201Z" fill="#7B91A5"/>
<path d="M47.7639 38.5352C45.0427 38.5352 46.2853 39.1092 46.2853 41.614C46.2853 41.614 43.5741 45.0691 44.4663 49.1753C45.3585 53.2815 47.7639 51.4337 47.1429 58.4142L45.3585 58.6197H49.998L50.0426 53.0353C52.2285 52.6247 52.7156 50.8179 52.7156 48.6827V43.093C52.7156 40.5882 50.4851 38.5352 47.7639 38.5352Z" fill="#D1E3EE"/>
<path d="M46.8232 56.6307L45.3932 56.9851C41.1584 58.0481 34.9481 63.2263 30.8232 75.665H64.0969C62.172 59.1765 54.9629 57.4913 52.268 56.9344L50.508 56.5801H46.8232V56.6307Z" fill="#D1E3EE"/>
<path d="M47.0444 56.6289L44.29 75.6632H53.6947L50.0692 56.6289H47.0444Z" fill="white"/>
<path d="M40.0459 42.2273H44.2393H51.1092L50.9308 39.3119C50.9308 39.1066 51.1985 39.0655 51.2877 39.2298L52.4029 42.2273H54.0535C54.3212 42.2273 54.5442 41.9809 54.4996 41.7345C54.0535 39.9278 52.2245 34.0149 46.9159 34.7951C40.0459 35.8217 40.0459 42.2273 40.0459 42.2273Z" fill="#7B91A5"/>
</g>
<path d="M224.586 285.001C238.703 285.001 250.173 296.471 250.173 310.587C250.173 324.704 238.703 336.174 224.586 336.174C210.47 336.174 199 324.704 199 310.587C199 296.471 210.47 285.001 224.586 285.001Z" fill="#D1E3EE"/>
<path d="M224.192 320.039L234.023 310.207L224.192 300.375L214.36 310.207L224.192 320.039Z" fill="#F8F8F8"/>
<ellipse cx="224.806" cy="310.002" rx="12.5" ry="12" fill="white"/>
<mask id="mask1" style="mask-type:alpha" maskUnits="userSpaceOnUse" x="211" y="296" width="27" height="27">
<circle cx="224.306" cy="309.002" r="13" fill="#C4C4C4"/>
</mask>
<g mask="url(#mask1)">
<path d="M221.947 311.203C221.947 311.203 221.947 311.587 221.915 311.747C221.819 312.451 221.435 314.179 218.811 315.107C218.651 315.171 218.107 315.331 217.947 315.395C216.443 315.875 219.707 317.699 222.555 317.923C227.195 318.275 233.051 316.451 229.627 314.499C228.379 313.795 224.859 315.043 224.987 311.235H221.947V311.203Z" fill="#D1E3EE"/>
<path d="M221.877 304.268V306.772C221.567 306.556 221.104 306.401 221.042 307.236C220.98 308.102 221.537 308.658 221.877 308.905V312.214H224.474C226.174 312.214 227.566 310.822 227.566 309.122V304.268H221.877Z" fill="#D1E3EE"/>
<path d="M226.48 309.816C226.509 309.804 226.527 309.765 226.516 309.739C226.504 309.713 226.464 309.7 226.435 309.712C226.348 309.75 225.552 310.065 225.019 309.553C225.008 309.527 224.939 309.527 224.921 309.565C224.892 309.578 224.885 309.642 224.926 309.656C225.521 310.233 226.48 309.816 226.48 309.816Z" fill="#D1E3EE"/>
<path d="M221.876 310.047C221.876 310.047 218.691 307.851 219.433 305.347C220.175 302.842 223.051 303.554 224.164 302.471C225.277 301.389 228.4 300.307 228.74 303.677C229.08 307.047 227.565 306.8 227.565 306.8C227.565 306.8 226.236 304.728 224.195 304.945C224.195 304.945 223.484 307.542 221.876 306.8C221.134 306.46 220.856 307.078 221.196 307.975C221.35 308.439 221.907 308.779 221.876 308.964C221.845 309.614 221.876 310.047 221.876 310.047Z" fill="#7B91A5"/>
<path d="M220.057 304.724C221.371 304.724 222.437 303.659 222.437 302.344C222.437 301.029 221.371 299.963 220.057 299.963C218.742 299.963 217.676 301.029 217.676 302.344C217.676 303.659 218.742 304.724 220.057 304.724Z" fill="#7B91A5"/>
<path d="M217.819 315.394L216.827 316.066C214.907 317.442 213.755 319.65 213.755 322.018V326.019H219.515V333.379H230.011L230.683 325.091L231.611 326.051L235.484 321.826L233.34 318.082C232.443 316.578 231.131 315.33 229.595 314.498C229.595 314.466 224.315 318.882 217.819 315.394Z" fill="#7B91A5"/>
<path d="M235.484 321.793C235.484 321.793 239.037 327.713 240.029 316.321L241.277 316.225C241.277 316.225 242.621 336.833 231.612 326.049L235.484 321.793Z" fill="#D1E3EE"/>
<path d="M227.131 306.119C226.42 306.119 225.802 306.521 225.678 307.047C225.554 306.521 224.936 306.119 224.225 306.119C223.606 306.119 223.081 306.428 222.864 306.83H222.03C221.937 306.83 221.875 306.892 221.875 306.985C221.875 307.078 221.937 307.139 222.03 307.139H222.772C222.772 307.17 222.772 307.201 222.772 307.232C222.772 307.851 223.421 308.376 224.256 308.376C224.967 308.376 225.585 307.974 225.709 307.449C225.833 307.974 226.451 308.376 227.162 308.376C227.966 308.376 228.646 307.882 228.646 307.232C228.646 306.583 227.966 306.119 227.131 306.119ZM224.256 308.067C223.606 308.067 223.112 307.696 223.112 307.263C223.112 306.83 223.637 306.459 224.256 306.459C224.905 306.459 225.4 306.83 225.4 307.263C225.4 307.696 224.874 308.067 224.256 308.067ZM227.131 308.067C226.482 308.067 225.987 307.696 225.987 307.263C225.987 306.83 226.513 306.459 227.131 306.459C227.781 306.459 228.275 306.83 228.275 307.263C228.306 307.696 227.781 308.067 227.131 308.067Z" fill="#D1E3EE"/>
</g>
<path d="M266.827 293.82L293.302 293.82L312 275.123L312 248.722L293.302 230.024L266.827 230.024L248.129 248.722L248.129 275.123L266.827 293.82Z" fill="#D1E3EE"/>
<path d="M281.025 247.57C273.354 247.57 267.135 253.789 267.135 261.46C267.135 269.131 273.354 275.35 281.025 275.35C288.696 275.35 294.915 269.131 294.915 261.46C294.915 253.789 288.696 247.57 281.025 247.57Z" fill="#F8F8F8"/>
<ellipse cx="281.5" cy="261" rx="16.5" ry="16" fill="white"/>
<mask id="mask2" style="mask-type:alpha" maskUnits="userSpaceOnUse" x="265" y="245" width="34" height="34">
<circle cx="281.736" cy="261.736" r="16.7358" fill="#C4C4C4"/>
</mask>
<g mask="url(#mask2)">
<path d="M284.096 270.555L278.307 270.555C278.307 270.555 278.874 266.383 278.812 264.839C278.751 263.296 284.414 262.945 283.59 264.839C282.767 266.733 284.096 270.555 284.096 270.555Z" fill="#D1E3EE"/>
<path d="M276.601 256.716C276.601 256.716 275.744 265.652 281.091 265.652L284.813 264.847C287.996 263.432 286.228 254.237 286.228 254.237C286.106 252.52 286.464 252.172 285.077 252.071C282.873 251.92 280.274 252.021 278.071 253.485C277.091 254.141 276.52 255.403 276.601 256.716Z" fill="#D1E3EE"/>
<path d="M277.103 261.479C277.103 261.479 280.94 260.207 280.032 254.965C279.125 249.723 284.159 257.764 288.12 254.965C292.081 252.166 290.431 250.333 288.739 250.944C287.047 251.555 287.955 251.402 286.139 249.926C284.324 248.45 281.889 248.196 279.991 251.25C278.093 254.303 277.185 250.791 276.236 252.217C275.287 253.642 274.957 260.767 277.103 261.479Z" fill="#7B91A5"/>
<path d="M261.135 291.213L267.862 274.825C269.885 271.588 273.476 269.615 277.27 269.615H285.514C289.561 269.615 293.304 271.841 295.276 275.381L300.739 291.061L261.135 291.213Z" fill="#D1E3EE"/>
<path d="M274.893 269.969C274.893 269.969 277.523 288.886 269.127 291.264L296.288 291.162C296.288 291.162 286.425 275.23 289.005 270.222C289.005 270.222 287.892 269.666 284.402 269.615L282.986 274.269C282.885 275.179 281.721 275.533 281.165 274.774L277.422 269.666L274.893 269.969Z" fill="white"/>
<path d="M283.338 269.915H278.786C278.483 269.915 278.28 269.662 278.28 269.409V268.195C278.28 267.892 278.533 267.689 278.786 267.689H283.338C283.642 267.689 283.844 267.942 283.844 268.195V269.409C283.844 269.713 283.642 269.915 283.338 269.915Z" fill="#D1E3EE"/>
</g>
<path d="M273.291 93.452C280.163 87.5347 288.927 84.2667 298 84.2383C315.944 84.2383 330.93 97.1654 333.331 114.108C333.461 115.024 334.166 115.759 335.072 115.95C345.26 118.103 353 126.911 353 137.605C353 149.936 342.701 159.761 330.223 159.761H268.994C254.743 159.761 243 148.542 243 134.481C243 122.842 251.049 113.125 261.913 110.138C262.701 109.921 263.305 109.283 263.493 108.487C264.787 103.014 268.418 97.6452 273.291 93.452Z" fill="#4A667D"/>
<path d="M289.852 145.215L307.117 145.215L319.311 133.007L319.311 115.77L307.117 103.563L289.852 103.563L277.658 115.77L277.658 133.007L289.852 145.215Z" fill="#D1E3EE"/>
<path d="M298.5 112C292.149 112 287 117.596 287 124.5C287 131.404 292.149 137 298.5 137C304.851 137 310 131.404 310 124.5C310 117.596 304.851 112 298.5 112Z" fill="white"/>
<mask id="mask3" style="mask-type:alpha" maskUnits="userSpaceOnUse" x="285" y="110" width="28" height="28">
<circle cx="298.785" cy="123.785" r="13.7848" fill="#7B91A5"/>
</mask>
<g mask="url(#mask3)">
<path d="M295.624 128.07L292.233 129.598C289.452 130.851 288.413 133.631 288.413 136.686V149.977H300.635C300.635 149.977 308.212 138.734 305.982 132.806C305.982 132.806 302.407 128.742 300.146 128.345C300.268 129.14 299.657 129.812 298.863 129.812H296.999C296.357 129.812 295.807 129.354 295.716 128.712L295.624 128.07Z" fill="#D1E3EE"/>
<path d="M305.522 141.79C302.956 139.438 302.528 136.596 302.528 136.596C302.528 136.596 299.32 128.591 300.939 128.836C303.231 129.202 305.553 132.319 307.691 134.61" fill="#D1E3EE"/>
<path d="M307.661 134.61C310.472 137.605 312.977 139.163 314.658 130.975L316.43 131.219C316.43 131.219 316.246 146.007 310.013 144.235C308.058 143.685 306.591 142.768 305.492 141.791L307.661 134.61Z" fill="#D1E3EE"/>
<path d="M296.387 119.76C296.54 119.699 296.723 119.791 296.876 119.944V118.63C296.876 117.041 298.159 115.758 299.748 115.758C301.337 115.758 302.62 117.041 302.62 118.63V123.427C302.62 123.763 302.528 124.099 302.345 124.374C301.948 124.954 301.215 125.199 300.542 125.016L299.687 124.802L300.206 128.743C300.298 129.354 299.809 129.904 299.168 129.904H297.823C297.243 129.904 296.784 129.415 296.784 128.865L296.876 123.518V122.541C296.632 122.327 296.387 121.93 296.234 121.441C295.959 120.616 296.021 119.852 296.387 119.76Z" fill="#D1E3EE"/>
<path d="M302.382 122.604L300.47 122.328C300.63 123.219 301.968 123.434 302.382 122.604Z" fill="#D1E3EE"/>
<path d="M301.603 129.015C302.391 132.56 295.564 136.892 293.464 129.015C295.827 127.965 298.321 127.308 301.603 129.015Z" fill="#D1E3EE"/>
<path d="M297.793 120.586C297.579 120.708 297.335 120.647 297.182 120.464L296.876 119.945C296.876 119.945 296.174 119.334 296.082 120.372C296.052 120.647 296.113 120.922 296.174 121.167C296.296 121.595 296.571 122.297 296.876 122.481L298.251 131.922C298.465 133.327 297.365 134.58 295.929 134.58C294.432 134.58 293.332 133.205 293.638 131.738L295.715 122.297C295.715 122.297 295.135 118.723 295.715 117.164C296.143 116.125 297.029 115.117 299.229 115.117C301.796 115.117 302.468 116.462 302.468 117.592L297.793 120.586Z" fill="#7B91A5"/>
<path d="M294.553 124.159C294.645 122.875 295.439 121.867 296.417 121.775C296.417 121.806 296.447 121.867 296.478 121.898C296.508 121.959 296.539 122.02 296.569 122.081C295.714 122.111 294.95 123.028 294.889 124.189C294.797 125.411 295.5 126.45 296.417 126.511C297.333 126.572 298.158 125.625 298.219 124.403C298.28 123.425 297.853 122.509 297.181 122.203C297.119 122.173 297.058 122.081 297.119 121.989C297.15 121.928 297.242 121.867 297.333 121.928C298.128 122.325 298.617 123.334 298.555 124.434C298.464 125.839 297.517 126.908 296.417 126.847C295.317 126.786 294.461 125.533 294.553 124.159Z" fill="#7B91A5"/>
</g>
<path d="M145.696 147.3C167.242 147.181 184.644 164.451 184.762 186.009C184.881 206.494 167.36 223.764 146.288 224.002C124.625 224.122 107.223 206.852 107.104 185.294C106.986 164.928 124.743 147.42 145.696 147.3ZM34.8916 177.433C35.2467 180.173 35.01 182.912 35.01 185.651C35.01 188.748 35.2468 191.726 35.01 194.822C34.5365 199.348 36.5489 201.968 40.5739 203.517C47.6768 206.256 54.7796 209.234 61.8825 211.973C67.0913 213.998 69.9324 220.787 67.8016 226.146C64.842 233.531 61.8825 240.915 58.9229 248.299C57.7391 251.396 58.2127 254.016 60.8171 256.517C65.6707 261.043 70.4059 265.807 75.0228 270.572C77.1537 272.834 79.5213 273.549 82.3624 272.358C90.0572 269.261 97.8704 266.165 105.684 263.068C110.537 261.043 117.403 263.783 119.534 268.666C122.73 276.05 126.045 283.554 129.36 290.938C130.78 294.035 133.03 295.345 136.581 295.226C142.974 294.988 149.248 294.868 155.64 295.226C159.902 295.464 162.506 293.797 164.045 289.985C167.005 282.839 169.964 275.812 172.806 268.666C174.7 263.783 181.566 260.686 186.419 262.592C193.759 265.569 201.217 268.309 208.557 271.167C212.345 272.596 215.541 272.358 218.619 268.904C222.762 264.259 227.261 259.971 231.878 255.684C234.482 253.302 235.074 250.681 233.772 247.466C230.931 240.558 228.09 233.531 225.012 226.623C222.052 220.072 224.538 213.879 231.168 211.02C238.27 208.043 245.255 205.065 252.239 201.969C255.554 200.539 257.211 198.157 256.975 194.108C256.62 188.272 256.501 182.436 256.975 176.719C257.448 171.359 255.081 168.62 250.464 166.833C243.479 164.094 236.495 161.235 229.51 158.496C225.012 156.71 222.052 149.921 223.946 145.395C226.906 138.13 229.865 130.864 232.707 123.599C234.245 119.907 233.772 116.81 230.457 113.952C225.84 109.902 221.46 105.376 217.199 100.85C214.476 97.992 211.753 97.5156 208.202 98.9448C201.454 101.803 194.588 104.424 187.84 107.401C180.619 110.498 174.7 108.116 171.74 100.97C168.899 94.1807 165.821 87.3919 162.743 80.7222C161.204 77.3873 158.718 75.7198 154.93 75.958C148.538 76.1962 142.263 76.1962 135.871 75.958C131.964 75.8389 129.478 77.2682 128.058 80.7222C124.98 88.1065 121.902 95.3717 118.942 102.756C117.167 107.282 109.945 110.26 105.447 108.473C98.1071 105.495 90.6491 102.756 83.3095 99.8976C79.5213 98.4684 76.325 98.7066 73.2471 102.161C69.1038 106.806 64.6053 111.093 59.9884 115.262C57.5024 117.525 56.7921 120.026 58.0943 123.004C61.1723 130.507 64.2502 138.01 67.4464 145.395C69.4589 150.04 66.8546 157.186 62.2377 159.092C54.8981 162.188 47.6768 165.285 40.3372 168.382C36.549 170.287 34.2997 172.788 34.8916 177.433Z" fill="#7B91A5"/>
<circle cx="146.13" cy="185.2" r="62.4755" fill="white"/>
<path d="M200.222 172.018C200.222 172.018 195.028 169.467 196.031 164.82C197.033 160.173 200.131 168.647 200.222 161.175C200.222 158.897 201.042 157.713 202.136 157.257C197.762 148.236 191.202 140.4 183.183 134.387C183.183 134.387 168.878 145.321 150.563 143.043C150.563 143.043 149.197 143.225 147.374 143.498C146.554 150.697 136.805 150.97 140.449 156.346C144.185 161.995 161.771 168.738 152.386 184.774C143.001 200.811 135.803 197.531 135.529 193.066C135.347 189.786 133.525 187.781 133.889 186.87C131.247 184.865 127.238 181.859 122.864 179.307C115.392 174.843 121.588 178.032 118.855 181.859C116.121 185.685 114.39 191.699 117.579 193.613C120.768 195.526 118.673 199.262 126.964 205.002C135.256 210.743 131.884 213.658 131.884 216.847C131.884 220.036 138.445 222.77 134.254 224.319C129.971 225.777 121.679 214.205 119.128 205.002C116.577 195.799 110.199 198.533 111.201 194.068C112.294 189.603 114.208 170.651 107.556 160.628C107.556 160.628 99.4469 172.565 96.0756 163.635C92.7043 154.706 100.176 155.252 93.3421 150.514C86.8728 160.264 83.0459 172.109 83.0459 184.774C83.0459 213.294 101.998 237.349 128.058 245.002C127.146 244.182 95.7111 213.567 99.9025 209.102C104.185 204.638 116.85 226.05 128.058 227.052C139.265 228.055 146.919 246.278 142.181 247.463C143.365 247.554 144.55 247.554 145.825 247.554C152.386 247.554 158.673 246.551 164.595 244.729C160.313 243.636 155.21 238.989 153.661 224.41C153.661 224.41 153.206 218.305 161.589 222.77C169.88 227.235 172.431 211.745 178.445 208.556C184.368 205.367 184.003 198.715 188.65 203.635C193.297 208.556 182.91 213.476 186.919 217.667C189.744 220.583 193.479 223.226 194.208 224.866C203.229 214.023 208.605 200.082 208.605 184.865C208.605 182.496 208.423 180.127 208.149 177.758C203.867 175.48 208.149 175.389 200.222 172.018ZM191.11 195.162C190.108 195.799 189.015 194.615 189.744 193.704C192.022 190.97 195.028 187.052 195.575 184.865C196.304 181.767 197.124 191.061 191.11 195.162ZM202.864 178.032C202.409 179.307 200.678 179.581 199.675 178.578C198.218 177.12 196.486 175.116 198.582 175.389C200.951 175.845 203.411 176.483 202.864 178.032Z" fill="#D1E3EE"/>
<path d="M153.314 180.314L144.121 189.506C142.95 190.678 141.05 190.678 139.879 189.506L130.686 180.314C128.449 178.076 126.925 175.225 126.307 172.121C125.69 169.018 126.007 165.801 127.218 162.877C128.429 159.953 130.48 157.455 133.111 155.696C135.742 153.938 138.836 153 142 153C145.164 153 148.258 153.938 150.889 155.696C153.52 157.455 155.571 159.953 156.782 162.877C157.993 165.801 158.31 169.018 157.693 172.121C157.075 175.225 155.551 178.076 153.314 180.314ZM142 172.555C142.943 172.555 143.847 172.181 144.514 171.514C145.181 170.847 145.556 169.943 145.556 169C145.556 168.057 145.181 167.152 144.514 166.486C143.847 165.819 142.943 165.444 142 165.444C141.057 165.444 140.153 165.819 139.486 166.486C138.819 167.152 138.444 168.057 138.444 169C138.444 169.943 138.819 170.847 139.486 171.514C140.153 172.181 141.057 172.555 142 172.555Z" fill="#FF6847"/>
</svg>
