<svg width="518" height="319" viewBox="0 0 518 319" fill="none" xmlns="http://www.w3.org/2000/svg">
<rect x="330.181" y="60.7246" width="136.193" height="262.843" rx="9.2212" fill="#FF6847"/>
<path d="M287.312 0H217.017V179.343H287.312C296.135 179.343 303.288 172.19 303.288 163.366V15.9767C303.288 7.153 296.135 0 287.312 0Z" fill="white"/>
<path d="M217.017 0H61.3566C52.5329 0 45.3799 7.15299 45.3799 15.9767V163.366C45.3799 172.19 52.5329 179.343 61.3566 179.343H217.017V0Z" fill="#3E5477"/>
<path d="M248.367 62.9297H227.441V83.8555H248.367V62.9297Z" fill="#A3B7C9"/>
<path d="M260.529 78.1136H289.765C292.334 78.1136 294.449 75.9984 294.449 73.4299C294.449 70.8613 292.334 68.7461 289.765 68.7461H260.529C257.961 68.7461 255.846 70.8613 255.846 73.4299C255.846 75.9984 257.961 78.1136 260.529 78.1136Z" fill="#D1E3EE"/>
<path d="M288.028 38.8308H233.863C230.312 38.8308 227.441 35.9602 227.441 32.4096C227.441 28.859 230.312 25.9883 233.863 25.9883H288.028C291.579 25.9883 294.449 28.859 294.449 32.4096C294.449 35.9602 291.579 38.8308 288.028 38.8308Z" stroke="#A3B7C9" stroke-width="0.755445" stroke-miterlimit="10"/>
<path d="M251.616 162.196H291.051C293.015 162.196 294.677 160.609 294.677 158.569C294.677 156.605 293.09 154.943 291.051 154.943H251.616C249.652 154.943 247.99 156.53 247.99 158.569C247.99 160.609 249.577 162.196 251.616 162.196Z" stroke="#A3B7C9" stroke-width="0.755445" stroke-miterlimit="10"/>
<path d="M287.348 35.2804C288.934 35.2804 290.219 33.9952 290.219 32.4098C290.219 30.8243 288.934 29.5391 287.348 29.5391C285.763 29.5391 284.478 30.8243 284.478 32.4098C284.478 33.9952 285.763 35.2804 287.348 35.2804Z" stroke="#A3B7C9" stroke-width="0.755445" stroke-miterlimit="10"/>
<path d="M178.669 164.539V169.764C178.669 169.764 228.175 169.697 236.012 179.344H169.76L170.631 166.616L178.669 164.539Z" fill="#D0B9A7"/>
<path d="M132.715 96.2773L126.619 98.354C107.594 104.383 105.048 120.661 101.833 140.356L95.6025 179.411H169.76C169.76 179.411 171.502 166.415 170.765 165.209C170.028 163.937 169.291 167.018 169.291 167.018L185.033 162.932C185.033 162.932 185.77 141.83 172.975 115.101C169.358 107.532 146.715 96.7463 146.715 96.7463C146.715 96.7463 147.519 105.254 144.036 106.862C134.992 110.881 132.715 96.2773 132.715 96.2773Z" fill="white"/>
<path d="M162.659 82.0773L164.267 81.0054C164.736 80.6705 165.004 80.0676 164.87 79.4647L162.19 68.6124L161.856 61.3105L139.548 62.3154L139.816 68.4114C139.213 67.2726 138.141 66.6027 137.069 66.6027C135.261 66.6697 133.854 68.6124 133.988 70.89C134.055 72.4308 134.725 73.7036 135.663 74.3735L130.103 96.212C130.103 96.212 132.447 109.141 142.697 110.816C145.242 111.218 147.855 110.146 149.195 107.868C149.931 106.662 151.472 101.571 151.606 99.1596L146.582 96.48L146.649 94.6043L150.467 94.4703C157.3 94.2023 162.659 88.5082 162.592 81.7423L162.659 82.0773Z" fill="#D0B9A7"/>
<path d="M159.913 86.2098C158.601 86.6164 155.693 86.6905 154.554 83.7344" stroke="#F6E1D2" stroke-width="1.33979" stroke-linecap="round"/>
<path d="M185.972 74.8429L184.298 73.0342C183.494 72.1633 182.154 71.8954 181.082 72.5653C180.948 72.6323 180.814 72.7662 180.68 72.8332L179.675 73.6371C175.924 76.7186 173.579 83.2836 173.512 88.1068C173.512 91.4563 173.512 94.4038 173.512 94.4038L156.765 122.204C154.755 126.09 146.65 134.463 142.764 137.478C139.415 140.024 133.051 140.426 130.17 135.602L125.548 128.635L113.423 155.766C113.423 155.766 121.328 164.676 134.658 163.604C134.658 163.604 155.09 160.455 163.866 142.569C172.708 124.482 180.479 94.2698 180.479 94.2698L183.963 82.8146L185.102 80.0681C185.704 79.6661 186.642 77.5225 186.642 77.5225C186.977 76.7186 186.776 75.9147 185.972 74.8429Z" fill="#D0B9A7"/>
<path d="M140.351 74.8416C138.945 77.2532 144.505 73.0998 144.505 73.0998C146.447 70.9562 145.108 68.7455 145.108 68.7455C146.38 68.8125 146.447 66.133 146.447 66.133C146.447 66.133 148.256 66.7359 148.926 65.1281C148.926 65.1281 153.749 67.3388 156.965 63.2524C156.965 63.2524 162.659 72.7649 170.363 64.3912C178.066 56.0176 167.683 54.2758 167.683 54.2758C167.683 54.2758 165.874 46.639 158.84 50.5244C158.84 50.5244 156.295 44.9643 150.601 49.3856C150.601 49.3856 144.84 41.0789 138.074 48.9167C138.074 48.9167 129.901 48.1128 129.767 59.568C129.767 59.568 124.475 63.2524 128.829 67.6737C128.829 67.6737 127.288 71.2241 130.37 72.43C130.37 72.43 128.159 82.8133 135.26 79.3969L135.662 74.3726C135.662 74.3726 132.849 71.4921 134.59 68.4776C136.064 65.932 137.806 66.6019 139.815 68.3436C139.815 68.4106 142.964 70.3533 140.351 74.8416Z" fill="#17274E"/>
<circle r="25.8254" transform="matrix(-1 8.74228e-08 8.74228e-08 1 163.825 184.571)" fill="#FF6847"/>
<circle r="25.8254" transform="matrix(-1 8.74228e-08 8.74228e-08 1 132.617 184.571)" fill="#3E5477"/>
<circle r="25.8254" transform="matrix(-1 8.74228e-08 8.74228e-08 1 100.101 184.571)" fill="#17274E"/>
<path d="M95.4917 183.557V185.1H92.1725V188.335H90.5892V185.1H87.2891V183.557H90.5892V180.341H92.1725V183.557H95.4917Z" fill="#D1E3EE"/>
<path d="M107.241 186.755V188.372H105.619V190.844H103.845V188.372H97.0353V186.755L101.823 177.832H103.731L98.9429 186.755H103.845V183.074H105.619V186.755H107.241Z" fill="#D1E3EE"/>
<path d="M327.253 129.012C326.361 129.324 325.522 129.687 324.63 130.051C323.424 130.57 322.27 131.142 321.116 131.713C319.857 127.402 319.123 124.597 319.123 124.597L316.395 115.714L315.503 113.585C315.031 113.273 314.297 111.611 314.297 111.611C314.14 110.936 314.297 110.312 314.979 109.429L316.238 108.079C316.867 107.404 317.916 107.196 318.755 107.715C318.86 107.767 318.965 107.871 319.07 107.923L319.857 108.546C322.742 110.936 324.578 116.026 324.63 119.766C324.63 122.363 324.63 124.649 324.63 124.649L327.253 129.012Z" fill="#955524"/>
<path d="M366.029 170.923L330.289 127.463L322.048 136.485L344.602 182.634C347.551 188.62 353.624 192.35 360.303 192.263C375.05 192.003 400.641 190.962 410.53 186.798L418.337 150.364C418.337 150.364 399.513 160.687 366.029 170.923Z" fill="#D0CFCF"/>
<path d="M322.048 136.485L319.445 131.453L327.166 123.906L330.289 127.463L322.048 136.485Z" fill="white"/>
<path d="M245.81 217.562H315.656L306.519 175.486C306.038 173.323 304.115 171.76 301.951 171.76H240.4C238.476 171.76 237.034 173.563 237.394 175.486L245.81 217.562Z" fill="#A3B7C9"/>
<path d="M249.777 221.651H331.525C333.809 221.651 335.732 219.848 335.732 217.443H245.569C245.569 219.848 247.493 221.651 249.777 221.651Z" fill="#2C6594"/>
<path d="M245.569 217.562H249.777H266.367C266.367 217.562 266.126 220.568 269.733 221.77H249.777C247.493 221.65 245.569 219.847 245.569 217.562Z" fill="#25455F"/>
<path d="M291.853 218.765H309.766C310.487 218.765 310.968 218.164 310.968 217.562H290.651C290.531 218.284 291.132 218.765 291.853 218.765Z" fill="#EEF4FB"/>
<path d="M412.004 136.369C412.954 135.693 413.727 134.62 414.094 133.369C414.989 130.547 414.013 126.952 411.849 126.292C409.685 125.633 407.096 128.078 406.22 130.815C405.852 132.066 405.824 133.393 406.124 134.438L404.74 137.062L406.977 121.83L392.076 116.911L382.837 134.05C382.658 134.454 382.714 135 383.081 135.348C383.645 136.007 384.68 136.949 385.865 137.213C385.865 137.213 384.264 140.411 384.526 143.224C384.788 146.038 388.042 148.984 390.789 149.419L397.761 150.438L396.853 160.101C404.167 152.399 413.95 157.955 413.95 157.955L412.004 136.369Z" fill="#955524"/>
<path d="M227.819 221.205H180.976V350.458H227.819V221.205Z" fill="#3E5477"/>
<path d="M410.855 221.205H217.409V230.747H410.855V221.205Z" fill="#17274E"/>
<path d="M405.65 230.748H217.409V350.459H405.65V230.748Z" fill="#17274E"/>
<path d="M419.764 122.278C420.539 116.407 397.575 109.781 387.17 106.22C379.908 103.713 385.678 117.707 392.272 120.42C398.885 123.049 405.254 125.978 400.476 141.444C399.007 143.25 397.341 143.946 395.958 144.171C394.217 144.405 392.712 143.181 392.328 141.318C391.004 134.891 384.83 137.87 384.83 137.87C384.83 137.87 383.983 138.482 383.652 141.163C383.86 141.031 387.313 139.49 386.908 141.71C386.672 143.169 384.47 143.478 383.219 143.11C383.179 146.479 385.398 150.883 391.833 152.317C405.277 155.4 405.7 136.742 405.7 136.742C405.7 136.742 407.014 124.06 411.19 126.856C416.223 130.199 411.195 136.811 411.195 136.811C411.195 136.811 407.647 138.776 408.427 140.46C411.021 146.371 412.642 141.488 412.642 141.488C414.006 140.548 418.801 129.796 419.764 122.278Z" fill="white"/>
<path d="M326.537 212.749C326.537 212.749 307.193 210.84 299.732 221.683H323.414L326.537 212.749Z" fill="#955524"/>
<path d="M326.538 211.447C325.757 211.1 322.46 211.274 322.46 211.274L316.128 221.597H323.415L326.538 211.447Z" fill="white"/>
<path d="M404.003 234.695L380.755 239.38C368.437 241.809 358.374 250.57 354.123 262.368L324.369 343.736H346.923L378.066 277.635C380.755 271.997 386.046 268.093 392.205 267.225L461.516 257.336L469.757 234.695H404.003Z" fill="#D6D6D6"/>
<path d="M440.35 234.695L417.101 239.38C404.783 241.809 394.721 250.57 390.47 262.368L361.757 344.864H377.805L414.412 277.635C417.101 271.997 422.393 268.093 428.552 267.225L458.913 257.336L467.154 234.695H440.35Z" fill="#D6D6D6"/>
<path d="M401.574 235.129L397.931 235.823L452.321 238.599L452.755 234.695L401.574 235.129Z" fill="#DFE9F7"/>
<path d="M326.538 211.447L323.415 221.597H403.309L402.789 235.476L472.36 234.696L443.56 176.749C437.314 164.17 427.164 154.021 414.673 147.688C414.673 147.688 404.957 144.045 399.058 154.975C393.16 165.905 381.796 202.946 381.796 202.946L326.538 211.447Z" fill="#D6D6D6"/>
<path d="M502.027 350.502C501.333 350.502 500.639 350.069 500.379 349.375L469.237 266.444C468.89 265.577 469.324 264.536 470.278 264.189C471.145 263.842 472.186 264.276 472.533 265.23L503.675 348.16C504.022 349.028 503.589 350.069 502.634 350.415C502.374 350.415 502.201 350.502 502.027 350.502Z" fill="#17274E"/>
<path d="M515.732 350.502C515.038 350.502 514.344 350.069 514.084 349.375L482.942 266.444C482.595 265.577 483.029 264.536 483.983 264.189C484.85 263.842 485.891 264.276 486.238 265.23L517.38 348.16C517.727 349.028 517.294 350.069 516.34 350.415C516.079 350.415 515.906 350.502 515.732 350.502Z" fill="#17274E"/>
<path d="M405.129 350.502C405.823 350.502 406.517 350.069 406.777 349.375L437.92 266.444C438.267 265.577 437.833 264.536 436.879 264.189C436.011 263.842 434.97 264.276 434.623 265.23L403.481 348.16C403.134 349.028 403.568 350.069 404.522 350.415C404.695 350.415 404.869 350.502 405.129 350.502Z" fill="#17274E"/>
<path d="M391.337 350.502C392.031 350.502 392.725 350.069 392.985 349.375L424.128 266.444C424.475 265.577 424.041 264.536 423.087 264.189C422.219 263.842 421.178 264.276 420.831 265.23L389.689 348.16C389.342 349.028 389.776 350.069 390.73 350.415C390.99 350.415 391.164 350.502 391.337 350.502Z" fill="#17274E"/>
<path d="M486.846 268.7C486.846 268.7 419.964 268.7 412.678 268.7C405.391 268.7 407.299 256.729 434.364 249.876C461.516 243.11 464.205 183.341 503.242 205.288C522.066 215.871 506.538 256.122 486.846 268.7Z" fill="#17274E"/>
<rect x="9.22461" y="20.1348" width="68.1125" height="100.04" rx="9.22357" fill="#F3F7FA"/>
<mask id="mask0" style="mask-type:alpha" maskUnits="userSpaceOnUse" x="0" y="35" width="130" height="86">
<rect y="35.7441" width="129.13" height="84.4311" fill="#C4C4C4"/>
</mask>
<g mask="url(#mask0)">
<path d="M47.8913 46.5339C42.3674 54.4872 47.4781 53.2699 36.628 61.9631C34.1865 63.8954 12.2131 76.9926 17.9318 86.1721C24.2747 99.6968 13.5253 98.1332 12.2131 105.018C10.9009 111.903 26.7216 111.313 26.7216 111.313C26.7216 111.313 17.7118 120.72 30.1837 121.744C40.4899 122.557 64.9885 96.0719 63.4142 90.1329C64.1232 88.032 64.3734 86.1382 63.8651 84.7051C63.6683 83.9627 63.516 83.319 63.4082 82.774C63.9442 81.8198 64.8688 80.8091 66.1118 79.8923C70.7843 76.4787 75.4192 72.3698 70.7546 67.2308C68.5909 64.8821 58.431 57.3536 62.9383 46.5343C62.8681 46.6847 52.9049 39.2857 47.8913 46.5339Z" fill="#FF6847"/>
<path d="M113.935 82.2685C110.685 85.6058 96.5661 94.6324 96.5661 94.6324L108.628 94.6324L114.419 85.5465L115.747 86.5325C124.693 92.4022 130.481 83.567 127.606 84.78C125.378 85.7004 118.037 84.0267 118.037 84.0267C118.037 84.0267 124.582 83.6506 123.558 82.7183C121.523 80.9501 116.853 81.3448 116.853 81.3448C116.853 81.3448 114.799 81.4511 113.935 82.2685Z" fill="#F6E1D2"/>
<path d="M41.5496 104.507C39.1886 102.755 37.5131 97.5765 38.0462 93.9969C38.0462 93.9969 32.7911 76.0993 49.3941 73.7383L56.4008 74.1952C67.3679 74.8807 65.3116 95.9009 65.3116 95.9009C65.3116 99.6328 63.1029 103.365 60.6658 105.269C60.285 108.924 58.6095 113.037 58.6856 119.511C58.9141 134.743 61.5036 136.266 66.6063 142.892C70.1097 147.538 38.1223 140.455 33.0958 141.445C28.9069 142.283 39.0363 131.468 41.9304 121.339C43.6059 115.779 41.778 109.686 41.5496 104.507Z" fill="#D6D6D6"/>
<path d="M57.5703 74.415C57.5703 74.415 59.3733 85.8663 54.2525 82.0569C49.1317 78.2475 49.1113 73.7383 49.1113 73.7383L57.5703 74.415Z" fill="#F6E1D2"/>
<path d="M50.1526 55.6216C50.4536 50.7693 54.7275 47.0863 59.7238 47.3786L64.6598 46.3848L65.3822 47.4955C65.3822 47.4955 62.6575 56.7348 65.0512 58.2845C67.4449 59.8343 63.8561 60.5749 63.8561 60.5749V62.1162C63.6153 65.7993 60.4461 68.4831 56.714 68.6C56.413 70.0615 57.0752 75.8858 57.0752 77.603L51.5973 77.2522C52.399 75.5537 52.7409 70.9043 53.4032 68.4246C51.5973 68.1323 49.5507 66.32 49.6711 64.4492L50.1526 55.6216Z" fill="#F6E1D2"/>
<path d="M62.7253 61.8168L57.8882 60.6748C57.6903 60.628 57.5097 60.7999 57.5591 60.9972C58.2558 63.7798 60.8032 64.5657 62.8713 62.259C63.0093 62.1051 62.9265 61.8643 62.7253 61.8168Z" fill="#926F56"/>
<path d="M46.1182 51.7033L52.2974 52.0235L62.3626 52.5571L62.4263 48.0214C62.4263 47.7012 62.8722 47.6479 62.9359 47.968L64.2737 52.6639L66.6945 52.7706C67.1404 52.7706 67.4589 52.4504 67.3952 52.0235C66.9493 49.1953 64.9108 39.9104 57.0115 40.7642C46.8826 41.7781 46.1182 51.7033 46.1182 51.7033Z" fill="#FF6847"/>
<path d="M50.9167 73.8921L50.5359 155.917C50.5359 158.125 48.708 159.953 46.4232 159.801L26.1646 158.582C25.5553 158.582 21.2903 157.212 21.3664 156.602L38.0456 94.0746L30.9623 120.629L16.1162 120.629C16.1162 120.553 28.1778 72.383 50.9167 73.8921Z" fill="white"/>
<path d="M68.8146 150.125L67.5554 106.792L76.4242 110.694L110.835 100.3L106.578 84.4423L79.9717 94.1313L70.0387 84.0876C65.8444 79.0227 60.4742 74.8224 56.9336 74.2695L58.5345 118.045L63.2549 144.566L63.788 152.943L65.8444 153.095C67.5199 153.248 68.8908 151.801 68.8146 150.125Z" fill="white"/>
<path d="M73.4732 120.432H43.7871L43.9043 115.525C45.2061 114.759 58.8471 117.519 58.8471 117.519C68.7255 113.149 73.4732 120.432 73.4732 120.432Z" fill="#F6E1D2"/>
</g>
</svg>
