<svg width="316" height="342" viewBox="0 0 316 342" fill="none" xmlns="http://www.w3.org/2000/svg">
<rect x="227.402" y="11.8125" width="25.8411" height="38.3925" rx="4.4299" fill="#FFC01E"/>
<rect x="239.953" y="23.625" width="76.0467" height="141.019" rx="4.4299" fill="#FF6847"/>
<path d="M260.639 111.37C261.153 111.233 261.564 111.507 261.974 111.712C261.701 111.13 261.358 110.582 260.844 110.24C259.783 109.041 258.482 108.425 257.009 108.322C256.188 108.254 255.331 108.254 254.578 108.699C254.03 110.514 253.345 114.417 253.414 114.486C255.297 117.396 257.181 120.341 259.064 123.252C259.132 123.354 259.235 123.526 259.372 123.423C259.886 123.115 260.468 122.944 260.673 122.19C260.571 122.019 260.502 121.848 260.399 121.711C258.927 119.451 258.311 116.917 258.516 114.109C258.584 112.568 259.304 111.678 260.639 111.37Z" fill="#F4E282"/>
<path d="M277.828 115.581C275.02 127.052 266.631 133.695 260.502 131.743C254.372 129.791 250.503 122.977 253.276 111.506C256.05 100.035 265.638 89.2828 271.767 91.2346C277.931 93.2206 280.636 104.11 277.828 115.581Z" fill="#EAECED"/>
<path d="M267.042 96.5415C266.597 98.5961 267.796 100.925 269.576 101.472C272.042 102.191 274.233 101.575 276.117 99.5548C278.068 97.4318 279.198 94.7952 279.609 91.7819C279.746 90.8231 279.917 89.7958 279.678 88.8028C279.644 88.6316 279.678 88.4262 279.712 88.2207C280.054 88.2892 280.397 88.118 280.705 88.3919C279.78 91.5764 279.233 94.8979 278.89 98.2194C278.651 100.616 295.772 134.276 295.84 136.707C295.84 137.118 265.673 136.707 265.707 136.262C263.002 127.805 261.906 116.025 263.105 106.711C263.789 101.096 267.214 95.6855 267.042 96.5415Z" fill="#D6D6D6"/>
<path d="M304.298 67.7773C304.298 67.8116 304.298 67.8116 304.332 67.8458C304.298 67.8458 304.298 67.8458 304.264 67.8458C304.264 67.8116 304.264 67.8116 304.264 67.7773H304.298Z" fill="#7CA541"/>
<path d="M305.872 128.249C305.77 128.249 305.667 128.215 305.667 128.043L305.701 128.009C305.838 127.975 305.872 128.112 305.872 128.249Z" fill="#3C7238"/>
<path d="M305.872 128.215C305.975 128.215 306.078 128.249 306.146 128.352L306.112 128.386C306.009 128.386 305.906 128.352 305.872 128.215C305.872 128.249 305.872 128.215 305.872 128.215Z" fill="#3C7238"/>
<path d="M305.359 127.77C305.394 127.804 305.394 127.804 305.428 127.838H305.394C305.359 127.804 305.359 127.804 305.359 127.77Z" fill="#3C7238"/>
<path d="M305.324 127.772C305.29 127.737 305.29 127.737 305.256 127.703H305.29C305.324 127.737 305.324 127.737 305.324 127.772C305.359 127.772 305.324 127.772 305.324 127.772Z" fill="#3C7238"/>
<path d="M304.88 144.549C304.846 144.515 304.846 144.515 304.812 144.48H304.846C304.88 144.515 304.88 144.515 304.88 144.549Z" fill="#7CA541"/>
<path d="M287.621 89.7957C288.751 90.3436 289.881 90.8914 290.909 91.7133C293.408 93.7335 295.531 96.0962 297.175 99.1095C298.99 102.465 300.462 105.992 301.626 109.69C301.729 109.964 301.763 110.272 301.832 110.546C301.729 110.889 307.55 139.139 290.19 134.893C282.965 132.804 274.815 126.709 268.172 122.874C266.7 120.716 268.686 117.429 268.96 117.566C272.247 119.175 280.191 120.34 284.711 121.127C286.149 121.401 287.621 120.477 288.101 118.901C289.436 114.45 281.629 110.512 281.903 106.985C281.972 105.992 281.972 105.992 281.115 105.992C280.842 105.992 280.67 105.924 280.773 105.581C280.807 105.444 280.807 105.273 280.807 105.136C281.15 99.5889 281.355 94.0075 282.622 88.5972C282.828 88.4945 283.067 88.563 283.273 88.5972C284.745 88.7684 286.183 89.2478 287.621 89.7957Z" fill="#955524"/>
<path d="M264.713 112.258C265.158 112.224 265.569 112.053 265.98 111.813C266.528 111.471 266.802 112.19 267.247 112.738C267.521 113.08 268.274 117.121 268.925 117.531C268.343 118.627 267.932 121.024 268.137 122.462C268.171 122.599 268.137 122.702 268.137 122.839C267.11 122.599 266.117 122.77 265.124 123.181C264.405 123.455 263.686 123.284 262.967 123.353C262.145 123.113 261.426 122.531 260.638 122.223C260.535 122.051 260.467 121.88 260.364 121.743C258.892 119.483 258.275 116.949 258.481 114.141C258.584 112.601 259.303 111.71 260.638 111.402C261.152 111.265 261.563 111.539 261.974 111.745C262.83 112.395 263.754 112.327 264.713 112.258Z" fill="#955524"/>
<path d="M255.023 86.1662C255.468 84.9677 254.817 81.8174 254.509 79.8999C254.338 79.1465 254.201 78.4275 254.064 77.7084C254.064 77.6741 254.029 77.6399 254.029 77.6399C254.029 77.6399 254.029 77.6399 254.029 77.6741C253.002 71.3736 254.954 67.5385 261.7 65.1073L265.603 63.5664L268.548 70.1066L277.383 93.22C277.383 93.22 272.691 100.308 268.171 96.4046L267.692 89.8643C267.658 89.0768 266.87 88.6658 266.357 89.2137C264.131 91.5079 259.577 94.8637 256.803 87.3304C255.605 87.7756 254.817 86.7483 255.023 86.1662Z" fill="#955524"/>
<path d="M254.784 70.5515C254.784 70.5515 253.312 72.3663 253.962 76.8863C253.962 76.8863 248.038 67.6067 256.017 64.7988L254.784 70.5515Z" fill="#17274E"/>
<path d="M258.174 87.6392L261.119 84.6602C261.119 84.6602 262.557 89.9677 258.174 87.6392Z" fill="#D0B9A7"/>
<path d="M266.699 96.4736C266.014 99.932 269.199 102.877 272.315 102.877C275.431 102.877 277.931 100.001 277.931 96.4736C277.931 92.9466 275.397 90.0703 272.315 90.0703C269.233 90.0703 267.692 91.5427 266.699 96.4736Z" fill="#955524"/>
<path d="M227.835 136.502C226.91 136.399 225.986 136.399 225.164 136.913C224.822 137.084 224.616 137.05 224.411 136.673C224.24 136.331 224.068 136.023 223.863 135.715C223.623 135.338 223.657 135.132 224.034 134.927C226.397 133.626 228.794 132.941 231.362 134.174C231.396 134.208 232.286 134.79 232.663 135.064C232.697 135.098 232.732 135.132 232.766 135.167C232.869 135.201 233.485 135.715 233.725 135.886C235.437 137.05 237.286 137.529 239.238 137.358C240.231 137.255 242.628 136.605 242.148 135.68C241.395 134.208 235.197 122.292 235.129 122.326C234.512 121.162 233.485 119.86 234.17 118.491C238.347 114.587 245.846 108.971 246.257 108.698C247.49 107.807 248.551 107.841 249.647 108.869C249.887 109.108 250.024 109.108 250.229 108.869C251.667 107.191 253.414 106.129 255.468 105.855C255.503 105.855 255.537 105.821 255.571 105.787C256.461 105.753 257.352 105.787 258.242 105.992C259.612 106.301 260.81 107.054 261.974 107.978C263.139 109.245 264.132 110.615 264.714 112.327C263.755 112.396 262.83 112.464 261.974 111.779C261.7 111.197 261.358 110.649 260.844 110.307C259.783 109.108 258.482 108.492 257.009 108.389C256.187 108.321 255.331 108.321 254.578 108.766C253.243 109.074 252.284 110.033 251.428 111.163C251.359 111.266 251.325 111.403 251.428 111.505C252.078 112.43 253.38 114.484 253.414 114.553C255.297 117.464 257.18 120.408 259.064 123.319C259.132 123.422 259.235 123.593 259.372 123.49C259.886 123.182 260.468 123.011 260.673 122.257C261.461 122.6 262.18 123.148 263.002 123.387C262.693 123.935 262.214 124.312 261.803 124.723C261.461 125.099 260.742 125.236 260.707 125.716C260.673 126.161 261.187 126.606 261.461 127.086C262.283 128.524 262.043 130.304 260.879 131.4C260.742 131.503 250.743 139.721 248.654 141.433C247.353 142.529 245.881 142.357 244.922 140.988C244.716 140.68 244.545 140.303 244.374 139.961C244.237 139.652 244.066 139.584 243.792 139.789C243.347 140.098 240.299 142.597 237.252 141.604C235.745 141.193 229.616 136.468 227.835 136.502Z" fill="#4A667D"/>
<path d="M235.676 123.252L237.183 121.882C237.594 121.506 238.141 121.985 237.936 122.533L237.628 123.629C237.388 124.451 237.936 125.272 238.689 125.272C239.682 125.238 241.155 125.101 242.97 124.724C246.565 123.971 242.25 127.669 240.778 127.567L246.496 128.423C247.113 128.525 247.387 129.381 246.942 129.895C245.812 131.23 243.62 132.908 240.436 131.573L237.388 130.272C236.224 129.792 235.334 128.731 234.923 127.43L234.751 126.916C234.375 125.58 234.717 124.108 235.676 123.252Z" fill="#955524"/>
<path d="M300.316 132.959C308.325 130.502 311.203 116.726 306.743 102.191C302.284 87.6548 292.176 77.8632 284.167 80.3204C276.158 82.7776 273.28 96.5531 277.74 111.089C282.199 125.625 292.307 135.416 300.316 132.959Z" fill="#EAECED"/>
<path d="M261.598 63.2915C265.057 62.2984 267.967 62.2299 270.022 65.3117C273.001 69.7632 276.117 73.6326 282.075 75.105C289.437 76.954 300.121 79.8646 304.161 88.6648C307.346 95.5475 303.168 100.547 302.21 101.471C288.65 114.792 277.042 98.5608 274.508 95.5132C270.912 91.233 267.659 80.9604 266.427 75.2762L266.153 73.9065C265.981 73.0504 265.023 72.708 264.372 73.2559C255.503 80.5495 253.449 70.859 253.243 69.9344C253.243 69.9002 253.209 69.8317 253.209 69.7974C252.524 67.8114 253.62 65.5514 255.503 65.0036L261.598 63.2915Z" fill="#17274E"/>
<path d="M277.145 136.329H295.738C301.282 140.767 305.446 157.181 306.834 164.832H257.762C257.762 164.832 265.8 136.685 265.536 135.987C265.273 135.289 277.145 136.329 277.145 136.329Z" fill="white"/>
<path d="M175.845 228.087C191.807 228 204.699 240.617 204.787 256.365C204.875 271.331 191.895 283.947 176.284 284.121C160.234 284.208 147.342 271.592 147.254 255.843C147.166 240.965 160.322 228.174 175.845 228.087ZM93.755 250.1C94.0181 252.102 93.8427 254.103 93.8427 256.104C93.8427 258.366 94.0181 260.541 93.8427 262.804C93.4919 266.11 94.9828 268.024 97.9647 269.155C103.227 271.157 108.489 273.332 113.751 275.333C117.61 276.812 119.715 281.772 118.136 285.687C115.944 291.081 113.751 296.476 111.559 301.87C110.682 304.133 111.032 306.047 112.962 307.874C116.558 311.18 120.066 314.661 123.486 318.141C125.065 319.794 126.819 320.316 128.924 319.446C134.625 317.184 140.413 314.922 146.201 312.659C149.797 311.18 154.884 313.182 156.463 316.749C158.831 322.143 161.286 327.625 163.742 333.019C164.794 335.282 166.461 336.239 169.092 336.152C173.828 335.978 178.476 335.891 183.212 336.152C186.369 336.326 188.299 335.108 189.439 332.323C191.632 327.103 193.824 321.969 195.929 316.749C197.332 313.182 202.419 310.919 206.015 312.311C211.453 314.487 216.978 316.488 222.415 318.576C225.222 319.62 227.59 319.446 229.87 316.923C232.94 313.53 236.272 310.397 239.693 307.265C241.622 305.525 242.061 303.611 241.096 301.261C238.991 296.215 236.886 291.081 234.606 286.035C232.414 281.249 234.255 276.725 239.167 274.637C244.429 272.462 249.603 270.286 254.778 268.024C257.234 266.98 258.461 265.24 258.286 262.282C258.023 258.018 257.935 253.755 258.286 249.578C258.637 245.663 256.883 243.662 253.462 242.357C248.288 240.356 243.113 238.267 237.939 236.266C234.606 234.961 232.414 230.002 233.817 226.695C236.009 221.388 238.202 216.08 240.307 210.773C241.447 208.076 241.096 205.813 238.64 203.725C235.22 200.767 231.975 197.461 228.818 194.154C226.801 192.066 224.783 191.718 222.152 192.762C217.153 194.85 212.066 196.764 207.067 198.94C201.717 201.202 197.332 199.462 195.14 194.241C193.035 189.282 190.755 184.322 188.474 179.45C187.334 177.014 185.492 175.795 182.686 175.969C177.95 176.143 173.302 176.143 168.566 175.969C165.672 175.882 163.83 176.927 162.777 179.45C160.497 184.844 158.217 190.152 156.024 195.546C154.709 198.853 149.359 201.028 146.026 199.723C140.588 197.548 135.063 195.546 129.626 193.458C126.819 192.414 124.451 192.588 122.171 195.111C119.101 198.505 115.768 201.637 112.348 204.682C110.506 206.335 109.98 208.163 110.945 210.338C113.225 215.819 115.505 221.301 117.873 226.695C119.364 230.089 117.435 235.309 114.014 236.701C108.577 238.963 103.227 241.226 97.7893 243.488C94.9828 244.88 93.3164 246.707 93.755 250.1Z" fill="#E6F1F5"/>
<path d="M172.893 5.27215L172.893 22.4731L142.93 52.4359L142.93 87.9474L153.75 98.7673L153.75 214.18L178.134 238.564L178.134 294.408" stroke="#A3B7C9" stroke-width="1.92306"/>
<path d="M210.346 36.3435L169.563 77.1262L169.563 110.141L159.021 120.683L159.021 213.901L182.82 237.701L182.82 293.98" stroke="#E6F1F5" stroke-width="1.92306"/>
<path d="M218.115 130.672L212.566 125.123L183.713 125.123L165.125 143.711L165.125 213.347L189.946 238.168L189.946 291.852" stroke="#A3B7C9" stroke-width="1.92306"/>
<path d="M183.991 142.6L183.991 158.414L170.674 171.731L170.674 213.068L195.346 237.741L195.346 288.016" stroke="#D1E3EE" stroke-width="1.92306"/>
<path d="M101.84 75.8516L87.413 75.8516L81.5869 70.0255" stroke="#D1E3EE" stroke-width="1.92306"/>
<path d="M120.181 69.3613L106.587 55.7671L106.587 35.7919L99.6509 28.856L92.1602 28.856" stroke="#D1E3EE" stroke-width="1.92306"/>
<path d="M125.87 37.2461L125.87 25.3164L121.153 20.6001" stroke="#A3B7C9" stroke-width="1.92306"/>
<path d="M136.272 67.1387L136.272 45.2214L149.589 31.9046L149.589 18.3104L139.602 8.32275" stroke="#D1E3EE" stroke-width="1.92306"/>
<path d="M160.963 96.8242L160.963 90.9981L148.479 78.5136L148.479 57.4286L159.021 46.8862" stroke="#A3B7C9" stroke-width="1.92306"/>
<path d="M178.267 49.9863L193.525 34.7275L193.525 23.9076" stroke="#A3B7C9" stroke-width="1.92306"/>
<path d="M171.506 122.072L182.603 110.975L182.603 95.4386L200.914 77.128L226.16 77.128L230.044 81.0121" stroke="#A3B7C9" stroke-width="1.92306"/>
<path d="M186.487 112.639L186.487 106.535L197.585 95.4378L207.85 95.4378" stroke="#D1E3EE" stroke-width="1.92306"/>
<path d="M197.861 110.975L203.41 105.426L213.952 105.426L223.663 95.7158" stroke="#E6F1F5" stroke-width="1.92306"/>
<path d="M175.39 97.6582L185.377 87.6706L185.377 75.4635L197.584 63.2564L208.959 63.2564" stroke="#D1E3EE" stroke-width="1.92306"/>
<path d="M210.069 47.9962L221.722 59.6484" stroke="#D1E3EE" stroke-width="1.92306"/>
<path d="M102.98 148.983L114.078 148.983L131.556 166.461L131.556 214.735L156.694 239.872L156.694 276.939" stroke="#A3B7C9" stroke-width="1.92306"/>
<circle cx="99.6506" cy="148.983" r="3.60664" transform="rotate(-90 99.6506 148.983)" fill="#A3B7C9"/>
<path d="M89.6641 120.961L103.258 120.961L121.569 139.271L121.569 146.485L136.55 161.466L136.55 214.178L161.391 239.019L161.391 285.033" stroke="#E6F1F5" stroke-width="1.92306"/>
<circle cx="86.3342" cy="121.237" r="3.60664" transform="rotate(-90 86.3342 121.237)" fill="#E6F1F5"/>
<path d="M123.232 132.613L92.9917 102.373L81.3394 102.373L70.5195 91.5531" stroke="#D1E3EE" stroke-width="1.92306"/>
<circle cx="68.5773" cy="89.6121" r="3.60664" transform="rotate(-90 68.5773 89.6121)" fill="#D1E3EE"/>
<circle cx="124.618" cy="134.001" r="3.60664" transform="rotate(-90 124.618 134.001)" fill="#D1E3EE"/>
<path d="M134.608 143.156L134.608 135.111L105.755 106.258L105.755 92.1085" stroke="#D1E3EE" stroke-width="1.92306"/>
<circle cx="105.199" cy="90.1668" r="3.60664" transform="rotate(-90 105.199 90.1668)" fill="#D1E3EE"/>
<circle cx="134.608" cy="145.653" r="3.60664" transform="rotate(-90 134.608 145.653)" fill="#D1E3EE"/>
<path d="M114.632 105.704L140.988 132.06L140.988 213.903L166.205 239.12L166.205 290.148" stroke="#A3B7C9" stroke-width="1.92306"/>
<circle cx="112.967" cy="104.04" r="3.60664" transform="rotate(-90 112.967 104.04)" fill="#A3B7C9"/>
<circle cx="183.99" cy="141.768" r="3.60664" transform="rotate(-90 183.99 141.768)" fill="#D1E3EE"/>
<circle cx="219.501" cy="131.227" r="3.60664" transform="rotate(-90 219.501 131.227)" fill="#A3B7C9"/>
<circle cx="197.307" cy="112.917" r="3.60664" transform="rotate(-90 197.307 112.917)" fill="#E6F1F5"/>
<circle cx="223.386" cy="95.7156" r="3.60664" transform="rotate(-90 223.386 95.7156)" fill="#E6F1F5"/>
<circle cx="207.85" cy="95.7156" r="3.60664" transform="rotate(-90 207.85 95.7156)" fill="#D1E3EE"/>
<circle cx="187.32" cy="114.581" r="3.60664" transform="rotate(-90 187.32 114.581)" fill="#D1E3EE"/>
<circle cx="171.229" cy="122.903" r="3.60664" transform="rotate(-90 171.229 122.903)" fill="#A3B7C9"/>
<circle cx="230.599" cy="82.3992" r="3.60664" transform="rotate(-90 230.599 82.3992)" fill="#A3B7C9"/>
<circle cx="210.624" cy="63.532" r="3.60664" transform="rotate(-90 210.624 63.532)" fill="#D1E3EE"/>
<circle cx="175.113" cy="97.9344" r="3.60664" transform="rotate(-90 175.113 97.9344)" fill="#D1E3EE"/>
<circle cx="210.07" cy="47.4422" r="3.60664" transform="rotate(-90 210.07 47.4422)" fill="#D1E3EE"/>
<circle cx="211.179" cy="36.3445" r="3.60664" transform="rotate(-90 211.179 36.3445)" fill="#E6F1F5"/>
<circle cx="177.434" cy="49.9832" r="3.60664" transform="rotate(-90 177.434 49.9832)" fill="#A3B7C9"/>
<circle cx="193.526" cy="22.7957" r="3.60664" transform="rotate(-90 193.526 22.7957)" fill="#A3B7C9"/>
<circle cx="160.13" cy="97.9344" r="3.60664" transform="rotate(-90 160.13 97.9344)" fill="#A3B7C9"/>
<circle cx="159.576" cy="45.7781" r="3.60664" transform="rotate(-90 159.576 45.7781)" fill="#A3B7C9"/>
<path d="M173.107 -0.000384488C175.099 -0.000384575 176.713 1.61436 176.713 3.60625C176.713 5.59814 175.099 7.21289 173.107 7.21289C171.115 7.21289 169.5 5.59814 169.5 3.60625C169.5 1.61436 171.115 -0.000384401 173.107 -0.000384488Z" fill="#A3B7C9"/>
<circle cx="139.046" cy="7.49102" r="3.60664" transform="rotate(-90 139.046 7.49102)" fill="#D1E3EE"/>
<circle cx="136.272" cy="69.6356" r="3.60664" transform="rotate(-90 136.272 69.6356)" fill="#D1E3EE"/>
<circle cx="120.875" cy="19.7684" r="3.60664" transform="rotate(-90 120.875 19.7684)" fill="#A3B7C9"/>
<circle cx="125.869" cy="39.1863" r="3.60664" transform="rotate(-90 125.869 39.1863)" fill="#A3B7C9"/>
<circle cx="120.735" cy="69.6356" r="3.60664" transform="rotate(-90 120.735 69.6356)" fill="#D1E3EE"/>
<circle cx="90.7727" cy="29.1316" r="3.60664" transform="rotate(-90 90.7727 29.1316)" fill="#D1E3EE"/>
<circle cx="80.4768" cy="68.2449" r="3.60664" transform="rotate(-90 80.4768 68.2449)" fill="#D1E3EE"/>
<circle cx="102.117" cy="76.0125" r="3.60664" transform="rotate(-90 102.117 76.0125)" fill="#D1E3EE"/>
<path d="M123.352 81.6523L136.114 94.4143L136.114 109.951" stroke="#D1E3EE" stroke-width="1.92306"/>
<circle cx="123.907" cy="81.3762" r="3.60664" transform="rotate(90 123.907 81.3762)" fill="#D1E3EE"/>
<circle cx="136.114" cy="111.339" r="3.60664" transform="rotate(90 136.114 111.339)" fill="#D1E3EE"/>
<circle cx="221.722" cy="60.2039" r="3.60664" transform="rotate(-90 221.722 60.2039)" fill="#D1E3EE"/>
<path fill-rule="evenodd" clip-rule="evenodd" d="M94.4417 249.252C94.4413 249.298 94.4413 249.345 94.4417 249.392V249.252ZM97.0694 268.651C97.5543 268.957 98.1056 269.224 98.7203 269.458C101.351 270.461 103.982 271.507 106.613 272.554C109.243 273.6 111.874 274.647 114.505 275.65C118.364 277.132 120.468 282.103 118.89 286.028L112.313 302.249C111.436 304.516 111.787 306.435 113.716 308.266C117.311 311.58 120.819 315.068 124.239 318.557C125.817 320.214 127.571 320.737 129.676 319.865C135.375 317.598 141.161 315.331 146.948 313.064L146.951 313.063C150.547 311.58 155.633 313.586 157.211 317.161C159.579 322.568 162.035 328.063 164.49 333.47C165.542 335.737 167.208 336.696 169.839 336.609C174.575 336.435 179.222 336.348 183.958 336.609C187.115 336.784 189.044 335.563 190.184 332.772C190.683 331.58 191.183 330.393 191.681 329.209C193.37 325.191 195.048 321.202 196.673 317.161C198.076 313.586 203.163 311.318 206.758 312.714C210.2 314.094 213.677 315.404 217.144 316.711C219.155 317.468 221.161 318.225 223.157 318.993C225.963 320.039 228.33 319.865 230.61 317.336C233.68 313.935 237.012 310.795 240.432 307.656C242.361 305.911 242.8 303.993 241.835 301.638C241.528 300.899 241.22 300.158 240.912 299.416C239.112 295.079 237.293 290.696 235.346 286.376C233.154 281.58 234.995 277.045 239.906 274.952C244.914 272.877 249.843 270.801 254.768 268.651H202.665C198.009 277.831 188.192 284.333 177.03 284.458C165.567 284.52 155.715 278.086 150.989 268.651H97.0694Z" fill="#E6F1F5"/>
<rect width="105.579" height="53.1589" rx="5.6996" transform="matrix(-1 -8.74228e-08 -8.74228e-08 1 105.579 287.941)" fill="#FFC01E"/>
<rect width="25.8411" height="38.3925" rx="4.4299" transform="matrix(-1 -8.74228e-08 -8.74228e-08 1 64.2334 207.465)" fill="#FF6847"/>
<path d="M79.3336 235.407C74.0677 235.407 73.6633 231.762 73.6633 231.762L56.2452 233.382L63.5363 238.243C63.5363 238.243 84.5994 235.407 79.3336 235.407Z" fill="#D1E3EE"/>
<path d="M87.4886 201.834C89.3103 199.862 91.9189 199.253 93.6318 200.378C93.592 200.428 93.5622 200.567 93.5722 200.657C93.5423 200.796 93.5125 200.936 93.4827 201.075C92.0485 200.01 89.6092 200.509 87.9966 202.321C86.2546 204.194 86.0462 206.803 87.4605 208.097C88.8747 209.391 91.4535 208.922 93.1457 207.01C94.5194 205.496 95.0167 203.445 94.3193 202.071C94.2596 201.941 94.2794 201.712 94.4985 201.642C94.6279 201.583 94.8569 201.603 94.9267 201.822C95.7038 203.504 95.1866 205.784 93.6537 207.497C91.6728 209.669 88.7355 210.177 87.0225 208.644C85.3094 207.111 85.5476 203.955 87.4886 201.834Z" fill="#FF6847"/>
<path d="M64.7505 237.435L93.9395 233.044C97.2988 232.522 98.8713 232.899 99.2287 239.016C99.5861 245.133 82.5855 283.872 79.5415 283.872C76.4975 283.872 66.776 283.872 66.776 283.872C79.738 255.665 83.0404 248.124 83.0404 248.124L65.8706 253.349C65.8706 253.275 60.6447 240.048 64.7505 237.435Z" fill="#D1E3EE"/>
<path d="M66.3714 240.269C74.3376 237.299 91.7303 232.408 97.5612 236.624C100.397 238.674 86.4895 266.733 77.308 279.155" stroke="white" stroke-width="0.405063"/>
<path d="M65.1555 231.761C65.1555 231.761 71.1139 289.036 61.1853 287.02C61.1853 287.02 28.8612 278.734 11.0195 282.69L12.0923 273.488C12.0923 273.488 29.9151 270.248 50.9783 268.627C50.9783 268.627 45.7125 245.939 48.1429 233.382C50.5733 220.825 65.1555 231.761 65.1555 231.761Z" fill="#D1E3EE"/>
<path d="M8.447 282.396L11.6875 281.586L11.6875 277.941L8.447 278.751C8.447 279.156 8.31198 281.316 8.447 282.396Z" fill="#955524"/>
<path d="M9.10913 278.562L8.59543 283.969C8.59543 284.417 8.67008 284.79 8.89404 285.163C9.26729 285.984 10.3124 286.283 11.1336 285.984C12.1787 285.537 15.6873 285.313 16.5085 287.552C16.6578 287.851 16.3592 288.224 16.0606 288.224L5.60938 287.701L6.42168 279.16L9.10913 278.562Z" fill="#17274E"/>
<path d="M73.4695 285.598L72.499 288.062H85.6377C86.1602 288.062 86.3842 287.465 86.0856 287.091C84.8912 285.822 82.1291 282.836 77.1274 285.598C76.3809 285.897 73.4695 285.598 73.4695 285.598Z" fill="#17274E"/>
<path fill-rule="evenodd" clip-rule="evenodd" d="M106.023 252.302L116.513 257.467L127.568 253.707L132.718 243.247L128.958 232.192L118.468 227.028L107.413 230.788L102.263 241.247L106.023 252.302ZM121.423 243.98C122.51 241.771 121.601 239.098 119.392 238.01C117.183 236.923 114.51 237.832 113.422 240.041C112.335 242.25 113.244 244.923 115.453 246.011C117.662 247.098 120.335 246.189 121.423 243.98Z" fill="#7B91A5"/>
<path d="M90.9437 218.803C90.9437 218.803 80.4258 254.173 127.13 248.777L127.479 252.435C127.479 252.435 83.7885 266.6 75.6875 223.663L90.9437 218.803Z" fill="#955524"/>
<path fill-rule="evenodd" clip-rule="evenodd" d="M91.2191 211.107C90.8612 210.093 90.1963 208.992 89.0547 207.863C84.6188 203.415 50.5737 208.271 47.7383 234.195L73.6624 231.765C73.6624 231.764 73.6591 231.753 73.6531 231.733C73.6252 231.639 73.5392 231.35 73.4612 230.911L91.4852 226.904V214.213C91.5924 213.611 91.625 212.899 91.4852 212.112V211.107H91.2191Z" fill="#F3F7FA"/>
<path d="M126.177 249.201L127.597 246.978C127.774 246.731 128.04 246.896 128.04 247.143C127.952 248.048 128.04 249.119 129.283 249.036C129.993 249.036 130.632 248.071 131.038 246.451C131.038 246.286 131.57 246.368 131.57 246.368C131.57 246.368 133.873 250.906 130.792 252.33C129.727 252.577 128.04 252.577 127.064 252.412L126.443 252.33L126.177 249.201Z" fill="#955524"/>
<path d="M77.308 285.635L78.1182 283.609L74.4726 283.609L73.6625 285.635C73.9865 285.959 76.2279 285.77 77.308 285.635Z" fill="#955524"/>
<path d="M58.1884 233.23C60.8889 242.682 66.7773 286.445 59.0807 283.609C51.3841 280.774 33.1567 277.128 17.7643 279.559" stroke="white" stroke-width="0.405063"/>
<path d="M18.1694 281.586C17.8993 279.696 17.6833 275.186 18.9795 272.27" stroke="white" stroke-width="0.405063"/>
<path d="M82.9795 279.965C79.604 279.56 72.2858 278.345 70.0175 276.725" stroke="white" stroke-width="0.405063"/>
<path d="M90.0667 221.598C92.2591 220.3 95.1441 216.048 89.1456 209.42C81.6474 201.135 81.9776 220.997 90.0667 221.598Z" fill="#955524"/>
<path d="M96.2092 197.053C96.5378 197.153 96.7172 197.541 96.7671 197.989L98.4791 195.848C100.55 193.259 104.313 192.839 106.903 194.91C109.492 196.98 109.911 200.744 107.841 203.333L102.328 210.413C101.89 210.961 101.303 211.389 100.646 211.598C99.2419 212.027 97.8275 211.598 96.8716 211.033L95.0177 209.57L90.7281 216.671C90.0812 217.786 88.5677 218.045 87.522 217.209L85.331 215.457C84.3848 214.701 84.2749 213.307 84.9916 212.41L92.1087 203.816L93.3828 202.222C93.2631 201.555 93.3823 200.589 93.7704 199.593C94.3972 197.89 95.4922 196.725 96.2092 197.053Z" fill="#955524"/>
<path d="M98.8805 207.688L102.147 209.4C102.147 209.4 98.6504 212.093 98.8805 207.688Z" fill="#D0B9A7"/>
<path d="M106.948 203.752C107.058 203.578 107.173 203.403 107.295 203.226C108.246 201.847 107.814 202.483 106.948 203.752C105.551 205.967 105.079 207.972 104.921 209.028C104.866 209.391 104.462 209.625 104.133 209.462L103.318 209.059C103.318 209.059 105.633 205.677 106.948 203.752Z" fill="#955524"/>
<path d="M97.4248 200.227C96.917 200.147 96.5982 199.729 96.5881 199.231L96.767 197.987C96.767 197.987 96.418 196.075 94.9149 197.649C94.5068 198.057 94.248 198.585 94.0291 199.063C93.6709 199.919 93.2033 201.423 93.4624 202.12L92.9227 222.08C92.4522 226.996 87.9556 226.911 85.6151 225.04C83.1751 223.089 85.5832 217.423 85.5832 217.423L91.809 200.308C91.809 200.308 95.5212 193.725 98.4979 191.942C100.549 190.806 103.307 190.318 106.892 193.185C111.075 196.529 110.419 199.596 108.946 201.438L97.4248 200.227Z" fill="#17274E"/>
<path d="M87.4886 201.834C89.3103 199.862 91.9189 199.253 93.6318 200.378C93.592 200.428 93.5622 200.567 93.5722 200.657C93.5423 200.796 93.5125 200.936 93.4827 201.075C92.0485 200.01 89.6092 200.509 87.9966 202.321C86.2546 204.194 86.0462 206.803 87.4605 208.097C88.8747 209.391 91.4535 208.922 93.1457 207.01C94.5194 205.496 95.0167 203.445 94.3193 202.071C94.2596 201.941 94.2794 201.712 94.4985 201.642C94.6279 201.583 94.8569 201.603 94.9267 201.822C95.7038 203.504 95.1866 205.784 93.6537 207.497C91.6728 209.669 88.7355 210.177 87.0225 208.644C85.3094 207.111 85.5476 203.955 87.4886 201.834Z" fill="#FF6847"/>
<path d="M223.986 162.426C222.868 162.417 221.762 162.2 220.735 161.788C219.708 161.376 218.78 160.777 218.007 160.027C216.435 158.496 215.568 156.456 215.589 154.341C215.61 152.225 216.518 150.201 218.12 148.697L223.375 142.808C223.477 142.706 223.602 142.625 223.74 142.57C223.879 142.516 224.028 142.489 224.179 142.492C224.329 142.494 224.478 142.524 224.616 142.58C224.754 142.636 224.879 142.717 224.983 142.819L230.147 148.781C231.72 150.311 232.589 152.35 232.57 154.465C232.551 156.581 231.645 158.606 230.045 160.111C229.257 160.859 228.313 161.449 227.272 161.847C226.23 162.245 225.112 162.442 223.986 162.426Z" fill="black"/>
</svg>
