<svg width="356" height="344" viewBox="0 0 356 344" fill="none" xmlns="http://www.w3.org/2000/svg">
<rect y="256.48" width="57" height="87" rx="10.8574" fill="#FFBE16"/>
<g filter="url(#filter0_d)">
<path d="M23.6885 17.6914C23.6885 11.2355 28.922 6.00195 35.378 6.00195H214.39C220.846 6.00195 226.079 11.2355 226.079 17.6914V299.789C226.079 306.246 220.845 311.479 214.389 311.479H35.3789C28.9225 311.479 23.6885 306.246 23.6885 299.789V17.6914Z" fill="#F8FCFF"/>
<rect x="45.0654" y="123.025" width="35.9385" height="35.9385" rx="5.94324" fill="#FF6847"/>
<path d="M72.581 140.73C72.7198 140.542 72.7769 140.308 72.7397 140.079C72.7024 139.851 72.5739 139.645 72.3823 139.509C72.3742 139.503 71.773 139.066 70.8999 138.128C72.5107 135.993 73.4232 133.564 73.7953 132.421H75.1062C75.3433 132.421 75.5706 132.328 75.7382 132.164C75.9058 132 76 131.778 76 131.546C76 131.313 75.9058 131.091 75.7382 130.927C75.5706 130.763 75.3433 130.671 75.1062 130.671H70.3937V129.875C70.3937 129.643 70.2996 129.42 70.132 129.256C69.9644 129.092 69.737 129 69.5 129C69.263 129 69.0356 129.092 68.868 129.256C68.7004 129.42 68.6062 129.643 68.6062 129.875V130.671H63.8937C63.6567 130.671 63.4294 130.763 63.2618 130.927C63.0942 131.091 63 131.313 63 131.546C63 131.778 63.0942 132 63.2618 132.164C63.4294 132.328 63.6567 132.421 63.8937 132.421H71.907C71.5203 133.493 70.8081 135.185 69.7218 136.731C68.4458 135.073 67.9717 134 67.968 133.991C67.8746 133.78 67.6999 133.613 67.4817 133.527C67.2635 133.441 67.0194 133.443 66.8024 133.532C66.5855 133.621 66.4131 133.79 66.3227 134.002C66.2323 134.215 66.2311 134.454 66.3195 134.667C66.343 134.722 66.9106 136.029 68.4669 138.006C68.5043 138.053 68.5412 138.099 68.5782 138.145C66.9841 139.909 65.42 141.003 64.7656 141.357C64.5575 141.468 64.403 141.655 64.3361 141.878C64.2692 142.101 64.2954 142.34 64.4089 142.544C64.5224 142.748 64.7139 142.899 64.9413 142.964C65.1687 143.03 65.4134 143.004 65.6215 142.893C65.7093 142.846 67.5959 141.824 69.7502 139.489C70.6651 140.447 71.294 140.898 71.3318 140.925C71.4268 140.992 71.5346 141.041 71.6488 141.068C71.7631 141.095 71.8816 141.099 71.9977 141.081C72.1137 141.063 72.2249 141.022 72.325 140.962C72.4251 140.902 72.5121 140.823 72.581 140.73V140.73Z" fill="white"/>
<path d="M64.9187 150.487L60.4997 139.675C60.4181 139.475 60.2796 139.304 60.1019 139.184C59.9241 139.064 59.7151 139 59.5012 139C59.2874 139 59.0783 139.064 58.9006 139.184C58.7228 139.304 58.5844 139.475 58.5028 139.675L54.0838 150.487C54.0288 150.62 54.0004 150.762 54 150.906C53.9996 151.05 54.0274 151.192 54.0817 151.325C54.136 151.458 54.2157 151.579 54.3163 151.68C54.417 151.782 54.5365 151.863 54.668 151.917C54.7995 151.972 54.9405 152 55.0828 152C55.2251 152 55.3659 151.971 55.4972 151.915C55.6285 151.86 55.7476 151.779 55.8477 151.677C55.9479 151.574 56.027 151.453 56.0807 151.32L56.9807 149.119H62.0218L62.9218 151.32C63.0033 151.52 63.1418 151.691 63.3196 151.811C63.4974 151.931 63.7065 151.995 63.9205 151.995C64.098 151.995 64.2727 151.951 64.4292 151.866C64.5857 151.782 64.7192 151.66 64.8179 151.51C64.9165 151.361 64.9772 151.19 64.9947 151.012C65.0122 150.833 64.9859 150.653 64.9182 150.487H64.9187ZM57.8728 146.936L59.5015 142.951L61.1301 146.936H57.8728Z" fill="#F8FCFF"/>
<rect x="45.0654" y="182.607" width="35.9385" height="35.9385" rx="5.94324" fill="#FF6847"/>
<path d="M57.7049 205.415L51.8339 201.899C51.5475 201.718 51.4043 201.474 51.4043 201.167C51.4043 200.891 51.5475 200.652 51.8339 200.451L57.7049 196.919C57.9913 196.77 58.2671 196.77 58.5323 196.919C58.7975 197.056 58.9301 197.279 58.9301 197.587C58.9301 197.905 58.7975 198.144 58.5323 198.303L53.7432 201.151L58.5323 204.015C58.7975 204.184 58.9301 204.418 58.9301 204.715C58.9301 204.927 58.8611 205.107 58.7232 205.256C58.5959 205.394 58.4368 205.484 58.2459 205.526C58.055 205.558 57.8746 205.521 57.7049 205.415Z" fill="white"/>
<path d="M60.7021 207.881C60.4051 207.881 60.1771 207.759 60.018 207.515C59.8695 207.282 59.8535 207.022 59.9702 206.735L64.7593 194.755C64.823 194.606 64.9238 194.489 65.0616 194.405C65.1995 194.32 65.348 194.277 65.5071 194.277C65.7829 194.277 66.0004 194.394 66.1595 194.627C66.3292 194.85 66.3557 195.115 66.239 195.423L61.4499 207.404C61.3863 207.573 61.2802 207.695 61.1317 207.77C60.9938 207.844 60.8506 207.881 60.7021 207.881Z" fill="white"/>
<path d="M68.391 205.415C68.2212 205.521 68.0409 205.558 67.85 205.526C67.6591 205.484 67.4947 205.394 67.3568 205.256C67.2295 205.107 67.1658 204.927 67.1658 204.715C67.1658 204.418 67.2984 204.184 67.5636 204.015L72.3527 201.151L67.5636 198.303C67.2984 198.144 67.1658 197.905 67.1658 197.587C67.1658 197.279 67.2984 197.056 67.5636 196.919C67.8288 196.77 68.1046 196.77 68.391 196.919L74.262 200.451C74.5484 200.652 74.6916 200.891 74.6916 201.167C74.6916 201.474 74.5484 201.718 74.262 201.899L68.391 205.415Z" fill="white"/>
<rect x="45.0654" y="242.279" width="35.9385" height="35.9385" rx="5.94324" fill="#FF6847"/>
<path fill-rule="evenodd" clip-rule="evenodd" d="M57.0014 254.404C55.5638 254.404 54.3984 255.57 54.3984 257.007V265.467C54.3984 266.904 55.5638 268.07 57.0014 268.07H66.1116C67.5491 268.07 68.7145 266.904 68.7145 265.467V262.815L71.4873 266.177C71.7591 266.507 72.2942 266.314 72.2942 265.887V256.589C72.2942 256.162 71.7591 255.97 71.4873 256.299L68.7145 259.661V257.007C68.7145 255.57 67.5491 254.404 66.1116 254.404H57.0014Z" fill="white"/>
<rect x="85.8506" y="130.646" width="89.3895" height="7.81719" rx="3.9086" fill="#D1E3EE"/>
<rect x="85.7646" y="141.996" width="47.2875" height="8.51176" rx="4.25588" fill="#D1E3EE"/>
<rect x="85.8506" y="190.598" width="89.3895" height="7.81719" rx="3.9086" fill="#D1E3EE"/>
<rect x="85.7646" y="201.945" width="47.2875" height="8.51176" rx="4.25588" fill="#D1E3EE"/>
<rect x="85.8506" y="250.545" width="89.3895" height="7.81719" rx="3.9086" fill="#D1E3EE"/>
<rect x="85.7646" y="261.895" width="47.2875" height="8.51176" rx="4.25588" fill="#D1E3EE"/>
</g>
<rect x="76.2568" y="82.0273" width="89.8514" height="7.39953" rx="3.17123" fill="#7B91A5"/>
<rect x="88.9414" y="95.7695" width="63.4245" height="4.2283" rx="2.11415" fill="#D1E3EE"/>
<circle cx="121.185" cy="46.4704" r="24.0993" fill="#FFC01E"/>
<mask id="mask0" style="mask-type:alpha" maskUnits="userSpaceOnUse" x="96" y="22" width="50" height="49">
<circle cx="121.097" cy="46.5596" r="24.1885" fill="#C4C4C4"/>
</mask>
<g mask="url(#mask0)">
<path d="M116.697 50.7559C116.697 50.7559 116.697 51.4653 116.637 51.7609C116.458 53.0615 115.74 56.2539 110.836 57.9683C110.537 58.0866 109.521 58.3822 109.222 58.5004C106.411 59.3872 112.511 62.7569 117.834 63.1708C126.505 63.8211 137.45 60.4513 131.05 56.8451C128.718 55.5445 122.139 57.8501 122.379 50.815H116.697V50.7559Z" fill="#FFDB80"/>
<path d="M116.5 37.7227V42.3925C115.926 41.9889 115.063 41.7007 114.948 43.2573C114.833 44.8715 115.868 45.9093 116.5 46.3705V52.5393H121.33C124.491 52.5393 127.078 49.9449 127.078 46.774V37.7227H116.5Z" fill="#FFDB80"/>
<path d="M116.495 48.4353C116.495 48.4353 110.551 44.3543 111.936 39.6984C113.321 35.0426 118.688 36.3646 120.765 34.3528C122.843 32.341 128.672 30.3292 129.307 36.5945C129.941 42.8598 127.114 42.4 127.114 42.4C127.114 42.4 124.632 38.5488 120.823 38.9512C120.823 38.9512 119.496 43.7795 116.495 42.4C115.11 41.7677 114.59 42.9173 115.225 44.5842C115.514 45.4464 116.553 46.0787 116.495 46.4235C116.437 47.6306 116.495 48.4353 116.495 48.4353Z" fill="#E8A700"/>
<path d="M113.153 38.6171C115.618 38.6171 117.616 36.619 117.616 34.1542C117.616 31.6895 115.618 29.6914 113.153 29.6914C110.689 29.6914 108.69 31.6895 108.69 34.1542C108.69 36.619 110.689 38.6171 113.153 38.6171Z" fill="#E8A700"/>
<path d="M108.951 58.4935L107.101 59.7452C103.521 62.3082 101.372 66.4209 101.372 70.8316V78.2822H112.114V91.9913H131.689L132.943 76.5537L134.673 78.3418L141.895 70.474L137.896 63.5003C136.225 60.6988 133.778 58.3743 130.914 56.8245C130.914 56.7649 121.066 64.9904 108.951 58.4935Z" fill="#E8A700"/>
</g>
<path d="M344.028 31.0268C344.028 27.0295 340.788 23.7891 336.791 23.7891L247.986 23.7891C243.989 23.7891 240.749 27.0295 240.749 31.0268L240.749 149.404C240.749 153.401 243.989 156.641 247.986 156.641L336.791 156.641C340.788 156.641 344.028 153.401 344.028 149.404L344.028 31.0268Z" fill="#FFBE16"/>
<path d="M290.171 69.7482C298.077 73.7011 294.09 74.6272 307.531 78.6113C310.546 79.4828 335.544 86.3305 327.756 96.7889C314.943 114.095 336.675 107.247 340.695 113.846C344.715 120.445 336.801 125.674 336.801 125.674C336.801 125.674 348.86 131.276 337.931 138.249C328.887 143.976 295.723 127.79 294.718 120.818C293.21 118.951 292.205 117.083 292.08 115.34C291.954 114.468 291.829 113.721 291.703 113.099C290.824 112.352 289.567 111.729 288.06 111.356C282.407 109.986 276.503 107.87 278.638 100.275C279.643 96.7889 285.864 84.8916 277.322 75.6783C278.376 75.6788 282.633 64.519 290.171 69.7482Z" fill="#FF6847"/>
<path d="M293.587 96.7882C293.587 96.7882 290.949 93.9247 288.185 82.3458C286.804 76.4941 288.562 70.5179 282.658 71.6384L276.827 80.619C276.827 80.619 281.904 86.0809 277.382 91.0611C277.005 91.5591 277.256 92.3061 277.885 92.3061L279.769 92.5551C282.03 99.7763 288.562 96.6637 289.693 97.2863C290.321 99.0293 291.452 106.375 290.698 108.492L296.853 107.371C294.969 105.255 293.838 98.7803 293.587 96.7882C293.447 96.1751 294.09 99.0293 293.587 96.7882Z" fill="#F7E1D2"/>
<path d="M281.605 93.4603C283.756 93.1505 283.446 91 283.446 91" stroke="#926F56" stroke-width="0.737599" stroke-linecap="round"/>
<path d="M290.32 146.963C291.074 149.827 292.456 152.939 293.587 156.923L315.319 156.923C314.817 152.068 315.193 147.087 314.942 142.854C317.706 140.24 318.962 133.392 317.706 128.785L336.926 142.356L334.916 116.833C334.916 116.833 325.494 99.7759 299.616 104.632L290.823 106.499C276.753 109.238 282.909 135.758 282.909 135.758C283.537 140.489 286.929 144.971 290.32 146.963Z" fill="#D6D6D6"/>
<path d="M290.07 106.62C290.07 106.62 288.312 125.794 295.598 118.822C302.884 111.85 298.738 105.002 298.738 105.002L290.07 106.62Z" fill="#F7E1D2"/>
<path d="M299.065 80.9712L292.269 82.1699L281.115 84.2078L280.217 78.3339C280.217 77.9743 279.704 77.9743 279.576 78.3339L278.935 84.5674L276.242 85.0469C275.729 85.1667 275.345 84.6873 275.345 84.2078C275.345 80.4917 278.294 68.2645 284.833 68.2645C296.501 68.1446 299.065 80.9712 299.065 80.9712Z" fill="#FF6847"/>
<path d="M344.213 123.929C342.203 121.19 322.983 96.5383 297.984 105.129L307.783 156.923L335.545 156.923C323.862 145.593 317.707 128.785 317.707 128.785L338.685 143.601C341.952 145.468 343.459 145.468 344.213 144.721L344.213 123.929Z" fill="white"/>
<path d="M294.467 156.923L285.296 156.923C284.668 145.22 284.04 136.504 283.286 138.994L274.744 120.07C282.909 106.125 290.07 106.623 290.07 106.623L294.467 156.923Z" fill="white"/>
<path d="M339.209 125.054C339.586 130.035 342.6 128.665 342.6 128.665C343.731 126.051 344.61 127.171 346.369 126.3C348.128 125.428 345.49 122.564 344.359 121.195C343.229 120.074 338.706 120.074 339.209 125.054Z" fill="#F7E1D2"/>
<path d="M343.857 119.326C342.475 119.077 341.219 119.575 341.094 120.323C340.968 121.07 341.973 121.941 343.355 122.19C344.737 122.439 346.495 121.692 346.621 121.194C346.747 120.945 345.239 119.576 343.857 119.326Z" fill="#F7E1D2"/>
<circle cx="197.383" cy="104.013" r="22.2107" fill="#F8FCFF"/>
<path d="M229.68 115.798C232.184 114.143 233.74 111.356 233.845 108.343C233.95 105.33 232.589 102.45 230.204 100.648L226.782 98.0581C225.732 97.2658 225.285 95.8769 225.671 94.6032L226.925 90.46C227.798 87.5711 227.224 84.4341 225.388 82.0656C223.551 79.699 220.668 78.3911 217.693 78.5573L213.414 78.8081C212.105 78.8791 210.876 78.1152 210.362 76.8928L208.69 72.9158C207.528 70.1441 205.088 68.1212 202.17 67.5082C199.252 66.8951 196.205 67.7651 194.025 69.8303L190.893 72.7978C189.931 73.7104 188.502 73.9156 187.326 73.3226L183.512 71.3714C180.852 70.019 177.693 70.0575 175.058 71.4866C172.424 72.9157 170.636 75.5566 170.273 78.5526L169.753 82.852C169.592 84.1711 168.626 85.2628 167.343 85.5693L163.169 86.5609C160.26 87.2507 157.855 89.3373 156.738 92.1398C155.621 94.9422 155.924 98.1197 157.551 100.641L159.884 104.26C160.601 105.369 160.55 106.832 159.759 107.896L157.179 111.367C155.383 113.784 154.859 116.937 155.783 119.802C156.707 122.666 158.96 124.895 161.814 125.761L165.911 127.008C167.168 127.39 168.057 128.538 168.126 129.864L168.349 134.185C168.504 137.197 170.106 139.94 172.638 141.527C175.167 143.113 178.315 143.35 181.068 142.157L185.009 140.443C186.218 139.922 187.636 140.211 188.531 141.183L191.451 144.338C192.748 145.74 194.431 146.676 196.245 147.057C197.276 147.273 198.349 147.31 199.42 147.154C202.374 146.718 204.947 144.852 206.301 142.159L208.244 138.293C208.84 137.105 210.117 136.412 211.421 136.57L215.67 137.077C218.632 137.432 221.593 136.3 223.589 134.049C225.585 131.798 226.377 128.701 225.705 125.763L224.739 121.549C224.444 120.257 224.985 118.897 226.088 118.17L229.68 115.798ZM211.525 103.784L187.746 119.505C187.049 119.965 186.235 120.097 185.482 119.939C184.729 119.781 184.037 119.333 183.585 118.631L175.864 106.65C174.96 105.246 175.355 103.363 176.749 102.441C178.142 101.52 180.003 101.911 180.908 103.315L186.992 112.754L208.248 98.701C209.641 97.7797 211.502 98.1707 212.407 99.5749C213.312 100.979 212.916 102.862 211.525 103.784Z" fill="#FF6847"/>
<rect x="305.984" y="6" width="49.4171" height="64.9869" rx="10.1542" fill="#F8F8F8"/>
<path d="M267.92 137.964C254.855 145.932 230.904 116.958 230.904 116.958C230.904 116.958 231.802 115.049 231.802 113.391C231.677 113.764 227.549 116.901 226.064 117.846C225.608 118.136 224.849 118.589 224.579 119.467C224.579 119.467 220.411 119.074 219.687 121.263C219.687 124.129 228.085 122.104 229.09 121.979C229.304 122.302 232.411 123.308 246.355 142.855C257.747 158.825 266 147 266 147L267.92 137.964Z" fill="#F7E1D2"/>
<path d="M258.5 155.5L286 137L281.5 111L258.5 137L235 119L230 128.5L258.5 155.5Z" fill="white"/>
<defs>
<filter id="filter0_d" x="12.3395" y="0.327448" width="225.089" height="328.176" filterUnits="userSpaceOnUse" color-interpolation-filters="sRGB">
<feFlood flood-opacity="0" result="BackgroundImageFix"/>
<feColorMatrix in="SourceAlpha" type="matrix" values="0 0 0 0 0 0 0 0 0 0 0 0 0 0 0 0 0 0 127 0" result="hardAlpha"/>
<feOffset dy="5.6745"/>
<feGaussianBlur stdDeviation="5.6745"/>
<feColorMatrix type="matrix" values="0 0 0 0 0.0764236 0 0 0 0 0.165046 0 0 0 0 0.591667 0 0 0 0.1 0"/>
<feBlend mode="normal" in2="BackgroundImageFix" result="effect1_dropShadow"/>
<feBlend mode="normal" in="SourceGraphic" in2="effect1_dropShadow" result="shape"/>
</filter>
</defs>
</svg>
