<svg width="48" height="46" viewBox="0 0 48 46" fill="none" xmlns="http://www.w3.org/2000/svg">
<path d="M46.7058 20.8629C47.244 20.4603 47.6432 19.8986 47.8475 19.2567C48.0517 18.6147 48.0508 17.9247 47.8448 17.2833C47.6388 16.6419 47.2381 16.0814 46.6988 15.6802C46.1596 15.2791 45.5088 15.0575 44.8378 15.0465L31.8051 14.5521C31.741 14.5476 31.6796 14.5247 31.6282 14.486C31.5768 14.4473 31.5377 14.3945 31.5155 14.334L27.012 2.11957C26.7857 1.49814 26.3748 0.961548 25.8347 0.582435C25.2947 0.203321 24.6517 0 23.9928 0C23.3338 0 22.6908 0.203321 22.1508 0.582435C21.6108 0.961548 21.1998 1.49814 20.9735 2.11957L16.4845 14.3776C16.4623 14.4381 16.4232 14.4909 16.3718 14.5296C16.3204 14.5683 16.259 14.5913 16.1949 14.5957L3.16223 15.0901C2.4912 15.1011 1.84042 15.3227 1.30115 15.7239C0.761883 16.125 0.36116 16.6856 0.155171 17.327C-0.0508173 17.9683 -0.0517415 18.6584 0.152528 19.3003C0.356798 19.9422 0.756018 20.5039 1.29421 20.9065L11.5176 28.9767C11.5688 29.0171 11.607 29.0717 11.6276 29.1338C11.6482 29.1958 11.6502 29.2625 11.6335 29.3257L8.11464 41.8455C7.93229 42.483 7.94996 43.1615 8.16523 43.7886C8.3805 44.4157 8.78293 44.9609 9.31777 45.3502C9.8526 45.7395 10.4939 45.9539 11.1544 45.9643C11.8148 45.9746 12.4625 45.7804 13.0091 45.408L23.8118 38.1375C23.865 38.1006 23.9281 38.0809 23.9928 38.0809C24.0574 38.0809 24.1206 38.1006 24.1738 38.1375L34.9764 45.408C35.5157 45.7931 36.161 46 36.8227 46C37.4844 46 38.1297 45.7931 38.669 45.408C39.204 45.0224 39.6068 44.4797 39.822 43.8548C40.0372 43.2298 40.0543 42.5533 39.8709 41.9182L36.3231 29.3548C36.3043 29.2917 36.3053 29.2243 36.3261 29.1619C36.3468 29.0994 36.3862 29.0449 36.439 29.0058L46.7058 20.8629Z" fill="url(#paint0_linear)"/>
<defs>
<linearGradient id="paint0_linear" x1="24" y1="0" x2="24" y2="46" gradientUnits="userSpaceOnUse">
<stop stop-color="#FFBE16"/>
<stop offset="1" stop-color="#FF7A00"/>
</linearGradient>
</defs>
</svg>
