<svg width="329" height="341" viewBox="0 0 329 341" fill="none" xmlns="http://www.w3.org/2000/svg">
<rect x="159.562" width="63.8247" height="77.6996" rx="10.4062" fill="#ED5F42"/>
<rect x="96" y="270" width="44" height="71" rx="5.54997" fill="#FFC01E"/>
<rect y="36.7695" width="270.531" height="191.143" rx="7.32816" fill="#E6EFF3"/>
<path d="M127.39 74.0197H28.3323C21.1045 74.0197 15.2666 68.2897 15.2666 61.1954C15.2666 54.1011 21.1045 48.3711 28.3323 48.3711H127.39C134.618 48.3711 140.456 54.1011 140.456 61.1954C140.456 68.2897 134.618 74.0197 127.39 74.0197Z" fill="white"/>
<path d="M38.0702 61.2144C38.0702 65.6053 34.5026 69.173 30.2032 69.173C25.8123 69.173 22.2446 65.6053 22.2446 61.2144C22.2446 56.8235 25.8123 53.2559 30.2032 53.2559C34.5026 53.2559 38.0702 56.8235 38.0702 61.2144ZM29.6543 59.7508C28.6481 59.7508 27.7333 59.6593 26.727 59.6593C26.6356 60.94 26.6356 62.1292 26.8185 63.3184C27.7333 63.3184 28.6481 63.2269 29.6543 63.2269C29.6543 61.9462 29.6543 60.8485 29.6543 59.7508ZM33.4964 63.2269C33.6793 62.0377 33.6793 60.8485 33.5878 59.5678C32.5816 59.5678 31.6668 59.6593 30.752 59.6593C30.752 60.8485 30.752 61.9462 30.752 63.044C31.5753 63.1354 32.4901 63.2269 33.4964 63.2269ZM36.7896 59.1104C36.0577 59.2934 35.3259 59.3849 34.5941 59.5678C34.5941 60.8485 34.5941 62.1292 34.5941 63.4099C35.2344 63.5013 35.9663 63.6843 36.6981 63.7758C37.2469 62.1292 37.2469 60.6655 36.7896 59.1104ZM23.5253 59.1104C22.9765 60.2082 23.0679 62.678 23.7083 63.5928C24.4401 63.5013 25.0804 63.4099 25.8123 63.2269C25.7208 62.5866 25.7208 61.9462 25.6293 61.3059C25.6293 60.6655 25.6293 60.0252 25.7208 59.3849C24.989 59.3849 24.2571 59.2934 23.5253 59.1104ZM29.6543 54.3536C28.3736 54.628 27.2759 56.8235 27.0015 58.5616C27.9162 58.5616 28.7395 58.653 29.6543 58.653C29.6543 57.1894 29.6543 55.8172 29.6543 54.3536ZM33.3134 58.653C33.1305 57.5553 32.7645 56.6405 32.2157 55.8172C31.9412 55.3598 31.5753 55.0854 31.2094 54.7195C31.0265 54.5365 30.8435 54.5365 30.6606 54.4451C30.6606 55.9087 30.6606 57.3723 30.6606 58.836C31.5753 58.653 32.3986 58.653 33.3134 58.653ZM27.0929 64.2332C27.3674 65.1479 27.6418 65.9712 28.1907 66.7031C28.4651 67.1604 28.9225 67.4349 29.2884 67.8008C29.3799 67.8923 29.5628 67.8923 29.6543 67.9837C29.6543 66.7031 29.6543 65.3309 29.6543 64.1417C28.9225 64.1417 28.2821 64.1417 27.6418 64.1417C27.4588 64.1417 27.2759 64.2332 27.0929 64.2332ZM30.6606 67.9837C31.6668 67.8008 33.1305 65.6053 33.2219 64.1417C32.3986 64.1417 31.5753 64.0502 30.6606 64.0502C30.6606 65.4224 30.6606 66.7031 30.6606 67.9837ZM25.9037 58.4701C26.1782 57.7383 26.3611 57.0979 26.6356 56.4576C26.91 55.8172 27.2759 55.2684 27.6418 54.628C25.9952 55.2684 24.7145 56.4576 23.8912 58.1042C24.623 58.2871 25.2634 58.3786 25.9037 58.4701ZM36.4236 58.1956C35.6003 56.732 34.5026 55.6343 33.039 54.9939C33.7708 56.0917 34.1367 57.2809 34.4111 58.5616C35.0515 58.3786 35.6918 58.2871 36.4236 58.1956ZM27.6418 67.6178C27.2759 67.069 27.0015 66.5201 26.727 65.9712C26.4526 65.4224 26.2696 64.8735 25.9952 64.2332C25.3549 64.3246 24.7145 64.4161 24.0742 64.5076C24.989 66.0627 26.1782 67.069 27.6418 67.6178ZM36.2407 64.5991C35.5089 64.5076 34.96 64.4161 34.4111 64.3246C33.9538 65.4224 33.5878 66.4286 33.1305 67.4349C34.4111 66.886 35.4174 65.9712 36.2407 64.5991Z" fill="#A3B7C9"/>
<path d="M63.9584 65.5833H50.6027C48.0413 65.5833 46.0288 63.5708 46.0288 61.0094C46.0288 58.4481 48.0413 56.4355 50.6027 56.4355H63.9584C66.5198 56.4355 68.5323 58.4481 68.5323 61.0094C68.5323 63.4793 66.5198 65.5833 63.9584 65.5833Z" fill="#A3B7C9"/>
<path d="M125.706 65.5833H79.7843C77.223 65.5833 75.2104 63.5708 75.2104 61.0094C75.2104 58.4481 77.223 56.4355 79.7843 56.4355H125.798C128.359 56.4355 130.371 58.4481 130.371 61.0094C130.28 63.4793 128.267 65.5833 125.706 65.5833Z" fill="#EEF2F4"/>
<rect x="84.8843" y="177.836" width="42.137" height="24.4272" rx="3.66408" fill="white"/>
<rect x="143.509" y="150.357" width="42.137" height="51.9078" rx="3.66408" fill="white"/>
<rect x="202.135" y="97.2266" width="42.137" height="105.037" rx="3.66408" fill="white"/>
<circle cx="233.585" cy="73.7162" r="10.6869" fill="white"/>
<path d="M40.9155 138.141L111.942 101.641L128.713 116.438L233.28 74.0195" stroke="#17274E" stroke-width="1.22136"/>
<circle cx="129.159" cy="115.853" r="3.35874" fill="#ED5F42"/>
<circle cx="39.9989" cy="138.449" r="3.35874" fill="#FFBE16"/>
<circle cx="233.585" cy="73.7162" r="3.35874" fill="#FFBE16"/>
<rect x="264.291" y="100.447" width="63.8247" height="151.237" rx="10.4062" fill="#ED5F42"/>
<path d="M236.007 146.441C236.007 146.441 235.49 142.926 235.076 143.96C234.663 144.994 234.973 146.131 234.973 146.131L236.007 146.441Z" fill="#955524"/>
<path d="M284.295 156.47C284.502 156.16 284.605 155.953 284.812 155.643C284.605 155.849 284.502 156.16 284.295 156.47Z" fill="#955524"/>
<path d="M282.951 158.436C282.951 158.436 283.365 157.815 283.882 156.988C283.675 157.402 283.365 157.919 282.951 158.436Z" fill="#955524"/>
<path d="M284.812 155.54C285.019 155.126 285.226 154.816 285.432 154.609C285.226 154.92 285.019 155.23 284.812 155.54Z" fill="#955524"/>
<path d="M283.882 156.988C283.985 156.781 284.089 156.574 284.192 156.471C284.192 156.574 283.985 156.781 283.882 156.988Z" fill="#955524"/>
<path d="M285.432 154.609C285.536 154.506 285.536 154.402 285.639 154.299C285.536 154.402 285.536 154.506 285.432 154.609Z" fill="#955524"/>
<path d="M285.64 154.3C285.743 154.093 285.846 153.887 285.95 153.783C285.846 153.99 285.743 154.093 285.64 154.3Z" fill="#955524"/>
<path d="M285.949 153.886C286.053 153.679 286.053 153.679 285.949 153.886V153.886Z" fill="#955524"/>
<path d="M239.523 152.023C239.523 152.023 272.921 173.324 282.951 158.434L288.844 162.467C288.844 162.467 280.779 183.767 262.374 169.705C262.374 169.705 245.003 163.914 237.972 151.816L239.523 152.023Z" fill="#955524"/>
<path d="M226.495 154.196L234.56 165.053C235.181 165.881 236.421 166.087 237.249 165.467L257.205 152.025C258.032 151.405 258.239 150.267 257.618 149.44L249.553 138.686C248.933 137.859 247.692 137.652 246.865 138.273L226.909 151.715C226.081 152.232 225.875 153.369 226.495 154.196Z" fill="#FFBE16"/>
<path d="M229.782 154.589L242.81 145.903L242.086 144.766L228.955 153.555L229.782 154.589Z" fill="white"/>
<path d="M232.596 158.642L252.138 145.511L251.311 144.477L231.769 157.608L232.596 158.642Z" fill="white"/>
<path d="M237.145 149.13C237.662 150.992 235.077 150.888 233.733 149.751C231.768 148.096 233.733 146.028 234.87 145.718C234.973 145.408 236.835 148.096 237.145 149.13Z" fill="#955524"/>
<path d="M250.483 154.609C250.483 154.609 254.723 191.213 271.474 195.762C288.224 200.312 293.601 178.598 293.601 178.598L280.78 168.258C280.78 168.258 277.471 185.836 266.614 175.599C257.825 167.327 255.033 149.853 249.243 149.853C243.452 149.853 240.04 149.543 242.625 150.783C243.349 151.197 245.624 150.887 246.244 151.507C247.795 153.162 247.692 155.953 250.483 154.609Z" fill="#955524"/>
<mask id="mask0" style="mask-type:alpha" maskUnits="userSpaceOnUse" x="263" y="110" width="66" height="142">
<rect x="263.597" y="110.855" width="64.5184" height="140.831" rx="10.4062" fill="white"/>
</mask>
<g mask="url(#mask0)">
<path d="M329.275 206.631H298.462C296.704 224.105 294.326 250.266 295.256 258.848C296.704 272.083 287.812 325.437 287.812 325.437H290.397C290.397 325.437 310.766 261.019 312.421 251.093C312.628 249.749 312.111 247.06 312.731 245.819L311.8 263.811C311.8 267.016 312.111 270.325 312.731 273.427L324.208 324.3H326.793C326.793 324.3 329.275 285.628 323.174 261.433C323.071 261.536 329.378 230.826 329.275 206.631Z" fill="#784C2A"/>
<path d="M329.275 204.148L300.323 204.872C300.53 211.8 301.047 220.072 302.184 227.103C303.528 235.375 306.113 244.578 308.181 251.506C310.146 257.71 311.387 264.224 312.11 270.738C312.317 272.289 312.524 273.84 312.834 275.391L324.001 324.403H326.586C326.69 324.403 329.585 216.556 329.275 204.148Z" fill="#955524"/>
<path d="M328.415 191.252C328.415 191.252 332.278 214.003 329.508 233.274L285.421 230.176C285.421 230.176 290.807 207.917 298.195 194.143C298.301 194.043 316.191 196.006 328.415 191.252Z" fill="white"/>
<path d="M288.225 113.883C288.122 113.779 282.228 115.744 285.743 124.74L286.26 116.571C286.26 116.571 288.535 114.503 288.225 113.883Z" fill="#17274E"/>
<path d="M283.675 127.634C286.364 126.393 285.847 116.984 286.157 117.501L297.738 119.155L297.324 133.011L299.599 140.146L296.29 142.007L293.498 136.63L288.225 136.01C285.95 135.699 283.985 134.148 284.296 131.667L284.709 129.702C283.675 129.289 282.124 128.358 283.675 127.634Z" fill="#955524"/>
<path d="M288.911 130.024C288.963 129.933 288.923 129.791 288.833 129.739C288.742 129.687 288.599 129.725 288.547 129.816C288.391 130.088 287.16 132.03 285.07 131.677C284.979 131.625 284.927 131.715 284.875 131.806C284.823 131.896 284.914 131.948 285.005 132C287.42 132.419 288.911 130.024 288.911 130.024Z" fill="#EAC7AC"/>
<path d="M313.971 156.688L319.761 157.928C319.761 157.928 328.757 184.088 328.757 193.188C328.757 193.188 318.417 199.185 297.427 197.634C296.496 197.53 296.082 196.496 296.703 195.876C298.461 194.118 299.598 191.43 298.771 182.331C297.53 168.372 288.327 160.823 294.118 159.169C299.908 157.515 313.971 156.688 313.971 156.688Z" fill="#D6D6D6"/>
<path d="M295.153 114.503C298.358 114.916 300.943 117.191 301.667 120.086C302.804 124.326 304.355 128.152 308.905 131.254C314.489 135.079 325.035 142.111 325.759 149.866C326.38 155.966 320.693 157.517 319.659 157.827C316.143 158.758 303.011 155.449 299.599 142.111C299.599 142.007 299.599 142.007 299.496 141.904L298.151 139.422C295.98 135.286 295.05 130.737 295.773 126.084L295.877 124.946C295.98 124.222 295.256 123.705 294.532 123.912C285.02 126.29 285.95 117.191 286.054 116.467V116.364C286.054 114.71 287.605 113.365 289.363 113.676L295.153 114.503Z" fill="#17274E"/>
<path d="M311.634 172.069C320.097 161.949 320.778 148.579 313.156 142.205C305.533 135.83 292.494 138.866 284.032 148.985C277.886 161.496 273.039 176.974 280.661 183.348C288.283 189.722 301.473 180.574 311.634 172.069Z" fill="#EAECED"/>
</g>
<rect x="29.8564" y="139.201" width="87.4121" height="176.905" rx="10.4062" fill="white"/>
<path d="M102.139 173.882C102.139 173.882 113.617 166.954 115.581 161.371C118.993 151.444 122.612 132.832 122.819 129.627L126.438 129.523L127.265 164.679C128.713 177.191 108.447 188.565 101.312 190.529L102.139 173.882Z" fill="#EAC7AC"/>
<path d="M125.611 133.039C125.611 133.039 127.369 132.315 128.713 130.247C129.54 129.006 129.54 127.455 129.023 126.007L127.679 123.112L129.23 117.425C129.23 117.425 128.61 116.184 127.679 117.942C126.542 120.114 125.094 123.319 125.094 123.319L123.853 124.146C123.13 124.663 122.613 125.49 122.613 126.318C122.509 127.455 122.613 129.109 123.13 130.04L125.611 133.039Z" fill="#EAC7AC"/>
<mask id="mask1" style="mask-type:alpha" maskUnits="userSpaceOnUse" x="25" y="141" width="93" height="176">
<rect x="25" y="141.975" width="92.2683" height="174.13" rx="10.4062" fill="#FFC01E"/>
</mask>
<g mask="url(#mask1)">
<path d="M58.8721 226.273L81.3098 261.326C102.3 270.321 108.814 353.558 113.777 359.349L116.983 355.213C116.983 355.213 120.912 282.109 111.296 262.256L92.7872 218.932L58.8721 226.273Z" fill="#E6EFF3"/>
<path d="M78.5173 256.983L79.6547 263.394C81.3091 279.007 54.1149 354.799 54.1149 354.799L49.4619 356.764C49.4619 356.764 63.9379 291.105 53.5979 250.262L49.4619 226.584L58.8713 226.17L78.5173 256.983Z" fill="#E6EFF3"/>
<path d="M82.1363 151.723L90.0981 163.2C91.7525 165.578 91.0287 168.784 88.5471 170.231L84.9281 172.299V174.574H75.0017C75.0017 174.574 77.4833 166.922 75.0017 157.927C74.8983 157.927 79.4479 157.823 82.1363 151.723Z" fill="#EAC7AC"/>
<path d="M89.6683 164.365C89.7662 164.329 89.8278 164.195 89.7915 164.096C89.7551 163.998 89.6208 163.936 89.5229 163.972C89.2291 164.081 87.0382 164.78 85.6622 163.167C85.6258 163.069 85.5279 163.105 85.43 163.142C85.332 163.178 85.3684 163.276 85.4047 163.374C86.9878 165.245 89.6683 164.365 89.6683 164.365Z" fill="#955524"/>
<path d="M103.437 172.093C103.437 172.093 114.914 165.165 116.879 159.582C120.291 149.655 123.91 131.043 124.117 127.838L127.736 127.734L128.563 162.89C130.01 175.402 109.744 186.776 102.609 188.74L103.437 172.093Z" fill="#EAC7AC"/>
<path d="M46.0496 194.84L43.051 200.837C40.0524 206.834 42.017 214.072 47.4972 217.898L49.1515 219.035L50.8059 198.459L46.0496 194.84Z" fill="#EAC7AC"/>
<path d="M103.96 168.068C103.34 166.827 101.272 166.62 99.8245 167.447C93.6205 171.273 80.4887 180.786 84.8315 188.851C89.3811 197.33 105.822 191.643 111.819 189.265C113.06 188.748 113.783 187.61 113.266 186.68L103.96 168.068Z" fill="#EAECED"/>
<path d="M45.4295 196.699C43.6717 196.182 42.9479 194.114 43.9819 192.563C48.3247 186.152 59.3885 172.503 71.2795 176.329C83.7908 180.362 78.5174 197.216 76.1392 203.42C75.6222 204.764 74.1747 205.385 72.8305 204.971L45.4295 196.699Z" fill="#EAECED"/>
<path d="M92.476 174.264H76.8626C66.8328 174.264 57.5268 180.157 53.4942 189.36C49.0481 199.39 48.3243 236.407 49.5651 259.155C49.5651 259.155 92.476 267.737 112.846 262.257C112.846 262.257 95.4746 220.07 92.476 174.264Z" fill="#EAECED"/>
<path d="M75.5186 160.1C75.2084 159.066 75.8288 158.032 76.8628 157.722C77.5866 157.515 78.3104 157.205 79.0342 156.585C82.1362 154.103 85.0314 148.933 82.9634 144.797C82.9634 144.797 81.5158 141.902 78.4138 145.934C78.207 146.245 78.0002 146.141 77.8968 145.934C77.5866 144.9 76.3458 144.694 75.7254 145.521C73.554 148.83 73.1404 155.137 68.4874 154.413C62.697 153.586 72.7268 171.991 75.7254 170.75C77.8968 169.923 76.4492 163.409 75.5186 160.1Z" fill="#FAAE6B"/>
<path d="M83.5835 153.895L89.5807 157.824C90.3045 158.341 90.5113 159.271 90.0977 160.099L89.0637 161.753L83.5835 153.895Z" fill="#EAC7AC"/>
</g>
</svg>
