<svg width="462" height="391" viewBox="0 0 462 391" fill="none" xmlns="http://www.w3.org/2000/svg">
<rect x="389" y="189" width="73" height="201" fill="#FFC01E"/>
<path d="M173.213 217.881H16.4207C7.34227 217.881 0 210.539 0 201.46V0H173.213V217.881Z" fill="#D1E3EE"/>
<path d="M274.485 80.2578H116.862H115.343H81.7417L106.409 104.925V369.97C106.409 381.255 115.56 390.442 126.88 390.442H300.31C305.229 390.442 309.244 386.427 309.244 381.508V115.016C309.208 95.8104 293.655 80.2578 274.485 80.2578Z" fill="#F3F7FA"/>
<path d="M106.698 103.912C106.372 90.7468 95.5942 80.1855 82.3564 80.1855C69.1186 80.1855 58.3403 90.7468 58.0148 103.912H57.7254V197.807C57.3276 204.679 54.6872 217.916 40.2559 217.916H68.359H96.0644H106.734V207.247V193.719V103.912H106.698Z" fill="#7B91A5"/>
<path d="M309.207 331.922L302.806 322.301L294.089 332.247L283.745 322.301L274.341 332.247L264.467 322.301L255.388 332.247L245.406 322.301L236.58 331.669L227.936 322.337L218.568 332.283L209.418 322.301L199.978 332.247L191.152 322.301L181.387 332.247L171.766 323.277L162.036 333.115L151.475 322.301V372.829C150.571 379.99 147.063 390.407 134.259 390.407H200.737V390.371H309.207V331.922Z" fill="#D1E3EE"/>
<path d="M389 247H264V390H389V247Z" fill="#7B91A5"/>
<rect x="264" y="189" width="198" height="105" fill="#D1E3EE"/>
<rect x="389" y="189" width="73" height="105" fill="white"/>
<circle cx="309" cy="239" r="13" fill="white"/>
<circle cx="419" cy="239" r="13" fill="#FFC01E"/>
<mask id="path-11-inside-1" fill="white">
<path fill-rule="evenodd" clip-rule="evenodd" d="M279.5 220C289.717 220 298 211.717 298 201.5C298 201.333 297.998 201.166 297.993 201H431.007C431.002 201.166 431 201.333 431 201.5C431 211.55 439.014 219.728 449 219.993V260.007C439.18 260.267 431.267 268.18 431.007 278H297.993C297.728 268.014 289.55 260 279.5 260C279.333 260 279.166 260.002 279 260.007V219.993C279.166 219.998 279.333 220 279.5 220Z"/>
</mask>
<path d="M297.993 201V199H295.94L295.994 201.053L297.993 201ZM431.007 201L433.006 201.053L433.06 199H431.007V201ZM449 219.993H451V218.046L449.053 217.994L449 219.993ZM449 260.007L449.053 262.006L451 261.954V260.007H449ZM431.007 278V280H432.954L433.006 278.053L431.007 278ZM297.993 278L295.994 278.053L296.046 280H297.993V278ZM279 260.007H277V262.06L279.053 262.006L279 260.007ZM279 219.993L279.053 217.994L277 217.94V219.993H279ZM296 201.5C296 210.613 288.613 218 279.5 218V222C290.822 222 300 212.822 300 201.5H296ZM295.994 201.053C295.998 201.202 296 201.35 296 201.5H300C300 201.315 299.998 201.131 299.993 200.947L295.994 201.053ZM297.993 203H431.007V199H297.993V203ZM429.007 200.947C429.002 201.131 429 201.315 429 201.5H433C433 201.35 433.002 201.201 433.006 201.053L429.007 200.947ZM429 201.5C429 212.637 437.88 221.699 448.947 221.993L449.053 217.994C440.148 217.758 433 210.463 433 201.5H429ZM447 219.993V260.007H451V219.993H447ZM448.947 258.007C438.064 258.296 429.296 267.064 429.007 277.947L433.006 278.053C433.238 269.296 440.296 262.238 449.053 262.006L448.947 258.007ZM431.007 276H297.993V280H431.007V276ZM299.993 277.947C299.699 266.88 290.637 258 279.5 258V262C288.463 262 295.758 269.148 295.994 278.053L299.993 277.947ZM279.5 258C279.315 258 279.131 258.002 278.947 258.007L279.053 262.006C279.201 262.002 279.35 262 279.5 262V258ZM281 260.007V219.993H277V260.007H281ZM279.5 218C279.35 218 279.202 217.998 279.053 217.994L278.947 221.993C279.131 221.998 279.315 222 279.5 222V218Z" fill="#17274E" mask="url(#path-11-inside-1)"/>
<path d="M375.35 245.05C375.35 247.65 374.45 249.817 372.65 251.55C370.883 253.25 368.55 254.233 365.65 254.5V259H363.3V254.55C360.533 254.417 358.167 253.733 356.2 252.5C354.267 251.267 352.917 249.583 352.15 247.45L354.45 246.15C355.65 249.783 358.6 251.733 363.3 252V237.15C361.733 236.617 360.483 236.133 359.55 235.7C358.65 235.267 357.7 234.683 356.7 233.95C355.7 233.217 354.967 232.333 354.5 231.3C354.033 230.233 353.8 228.983 353.8 227.55C353.8 225.017 354.7 222.917 356.5 221.25C358.3 219.583 360.567 218.667 363.3 218.5V214H365.65V218.5C367.683 218.733 369.467 219.383 371 220.45C372.567 221.517 373.733 222.967 374.5 224.8L372.25 226.05C371.083 223.15 368.883 221.5 365.65 221.1V235.3C366.85 235.733 367.85 236.117 368.65 236.45C369.45 236.783 370.317 237.233 371.25 237.8C372.183 238.367 372.917 238.967 373.45 239.6C373.983 240.2 374.433 240.967 374.8 241.9C375.167 242.833 375.35 243.883 375.35 245.05ZM356.45 227.55C356.45 229.35 357.017 230.75 358.15 231.75C359.283 232.717 361 233.617 363.3 234.45V221.05C361.267 221.217 359.617 221.9 358.35 223.1C357.083 224.3 356.45 225.783 356.45 227.55ZM365.65 251.9C367.85 251.667 369.567 250.933 370.8 249.7C372.033 248.433 372.65 246.883 372.65 245.05C372.65 243.217 372.067 241.783 370.9 240.75C369.733 239.717 367.983 238.783 365.65 237.95V251.9Z" fill="#17274E"/>
<line x1="264" y1="309.5" x2="389" y2="309.5" stroke="black"/>
<line x1="264" y1="331.5" x2="389" y2="331.5" stroke="black"/>
<line x1="264" y1="353.5" x2="389" y2="353.5" stroke="black"/>
<line x1="264" y1="375.5" x2="389" y2="375.5" stroke="black"/>
<line y1="-0.5" x2="73" y2="-0.5" transform="matrix(-1 0 0 1 462 310)" stroke="white"/>
<line y1="-0.5" x2="73" y2="-0.5" transform="matrix(-1 0 0 1 462 332)" stroke="white"/>
<line y1="-0.5" x2="73" y2="-0.5" transform="matrix(-1 0 0 1 462 354)" stroke="white"/>
<line y1="-0.5" x2="73" y2="-0.5" transform="matrix(-1 0 0 1 462 376)" stroke="white"/>
<rect x="131" y="130" width="153" height="11" fill="#D1E3EE"/>
<rect x="131" y="156" width="113" height="11" fill="#D1E3EE"/>
<rect x="131" y="179" width="124" height="11" fill="#D1E3EE"/>
<rect x="166" y="226" width="75" height="11" fill="#ED5F42"/>
<rect x="166" y="264" width="75" height="11" fill="#ED5F42"/>
<circle cx="143.5" cy="232.5" r="10.5" fill="#ED5F42"/>
<circle cx="143.5" cy="267.5" r="10.5" fill="#ED5F42"/>
</svg>
