<svg width="466" height="438" viewBox="0 0 466 438" fill="none" xmlns="http://www.w3.org/2000/svg">
<rect x="309" y="21" width="111" height="136" rx="15" fill="#F3F7FA"/>
<rect x="217" width="111" height="112" rx="15" fill="#FF6847"/>
<rect x="217" y="217" width="111" height="136" rx="15" fill="#F3F7FA"/>
<rect x="354" y="115" width="112" height="193" rx="15" fill="#FFC01E"/>
<rect y="209" width="112" height="113" rx="15" fill="#FFC01E"/>
<path d="M84 284C84 335.399 84 386.601 84 438C146.596 438 209.192 438 272 438C272 386.7 272 335.498 272 284C263.964 284.099 129.573 284 84 284Z" fill="#D1E3EE"/>
<path d="M225 438L295 438L295 284L225 284L225 438Z" fill="#7B91A5"/>
<circle cx="155.5" cy="364.5" r="22.5" fill="#7B91A5"/>
<path d="M257.403 214.959C258.386 219.68 258.779 224.597 258.877 229.515C259.074 243.775 258.975 268.854 258.975 283.017V284H233.711V283.607V228.334C233.612 204.829 214.344 185.946 190.849 186.339C167.55 186.733 149.167 205.321 149.068 228.728V245.349V256.561C149.068 259.413 146.709 261.773 143.858 261.773H129.21C126.359 261.773 124 259.413 124 256.561V228.728C124.098 196.273 146.906 168.538 178.757 162.244C214.541 155.163 250.226 179.062 257.403 214.959Z" fill="#D1E3EE"/>
</svg>
