<svg width="331" height="231" viewBox="0 0 331 231" fill="none" xmlns="http://www.w3.org/2000/svg">
<rect x="27" width="282.277" height="199.442" rx="7.64634" fill="#EEF4F7"/>
<path d="M165.922 48.8696H62.5626C55.021 48.8696 48.9297 42.8908 48.9297 35.4885C48.9297 28.0862 55.021 22.1074 62.5626 22.1074H165.922C173.463 22.1074 179.555 28.0862 179.555 35.4885C179.555 42.8908 173.463 48.8696 165.922 48.8696Z" fill="white"/>
<path d="M72.7237 35.5092C72.7237 40.0907 69.0012 43.8133 64.515 43.8133C59.9335 43.8133 56.2109 40.0907 56.2109 35.5092C56.2109 30.9276 59.9335 27.2051 64.515 27.2051C69.0012 27.2051 72.7237 30.9276 72.7237 35.5092ZM63.9423 33.982C62.8924 33.982 61.9379 33.8865 60.888 33.8865C60.7925 35.2228 60.7925 36.4637 60.9834 37.7045C61.9379 37.7045 62.8924 37.6091 63.9423 37.6091C63.9423 36.2728 63.9423 35.1274 63.9423 33.982ZM67.9512 37.6091C68.1421 36.3682 68.1421 35.1274 68.0467 33.7911C66.9967 33.7911 66.0422 33.8865 65.0877 33.8865C65.0877 35.1274 65.0877 36.2728 65.0877 37.4182C65.9468 37.5136 66.9013 37.6091 67.9512 37.6091ZM71.3874 33.3138C70.6238 33.5047 69.8602 33.6002 69.0966 33.7911C69.0966 35.1274 69.0966 36.4637 69.0966 37.8C69.7647 37.8954 70.5283 38.0863 71.2919 38.1818C71.8646 36.4637 71.8646 34.9365 71.3874 33.3138ZM57.5472 33.3138C56.9745 34.4592 57.07 37.0364 57.7381 37.9909C58.5017 37.8954 59.1699 37.8 59.9335 37.6091C59.838 36.9409 59.838 36.2728 59.7426 35.6046C59.7426 34.9365 59.7426 34.2683 59.838 33.6002C59.0744 33.6002 58.3108 33.5047 57.5472 33.3138ZM63.9423 28.3505C62.606 28.6368 61.4607 30.9276 61.1743 32.7411C62.1288 32.7411 62.9878 32.8366 63.9423 32.8366C63.9423 31.3094 63.9423 29.8777 63.9423 28.3505ZM67.7603 32.8366C67.5694 31.6912 67.1876 30.7367 66.6149 29.8777C66.3286 29.4004 65.9468 29.1141 65.565 28.7323C65.3741 28.5414 65.1832 28.5414 64.9923 28.4459C64.9923 29.9731 64.9923 31.5003 64.9923 33.0275C65.9468 32.8366 66.8058 32.8366 67.7603 32.8366ZM61.2698 38.659C61.5561 39.6135 61.8424 40.4725 62.4151 41.2361C62.7015 41.7134 63.1787 41.9997 63.5605 42.3815C63.656 42.477 63.8469 42.477 63.9423 42.5724C63.9423 41.2361 63.9423 39.8044 63.9423 38.5635C63.1787 38.5635 62.5106 38.5635 61.8424 38.5635C61.6516 38.5635 61.4607 38.659 61.2698 38.659ZM64.9923 42.5724C66.0422 42.3815 67.5694 40.0907 67.6649 38.5635C66.8058 38.5635 65.9468 38.4681 64.9923 38.4681C64.9923 39.8998 64.9923 41.2361 64.9923 42.5724ZM60.0289 32.6457C60.3153 31.8821 60.5062 31.2139 60.7925 30.5458C61.0789 29.8777 61.4607 29.305 61.8424 28.6368C60.1244 29.305 58.7881 30.5458 57.929 32.2639C58.6926 32.4548 59.3608 32.5502 60.0289 32.6457ZM71.0056 32.3593C70.1465 30.8322 69.0012 29.6868 67.474 29.0186C68.2376 30.164 68.6194 31.4048 68.9057 32.7411C69.5738 32.5502 70.242 32.4548 71.0056 32.3593ZM61.8424 42.1906C61.4607 41.6179 61.1743 41.0452 60.888 40.4725C60.6016 39.8998 60.4107 39.3271 60.1244 38.659C59.4562 38.7544 58.7881 38.8499 58.1199 38.9453C59.0744 40.568 60.3153 41.6179 61.8424 42.1906ZM70.8147 39.0408C70.0511 38.9453 69.4784 38.8499 68.9057 38.7544C68.4285 39.8998 68.0467 40.9498 67.5694 41.9997C68.9057 41.427 69.9556 40.4725 70.8147 39.0408Z" fill="#A3B7C9"/>
<path d="M99.7359 40.0664H85.8003C83.1277 40.0664 81.0278 37.9665 81.0278 35.294C81.0278 32.6214 83.1277 30.5215 85.8003 30.5215H99.7359C102.408 30.5215 104.508 32.6214 104.508 35.294C104.508 37.8711 102.408 40.0664 99.7359 40.0664Z" fill="#A3B7C9"/>
<path d="M164.165 40.0664H116.249C113.576 40.0664 111.477 37.9665 111.477 35.294C111.477 32.6214 113.576 30.5215 116.249 30.5215H164.26C166.933 30.5215 169.033 32.6214 169.033 35.294C168.937 37.8711 166.837 40.0664 164.165 40.0664Z" fill="#EEF2F4"/>
<rect x="121.57" y="157.191" width="43.9665" height="25.4878" rx="3.82317" fill="white"/>
<rect x="182.741" y="128.518" width="43.9665" height="54.1616" rx="3.82317" fill="white"/>
<rect x="243.912" y="73.082" width="43.9665" height="109.598" rx="3.82317" fill="white"/>
<path d="M243.912 43.7724C243.912 41.6609 245.623 39.9492 247.735 39.9492H284.055C286.166 39.9492 287.878 41.6609 287.878 43.7724V111.952H243.912V43.7724Z" fill="#ED5F42"/>
<mask id="mask0" style="mask-type:alpha" maskUnits="userSpaceOnUse" x="214" y="24" width="107" height="107">
<mask id="path-10-outside-1" maskUnits="userSpaceOnUse" x="213.601" y="24.291" width="107" height="107" fill="black">
<rect fill="white" x="213.601" y="24.291" width="107" height="107"/>
<path fill-rule="evenodd" clip-rule="evenodd" d="M273.625 25.291L214.601 84.315L215.502 85.2162L274.526 26.1921L273.625 25.291ZM291.647 43.3137L232.623 102.338L233.524 103.239L292.548 44.2148L291.647 43.3137ZM250.646 120.36L309.67 61.3364L310.571 62.2375L251.547 121.262L250.646 120.36ZM282.636 34.3029L223.612 93.3269L224.513 94.228L283.537 35.204L282.636 34.3029ZM241.635 111.35L300.659 52.3256L301.56 53.2267L242.536 112.251L241.635 111.35ZM318.681 70.3472L259.657 129.371L260.558 130.272L319.582 71.2484L318.681 70.3472Z"/>
</mask>
<path fill-rule="evenodd" clip-rule="evenodd" d="M273.625 25.291L214.601 84.315L215.502 85.2162L274.526 26.1921L273.625 25.291ZM291.647 43.3137L232.623 102.338L233.524 103.239L292.548 44.2148L291.647 43.3137ZM250.646 120.36L309.67 61.3364L310.571 62.2375L251.547 121.262L250.646 120.36ZM282.636 34.3029L223.612 93.3269L224.513 94.228L283.537 35.204L282.636 34.3029ZM241.635 111.35L300.659 52.3256L301.56 53.2267L242.536 112.251L241.635 111.35ZM318.681 70.3472L259.657 129.371L260.558 130.272L319.582 71.2484L318.681 70.3472Z" fill="white"/>
<path d="M214.601 84.315L214.375 84.0897L214.15 84.315L214.375 84.5403L214.601 84.315ZM273.625 25.291L273.85 25.0657L273.625 24.8405L273.399 25.0657L273.625 25.291ZM215.502 85.2162L215.276 85.4414L215.502 85.6667L215.727 85.4414L215.502 85.2162ZM274.526 26.1921L274.751 26.4174L274.976 26.1921L274.751 25.9669L274.526 26.1921ZM232.623 102.338L232.398 102.112L232.172 102.338L232.398 102.563L232.623 102.338ZM291.647 43.3137L291.872 43.0884L291.647 42.8631L291.422 43.0884L291.647 43.3137ZM233.524 103.239L233.299 103.464L233.524 103.689L233.749 103.464L233.524 103.239ZM292.548 44.2148L292.773 44.4401L292.999 44.2148L292.773 43.9896L292.548 44.2148ZM309.67 61.3364L309.895 61.1111L309.67 60.8858L309.444 61.1111L309.67 61.3364ZM250.646 120.36L250.42 120.135L250.195 120.36L250.42 120.586L250.646 120.36ZM310.571 62.2375L310.796 62.4628L311.021 62.2375L310.796 62.0123L310.571 62.2375ZM251.547 121.262L251.322 121.487L251.547 121.712L251.772 121.487L251.547 121.262ZM223.612 93.3269L223.387 93.1016L223.162 93.3269L223.387 93.5522L223.612 93.3269ZM282.636 34.3029L282.861 34.0776L282.636 33.8523L282.411 34.0776L282.636 34.3029ZM224.513 94.228L224.288 94.4533L224.513 94.6786L224.739 94.4533L224.513 94.228ZM283.537 35.204L283.763 35.4293L283.988 35.204L283.763 34.9787L283.537 35.204ZM300.659 52.3256L300.884 52.1003L300.659 51.875L300.433 52.1003L300.659 52.3256ZM241.635 111.35L241.409 111.124L241.184 111.35L241.409 111.575L241.635 111.35ZM301.56 53.2267L301.785 53.452L302.01 53.2267L301.785 53.0014L301.56 53.2267ZM242.536 112.251L242.31 112.476L242.536 112.701L242.761 112.476L242.536 112.251ZM259.657 129.371L259.432 129.146L259.207 129.371L259.432 129.597L259.657 129.371ZM318.681 70.3472L318.907 70.1219L318.681 69.8967L318.456 70.1219L318.681 70.3472ZM260.558 130.272L260.333 130.498L260.558 130.723L260.784 130.498L260.558 130.272ZM319.582 71.2484L319.808 71.4736L320.033 71.2484L319.808 71.0231L319.582 71.2484ZM214.826 84.5403L273.85 25.5163L273.399 25.0657L214.375 84.0897L214.826 84.5403ZM215.727 84.9909L214.826 84.0897L214.375 84.5403L215.276 85.4414L215.727 84.9909ZM274.3 25.9669L215.276 84.9909L215.727 85.4414L274.751 26.4174L274.3 25.9669ZM273.399 25.5163L274.3 26.4174L274.751 25.9669L273.85 25.0657L273.399 25.5163ZM232.848 102.563L291.872 43.539L291.422 43.0884L232.398 102.112L232.848 102.563ZM233.749 103.014L232.848 102.112L232.398 102.563L233.299 103.464L233.749 103.014ZM292.323 43.9896L233.299 103.014L233.749 103.464L292.773 44.4401L292.323 43.9896ZM291.422 43.539L292.323 44.4401L292.773 43.9896L291.872 43.0884L291.422 43.539ZM309.444 61.1111L250.42 120.135L250.871 120.586L309.895 61.5617L309.444 61.1111ZM310.796 62.0123L309.895 61.1111L309.444 61.5617L310.346 62.4628L310.796 62.0123ZM251.772 121.487L310.796 62.4628L310.346 62.0123L251.322 121.036L251.772 121.487ZM250.42 120.586L251.322 121.487L251.772 121.036L250.871 120.135L250.42 120.586ZM223.837 93.5522L282.861 34.5282L282.411 34.0776L223.387 93.1016L223.837 93.5522ZM224.739 94.0027L223.837 93.1016L223.387 93.5522L224.288 94.4533L224.739 94.0027ZM283.312 34.9787L224.288 94.0027L224.739 94.4533L283.763 35.4293L283.312 34.9787ZM282.411 34.5282L283.312 35.4293L283.763 34.9787L282.861 34.0776L282.411 34.5282ZM300.433 52.1003L241.409 111.124L241.86 111.575L300.884 52.5509L300.433 52.1003ZM301.785 53.0014L300.884 52.1003L300.433 52.5509L301.334 53.452L301.785 53.0014ZM242.761 112.476L301.785 53.452L301.334 53.0014L242.31 112.025L242.761 112.476ZM241.409 111.575L242.31 112.476L242.761 112.025L241.86 111.124L241.409 111.575ZM259.883 129.597L318.907 70.5725L318.456 70.1219L259.432 129.146L259.883 129.597ZM260.784 130.047L259.883 129.146L259.432 129.597L260.333 130.498L260.784 130.047ZM319.357 71.0231L260.333 130.047L260.784 130.498L319.808 71.4736L319.357 71.0231ZM318.456 70.5725L319.357 71.4736L319.808 71.0231L318.907 70.1219L318.456 70.5725Z" fill="white" mask="url(#path-10-outside-1)"/>
</mask>
<g mask="url(#mask0)">
<path d="M287.878 112.269H288.197V111.95V43.7704C288.197 41.483 286.342 39.6287 284.055 39.6287H247.735C245.447 39.6287 243.593 41.483 243.593 43.7704V111.95V112.269H243.912H287.878Z" fill="white" stroke="white" stroke-width="0.637195"/>
</g>
<path d="M274.525 73.8946C275.098 73.8946 275.575 73.6082 275.862 73.131C277.198 70.8402 278.534 68.5494 279.871 66.1632C280.157 65.5905 280.634 65.3996 281.207 65.3996C283.307 65.3996 285.407 65.3996 287.602 65.3996C288.27 65.3996 288.843 65.3996 289.511 65.3996C290.084 65.3996 290.561 64.9223 290.752 64.3496C290.943 63.7769 290.752 63.2043 290.179 62.8225C289.32 62.2498 288.461 61.6771 287.602 61.1044C283.116 58.1454 278.725 55.1865 274.239 52.323C273.762 52.0367 273.189 51.9412 272.712 52.2276C272.235 52.5139 271.948 52.9912 271.948 53.5639C271.948 54.5184 272.044 55.3774 272.139 56.3319C272.139 57.0955 272.235 57.7636 272.235 58.5272C272.33 59.4817 272.33 60.4362 272.425 61.3907C272.521 62.2498 272.521 63.2042 272.616 64.0633C272.712 65.0178 272.712 65.9723 272.807 66.9268C272.903 67.7858 272.903 68.7403 272.998 69.5994C273.094 70.6493 273.094 71.6992 273.189 72.7492C273.189 73.4173 273.953 73.8946 274.525 73.8946Z" fill="#273A5F"/>
<rect x="281.185" y="70.8711" width="49.7012" height="18.4787" rx="3.18598" fill="#273A5F"/>
<path d="M296.223 76.1745H292.463V78.6723H296.095V80.0741H292.463V83.6934H290.998V74.7726H296.223V76.1745ZM298.428 81.0936C298.53 81.5779 298.764 81.9517 299.129 82.2151C299.494 82.4699 299.941 82.5974 300.467 82.5974C301.198 82.5974 301.746 82.334 302.111 81.8073L303.245 82.4699C302.617 83.396 301.686 83.859 300.455 83.859C299.418 83.859 298.581 83.5447 297.944 82.916C297.307 82.2788 296.988 81.4759 296.988 80.5074C296.988 79.5558 297.303 78.7615 297.931 78.1243C298.56 77.4786 299.367 77.1557 300.353 77.1557C301.287 77.1557 302.052 77.4828 302.646 78.137C303.25 78.7912 303.551 79.5856 303.551 80.5201C303.551 80.6646 303.534 80.8557 303.5 81.0936H298.428ZM298.415 79.9721H302.162C302.069 79.4539 301.852 79.0631 301.512 78.7997C301.181 78.5363 300.79 78.4046 300.34 78.4046C299.83 78.4046 299.405 78.5448 299.065 78.8252C298.726 79.1056 298.509 79.4879 298.415 79.9721ZM307.959 78.6468H306.379V81.7053C306.379 81.9687 306.439 82.1598 306.558 82.2788C306.677 82.3892 306.851 82.453 307.08 82.4699C307.318 82.4784 307.611 82.4742 307.959 82.4572V83.6934C306.906 83.8208 306.15 83.7316 305.691 83.4257C305.232 83.1114 305.003 82.5379 305.003 81.7053V78.6468H303.83V77.3214H305.003V75.9451L306.379 75.5373V77.3214H307.959V78.6468ZM311.795 83.859C310.835 83.859 310.032 83.5362 309.386 82.8905C308.749 82.2448 308.43 81.4504 308.43 80.5074C308.43 79.5558 308.749 78.7615 309.386 78.1243C310.032 77.4786 310.835 77.1557 311.795 77.1557C312.415 77.1557 312.98 77.3044 313.49 77.6018C313.999 77.8991 314.382 78.2984 314.637 78.7997L313.451 79.4879C313.307 79.182 313.086 78.9441 312.789 78.7742C312.5 78.5958 312.164 78.5066 311.782 78.5066C311.221 78.5066 310.75 78.6977 310.367 79.0801C309.994 79.4624 309.807 79.9382 309.807 80.5074C309.807 81.0766 309.994 81.5524 310.367 81.9347C310.75 82.317 311.221 82.5082 311.782 82.5082C312.156 82.5082 312.491 82.419 312.789 82.2406C313.095 82.0621 313.324 81.8243 313.477 81.5269L314.662 82.2023C314.39 82.7121 313.999 83.1156 313.49 83.413C312.98 83.7104 312.415 83.859 311.795 83.859ZM318.849 77.1557C319.58 77.1557 320.17 77.3894 320.621 77.8567C321.071 78.3239 321.296 78.9654 321.296 79.781V83.6934H319.92V79.9212C319.92 79.4454 319.792 79.0801 319.537 78.8252C319.283 78.5703 318.934 78.4429 318.492 78.4429C318.008 78.4429 317.617 78.5958 317.32 78.9017C317.023 79.199 316.874 79.6578 316.874 80.278V83.6934H315.498V74.7726H316.874V78.137C317.29 77.4828 317.949 77.1557 318.849 77.1557Z" fill="white"/>
<rect y="91.2148" width="49.7012" height="18.4787" rx="3.18598" fill="#FDBE1D"/>
<path d="M15.038 96.5182H11.2785V99.016H14.9105V100.418H11.2785V104.037H9.81297V95.1164H15.038V96.5182ZM17.2437 101.437C17.3456 101.922 17.5793 102.295 17.9446 102.559C18.3099 102.814 18.7559 102.941 19.2827 102.941C20.0133 102.941 20.5613 102.678 20.9267 102.151L22.0609 102.814C21.4322 103.74 20.5019 104.203 19.2699 104.203C18.2334 104.203 17.3966 103.888 16.7594 103.26C16.1222 102.623 15.8036 101.82 15.8036 100.851C15.8036 99.8996 16.118 99.1052 16.7467 98.468C17.3753 97.8223 18.1825 97.4995 19.168 97.4995C20.1025 97.4995 20.8672 97.8266 21.4619 98.4808C22.0651 99.135 22.3667 99.9293 22.3667 100.864C22.3667 101.008 22.3497 101.199 22.3157 101.437H17.2437ZM17.2309 100.316H20.9776C20.8842 99.7976 20.6675 99.4068 20.3277 99.1435C19.9963 98.8801 19.6055 98.7484 19.1552 98.7484C18.6455 98.7484 18.2207 98.8886 17.8809 99.1689C17.541 99.4493 17.3244 99.8316 17.2309 100.316ZM26.7749 98.9905H25.1947V102.049C25.1947 102.312 25.2541 102.504 25.3731 102.623C25.492 102.733 25.6662 102.797 25.8956 102.814C26.1335 102.822 26.4266 102.818 26.7749 102.801V104.037C25.7214 104.165 24.9653 104.075 24.5065 103.769C24.0477 103.455 23.8183 102.882 23.8183 102.049V98.9905H22.6459V97.6652H23.8183V96.2888L25.1947 95.881V97.6652H26.7749V98.9905ZM30.6101 104.203C29.6501 104.203 28.8472 103.88 28.2015 103.234C27.5643 102.589 27.2457 101.794 27.2457 100.851C27.2457 99.8996 27.5643 99.1052 28.2015 98.468C28.8472 97.8223 29.6501 97.4995 30.6101 97.4995C31.2303 97.4995 31.7953 97.6482 32.3051 97.9455C32.8148 98.2429 33.1971 98.6422 33.452 99.1435L32.2668 99.8316C32.1224 99.5258 31.9015 99.2879 31.6041 99.118C31.3153 98.9395 30.9797 98.8503 30.5974 98.8503C30.0366 98.8503 29.5651 99.0415 29.1828 99.4238C28.809 99.8061 28.6221 100.282 28.6221 100.851C28.6221 101.42 28.809 101.896 29.1828 102.278C29.5651 102.661 30.0366 102.852 30.5974 102.852C30.9712 102.852 31.3068 102.763 31.6041 102.584C31.91 102.406 32.1394 102.168 32.2923 101.871L33.4775 102.546C33.2056 103.056 32.8148 103.459 32.3051 103.757C31.7953 104.054 31.2303 104.203 30.6101 104.203ZM37.6647 97.4995C38.3953 97.4995 38.9858 97.7331 39.4361 98.2004C39.8864 98.6677 40.1115 99.3091 40.1115 100.125V104.037H38.7352V100.265C38.7352 99.7891 38.6077 99.4238 38.3528 99.1689C38.098 98.9141 37.7496 98.7866 37.3078 98.7866C36.8236 98.7866 36.4328 98.9395 36.1354 99.2454C35.838 99.5428 35.6894 100.002 35.6894 100.622V104.037H34.313V95.1164H35.6894V98.4808C36.1057 97.8266 36.7641 97.4995 37.6647 97.4995Z" fill="white"/>
<path d="M169.262 71.541H62.668V178.135H169.262V71.541Z" stroke="#273A5F" stroke-width="1.91159" stroke-miterlimit="10"/>
<path d="M173.473 67H165.216V75.2567H173.473V67Z" fill="white" stroke="#273A5F" stroke-width="1.91159" stroke-miterlimit="10"/>
<path d="M66.8793 67H58.6226V75.2567H66.8793V67Z" fill="white" stroke="#273A5F" stroke-width="1.91159" stroke-miterlimit="10"/>
<path d="M173.473 173.926H165.216V182.183H173.473V173.926Z" fill="white" stroke="#273A5F" stroke-width="1.91159" stroke-miterlimit="10"/>
<path d="M66.8788 173.926H58.6221V182.183H66.8788V173.926Z" fill="white" stroke="#273A5F" stroke-width="1.91159" stroke-miterlimit="10"/>
<path d="M176.577 213.318C177.15 213.318 177.627 212.973 177.913 212.398C179.25 209.637 180.586 206.877 181.922 204.001C182.209 203.311 182.686 203.081 183.259 203.081C185.358 203.081 187.458 203.081 189.654 203.081C190.322 203.081 190.895 203.081 191.563 203.081C192.135 203.081 192.613 202.506 192.804 201.816C192.994 201.126 192.804 200.436 192.231 199.975C191.372 199.285 190.513 198.595 189.654 197.905C185.168 194.34 180.777 190.774 176.291 187.323C175.814 186.978 175.241 186.863 174.764 187.208C174.286 187.553 174 188.128 174 188.819C174 189.969 174.095 191.004 174.191 192.154C174.191 193.074 174.286 193.879 174.286 194.8C174.382 195.95 174.382 197.1 174.477 198.25C174.573 199.285 174.573 200.436 174.668 201.471C174.764 202.621 174.764 203.771 174.859 204.921C174.955 205.956 174.954 207.107 175.05 208.142C175.145 209.407 175.145 210.672 175.241 211.937C175.241 212.743 175.909 213.433 176.577 213.318Z" fill="#ED5F42"/>
<path d="M58.3527 92.6641C57.78 92.6641 57.3027 92.3778 57.0164 91.9005C55.6801 89.6097 54.3438 87.319 53.0075 84.9327C52.7211 84.36 52.2439 84.1691 51.6712 84.1691C49.5713 84.1691 47.4714 84.1691 45.2761 84.1691C44.608 84.1691 44.0353 84.1691 43.3671 84.1691C42.7944 84.1691 42.3172 83.6919 42.1263 83.1192C41.9354 82.5465 42.1263 81.9738 42.699 81.592C43.558 81.0193 44.4171 80.4466 45.2761 79.8739C49.7622 76.915 54.1529 73.956 58.639 71.0926C59.1163 70.8062 59.6889 70.7108 60.1662 70.9971C60.6434 71.2835 60.9298 71.7607 60.9298 72.3334C60.9298 73.2879 60.8343 74.1469 60.7389 75.1014C60.7389 75.865 60.6434 76.5332 60.6434 77.2968C60.548 78.2513 60.548 79.2058 60.4525 80.1603C60.3571 81.0193 60.3571 81.9738 60.2616 82.8328C60.1662 83.7873 60.1662 84.7418 60.0707 85.6963C59.9753 86.5554 59.9753 87.5098 59.8798 88.3689C59.7844 89.4188 59.7844 90.4688 59.6889 91.5187C59.6889 92.1869 58.9254 92.6641 58.3527 92.6641Z" fill="#FDBE1D"/>
<rect x="185.47" y="208.498" width="49.7012" height="22.2673" rx="3.18598" fill="#ED5F42"/>
<path d="M200.508 217.587H196.748V220.084H200.38V221.486H196.748V225.105H195.283V216.185H200.508V217.587ZM202.713 222.506C202.815 222.99 203.049 223.364 203.414 223.627C203.78 223.882 204.226 224.009 204.752 224.009C205.483 224.009 206.031 223.746 206.396 223.219L207.531 223.882C206.902 224.808 205.972 225.271 204.74 225.271C203.703 225.271 202.866 224.957 202.229 224.328C201.592 223.691 201.273 222.888 201.273 221.919C201.273 220.968 201.588 220.174 202.216 219.536C202.845 218.891 203.652 218.568 204.638 218.568C205.572 218.568 206.337 218.895 206.932 219.549C207.535 220.203 207.836 220.998 207.836 221.932C207.836 222.077 207.819 222.268 207.785 222.506H202.713ZM202.701 221.384H206.447C206.354 220.866 206.137 220.475 205.797 220.212C205.466 219.948 205.075 219.817 204.625 219.817C204.115 219.817 203.69 219.957 203.351 220.237C203.011 220.518 202.794 220.9 202.701 221.384ZM212.245 220.059H210.664V223.117C210.664 223.381 210.724 223.572 210.843 223.691C210.962 223.801 211.136 223.865 211.365 223.882C211.603 223.891 211.896 223.886 212.245 223.869V225.105C211.191 225.233 210.435 225.144 209.976 224.838C209.517 224.523 209.288 223.95 209.288 223.117V220.059H208.116V218.734H209.288V217.357L210.664 216.949V218.734H212.245V220.059ZM216.08 225.271C215.12 225.271 214.317 224.948 213.671 224.303C213.034 223.657 212.715 222.863 212.715 221.919C212.715 220.968 213.034 220.174 213.671 219.536C214.317 218.891 215.12 218.568 216.08 218.568C216.7 218.568 217.265 218.717 217.775 219.014C218.285 219.311 218.667 219.711 218.922 220.212L217.737 220.9C217.592 220.594 217.371 220.356 217.074 220.186C216.785 220.008 216.449 219.919 216.067 219.919C215.506 219.919 215.035 220.11 214.653 220.492C214.279 220.874 214.092 221.35 214.092 221.919C214.092 222.489 214.279 222.964 214.653 223.347C215.035 223.729 215.506 223.92 216.067 223.92C216.441 223.92 216.777 223.831 217.074 223.653C217.38 223.474 217.609 223.236 217.762 222.939L218.947 223.614C218.675 224.124 218.285 224.528 217.775 224.825C217.265 225.122 216.7 225.271 216.08 225.271ZM223.134 218.568C223.865 218.568 224.456 218.801 224.906 219.269C225.356 219.736 225.581 220.377 225.581 221.193V225.105H224.205V221.333C224.205 220.858 224.077 220.492 223.823 220.237C223.568 219.982 223.219 219.855 222.778 219.855C222.293 219.855 221.902 220.008 221.605 220.314C221.308 220.611 221.159 221.07 221.159 221.69V225.105H219.783V216.185H221.159V219.549C221.575 218.895 222.234 218.568 223.134 218.568Z" fill="white"/>
</svg>
