<svg width="594" height="329" viewBox="0 0 594 329" fill="none" xmlns="http://www.w3.org/2000/svg">
<rect x="126" width="443" height="313" rx="12" fill="#EEF4F7"/>
<path d="M334.605 61H172.395C160.56 61 151 51.617 151 40C151 28.383 160.56 19 172.395 19H334.605C346.44 19 356 28.383 356 40C356 51.617 346.44 61 334.605 61Z" fill="white"/>
<path d="M188.341 40.0323C188.341 47.2225 182.499 53.0645 175.459 53.0645C168.269 53.0645 162.427 47.2225 162.427 40.0323C162.427 32.842 168.269 27 175.459 27C182.499 27 188.341 32.842 188.341 40.0323ZM174.56 37.6355C172.912 37.6355 171.415 37.4857 169.767 37.4857C169.617 39.5829 169.617 41.5302 169.917 43.4776C171.415 43.4776 172.912 43.3278 174.56 43.3278C174.56 41.2306 174.56 39.4331 174.56 37.6355ZM180.852 43.3278C181.151 41.3804 181.151 39.4331 181.001 37.3359C179.354 37.3359 177.856 37.4857 176.358 37.4857C176.358 39.4331 176.358 41.2306 176.358 43.0282C177.706 43.178 179.204 43.3278 180.852 43.3278ZM186.244 36.587C185.046 36.8865 183.848 37.0363 182.649 37.3359C182.649 39.4331 182.649 41.5302 182.649 43.6274C183.698 43.7772 184.896 44.0768 186.095 44.2265C186.993 41.5302 186.993 39.1335 186.244 36.587ZM164.524 36.587C163.625 38.3845 163.775 42.429 164.823 43.927C166.022 43.7772 167.07 43.6274 168.269 43.3278C168.119 42.2792 168.119 41.2306 167.969 40.1821C167.969 39.1335 167.969 38.0849 168.119 37.0363C166.921 37.0363 165.722 36.8865 164.524 36.587ZM174.56 28.7976C172.463 29.2469 170.666 32.842 170.216 35.6882C171.714 35.6882 173.062 35.838 174.56 35.838C174.56 33.4412 174.56 31.1943 174.56 28.7976ZM180.552 35.838C180.252 34.0404 179.653 32.5425 178.755 31.1943C178.305 30.4453 177.706 29.9959 177.107 29.3967C176.807 29.0971 176.508 29.0971 176.208 28.9473C176.208 31.3441 176.208 33.7408 176.208 36.1376C177.706 35.838 179.054 35.838 180.552 35.838ZM170.366 44.9755C170.815 46.4735 171.265 47.8217 172.164 49.02C172.613 49.769 173.362 50.2184 173.961 50.8176C174.111 50.9674 174.41 50.9674 174.56 51.1172C174.56 49.02 174.56 46.7731 174.56 44.8257C173.362 44.8257 172.313 44.8257 171.265 44.8257C170.965 44.8257 170.666 44.9755 170.366 44.9755ZM176.208 51.1172C177.856 50.8176 180.252 47.2225 180.402 44.8257C179.054 44.8257 177.706 44.6759 176.208 44.6759C176.208 46.9229 176.208 49.02 176.208 51.1172ZM168.419 35.5384C168.868 34.34 169.168 33.2914 169.617 32.2429C170.066 31.1943 170.666 30.2955 171.265 29.2469C168.568 30.2955 166.471 32.2429 165.123 34.9392C166.321 35.2388 167.37 35.3886 168.419 35.5384ZM185.645 35.089C184.297 32.6923 182.499 30.8947 180.103 29.8461C181.301 31.6437 181.9 33.591 182.35 35.6882C183.398 35.3886 184.447 35.2388 185.645 35.089ZM171.265 50.518C170.666 49.6192 170.216 48.7204 169.767 47.8217C169.317 46.9229 169.018 46.0241 168.568 44.9755C167.52 45.1253 166.471 45.2751 165.423 45.4249C166.921 47.9714 168.868 49.6192 171.265 50.518ZM185.346 45.5747C184.147 45.4249 183.248 45.2751 182.35 45.1253C181.601 46.9229 181.001 48.5706 180.252 50.2184C182.35 49.3196 183.997 47.8217 185.346 45.5747Z" fill="#A3B7C9"/>
<path d="M230.734 47.1847H208.864C204.67 47.1847 201.374 43.8892 201.374 39.6949C201.374 35.5006 204.67 32.2051 208.864 32.2051H230.734C234.928 32.2051 238.224 35.5006 238.224 39.6949C238.224 43.7394 234.928 47.1847 230.734 47.1847Z" fill="#A3B7C9"/>
<path d="M331.847 47.1847H256.649C252.455 47.1847 249.159 43.8892 249.159 39.6949C249.159 35.5006 252.455 32.2051 256.649 32.2051H331.996C336.191 32.2051 339.486 35.5006 339.486 39.6949C339.336 43.7394 336.041 47.1847 331.847 47.1847Z" fill="#EEF2F4"/>
<rect x="265" y="231" width="69" height="40" rx="6" fill="white"/>
<rect x="361" y="186" width="69" height="85" rx="6" fill="white"/>
<rect x="457" y="99" width="69" height="172" rx="6" fill="white"/>
<path d="M457 53C457 49.6863 459.686 47 463 47H520C523.314 47 526 49.6863 526 53V160H457V53Z" fill="#ED5F42"/>
<mask id="mask0" style="mask-type:alpha" maskUnits="userSpaceOnUse" x="410" y="23" width="167" height="167">
<mask id="path-10-outside-1" maskUnits="userSpaceOnUse" x="410" y="23" width="167" height="167" fill="black">
<rect fill="white" x="410" y="23" width="167" height="167"/>
<path fill-rule="evenodd" clip-rule="evenodd" d="M503.631 24L411 116.631L412.414 118.045L505.045 25.4142L503.631 24ZM531.915 52.2843L439.284 144.915L440.698 146.33L533.329 53.6985L531.915 52.2843ZM467.568 173.2L560.199 80.5685L561.614 81.9828L468.983 174.614L467.568 173.2ZM517.774 38.1422L425.143 130.773L426.557 132.187L519.188 39.5564L517.774 38.1422ZM453.427 159.057L546.058 66.4264L547.472 67.8406L454.841 160.472L453.427 159.057ZM574.342 94.7107L481.711 187.342L483.125 188.756L575.756 96.1249L574.342 94.7107Z"/>
</mask>
<path fill-rule="evenodd" clip-rule="evenodd" d="M503.631 24L411 116.631L412.414 118.045L505.045 25.4142L503.631 24ZM531.915 52.2843L439.284 144.915L440.698 146.33L533.329 53.6985L531.915 52.2843ZM467.568 173.2L560.199 80.5685L561.614 81.9828L468.983 174.614L467.568 173.2ZM517.774 38.1422L425.143 130.773L426.557 132.187L519.188 39.5564L517.774 38.1422ZM453.427 159.057L546.058 66.4264L547.472 67.8406L454.841 160.472L453.427 159.057ZM574.342 94.7107L481.711 187.342L483.125 188.756L575.756 96.1249L574.342 94.7107Z" fill="white"/>
<path d="M411 116.631L410.646 116.277L410.293 116.631L410.646 116.985L411 116.631ZM503.631 24L503.985 23.6464L503.631 23.2929L503.277 23.6464L503.631 24ZM412.414 118.045L412.061 118.399L412.414 118.752L412.768 118.399L412.414 118.045ZM505.045 25.4142L505.399 25.7678L505.752 25.4142L505.399 25.0607L505.045 25.4142ZM439.284 144.915L438.931 144.562L438.577 144.915L438.931 145.269L439.284 144.915ZM531.915 52.2843L532.269 51.9307L531.915 51.5772L531.562 51.9307L531.915 52.2843ZM440.698 146.33L440.345 146.683L440.698 147.037L441.052 146.683L440.698 146.33ZM533.329 53.6985L533.683 54.0521L534.036 53.6985L533.683 53.345L533.329 53.6985ZM560.199 80.5685L560.553 80.215L560.199 79.8614L559.846 80.215L560.199 80.5685ZM467.568 173.2L467.215 172.846L466.861 173.2L467.215 173.553L467.568 173.2ZM561.614 81.9828L561.967 82.3363L562.321 81.9828L561.967 81.6292L561.614 81.9828ZM468.983 174.614L468.629 174.967L468.983 175.321L469.336 174.967L468.983 174.614ZM425.143 130.773L424.789 130.42L424.435 130.773L424.789 131.127L425.143 130.773ZM517.774 38.1422L518.127 37.7887L517.774 37.4351L517.42 37.7887L517.774 38.1422ZM426.557 132.187L426.203 132.541L426.557 132.895L426.91 132.541L426.557 132.187ZM519.188 39.5564L519.541 39.91L519.895 39.5564L519.541 39.2029L519.188 39.5564ZM546.058 66.4264L546.411 66.0728L546.058 65.7193L545.704 66.0728L546.058 66.4264ZM453.427 159.057L453.073 158.704L452.72 159.057L453.073 159.411L453.427 159.057ZM547.472 67.8406L547.826 68.1942L548.179 67.8406L547.826 67.487L547.472 67.8406ZM454.841 160.472L454.487 160.825L454.841 161.179L455.195 160.825L454.841 160.472ZM481.711 187.342L481.357 186.988L481.004 187.342L481.357 187.695L481.711 187.342ZM574.342 94.7107L574.695 94.3571L574.342 94.0036L573.988 94.3571L574.342 94.7107ZM483.125 188.756L482.772 189.109L483.125 189.463L483.479 189.109L483.125 188.756ZM575.756 96.1249L576.11 96.4785L576.463 96.1249L576.11 95.7714L575.756 96.1249ZM411.354 116.985L503.985 24.3536L503.277 23.6464L410.646 116.277L411.354 116.985ZM412.768 117.692L411.354 116.277L410.646 116.985L412.061 118.399L412.768 117.692ZM504.692 25.0607L412.061 117.692L412.768 118.399L505.399 25.7678L504.692 25.0607ZM503.277 24.3536L504.692 25.7678L505.399 25.0607L503.985 23.6464L503.277 24.3536ZM439.638 145.269L532.269 52.6379L531.562 51.9307L438.931 144.562L439.638 145.269ZM441.052 145.976L439.638 144.562L438.931 145.269L440.345 146.683L441.052 145.976ZM532.976 53.345L440.345 145.976L441.052 146.683L533.683 54.0521L532.976 53.345ZM531.562 52.6379L532.976 54.0521L533.683 53.345L532.269 51.9307L531.562 52.6379ZM559.846 80.215L467.215 172.846L467.922 173.553L560.553 80.9221L559.846 80.215ZM561.967 81.6292L560.553 80.215L559.846 80.9221L561.26 82.3363L561.967 81.6292ZM469.336 174.967L561.967 82.3363L561.26 81.6292L468.629 174.26L469.336 174.967ZM467.215 173.553L468.629 174.967L469.336 174.26L467.922 172.846L467.215 173.553ZM425.496 131.127L518.127 38.4958L517.42 37.7887L424.789 130.42L425.496 131.127ZM426.91 131.834L425.496 130.42L424.789 131.127L426.203 132.541L426.91 131.834ZM518.834 39.2029L426.203 131.834L426.91 132.541L519.541 39.91L518.834 39.2029ZM517.42 38.4958L518.834 39.91L519.541 39.2029L518.127 37.7887L517.42 38.4958ZM545.704 66.0728L453.073 158.704L453.78 159.411L546.411 66.7799L545.704 66.0728ZM547.826 67.487L546.411 66.0728L545.704 66.7799L547.118 68.1942L547.826 67.487ZM455.195 160.825L547.826 68.1942L547.118 67.487L454.487 160.118L455.195 160.825ZM453.073 159.411L454.487 160.825L455.195 160.118L453.78 158.704L453.073 159.411ZM482.064 187.695L574.695 95.0642L573.988 94.3571L481.357 186.988L482.064 187.695ZM483.479 188.402L482.064 186.988L481.357 187.695L482.772 189.109L483.479 188.402ZM575.403 95.7714L482.772 188.402L483.479 189.109L576.11 96.4785L575.403 95.7714ZM573.988 95.0642L575.403 96.4785L576.11 95.7714L574.695 94.3571L573.988 95.0642Z" fill="white" mask="url(#path-10-outside-1)"/>
</mask>
<g mask="url(#mask0)">
<path d="M526 160.5H526.5V160V53C526.5 49.4101 523.59 46.5 520 46.5H463C459.41 46.5 456.5 49.4102 456.5 53V160V160.5H457H526Z" fill="white" stroke="white"/>
</g>
<path d="M505.045 100.275C505.943 100.275 506.692 99.8256 507.142 99.0767C509.239 95.4816 511.336 91.8865 513.433 88.1416C513.882 87.2428 514.631 86.9432 515.53 86.9432C518.826 86.9432 522.121 86.9432 525.567 86.9432C526.615 86.9432 527.514 86.9432 528.562 86.9432C529.461 86.9432 530.21 86.1942 530.51 85.2954C530.809 84.3967 530.51 83.4979 529.611 82.8987C528.263 81.9999 526.915 81.1012 525.567 80.2024C518.526 75.5587 511.636 70.915 504.595 66.4211C503.846 65.9717 502.947 65.822 502.198 66.2713C501.449 66.7207 501 67.4697 501 68.3685C501 69.8664 501.15 71.2146 501.3 72.7126C501.3 73.9109 501.449 74.9595 501.449 76.1579C501.599 77.6558 501.599 79.1538 501.749 80.6518C501.899 81.9999 501.899 83.4979 502.049 84.846C502.198 86.344 502.198 87.842 502.348 89.3399C502.498 90.6881 502.498 92.1861 502.648 93.5342C502.798 95.182 502.798 96.8297 502.947 98.4775C502.947 99.5261 504.146 100.275 505.045 100.275Z" fill="#273A5F"/>
<rect x="515.495" y="95.5273" width="78" height="29" rx="5" fill="#273A5F"/>
<path d="M539.095 104.727H533.195V108.647H538.895V110.847H533.195V116.527H530.895V102.527H539.095V104.727ZM542.557 112.447C542.717 113.207 543.083 113.794 543.657 114.207C544.23 114.607 544.93 114.807 545.757 114.807C546.903 114.807 547.763 114.394 548.337 113.567L550.117 114.607C549.13 116.061 547.67 116.787 545.737 116.787C544.11 116.787 542.797 116.294 541.797 115.307C540.797 114.307 540.297 113.047 540.297 111.527C540.297 110.034 540.79 108.787 541.777 107.787C542.763 106.774 544.03 106.267 545.577 106.267C547.043 106.267 548.243 106.781 549.177 107.807C550.123 108.834 550.597 110.081 550.597 111.547C550.597 111.774 550.57 112.074 550.517 112.447H542.557ZM542.537 110.687H548.417C548.27 109.874 547.93 109.261 547.397 108.847C546.877 108.434 546.263 108.227 545.557 108.227C544.757 108.227 544.09 108.447 543.557 108.887C543.023 109.327 542.683 109.927 542.537 110.687ZM557.515 108.607H555.035V113.407C555.035 113.821 555.128 114.121 555.315 114.307C555.501 114.481 555.775 114.581 556.135 114.607C556.508 114.621 556.968 114.614 557.515 114.587V116.527C555.861 116.727 554.675 116.587 553.955 116.107C553.235 115.614 552.875 114.714 552.875 113.407V108.607H551.035V106.527H552.875V104.367L555.035 103.727V106.527H557.515V108.607ZM563.534 116.787C562.027 116.787 560.767 116.281 559.754 115.267C558.754 114.254 558.254 113.007 558.254 111.527C558.254 110.034 558.754 108.787 559.754 107.787C560.767 106.774 562.027 106.267 563.534 106.267C564.507 106.267 565.394 106.501 566.194 106.967C566.994 107.434 567.594 108.061 567.994 108.847L566.134 109.927C565.907 109.447 565.56 109.074 565.094 108.807C564.64 108.527 564.114 108.387 563.514 108.387C562.634 108.387 561.894 108.687 561.294 109.287C560.707 109.887 560.414 110.634 560.414 111.527C560.414 112.421 560.707 113.167 561.294 113.767C561.894 114.367 562.634 114.667 563.514 114.667C564.1 114.667 564.627 114.527 565.094 114.247C565.574 113.967 565.934 113.594 566.174 113.127L568.034 114.187C567.607 114.987 566.994 115.621 566.194 116.087C565.394 116.554 564.507 116.787 563.534 116.787ZM574.605 106.267C575.752 106.267 576.678 106.634 577.385 107.367C578.092 108.101 578.445 109.107 578.445 110.387V116.527H576.285V110.607C576.285 109.861 576.085 109.287 575.685 108.887C575.285 108.487 574.738 108.287 574.045 108.287C573.285 108.287 572.672 108.527 572.205 109.007C571.738 109.474 571.505 110.194 571.505 111.167V116.527H569.345V102.527H571.505V107.807C572.158 106.781 573.192 106.267 574.605 106.267Z" fill="white"/>
<rect y="134" width="78" height="29" rx="5" fill="#FDBE1D"/>
<path d="M23.6 143.2H17.7V147.12H23.4V149.32H17.7V155H15.4V141H23.6V143.2ZM27.0616 150.92C27.2216 151.68 27.5882 152.267 28.1616 152.68C28.7349 153.08 29.4349 153.28 30.2616 153.28C31.4082 153.28 32.2682 152.867 32.8416 152.04L34.6216 153.08C33.6349 154.533 32.1749 155.26 30.2416 155.26C28.6149 155.26 27.3016 154.767 26.3016 153.78C25.3016 152.78 24.8016 151.52 24.8016 150C24.8016 148.507 25.2949 147.26 26.2816 146.26C27.2682 145.247 28.5349 144.74 30.0816 144.74C31.5482 144.74 32.7482 145.253 33.6816 146.28C34.6282 147.307 35.1016 148.553 35.1016 150.02C35.1016 150.247 35.0749 150.547 35.0216 150.92H27.0616ZM27.0416 149.16H32.9216C32.7749 148.347 32.4349 147.733 31.9016 147.32C31.3816 146.907 30.7682 146.7 30.0616 146.7C29.2616 146.7 28.5949 146.92 28.0616 147.36C27.5282 147.8 27.1882 148.4 27.0416 149.16ZM42.0197 147.08H39.5397V151.88C39.5397 152.293 39.633 152.593 39.8197 152.78C40.0064 152.953 40.2797 153.053 40.6397 153.08C41.013 153.093 41.473 153.087 42.0197 153.06V155C40.3664 155.2 39.1797 155.06 38.4597 154.58C37.7397 154.087 37.3797 153.187 37.3797 151.88V147.08H35.5397V145H37.3797V142.84L39.5397 142.2V145H42.0197V147.08ZM48.0386 155.26C46.5319 155.26 45.2719 154.753 44.2586 153.74C43.2586 152.727 42.7586 151.48 42.7586 150C42.7586 148.507 43.2586 147.26 44.2586 146.26C45.2719 145.247 46.5319 144.74 48.0386 144.74C49.0119 144.74 49.8986 144.973 50.6986 145.44C51.4986 145.907 52.0986 146.533 52.4986 147.32L50.6386 148.4C50.4119 147.92 50.0653 147.547 49.5986 147.28C49.1453 147 48.6186 146.86 48.0186 146.86C47.1386 146.86 46.3986 147.16 45.7986 147.76C45.2119 148.36 44.9186 149.107 44.9186 150C44.9186 150.893 45.2119 151.64 45.7986 152.24C46.3986 152.84 47.1386 153.14 48.0186 153.14C48.6053 153.14 49.1319 153 49.5986 152.72C50.0786 152.44 50.4386 152.067 50.6786 151.6L52.5386 152.66C52.1119 153.46 51.4986 154.093 50.6986 154.56C49.8986 155.027 49.0119 155.26 48.0386 155.26ZM59.1098 144.74C60.2565 144.74 61.1832 145.107 61.8898 145.84C62.5965 146.573 62.9498 147.58 62.9498 148.86V155H60.7898V149.08C60.7898 148.333 60.5898 147.76 60.1898 147.36C59.7898 146.96 59.2432 146.76 58.5498 146.76C57.7898 146.76 57.1765 147 56.7098 147.48C56.2432 147.947 56.0098 148.667 56.0098 149.64V155H53.8498V141H56.0098V146.28C56.6632 145.253 57.6965 144.74 59.1098 144.74Z" fill="white"/>
<path d="M265.636 103.127H98.3491V270.414H265.636V103.127Z" stroke="#273A5F" stroke-width="3" stroke-miterlimit="10"/>
<path d="M272.245 96H259.287V108.958H272.245V96Z" fill="white" stroke="#273A5F" stroke-width="3" stroke-miterlimit="10"/>
<path d="M104.958 96H92.0005V108.958H104.958V96Z" fill="white" stroke="#273A5F" stroke-width="3" stroke-miterlimit="10"/>
<path d="M272.245 263.805H259.287V276.763H272.245V263.805Z" fill="white" stroke="#273A5F" stroke-width="3" stroke-miterlimit="10"/>
<path d="M104.958 263.805H92V276.763H104.958V263.805Z" fill="white" stroke="#273A5F" stroke-width="3" stroke-miterlimit="10"/>
<path d="M270.044 306.275C270.943 306.275 271.692 305.826 272.142 305.077C274.239 301.482 276.336 297.886 278.433 294.142C278.882 293.243 279.631 292.943 280.53 292.943C283.826 292.943 287.121 292.943 290.567 292.943C291.615 292.943 292.514 292.943 293.562 292.943C294.461 292.943 295.21 292.194 295.51 291.295C295.809 290.397 295.51 289.498 294.611 288.899C293.263 288 291.915 287.101 290.567 286.202C283.526 281.559 276.636 276.915 269.595 272.421C268.846 271.972 267.947 271.822 267.198 272.271C266.449 272.721 266 273.47 266 274.368C266 275.866 266.15 277.215 266.3 278.713C266.3 279.911 266.449 280.96 266.449 282.158C266.599 283.656 266.599 285.154 266.749 286.652C266.899 288 266.899 289.498 267.049 290.846C267.198 292.344 267.198 293.842 267.348 295.34C267.498 296.688 267.498 298.186 267.648 299.534C267.798 301.182 267.798 302.83 267.947 304.477C267.947 305.526 268.996 306.425 270.044 306.275Z" fill="#ED5F42"/>
<path d="M91.5777 136.275C90.6789 136.275 89.9299 135.826 89.4805 135.077C87.3834 131.482 85.2862 127.886 83.1891 124.142C82.7397 123.243 81.9907 122.943 81.092 122.943C77.7964 122.943 74.5009 122.943 71.0556 122.943C70.007 122.943 69.1083 122.943 68.0597 122.943C67.1609 122.943 66.4119 122.194 66.1123 121.295C65.8128 120.397 66.1123 119.498 67.0111 118.899C68.3593 118 69.7075 117.101 71.0556 116.202C78.096 111.559 84.9867 106.915 92.0271 102.421C92.776 101.972 93.6748 101.822 94.4238 102.271C95.1728 102.721 95.6222 103.47 95.6222 104.368C95.6222 105.866 95.4724 107.215 95.3226 108.713C95.3226 109.911 95.1728 110.96 95.1728 112.158C95.023 113.656 95.023 115.154 94.8732 116.652C94.7234 118 94.7234 119.498 94.5736 120.846C94.4238 122.344 94.4238 123.842 94.274 125.34C94.1242 126.688 94.1242 128.186 93.9744 129.534C93.8246 131.182 93.8246 132.83 93.6748 134.477C93.6748 135.526 92.4765 136.275 91.5777 136.275Z" fill="#FDBE1D"/>
<rect x="284" y="300" width="78" height="29" rx="5" fill="#ED5F42"/>
<path d="M307.6 309.2H301.7V313.12H307.4V315.32H301.7V321H299.4V307H307.6V309.2ZM311.062 316.92C311.222 317.68 311.588 318.267 312.162 318.68C312.735 319.08 313.435 319.28 314.262 319.28C315.408 319.28 316.268 318.867 316.842 318.04L318.622 319.08C317.635 320.533 316.175 321.26 314.242 321.26C312.615 321.26 311.302 320.767 310.302 319.78C309.302 318.78 308.802 317.52 308.802 316C308.802 314.507 309.295 313.26 310.282 312.26C311.268 311.247 312.535 310.74 314.082 310.74C315.548 310.74 316.748 311.253 317.682 312.28C318.628 313.307 319.102 314.553 319.102 316.02C319.102 316.247 319.075 316.547 319.022 316.92H311.062ZM311.042 315.16H316.922C316.775 314.347 316.435 313.733 315.902 313.32C315.382 312.907 314.768 312.7 314.062 312.7C313.262 312.7 312.595 312.92 312.062 313.36C311.528 313.8 311.188 314.4 311.042 315.16ZM326.02 313.08H323.54V317.88C323.54 318.293 323.633 318.593 323.82 318.78C324.006 318.953 324.28 319.053 324.64 319.08C325.013 319.093 325.473 319.087 326.02 319.06V321C324.366 321.2 323.18 321.06 322.46 320.58C321.74 320.087 321.38 319.187 321.38 317.88V313.08H319.54V311H321.38V308.84L323.54 308.2V311H326.02V313.08ZM332.039 321.26C330.532 321.26 329.272 320.753 328.259 319.74C327.259 318.727 326.759 317.48 326.759 316C326.759 314.507 327.259 313.26 328.259 312.26C329.272 311.247 330.532 310.74 332.039 310.74C333.012 310.74 333.899 310.973 334.699 311.44C335.499 311.907 336.099 312.533 336.499 313.32L334.639 314.4C334.412 313.92 334.065 313.547 333.599 313.28C333.145 313 332.619 312.86 332.019 312.86C331.139 312.86 330.399 313.16 329.799 313.76C329.212 314.36 328.919 315.107 328.919 316C328.919 316.893 329.212 317.64 329.799 318.24C330.399 318.84 331.139 319.14 332.019 319.14C332.605 319.14 333.132 319 333.599 318.72C334.079 318.44 334.439 318.067 334.679 317.6L336.539 318.66C336.112 319.46 335.499 320.093 334.699 320.56C333.899 321.027 333.012 321.26 332.039 321.26ZM343.11 310.74C344.257 310.74 345.183 311.107 345.89 311.84C346.597 312.573 346.95 313.58 346.95 314.86V321H344.79V315.08C344.79 314.333 344.59 313.76 344.19 313.36C343.79 312.96 343.243 312.76 342.55 312.76C341.79 312.76 341.177 313 340.71 313.48C340.243 313.947 340.01 314.667 340.01 315.64V321H337.85V307H340.01V312.28C340.663 311.253 341.697 310.74 343.11 310.74Z" fill="white"/>
</svg>
