<svg width="140" height="316" viewBox="0 0 140 316" fill="none" xmlns="http://www.w3.org/2000/svg">
<path d="M134.494 238.519C137.039 225.791 136.615 212.638 136.615 199.91C136.615 197.789 137.039 195.667 137.463 193.546C137.039 187.182 123.887 160.029 118.795 160.453C113.704 160.877 91.2179 135.421 86.9752 131.603C82.7325 127.36 84.0055 120.572 78.0657 115.056C72.1259 109.541 71.7019 95.9642 72.9747 86.206C74.2475 76.4478 87.3995 74.3265 86.9752 67.5381C86.551 60.7498 88.2483 55.2343 94.6123 54.8101C100.976 54.3858 107.34 48.8703 109.886 43.779C110.31 42.9305 110.735 42.5062 111.583 42.082C109.886 39.9606 108.613 38.6877 107.34 38.6877C101.825 37.8392 87.8241 26.8082 87.8241 22.5656C87.8241 18.3229 95.0365 11.5345 82.3084 9.83747C70.0046 8.14039 68.3073 3.04911 66.1859 0.50349C63.6403 -2.04213 53.8823 5.59475 50.4882 11.5345C47.5183 17.4743 44.1242 9.83747 37.3359 14.0802C30.1233 18.3229 23.335 8.14039 20.3651 14.0802C17.3953 20.0199 9.33414 10.686 5.51571 15.7772C4.2429 17.8986 2.12135 19.1714 0 20.4442C3.39416 24.6869 7.21289 28.5054 7.21289 31.4752C7.21289 36.9907 17.3949 40.8091 17.3949 47.5974C17.3949 54.3857 29.699 59.9013 33.5174 56.9314C37.3358 54.3858 45.821 51.4159 47.0938 61.1741C48.3666 70.508 53.4579 70.508 53.4579 77.2963C53.4579 84.0846 41.154 79.842 38.6084 86.6303C36.0628 93.4186 59.8219 101.48 59.8219 106.995C59.8219 112.511 67.4588 119.299 70.0045 125.663C72.5501 132.451 83.5813 140.513 86.1269 148.574C88.6725 156.635 98.4304 160.877 102.249 164.696C106.067 168.939 107.34 178.272 106.067 186.334C104.795 194.395 104.795 209.244 112.431 221.548C120.068 233.852 103.522 238.943 98.855 245.731C93.7638 252.52 96.3095 261.854 81.4601 258.035C66.6106 253.792 84.0057 271.612 81.4601 276.703C78.9144 282.219 58.9736 271.188 58.9736 276.703C58.9736 280.097 52.1851 284.34 46.6696 286.885C48.791 289.855 51.7608 291.552 55.5792 294.098C60.2462 297.068 49.6397 302.584 50.064 312.766C50.064 313.615 50.0639 314.463 50.4882 315.312C52.6095 314.039 54.3066 312.766 56.8522 312.342C60.6706 309.796 64.9133 308.523 69.5803 308.099C71.2774 308.099 72.5501 308.099 74.2472 308.523C75.0957 304.281 77.2171 300.462 80.187 297.492C81.8841 295.795 84.0055 294.522 86.5511 293.249C86.9753 291.128 86.9754 288.582 88.2483 286.885C90.3696 282.643 93.3396 284.34 100.552 284.764C105.219 284.764 111.159 281.794 117.098 277.976C117.098 277.552 117.098 277.127 117.098 276.703C116.674 271.612 119.644 265.672 123.462 262.278C127.281 258.459 133.221 256.338 138.736 256.338H139.161C134.494 251.247 133.221 244.883 134.494 238.519Z" fill="white"/>
</svg>
