<svg width="24" height="24" viewBox="0 0 24 24" fill="none" xmlns="http://www.w3.org/2000/svg">
<path d="M10.1538 9.35433C10.1538 10.4391 10.9821 11.3219 11.9999 11.3219C13.0178 11.3219 13.8461 10.4391 13.8461 9.35433C13.8461 8.26952 13.0178 7.38672 11.9999 7.38672C10.9821 7.38672 10.1538 8.26952 10.1538 9.35433ZM15.282 15.6944H15.6922V15.2572C15.6922 13.5698 14.4036 12.1964 12.8204 12.1964H11.1794C9.59582 12.1964 8.30762 13.5698 8.30762 15.2572V15.6944H15.282Z" fill="#5B718D"/>
<path fill-rule="evenodd" clip-rule="evenodd" d="M0.0271122 11.595C0.03233 11.3837 0.0375478 11.1724 0.0101526 10.961C-0.053769 10.4594 0.189135 10.1893 0.598234 9.98352C0.994547 9.81631 1.38767 9.6491 1.78078 9.48189C2.1739 9.31468 2.56702 9.14747 2.96334 8.98026C3.46193 8.77447 3.74318 8.00273 3.52585 7.5011C3.1807 6.70372 2.84834 5.89347 2.51598 5.08322L2.51589 5.083C2.37526 4.76145 2.45196 4.49134 2.72043 4.24696C3.21902 3.79678 3.70483 3.33374 4.15228 2.83211C4.48467 2.4591 4.82985 2.43338 5.23895 2.58773C5.52981 2.70101 5.82239 2.81255 6.11543 2.92427C6.62096 3.117 7.12785 3.31025 7.62962 3.51381C8.11542 3.70674 8.89527 3.38519 9.08703 2.89642C9.3336 2.2812 9.58778 1.67363 9.8437 1.06191C9.91951 0.880712 9.99547 0.699147 10.0714 0.51691C10.2248 0.143905 10.4933 -0.0104445 10.9152 0.00241776C11.6055 0.0281423 12.2831 0.0281424 12.9735 0.00241794C13.3826 -0.0233065 13.651 0.156768 13.8172 0.516911C14.1496 1.2372 14.482 1.97034 14.7888 2.70349C15.1085 3.47522 15.7477 3.73247 16.5275 3.39805C16.9546 3.20959 17.3861 3.03438 17.8168 2.85948C18.121 2.73597 18.4248 2.6126 18.7264 2.48483C19.1099 2.33049 19.404 2.38193 19.698 2.69063C20.1583 3.17939 20.6313 3.66816 21.1299 4.10547C21.4878 4.41417 21.539 4.74859 21.3728 5.14732C21.066 5.93188 20.7464 6.71644 20.4268 7.501L20.4267 7.5011C20.2222 7.98987 20.5418 8.72302 21.0276 8.91595C21.4047 9.06386 21.7819 9.21499 22.159 9.36612C22.5361 9.51725 22.9133 9.66839 23.2904 9.81631C23.789 10.0092 24.0447 10.3051 23.9936 10.8839C23.9424 11.5013 23.9552 12.1315 23.9936 12.7618C24.0191 13.1991 23.8402 13.4563 23.4822 13.6107C22.7279 13.9451 21.9736 14.2666 21.2066 14.5882C20.4907 14.8969 20.2222 15.5657 20.5418 16.2731C20.8256 16.9102 21.0908 17.5566 21.3533 18.1964C21.3982 18.3058 21.443 18.4151 21.4878 18.524C21.6285 18.8713 21.5645 19.1543 21.2833 19.4115C20.7847 19.8746 20.2989 20.3376 19.8514 20.8392C19.519 21.2122 19.1739 21.238 18.7648 21.0836C18.4739 20.9704 18.1814 20.8588 17.8884 20.7471C17.3828 20.5544 16.8759 20.3611 16.3741 20.1575C15.8499 19.9517 15.1085 20.2862 14.9039 20.8135C14.667 21.4095 14.4224 21.9978 14.1761 22.5903C14.1034 22.765 14.0307 22.9401 13.9579 23.1159C13.7917 23.5275 13.5104 23.7075 13.0502 23.6818C12.3598 23.6432 11.6822 23.6561 10.9919 23.6818C10.6084 23.6947 10.3655 23.5532 10.2121 23.2188C9.85409 22.4213 9.49613 21.611 9.15095 20.8135C8.92083 20.2862 8.17934 19.9903 7.65518 20.209C6.81142 20.5434 5.96765 20.8778 5.13667 21.2122C4.82985 21.3409 4.57416 21.2637 4.34404 21.0193C3.84545 20.5048 3.33408 19.9903 2.80992 19.5016C2.52867 19.2315 2.47753 18.9485 2.60537 18.6141L3.5642 16.2217C3.79432 15.6429 3.48749 14.9098 2.92498 14.6911C2.54145 14.5432 2.15792 14.3888 1.77439 14.2345C1.39086 14.0801 1.00733 13.9258 0.623802 13.7779C0.189135 13.6107 -0.0281995 13.3277 0.0229379 12.8389C0.039947 12.6165 0.0343262 12.3997 0.0286567 12.181C0.0258035 12.071 0.022938 11.9605 0.022938 11.8485C0.022938 11.764 0.0250251 11.6795 0.0271122 11.595ZM11.9853 18.7401C15.6469 18.7401 18.6151 15.7719 18.6151 12.1103C18.6151 8.44875 15.6469 5.48047 11.9853 5.48047C8.32375 5.48047 5.35547 8.44875 5.35547 12.1103C5.35547 15.7719 8.32375 18.7401 11.9853 18.7401Z" fill="#BAC9D7"/>
</svg>
