<svg width="26" height="20" viewBox="0 0 26 20" fill="none" xmlns="http://www.w3.org/2000/svg">
<path d="M14.8028 11.3472C17.8168 9.85021 20.9559 8.25492 23.9433 6.78242C24.3783 6.56805 24.3802 5.94806 23.9474 5.72959C23.6472 5.57811 23.3477 5.42533 23.0491 5.27013C20.3855 3.89104 17.6147 2.46496 14.9102 1.06106C13.6325 0.39782 12.1115 0.400218 10.8353 1.06627C7.83755 2.63078 4.72346 4.23576 1.75835 5.78281C1.33351 6.00447 1.34137 6.61466 1.77144 6.826C4.70365 8.26697 7.94957 9.87458 10.9393 11.349C12.1577 11.9499 13.586 11.9515 14.8028 11.3472Z" fill="#BAC9D7"/>
<path d="M1.81152 9.88727L10.8432 14.4708C12.1147 15.116 13.6205 15.1032 14.8809 14.4364L23.9303 9.64844" stroke="#5B718D" stroke-width="1.8" stroke-linecap="round"/>
<path d="M1.81152 13.457L10.8519 18.1425C12.1179 18.7987 13.6239 18.7987 14.89 18.1425L23.9303 13.457" stroke="#5B718D" stroke-width="1.8" stroke-linecap="round"/>
</svg>
