<svg width="27" height="24" viewBox="0 0 27 24" xmlns="http://www.w3.org/2000/svg" stroke="#5B718D" fill="#5B718D" >
<line x1="6.91038" y1="8.3611" x2="19.8894" y2="8.3611" stroke-width="1.42623" stroke-linecap="round"/>
<line x1="6.91038" y1="12.0408" x2="19.8894" y2="12.0408" stroke-width="1.42623" stroke-linecap="round"/>
<line x1="6.91038" y1="16.0603" x2="19.8894" y2="16.0603" stroke-width="1.42623" stroke-linecap="round"/>
<circle cx="13.4438" cy="16.0034" r="1.62444" />
<circle cx="19.1069" cy="11.933" r="1.62444" />
<circle cx="10.2192" cy="8.21429" r="1.62444" />
<path d="M7.52087 22.6625C7.52087 23.0669 7.21091 23.4092 6.80646 23.4097C5.61319 23.4112 4.66847 23.1308 3.97229 22.5685C3.16018 21.9146 2.75412 20.8603 2.75412 19.4054V15.3105C2.75412 14.3297 2.54227 13.684 2.11856 13.3734C1.8168 13.1522 1.37176 13.0097 0.783459 12.9461C0.352623 12.8994 0 12.5562 0 12.1228C0 11.6895 0.352623 11.3462 0.783459 11.2996C1.37176 11.2359 1.8168 11.0935 2.11856 10.8723C2.54227 10.5617 2.75412 9.91599 2.75412 8.93517V4.84027C2.75412 3.38539 3.16018 2.33101 3.97229 1.67714C4.66847 1.11482 5.61319 0.834423 6.80646 0.835944C7.21091 0.836459 7.52087 1.17872 7.52087 1.58316C7.52087 2.04157 7.12578 2.39194 6.66765 2.40779C6.03803 2.42958 5.55446 2.56201 5.21694 2.80508C4.74027 3.14836 4.50193 3.82676 4.50193 4.84027V8.93517C4.50193 10.6843 3.8134 11.7468 2.43634 12.1228C3.8134 12.4988 4.50193 13.5614 4.50193 15.3105V19.4054C4.50193 20.4189 4.74027 21.0973 5.21694 21.4406C5.55446 21.6836 6.03803 21.8161 6.66765 21.8379C7.12578 21.8537 7.52087 22.2041 7.52087 22.6625Z" />
<path d="M20.1935 23.4097C19.7891 23.4092 19.4791 23.0669 19.4791 22.6625C19.4791 22.2041 19.8742 21.8537 20.3323 21.8379C20.962 21.8161 21.4455 21.6836 21.7831 21.4406C22.2597 21.0973 22.4981 20.4189 22.4981 19.4054V15.3105C22.4981 13.5614 23.1866 12.4988 24.5637 12.1228C23.1866 11.7468 22.4981 10.6843 22.4981 8.93517V4.84027C22.4981 3.82676 22.2597 3.14836 21.7831 2.80508C21.4455 2.56201 20.962 2.42958 20.3324 2.40779C19.8742 2.39194 19.4791 2.04157 19.4791 1.58316C19.4791 1.17872 19.7891 0.836422 20.1935 0.835943C21.3841 0.834531 22.32 1.11493 23.0012 1.67714C23.831 2.33101 24.2459 3.38539 24.2459 4.84027V8.93517C24.2459 9.91599 24.4577 10.5617 24.8814 10.8723C25.1832 11.0935 25.6282 11.2359 26.2165 11.2996C26.6474 11.3462 27 11.6895 27 12.1228C27 12.5562 26.6474 12.8994 26.2165 12.9461C25.6282 13.0097 25.1832 13.1522 24.8814 13.3734C24.4577 13.684 24.2459 14.3297 24.2459 15.3105V19.4054C24.2459 20.8603 23.831 21.9146 23.0012 22.5685C22.32 23.1307 21.3841 23.4111 20.1935 23.4097Z" />
</svg>
